<svg xmlns="http://www.w3.org/2000/svg" xmlns:xlink="http://www.w3.org/1999/xlink" fill="none" version="1.1" width="16" height="16" viewBox="0 0 16 16"><g><g><path d="M10.530319230422974,3.4696293007354737L10.530469230422973,3.4697833007354735L14.530359230422974,7.4696313007354735Q14.582559230422973,7.521861300735473,14.623559230422973,7.583281300735473Q14.664659230422973,7.644701300735473,14.692859230422973,7.712941300735474Q14.721159230422973,7.781191300735474,14.735559230422973,7.8536413007354735Q14.749959230422974,7.926091300735473,14.749959230422974,7.999961300735474Q14.749959230422974,8.073831300735474,14.735559230422973,8.146281300735474Q14.721159230422973,8.218721300735474,14.692859230422973,8.286971300735473Q14.664659230422973,8.355221300735472,14.623559230422973,8.416641300735474Q14.582559230422973,8.478051300735473,14.530359230422974,8.530291300735474L10.530779230422974,12.529831300735474L10.530319230422974,12.530291300735474Q10.424829230422974,12.635781300735474,10.286999230422973,12.692871300735474Q10.149169230422974,12.749961300735473,9.999989230422974,12.749961300735473Q9.850809230422973,12.749961300735473,9.712979230422974,12.692871300735474Q9.575149230422973,12.635781300735474,9.469659230422973,12.530291300735474Q9.370779230422974,12.431411300735475,9.314179230422974,12.303531300735473Q9.257569230422973,12.175661300735474,9.250859230422973,12.035981300735473Q9.249989230422974,12.017981300735473,9.249989230422974,11.999961300735473Q9.249989230422974,11.850771300735474,9.307079230422973,11.712941300735473Q9.364169230422974,11.575121300735473,9.469659230422973,11.469631300735474L12.189359230422973,8.749961300735475L1.9999902304229735,8.749961300735475Q1.9261212304229738,8.749961300735475,1.8536722304229736,8.735551300735473Q1.7812232304229736,8.721141300735473,1.7129772304229736,8.692871300735472Q1.6447312304229738,8.664601300735473,1.5833122304229736,8.623561300735474Q1.5218922304229736,8.582521300735474,1.4696592304229736,8.530291300735474Q1.4174262304229737,8.478051300735473,1.3763872304229736,8.416631300735474Q1.3353483304229736,8.355221300735472,1.3070801304229736,8.286971300735473Q1.2788118304229736,8.218721300735474,1.2644008304229737,8.146281300735474Q1.2499897480229736,8.073831300735474,1.2499897480229736,7.999961300735474Q1.2499897480229736,7.926091300735473,1.2644008304229737,7.8536413007354735Q1.2788118304229736,7.781191300735474,1.3070801304229736,7.712941300735474Q1.3353483304229736,7.644701300735473,1.3763872304229736,7.583281300735473Q1.4174262304229737,7.521861300735473,1.4696592304229736,7.4696313007354735Q1.5218922304229736,7.417391300735473,1.5833122304229736,7.376361300735474Q1.6447312304229738,7.335321300735473,1.7129772304229736,7.307051300735473Q1.7812232304229736,7.278781300735473,1.8536722304229736,7.2643713007354735Q1.9261212304229738,7.249961300735474,1.9999902304229735,7.249961300735474L12.189359230422973,7.249961300735474L9.469809230422973,4.530441300735474L9.469659230422973,4.530291300735474Q9.364169230422974,4.424801300735473,9.307079230422973,4.286971300735473Q9.249989230422974,4.149143300735473,9.249989230422974,3.9999593007354735Q9.249989230422974,3.8507753007354735,9.307079230422973,3.7129463007354735Q9.364169230422974,3.5751183007354737,9.469659230422973,3.4696293007354737Q9.575149230422973,3.3641403007354738,9.712979230422974,3.3070496007354735Q9.850809230422973,3.249959261735474,9.999989230422974,3.2499592897354734Q10.149169230422974,3.2499592897354734,10.286999230422973,3.3070496007354735Q10.424829230422974,3.3641403007354738,10.530319230422974,3.4696293007354737Z" fill-rule="evenodd" fill="#595959" fill-opacity="1"/></g></g></svg>