<svg xmlns="http://www.w3.org/2000/svg" xmlns:xlink="http://www.w3.org/1999/xlink" fill="none" version="1.1" width="16" height="16" viewBox="0 0 16 16"><g><g><ellipse cx="8.000325202941895" cy="7.9998369216918945" rx="6.8333330154418945" ry="6.8333330154418945" fill-opacity="0" stroke-opacity="1" stroke="#EB4100" fill="none" stroke-width="1"/></g><g><path d="M7.248046875,4.39990234375Q7.248046875,4.32603384375,7.262457875,4.25358434375Q7.276868875,4.18113534375,7.305136875,4.11288934375Q7.333405875,4.04464434375,7.374444875,3.98322434375Q7.415483875,3.92180534375,7.467716875,3.86957234375Q7.519949875,3.81733934375,7.581368875,3.77630034375Q7.642788875,3.73526134375,7.711033875,3.70699234375Q7.779279875,3.67872434375,7.851728875,3.66431334375Q7.924178375,3.64990234375,7.998046875,3.64990234375Q8.071915375,3.64990234375,8.144364875,3.66431334375Q8.216813875,3.67872434375,8.285059875,3.70699234375Q8.353304875,3.73526134375,8.414724875,3.77630034375Q8.476143875,3.81733934375,8.528376875,3.86957234375Q8.580609875,3.92180534375,8.621648875,3.98322434375Q8.662687875,4.04464434375,8.690956875,4.11288934375Q8.719224875,4.18113534375,8.733635875000001,4.25358434375Q8.748046875,4.32603384375,8.748046875,4.39990234375L8.748046875,8.39990234375Q8.748046875,8.47377234375,8.733635875000001,8.54622234375Q8.719224875,8.61867234375,8.690956875,8.68691234375Q8.662687875,8.755162343750001,8.621648875,8.81658234375Q8.580609875,8.878002343750001,8.528376875,8.93023234375Q8.476143875,8.98246234375,8.414724875,9.02350234375Q8.353304875,9.06454234375,8.285059875,9.092812343750001Q8.216813875,9.12108234375,8.144364875,9.13549234375Q8.071915375,9.14990234375,7.998046875,9.14990234375Q7.924178375,9.14990234375,7.851728875,9.13549234375Q7.779279875,9.12108234375,7.711033875,9.092812343750001Q7.642788875,9.06454234375,7.581368875,9.02350234375Q7.519949875,8.98246234375,7.467716875,8.93023234375Q7.415483875,8.878002343750001,7.374444875,8.81658234375Q7.333405875,8.755162343750001,7.305136875,8.68691234375Q7.276868875,8.61867234375,7.262457875,8.54622234375Q7.248046875,8.47377234375,7.248046875,8.39990234375L7.248046875,4.39990234375Z" fill-rule="evenodd" fill="#EB4100" fill-opacity="1"/></g><g><ellipse cx="8.000195324420929" cy="10.800000011920929" rx="0.800000011920929" ry="0.800000011920929" fill="#EB4100" fill-opacity="1"/></g></g></svg>