<svg xmlns="http://www.w3.org/2000/svg" xmlns:xlink="http://www.w3.org/1999/xlink" fill="none" version="1.1" width="16" height="16" viewBox="0 0 16 16"><defs><clipPath id="master_svg0_3_09358"><rect x="0" y="0" width="16" height="16" rx="0"/></clipPath></defs><g clip-path="url(#master_svg0_3_09358)"><g transform="matrix(-1,0,0,1,14.6666259765625,0)"><path d="M13.33331298828125,7.25L7.33331298828125,7.25Q7.25944448828125,7.25,7.18699498828125,7.264411Q7.11454598828125,7.278822,7.04629998828125,7.30709Q6.97805498828125,7.335359,6.91663498828125,7.376398Q6.85521598828125,7.417437,6.80298298828125,7.46967Q6.75074998828125,7.521903,6.70971098828125,7.583322Q6.66867198828125,7.644742,6.64040298828125,7.712987Q6.61213498828125,7.781233,6.59772398828125,7.853682Q6.58331298828125,7.9261315,6.58331298828125,8Q6.58331298828125,8.0738685,6.59772398828125,8.146318Q6.61213498828125,8.218767,6.64040298828125,8.287013Q6.66867198828125,8.355258,6.70971098828125,8.416678Q6.75074998828125,8.478097,6.80298298828125,8.53033Q6.85521598828125,8.582563,6.91663498828125,8.623602Q6.97805498828125,8.664641,7.04629998828125,8.69291Q7.11454598828125,8.721178,7.18699498828125,8.735589000000001Q7.25944448828125,8.75,7.33331298828125,8.75L13.33331298828125,8.75Q13.40718298828125,8.75,13.47963298828125,8.735589000000001Q13.55208298828125,8.721178,13.62032298828125,8.69291Q13.688572988281251,8.664641,13.74999298828125,8.623602Q13.811412988281251,8.582563,13.86364298828125,8.53033Q13.91587298828125,8.478097,13.95691298828125,8.416678Q13.99795298828125,8.355258,14.026222988281251,8.287013Q14.05449298828125,8.218767,14.06890298828125,8.146318Q14.08331298828125,8.0738685,14.08331298828125,8Q14.08331298828125,7.9261315,14.06890298828125,7.853682Q14.05449298828125,7.781233,14.026222988281251,7.712987Q13.99795298828125,7.644742,13.95691298828125,7.583322Q13.91587298828125,7.521903,13.86364298828125,7.46967Q13.811412988281251,7.417437,13.74999298828125,7.376398Q13.688572988281251,7.335359,13.62032298828125,7.30709Q13.55208298828125,7.278822,13.47963298828125,7.264411Q13.40718298828125,7.25,13.33331298828125,7.25Z" fill-rule="evenodd" fill="#595959" fill-opacity="1"/></g><g transform="matrix(-1,0,0,1,14.6666259765625,0)"><path d="M9.86364298828125,6.53033L9.86407298828125,6.529901Q9.867072988281251,6.526895,9.87004298828125,6.523856L9.87046298828125,6.523421Q9.97282298828125,6.418381,10.028062988281249,6.282522Q10.08331298828125,6.146663,10.08331298828125,6Q10.08331298828125,5.850816,10.02622298828125,5.712987Q9.969132988281249,5.575159,9.86364298828125,5.46967Q9.75815298828125,5.364181,9.62032298828125,5.30709Q9.48249298828125,5.25,9.33331298828125,5.25Q9.18413298828125,5.25,9.04630298828125,5.30709Q8.90847298828125,5.364181,8.80298298828125,5.46967L8.80283298828125,5.469824L6.80298298828125,7.46967Q6.75074998828125,7.5219000000000005,6.70971098828125,7.5833200000000005Q6.66867198828125,7.6447400000000005,6.64040298828125,7.71299Q6.61213498828125,7.78123,6.59772398828125,7.85368Q6.58331298828125,7.92613,6.58331298828125,8Q6.58331298828125,8.07387,6.59772398828125,8.14632Q6.61213498828125,8.21877,6.64040298828125,8.28701Q6.66867198828125,8.35526,6.70971098828125,8.41668Q6.75074998828125,8.4781,6.80298298828125,8.53033L8.80298298828125,10.53033Q8.90847298828125,10.635819999999999,9.04630298828125,10.692910000000001Q9.18413298828125,10.75,9.33331298828125,10.75Q9.48249298828125,10.75,9.62032298828125,10.692910000000001Q9.75815298828125,10.635819999999999,9.86364298828125,10.53033Q9.969132988281249,10.42484,10.02622298828125,10.28701Q10.08331298828125,10.149180000000001,10.08331298828125,10Q10.08331298828125,9.85082,10.02622298828125,9.71299Q9.969132988281249,9.57516,9.86364298828125,9.46967L8.39397298828125,8L9.86364298828125,6.53033Z" fill-rule="evenodd" fill="#595959" fill-opacity="1"/></g><g><path d="M2.75,13L2.75,11Q2.75,10.92613,2.735589,10.85368Q2.721178,10.78123,2.69291,10.71299Q2.664641,10.64474,2.623602,10.58332Q2.582563,10.5219,2.53033,10.46967Q2.478097,10.41744,2.416678,10.3764Q2.355258,10.33536,2.287013,10.30709Q2.218767,10.27882,2.146318,10.26441Q2.0738685,10.25,2,10.25Q1.9261314999999999,10.25,1.853682,10.26441Q1.781233,10.27882,1.712987,10.30709Q1.644742,10.33536,1.583322,10.3764Q1.521903,10.41744,1.46967,10.46967Q1.417437,10.5219,1.376398,10.58332Q1.335359,10.64474,1.30709,10.71299Q1.278822,10.78123,1.264411,10.85368Q1.25,10.92613,1.25,11L1.25,13Q1.25,13.7249,1.762563,14.2374Q2.275127,14.75,3,14.75L13,14.75Q13.7249,14.75,14.2374,14.2374Q14.75,13.7249,14.75,13L14.75,3Q14.75,2.275127,14.2374,1.762563Q13.7249,1.25,13,1.25L3,1.25Q2.275126,1.25,1.762563,1.762563Q1.25,2.275126,1.25,3L1.25,5Q1.25,5.073869999999999,1.264411,5.146319999999999Q1.278822,5.21877,1.30709,5.28701Q1.335359,5.3552599999999995,1.376398,5.4166799999999995Q1.417437,5.4780999999999995,1.46967,5.53033Q1.521903,5.58256,1.583322,5.6236Q1.644742,5.66464,1.712987,5.6929099999999995Q1.781233,5.72118,1.853682,5.73559Q1.9261314999999999,5.75,2,5.75Q2.0738685,5.75,2.146318,5.73559Q2.218767,5.72118,2.287013,5.6929099999999995Q2.355258,5.66464,2.416678,5.6236Q2.478097,5.58256,2.53033,5.53033Q2.582563,5.4780999999999995,2.623602,5.4166799999999995Q2.664641,5.3552599999999995,2.69291,5.28701Q2.721178,5.21877,2.735589,5.146319999999999Q2.75,5.073869999999999,2.75,5L2.75,3Q2.75,2.75,3,2.75L13,2.75Q13.25,2.75,13.25,3L13.25,13Q13.25,13.25,13,13.25L3,13.25Q2.75,13.25,2.75,13Z" fill-rule="evenodd" fill="#595959" fill-opacity="1"/></g></g></svg>