<svg xmlns="http://www.w3.org/2000/svg" xmlns:xlink="http://www.w3.org/1999/xlink" fill="none" version="1.1" width="32" height="32" viewBox="0 0 32 32"><g><g><g><path d="M24.250020265579224,22.500081300735474L24.250020265579224,18.927781300735475L24.250120265579223,18.916681300735476L24.250020265579224,18.905581300735474L24.250020265579224,16.000081300735474Q24.250020265579224,15.926211300735474,24.235620265579225,15.853761300735474Q24.221220265579223,15.781311300735474,24.192920265579225,15.713071300735473Q24.164620265579224,15.644821300735472,24.123620265579223,15.583401300735474Q24.082620265579223,15.521981300735472,24.030320265579224,15.469751300735474Q23.978120265579225,15.417521300735473,23.916720265579222,15.376481300735474Q23.855320265579223,15.335441300735473,23.787020265579223,15.307171300735472Q23.718820265579225,15.278901300735473,23.646320265579224,15.264491300735473Q23.573920265579225,15.250081300735474,23.500020265579224,15.250081300735474Q23.426120265579222,15.250081300735474,23.353720265579224,15.264491300735473Q23.281220265579222,15.278901300735473,23.213020265579225,15.307171300735472Q23.144720265579224,15.335441300735473,23.083320265579225,15.376481300735474Q23.021920265579226,15.417521300735473,22.969720265579223,15.469751300735474Q22.917420265579224,15.521981300735472,22.876420265579224,15.583401300735474Q22.835420265579224,15.644821300735472,22.807120265579222,15.713071300735473Q22.778820265579224,15.781311300735474,22.764420265579226,15.853761300735474Q22.750020265579224,15.926211300735474,22.750020265579224,16.000081300735474L22.750020265579224,17.416631300735474L21.195020265579224,16.250351300735474Q20.722220265579224,15.895781300735473,20.132720265579223,15.937661300735474Q19.543220265579222,15.979551300735473,19.125420265579223,16.397401300735474L17.274960265579224,18.24788130073547L14.548990265579224,15.911291300735474Q14.092880265579224,15.520321300735475,13.492190265579223,15.530331300735472Q12.891500265579223,15.540341300735474,12.448670265579224,15.946311300735474L9.250020265579224,18.878381300735473L9.250020265579224,9.500081300735474Q9.250020265579224,9.250081300735474,9.500020265579224,9.250081300735474L16.000020265579224,9.250081300735474Q16.073890265579223,9.250081300735474,16.146340265579223,9.235671300735474Q16.218790265579223,9.221261300735474,16.287030265579226,9.192991300735473Q16.355280265579225,9.164721300735474,16.416700265579223,9.123681300735473Q16.47812026557922,9.082641300735474,16.530350265579223,9.030411300735473Q16.582580265579224,8.978181300735473,16.623620265579223,8.916761300735473Q16.664660265579222,8.855341300735473,16.69293026557922,8.787091300735474Q16.721200265579224,8.718848300735473,16.735610265579226,8.646399300735474Q16.750020265579224,8.573950300735474,16.750020265579224,8.500081300735474Q16.750020265579224,8.426212300735473,16.735610265579226,8.353763300735473Q16.721200265579224,8.281314300735474,16.69293026557922,8.213068300735474Q16.664660265579222,8.144823300735474,16.623620265579223,8.083403300735474Q16.582580265579224,8.021984300735474,16.530350265579223,7.969751300735473Q16.47812026557922,7.917518300735473,16.416700265579223,7.876479300735474Q16.355280265579225,7.835439900735474,16.287030265579226,7.807171600735473Q16.218790265579223,7.778903400735474,16.146340265579223,7.764492300735474Q16.073890265579223,7.750081300735474,16.000020265579224,7.750081300735474L9.500020265579224,7.750081300735474Q8.775150265579224,7.750081300735474,8.262583265579224,8.262644300735474Q7.750020265579224,8.775211300735474,7.750020265579224,9.500081300735474L7.750020265579224,22.500081300735474Q7.750020265579224,23.22498130073547,8.262583265579224,23.737481300735475Q8.775150265579224,24.250081300735474,9.500020265579224,24.250081300735474L22.500020265579224,24.250081300735474Q23.22492026557922,24.250081300735474,23.737420265579225,23.737481300735475Q24.250020265579224,23.22498130073547,24.250020265579224,22.500081300735474ZM18.417220265579225,19.226881300735474L20.186020265579224,17.458061300735473Q20.23712026557922,17.406981300735474,20.295020265579225,17.450361300735473L22.750020265579224,19.291581300735473L22.750020265579224,22.500081300735474Q22.750020265579224,22.750081300735474,22.500020265579224,22.750081300735474L9.500020265579224,22.750081300735474Q9.250020265579224,22.750081300735474,9.250020265579224,22.500081300735474L9.250020265579224,20.913281300735473L13.462290265579224,17.052001300735476Q13.516720265579224,17.002101300735475,13.572800265579223,17.050181300735474L18.844820265579223,21.569081300735476L18.845220265579222,21.569381300735472Q18.947220265579226,21.656781300735474,19.073120265579224,21.703381300735472Q19.199120265579225,21.749981300735474,19.333320265579225,21.749981300735474Q19.407220265579223,21.749981300735474,19.479720265579225,21.735581300735475Q19.552120265579223,21.721181300735473,19.620320265579224,21.692881300735472Q19.688620265579225,21.664581300735474,19.750020265579224,21.623581300735474Q19.811420265579223,21.582581300735473,19.863720265579225,21.530281300735474Q19.915920265579224,21.478081300735475,19.95692026557922,21.416681300735476Q19.99802026557922,21.355281300735474,20.026220265579223,21.286981300735473Q20.054520265579225,21.218781300735472,20.068920265579223,21.146281300735474Q20.083320265579225,21.073881300735472,20.083320265579225,20.999981300735474Q20.083320265579225,20.835781300735473,20.01472026557922,20.686581300735476Q19.946120265579225,20.537381300735476,19.821420265579224,20.430581300735476L19.82102026557922,20.430181300735473L18.417220265579225,19.226881300735474ZM20.291720265579222,8.500081300735474Q20.291720265579222,8.426212300735473,20.306220265579224,8.353763300735473Q20.320620265579223,8.281314300735474,20.348820265579224,8.213068300735474Q20.377120265579222,8.144823300735474,20.418120265579226,8.083403300735474Q20.459220265579223,8.021984300735474,20.511420265579225,7.969751300735473Q20.563720265579224,7.917518300735473,20.625120265579223,7.876479300735474Q20.686520265579226,7.835439900735474,20.754720265579223,7.807171600735473Q20.823020265579224,7.778903400735474,20.895420265579226,7.764492300735474Q20.967920265579224,7.750081300735474,21.041720265579222,7.750081300735474Q21.115620265579224,7.750081300735474,21.188120265579222,7.764492300735474Q21.260520265579224,7.778903400735474,21.328820265579225,7.807171600735473Q21.397020265579222,7.835439900735474,21.45842026557922,7.876479300735474Q21.519820265579224,7.917518300735473,21.572120265579223,7.969751300735473Q21.62432026557922,8.021984300735474,21.665320265579226,8.083403300735474Q21.706420265579226,8.144823300735474,21.734720265579224,8.213068300735474Q21.762920265579226,8.281314300735474,21.777320265579224,8.353763300735473Q21.791720265579222,8.426212300735473,21.791720265579222,8.500081300735474L21.791720265579222,10.291581300735473L23.500020265579224,10.291581300735473Q23.573920265579225,10.291581300735473,23.646320265579224,10.305991300735474Q23.718820265579225,10.320411300735474,23.787020265579223,10.348671300735473Q23.855320265579223,10.376941300735474,23.916720265579222,10.417981300735473Q23.978120265579225,10.459021300735474,24.030320265579224,10.511251300735474Q24.082620265579223,10.563491300735475,24.123620265579223,10.624911300735473Q24.164620265579224,10.686321300735473,24.192920265579225,10.754571300735474Q24.221220265579223,10.822821300735473,24.235620265579225,10.895271300735473Q24.250020265579224,10.967721300735473,24.250020265579224,11.041581300735473Q24.250020265579224,11.115451300735474,24.235620265579225,11.187901300735474Q24.221220265579223,11.260351300735474,24.192920265579225,11.328601300735475Q24.164620265579224,11.396841300735474,24.123620265579223,11.458261300735474Q24.082620265579223,11.519681300735474,24.030320265579224,11.571911300735474Q23.978120265579225,11.624151300735473,23.916720265579222,11.665191300735474Q23.855320265579223,11.706221300735473,23.787020265579223,11.734491300735474Q23.718820265579225,11.762761300735473,23.646320265579224,11.777171300735475Q23.573920265579225,11.791581300735473,23.500020265579224,11.791581300735473L21.791720265579222,11.791581300735473L21.791720265579222,13.500081300735474Q21.791720265579222,13.573951300735473,21.777320265579224,13.646401300735473Q21.762920265579226,13.718851300735473,21.734720265579224,13.787091300735474Q21.706420265579226,13.855341300735475,21.665420265579222,13.916761300735473Q21.62432026557922,13.978181300735475,21.572120265579223,14.030411300735473Q21.519820265579224,14.082641300735474,21.45842026557922,14.123681300735473Q21.397020265579222,14.164721300735474,21.328820265579225,14.192991300735475Q21.260520265579224,14.221261300735474,21.188120265579222,14.235671300735474Q21.115620265579224,14.250081300735474,21.041720265579222,14.250081300735474Q20.967920265579224,14.250081300735474,20.895420265579226,14.235671300735474Q20.823020265579224,14.221261300735474,20.754720265579223,14.192991300735475Q20.686520265579226,14.164721300735474,20.625120265579223,14.123681300735473Q20.563720265579224,14.082641300735474,20.511420265579225,14.030411300735473Q20.459220265579223,13.978181300735475,20.418120265579226,13.916761300735473Q20.377120265579222,13.855341300735475,20.348820265579224,13.787091300735474Q20.320620265579223,13.718851300735473,20.306220265579224,13.646401300735473Q20.291720265579222,13.573951300735473,20.291720265579222,13.500081300735474L20.291720265579222,11.791581300735473L18.500020265579224,11.791581300735473Q18.426120265579222,11.791581300735473,18.353720265579224,11.777171300735475Q18.281220265579222,11.762761300735473,18.213020265579225,11.734491300735474Q18.144720265579224,11.706221300735473,18.083320265579225,11.665191300735474Q18.021920265579226,11.624151300735473,17.969720265579223,11.571911300735474Q17.917420265579224,11.519681300735474,17.876420265579224,11.458261300735474Q17.835420265579224,11.396841300735474,17.807120265579222,11.328601300735475Q17.778820265579224,11.260351300735474,17.764420265579226,11.187901300735474Q17.750020265579224,11.115451300735474,17.750020265579224,11.041581300735473Q17.750020265579224,10.967721300735473,17.764420265579226,10.895271300735473Q17.778820265579224,10.822821300735473,17.807120265579222,10.754571300735474Q17.835420265579224,10.686321300735473,17.876420265579224,10.624911300735473Q17.917420265579224,10.563491300735475,17.969720265579223,10.511251300735474Q18.021920265579226,10.459021300735474,18.083320265579225,10.417981300735473Q18.144720265579224,10.376941300735474,18.213020265579225,10.348671300735473Q18.281220265579222,10.320411300735474,18.353720265579224,10.305991300735474Q18.426120265579222,10.291581300735473,18.500020265579224,10.291581300735473L20.291720265579222,10.291581300735473L20.291720265579222,8.500081300735474Z" fill-rule="evenodd" fill="#595959" fill-opacity="1"/></g></g></g></svg>