<svg xmlns="http://www.w3.org/2000/svg" xmlns:xlink="http://www.w3.org/1999/xlink" fill="none" version="1.1" width="16" height="16" viewBox="0 0 16 16"><defs><clipPath id="master_svg0_11_3231"><rect x="0" y="0" width="16" height="16" rx="0"/></clipPath></defs><g clip-path="url(#master_svg0_11_3231)"><g><path d="M2,14.75L8,14.75Q8.07387,14.75,8.14632,14.7356Q8.21877,14.7212,8.28701,14.6929Q8.355260000000001,14.6646,8.41668,14.6236Q8.478100000000001,14.5826,8.53033,14.5303Q8.58256,14.4781,8.6236,14.4167Q8.66464,14.3553,8.692910000000001,14.287Q8.72118,14.2188,8.73559,14.1463Q8.75,14.0739,8.75,14Q8.75,13.9261,8.73559,13.8537Q8.72118,13.7812,8.692910000000001,13.713Q8.66464,13.6447,8.6236,13.5833Q8.58256,13.5219,8.53033,13.4697Q8.478100000000001,13.4174,8.41668,13.3764Q8.355260000000001,13.3354,8.28701,13.3071Q8.21877,13.2788,8.14632,13.2644Q8.07387,13.25,8,13.25L2.75,13.25L2.75,2.75L7.99723,2.75Q8.071100000000001,2.75,8.143550000000001,2.735589Q8.216000000000001,2.721178,8.28424,2.69291Q8.35249,2.664641,8.41391,2.623602Q8.47533,2.582563,8.527560000000001,2.53033Q8.579799999999999,2.478097,8.62083,2.416678Q8.66187,2.355258,8.69014,2.287013Q8.71841,2.218767,8.73282,2.146318Q8.74723,2.0738685,8.74723,2Q8.74723,1.9261314999999999,8.73282,1.853682Q8.71841,1.781233,8.69014,1.712987Q8.66187,1.644742,8.62083,1.583322Q8.579799999999999,1.521903,8.527560000000001,1.46967Q8.47533,1.417437,8.41391,1.376398Q8.35249,1.335359,8.28425,1.30709Q8.216000000000001,1.278822,8.143550000000001,1.264411Q8.071100000000001,1.25,7.99723,1.25L2,1.25Q1.9261314999999999,1.25,1.853682,1.264411Q1.781233,1.278822,1.712987,1.30709Q1.644742,1.335359,1.583322,1.376398Q1.521903,1.417437,1.46967,1.46967Q1.417437,1.521903,1.376398,1.583322Q1.335359,1.644742,1.30709,1.712987Q1.278822,1.781233,1.264411,1.853682Q1.25,1.9261314999999999,1.25,2L1.25,14Q1.25,14.0739,1.264411,14.1463Q1.278822,14.2188,1.30709,14.287Q1.335359,14.3553,1.376398,14.4167Q1.417437,14.4781,1.46967,14.5303Q1.521903,14.5826,1.583322,14.6236Q1.644742,14.6646,1.712987,14.6929Q1.781233,14.7212,1.853682,14.7356Q1.9261314999999999,14.75,2,14.75Z" fill-rule="evenodd" fill="#595959" fill-opacity="1"/></g><g><path d="M11.530484,4.469824L11.53033,4.46967Q11.424841,4.364181,11.287013,4.30709Q11.149184,4.25,11,4.25Q10.850816,4.25,10.712987,4.30709Q10.575159,4.364181,10.46967,4.46967Q10.364181,4.575159,10.30709,4.712987Q10.25,4.850816,10.25,5Q10.25,5.149184,10.30709,5.287013Q10.364181,5.424841,10.46967,5.53033L10.469824,5.5304839999999995L12.93934,8L10.46967,10.46967Q10.364181,10.57516,10.30709,10.71299Q10.25,10.850819999999999,10.25,11Q10.25,11.149180000000001,10.30709,11.28701Q10.364181,11.42484,10.46967,11.53033Q10.575159,11.635819999999999,10.712987,11.692910000000001Q10.850816,11.75,11,11.75Q11.149184,11.75,11.287013,11.692910000000001Q11.424841,11.635819999999999,11.53033,11.53033L14.53033,8.53033Q14.58256,8.4781,14.6236,8.41668Q14.66464,8.35526,14.69291,8.28701Q14.72118,8.21877,14.73559,8.14632Q14.75,8.07387,14.75,8Q14.75,7.926130000000001,14.73559,7.853680000000001Q14.72118,7.78123,14.69291,7.71299Q14.66464,7.6447400000000005,14.6236,7.5833200000000005Q14.58256,7.5219000000000005,14.53033,7.46967L11.530484,4.469824Z" fill-rule="evenodd" fill="#595959" fill-opacity="1"/></g><g><path d="M5.3333740234375,8.7470703125L14.0000440234375,8.7470703125Q14.0739040234375,8.7470703125,14.1463540234375,8.732659312500001Q14.2188040234375,8.7182483125,14.2870540234375,8.6899803125Q14.3552940234375,8.6617113125,14.4167140234375,8.6206723125Q14.4781340234375,8.5796333125,14.5303740234375,8.5274003125Q14.5826040234375,8.4751673125,14.6236440234375,8.4137483125Q14.6646840234375,8.3523283125,14.6929540234375,8.2840833125Q14.7212140234375,8.2158373125,14.7356340234375,8.1433883125Q14.7500440234375,8.0709388125,14.7500440234375,7.9970703125Q14.7500440234375,7.9232018125,14.7356340234375,7.8507523125Q14.7212140234375,7.7783033125,14.6929540234375,7.7100573125Q14.6646840234375,7.6418123125,14.6236440234375,7.5803923125Q14.5826040234375,7.5189733125,14.5303740234375,7.4667403125Q14.4781340234375,7.4145073125,14.4167140234375,7.3734683125Q14.3552940234375,7.3324293125,14.2870540234375,7.3041603125Q14.2188040234375,7.2758923125,14.1463540234375,7.2614813125Q14.0739040234375,7.2470703125,14.0000440234375,7.2470703125L5.3333740234375,7.2470703125Q5.2595055234375,7.2470703125,5.1870560234375,7.2614813125Q5.1146070234375,7.2758923125,5.0463610234375,7.3041603125Q4.9781160234375,7.3324293125,4.9166960234375,7.3734683125Q4.8552770234375,7.4145073125,4.8030440234375,7.4667403125Q4.7508110234375,7.5189733125,4.7097720234375,7.5803923125Q4.6687330234375,7.6418123125,4.6404640234375,7.7100573125Q4.6121960234375,7.7783033125,4.5977850234375,7.8507523125Q4.5833740234375,7.9232018125,4.5833740234375,7.9970703125Q4.5833740234375,8.0709388125,4.5977850234375,8.1433883125Q4.6121960234375,8.2158373125,4.6404640234375,8.2840833125Q4.6687330234375,8.3523283125,4.7097720234375,8.4137483125Q4.7508110234375,8.4751673125,4.8030440234375,8.5274003125Q4.8552770234375,8.5796333125,4.9166960234375,8.6206723125Q4.9781160234375,8.6617113125,5.0463610234375,8.6899803125Q5.1146070234375,8.7182483125,5.1870560234375,8.732659312500001Q5.2595055234375,8.7470703125,5.3333740234375,8.7470703125Z" fill-rule="evenodd" fill="#595959" fill-opacity="1"/></g></g></svg>