<svg xmlns="http://www.w3.org/2000/svg" xmlns:xlink="http://www.w3.org/1999/xlink" fill="none" version="1.1" width="16" height="16" viewBox="0 0 16 16"><defs><clipPath id="master_svg0_21_3277"><rect x="0" y="0" width="16" height="16" rx="0"/></clipPath></defs><g clip-path="url(#master_svg0_21_3277)"><g><path d="M0.39752398828125,8L0.73221598828125,8.44853Q3.94193298828125,12.75,7.99998298828125,12.75Q12.05801298828125,12.75,15.26771298828125,8.44853L15.60241298828125,8L15.26771298828125,7.55147Q12.05801298828125,3.25,7.99998298828125,3.25Q3.94193298828125,3.25,0.73221598828125,7.55147L0.39752398828125,8ZM2.28205498828125,8Q4.90115298828125,11.25,7.99998298828125,11.25Q11.09880298828125,11.25,13.71791298828125,8Q11.09880298828125,4.75,7.99998298828125,4.75Q4.90115298828125,4.75,2.28205498828125,8Z" fill-rule="evenodd" fill="#595959" fill-opacity="1"/></g><g><path d="M6.29114128828125,6.291080253125Q5.58331298828125,6.998907953125,5.58331298828125,7.999921953125Q5.58331298828125,9.000931953125,6.29114128828125,9.708761953125Q6.99896898828125,10.416581953125,7.99998298828125,10.416581953125Q9.00099298828125,10.416581953125,9.70882298828125,9.708751953125Q10.41664298828125,9.000931953125,10.41664298828125,7.999921953125Q10.41664298828125,6.998908953125,9.70881298828125,6.291080253125Q9.00099298828125,5.583251953125,7.99998298828125,5.583251953125Q6.99896998828125,5.583251953125,6.29114128828125,6.291080253125ZM7.35180298828125,8.648101953125Q7.08331298828125,8.379611953125,7.08331298828125,7.999921953125Q7.08331298828125,7.620231953125,7.35180298828125,7.351741953125Q7.62029298828125,7.083251953125,7.99998298828125,7.083251953125Q8.37967298828125,7.083251953125,8.64816298828125,7.351741953125Q8.91664298828125,7.620231953125,8.91664298828125,7.999921953125Q8.91664298828125,8.379611953125,8.64816298828125,8.648101953125Q8.37967298828125,8.916581953125,7.99998298828125,8.916581953125Q7.62029298828125,8.916581953125,7.35180298828125,8.648101953125Z" fill-rule="evenodd" fill="#595959" fill-opacity="1"/></g></g></svg>