<svg xmlns="http://www.w3.org/2000/svg" xmlns:xlink="http://www.w3.org/1999/xlink" fill="none" version="1.1" width="16" height="16" viewBox="0 0 16 16"><g><g><path d="M0.583251953125,13.3333L0.583251953125,4Q0.583251953125,3.275126,1.095814953125,2.762563Q1.608377953125,2.25,2.333251953125,2.25L13.666551953125,2.25Q14.391451953125,2.25,14.904051953125,2.762563Q15.416551953125,3.275127,15.416551953125,4L15.416551953125,13.3333Q15.416551953125,14.0582,14.904051953125,14.5708Q14.391451953125,15.0833,13.666551953125,15.0833L2.333251953125,15.0833Q1.608378953125,15.0833,1.095814953125,14.5708Q0.583251953125,14.0582,0.583251953125,13.3333ZM2.083251953125,13.3333Q2.083251953125,13.5833,2.333251953125,13.5833L13.666551953125,13.5833Q13.916551953125,13.5833,13.916551953125,13.3333L13.916551953125,4Q13.916551953125,3.75,13.666551953125,3.75L2.333251953125,3.75Q2.229697953125,3.75,2.156474953125,3.823223Q2.083251953125,3.896446,2.083251953125,4L2.083251953125,13.3333Z" fill="#595959" fill-opacity="1"/></g><g><path d="M14.5,7.583251953125L1.5,7.583251953125L1.5,6.083251953125L14.5,6.083251953125L14.5,7.583251953125Z" fill-rule="evenodd" fill="#595959" fill-opacity="1"/></g><g><path d="M4.083251953125,2Q4.083251953125,1.9261314999999999,4.097662953125,1.853682Q4.112073953125,1.781233,4.140341953125,1.712987Q4.168610953125,1.644742,4.209649953125,1.583322Q4.250688953125,1.521903,4.302921853125,1.46967Q4.355154853125,1.417437,4.416574253125,1.376398Q4.477993953125,1.335359,4.546238953125,1.30709Q4.614484953125,1.278822,4.686933953125,1.264411Q4.759382953125,1.25,4.833251953125,1.25Q4.907120953125,1.25,4.979569953125,1.264411Q5.052018953125,1.278822,5.120264953125,1.30709Q5.188509953125,1.335359,5.249929953125,1.376398Q5.311348953125,1.417437,5.363581953125,1.46967Q5.415811953125,1.521903,5.456851953125,1.583322Q5.497891953125,1.644742,5.5261619531249995,1.712987Q5.554431953125,1.781233,5.568841953125,1.853682Q5.583251953125,1.9261314999999999,5.583251953125,2L5.583251953125,4.66667Q5.583251953125,4.74054,5.568841953125,4.81298Q5.554431953125,4.8854299999999995,5.5261619531249995,4.95368Q5.497891953125,5.02192,5.456851953125,5.08334Q5.415811953125,5.14476,5.363581953125,5.197Q5.311348953125,5.24923,5.249929953125,5.29027Q5.188509953125,5.33131,5.120264953125,5.359579999999999Q5.052018953125,5.387840000000001,4.979569953125,5.40226Q4.907120953125,5.41667,4.833251953125,5.41667Q4.759382953125,5.41667,4.686933953125,5.40226Q4.614484953125,5.387840000000001,4.546238953125,5.359579999999999Q4.477993953125,5.33131,4.416574253125,5.29027Q4.355154853125,5.24923,4.302921853125,5.197Q4.250688953125,5.14476,4.209649953125,5.08334Q4.168610953125,5.02192,4.140341953125,4.95368Q4.112073953125,4.8854299999999995,4.097662953125,4.81298Q4.083251953125,4.74054,4.083251953125,4.66667L4.083251953125,2Z" fill-rule="evenodd" fill="#595959" fill-opacity="1"/></g><g><path d="M10.75,2Q10.75,1.9261314999999999,10.764411,1.853682Q10.778822,1.781233,10.80709,1.712987Q10.835359,1.644742,10.876398,1.583322Q10.917437,1.521903,10.9696699,1.46967Q11.0219029,1.417437,11.0833223,1.376398Q11.144742,1.335359,11.212987,1.30709Q11.281233,1.278822,11.353682,1.264411Q11.426131,1.25,11.5,1.25Q11.573869,1.25,11.646318,1.264411Q11.718767,1.278822,11.787013,1.30709Q11.855258,1.335359,11.916678,1.376398Q11.978097,1.417437,12.03033,1.46967Q12.08256,1.521903,12.1236,1.583322Q12.16464,1.644742,12.19291,1.712987Q12.22118,1.781233,12.23559,1.853682Q12.25,1.9261314999999999,12.25,2L12.25,4.66667Q12.25,4.74054,12.23559,4.81298Q12.22118,4.8854299999999995,12.19291,4.95368Q12.16464,5.02192,12.1236,5.08334Q12.08256,5.14476,12.03033,5.197Q11.978097,5.24923,11.916678,5.29027Q11.855258,5.33131,11.787013,5.359579999999999Q11.718767,5.387840000000001,11.646318,5.40226Q11.573869,5.41667,11.5,5.41667Q11.426131,5.41667,11.353682,5.40226Q11.281233,5.387840000000001,11.212987,5.359579999999999Q11.144742,5.33131,11.0833223,5.29027Q11.0219029,5.24923,10.9696699,5.197Q10.917437,5.14476,10.876398,5.08334Q10.835359,5.02192,10.80709,4.95368Q10.778822,4.8854299999999995,10.764411,4.81298Q10.75,4.74054,10.75,4.66667L10.75,2Z" fill-rule="evenodd" fill="#595959" fill-opacity="1"/></g></g></svg>