<svg xmlns="http://www.w3.org/2000/svg" xmlns:xlink="http://www.w3.org/1999/xlink" fill="none" version="1.1" width="16" height="16" viewBox="0 0 16 16"><defs><clipPath id="master_svg0_3_08039"><rect x="0" y="0" width="16" height="16" rx="0"/></clipPath></defs><g clip-path="url(#master_svg0_3_08039)"><g><path d="M14.75,13.33333L14.75,11Q14.75,10.9261315,14.7356,10.853682Q14.7212,10.781233,14.6929,10.712987Q14.6646,10.644742,14.6236,10.583322Q14.5826,10.521903,14.5303,10.46967Q14.4781,10.417437,14.4167,10.376398Q14.3553,10.335359,14.287,10.30709Q14.2188,10.278822,14.1463,10.264410999999999Q14.0739,10.25,14,10.25Q13.9261,10.25,13.8537,10.264410999999999Q13.7812,10.278822,13.713,10.30709Q13.6447,10.335359,13.5833,10.376398Q13.5219,10.417437,13.4697,10.46967Q13.4174,10.521903,13.3764,10.583322Q13.3354,10.644742,13.3071,10.712987Q13.2788,10.781233,13.2644,10.853682Q13.25,10.9261315,13.25,11L13.25,13.25L2.75,13.25L2.75,11.00274658Q2.75,10.928878,2.735589,10.856429Q2.721178,10.78398,2.69291,10.715734Q2.664641,10.647488,2.623602,10.586069Q2.582563,10.52465,2.53033,10.472417Q2.478097,10.420184,2.416678,10.379144Q2.355258,10.338105,2.287013,10.309837Q2.218767,10.281569,2.146318,10.267158Q2.0738685,10.252747,2,10.252747Q1.9261314999999999,10.252747,1.853682,10.267158Q1.781233,10.281569,1.712987,10.309837Q1.644742,10.338105,1.583322,10.379144Q1.521903,10.420184,1.46967,10.472417Q1.417437,10.52465,1.376398,10.586069Q1.335359,10.647488,1.30709,10.715734Q1.278822,10.78398,1.264411,10.856429Q1.25,10.928878,1.25,11.00274658L1.25,13.33333Q1.25,13.92014,1.664932,14.33507Q2.0798643,14.75,2.666667,14.75L13.3333,14.75Q13.9201,14.75,14.3351,14.33507Q14.75,13.92014,14.75,13.33333Z" fill-rule="evenodd" fill="#595959" fill-opacity="1"/></g><g transform="matrix(-1,-5.2146120310681e-8,5.2146120310681e-8,-1,21.8175046220819,10.000000568849117)"><path d="M11.43923644140625,4.469824L11.43908244140625,4.46967Q11.33359344140625,4.364181,11.19576544140625,4.30709Q11.05793644140625,4.25,10.90875244140625,4.25Q10.75956844140625,4.25,10.62173944140625,4.30709Q10.48391144140625,4.364181,10.37842244140625,4.46967Q10.27293344140625,4.575159,10.21584244140625,4.712987Q10.15875244140625,4.850816,10.15875244140625,5Q10.15875244140625,5.149184,10.21584244140625,5.287013Q10.27293344140625,5.424841,10.37842244140625,5.53033L10.37857644140625,5.5304839999999995L13.37842244140625,8.53033Q13.43065244140625,8.58256,13.49207244140625,8.6236Q13.55349244140625,8.66464,13.62174244140625,8.69291Q13.68998244140625,8.72118,13.76243244140625,8.73559Q13.83488244140625,8.75,13.90875244140625,8.75Q13.98262244140625,8.75,14.05507244140625,8.73559Q14.12752244140625,8.72118,14.19576244140625,8.69291Q14.26401244140625,8.66464,14.32543244140625,8.6236Q14.38685244140625,8.58256,14.43908244140625,8.53033L17.43908244140625,5.53033L17.43951244140625,5.529901Q17.44251244140625,5.526895,17.44548244140625,5.523856L17.44590244140625,5.523421Q17.54826244140625,5.418381,17.60350244140625,5.282522Q17.65875244140625,5.146663,17.65875244140625,5Q17.65875244140625,4.850816,17.60166244140625,4.712987Q17.54457244140625,4.575159,17.43908244140625,4.46967Q17.33359244140625,4.364181,17.195762441406252,4.30709Q17.05793244140625,4.25,16.90875244140625,4.25Q16.75957244140625,4.25,16.621742441406248,4.30709Q16.48391244140625,4.364181,16.37842244140625,4.46967L13.90875244140625,6.93934L11.43923644140625,4.469824Z" fill-rule="evenodd" fill="#595959" fill-opacity="1"/></g><g><path d="M7.2471923828125,2L7.2471923828125,10.66667Q7.2471923828125,10.74053,7.2616033828125,10.81298Q7.2760143828125,10.88543,7.3042823828125,10.95368Q7.3325513828125,11.02192,7.3735903828125,11.08334Q7.4146293828125,11.14476,7.4668623828125,11.197Q7.5190953828125,11.24923,7.5805143828125,11.29027Q7.6419343828125,11.33131,7.7101793828125,11.35958Q7.7784253828125,11.38784,7.8508743828125,11.40226Q7.9233238828125,11.41667,7.9971923828125,11.41667Q8.0710608828125,11.41667,8.1435103828125,11.40226Q8.2159593828125,11.38784,8.2842053828125,11.35958Q8.3524503828125,11.33131,8.4138703828125,11.29027Q8.4752893828125,11.24923,8.5275223828125,11.197Q8.5797553828125,11.14476,8.6207943828125,11.08334Q8.6618333828125,11.02192,8.6901023828125,10.95368Q8.7183703828125,10.88543,8.732781382812501,10.81298Q8.7471923828125,10.74053,8.7471923828125,10.66667L8.7471923828125,2Q8.7471923828125,1.9261314999999999,8.732781382812501,1.853682Q8.7183703828125,1.781233,8.6901023828125,1.712987Q8.6618333828125,1.644742,8.6207943828125,1.583322Q8.5797553828125,1.521903,8.5275223828125,1.46967Q8.4752893828125,1.417437,8.4138703828125,1.376398Q8.3524503828125,1.335359,8.2842053828125,1.30709Q8.2159593828125,1.278822,8.1435103828125,1.264411Q8.0710608828125,1.25,7.9971923828125,1.25Q7.9233238828125,1.25,7.8508743828125,1.264411Q7.7784253828125,1.278822,7.7101793828125,1.30709Q7.6419343828125,1.335359,7.5805143828125,1.376398Q7.5190953828125,1.417437,7.4668623828125,1.46967Q7.4146293828125,1.521903,7.3735903828125,1.583322Q7.3325513828125,1.644742,7.3042823828125,1.712987Q7.2760143828125,1.781233,7.2616033828125,1.853682Q7.2471923828125,1.9261314999999999,7.2471923828125,2Z" fill-rule="evenodd" fill="#595959" fill-opacity="1"/></g></g></svg>