<svg xmlns="http://www.w3.org/2000/svg" xmlns:xlink="http://www.w3.org/1999/xlink" fill="none" version="1.1" width="16" height="16" viewBox="0 0 16 16"><g transform="matrix(-1,0,0,1,32,0)"><g transform="matrix(0,1,1,0,18.25,-18.25)"><path d="M22.280484,2.969824L22.28033,2.96967Q22.174841,2.864181,22.037013,2.80709Q21.899184,2.75,21.75,2.75Q21.600816,2.75,21.462987,2.80709Q21.325159,2.864181,21.21967,2.96967Q21.114181,3.075159,21.05709,3.212987Q21,3.350816,21,3.5Q21,3.649184,21.05709,3.787013Q21.114181,3.924841,21.21967,4.03033L21.219824,4.0304839999999995L25.71967,8.53033Q25.7719,8.58256,25.83332,8.6236Q25.89474,8.66464,25.962989999999998,8.692910000000001Q26.03123,8.72118,26.10368,8.73559Q26.17613,8.75,26.25,8.75Q26.32387,8.75,26.39632,8.73559Q26.46877,8.72118,26.537010000000002,8.692910000000001Q26.60526,8.66464,26.66668,8.6236Q26.7281,8.58256,26.78033,8.53033L31.279870000000003,4.030792L31.28033,4.03033Q31.385820000000002,3.924841,31.442909999999998,3.787013Q31.5,3.649184,31.5,3.5Q31.5,3.350816,31.442909999999998,3.212987Q31.385820000000002,3.075159,31.28033,2.96967Q31.276899999999998,2.966237,31.27342,2.96285Q31.16838,2.8604950000000002,31.032519999999998,2.805247Q30.89666,2.75,30.75,2.75Q30.60082,2.75,30.462989999999998,2.80709Q30.32516,2.864181,30.21967,2.96967L30.21921,2.970132L26.25,6.93934L22.280484,2.969824Z" fill-rule="evenodd" fill="#595959" fill-opacity="1"/></g></g></svg>