<svg xmlns="http://www.w3.org/2000/svg" xmlns:xlink="http://www.w3.org/1999/xlink" fill="none" version="1.1" width="24" height="24" viewBox="0 0 24 24"><g><g><path d="M12,23C15.0375,23,17.7875,21.7688,19.7782,19.7782C21.7688,17.7875,23,15.0375,23,12C23,8.96246,21.7688,6.21246,19.7782,4.22182C17.7875,2.23122,15.0375,1,12,1C8.96246,1,6.21246,2.23122,4.22182,4.22182C2.23122,6.21246,1,8.96246,1,12C1,15.0375,2.23122,17.7875,4.22182,19.7782C6.21246,21.7688,8.96246,23,12,23Z" fill="#FABE1E" fill-opacity="1"/></g><g transform="matrix(0,1,-1,0,19.25,-6.75)"><path d="M14,6.25L20,6.25C20.55228,6.25,21,6.697715,21,7.25C21,7.80228,20.55228,8.25,20,8.25L14,8.25C13.447715,8.25,13,7.80228,13,7.25C13,6.697715,13.447715,6.25,14,6.25Z" fill-rule="evenodd" fill="#FFFFFF" fill-opacity="1"/></g><g><ellipse cx="12" cy="16.5" rx="1.25" ry="1.25" fill="#FFFFFF" fill-opacity="1"/></g></g></svg>