<svg xmlns="http://www.w3.org/2000/svg" xmlns:xlink="http://www.w3.org/1999/xlink" fill="none" version="1.1" width="24" height="24" viewBox="0 0 24 24"><g><g></g><g><path d="M20.552,7.626544Q20.6869,7.507656,20.761,7.3437529999999995Q20.835,7.179851,20.835,7Q20.835,6.9177597,20.819000000000003,6.8371Q20.8029,6.75644,20.7714,6.680459Q20.740000000000002,6.6044789999999995,20.6943,6.536099Q20.648600000000002,6.467719,20.590400000000002,6.409566Q20.5323,6.351413,20.463900000000002,6.305723Q20.3955,6.260033,20.319499999999998,6.228561Q20.2436,6.197089,20.1629,6.181044Q20.0822,6.165,20,6.165Q19.8202,6.165,19.6562,6.239041Q19.4923,6.313082,19.3735,6.448033L10,15.82149L5.626541,11.44803Q5.507653,11.31308,5.343751,11.23904Q5.179849,11.165,5,11.165Q4.9177597,11.165,4.8371,11.18104Q4.75644,11.19709,4.680459,11.22856Q4.6044789999999995,11.26003,4.536099,11.30572Q4.467719,11.35141,4.409566,11.40957Q4.351413,11.46772,4.305723,11.536100000000001Q4.260033,11.604479999999999,4.228561,11.68046Q4.197089,11.75644,4.181044,11.8371Q4.165,11.917760000000001,4.165,12Q4.165,12.17985,4.23904,12.34375Q4.31308,12.50765,4.44803,12.62654L9.41074,17.5893Q9.52795,17.7065,9.6811,17.7699Q9.834240000000001,17.8333,10,17.8333Q10.165759999999999,17.8333,10.3189,17.7699Q10.47205,17.7065,10.58926,17.5893L20.552,7.626544Z" fill-rule="evenodd" fill="#007AEB" fill-opacity="1"/></g></g></svg>