<svg xmlns="http://www.w3.org/2000/svg" xmlns:xlink="http://www.w3.org/1999/xlink" fill="none" version="1.1" width="16" height="16" viewBox="0 0 16 16"><g><g><path d="M1.2500588897015381,7.333386423721313Q1.2500590087015382,4.813596423721314,3.031830959701538,3.0318264237213137Q4.813600959701538,1.2500574589213134,7.333390959701538,1.2500574589213134Q9.853180959701538,1.2500574589213134,11.634980959701538,3.0318264237213137Q13.416680959701537,4.813606423721314,13.416680959701537,7.333386423721313Q13.416680959701537,9.469676423721314,12.136080959701538,11.075496423721313L14.530280959701537,13.469796423721313Q14.635780959701538,13.575296423721314,14.692880959701538,13.713096423721314Q14.749980959701539,13.850896423721313,14.749980959701539,14.000096423721313Q14.749980959701539,14.073996423721313,14.735580959701538,14.146396423721313Q14.721180959701538,14.218896423721313,14.692880959701538,14.287096423721314Q14.664580959701539,14.355396423721313,14.623580959701538,14.416796423721314Q14.582580959701538,14.478196423721313,14.530280959701537,14.530396423721314Q14.478080959701538,14.582696423721314,14.416680959701537,14.623696423721313Q14.355280959701538,14.664696423721313,14.286980959701538,14.692996423721313Q14.218780959701538,14.721296423721313,14.146280959701539,14.735696423721313Q14.073880959701539,14.750096423721313,13.999980959701539,14.750096423721313Q13.850780959701538,14.750096423721313,13.712980959701538,14.692996423721313Q13.575180959701537,14.635896423721313,13.469680959701538,14.530396423721314L13.469280959701537,14.529996423721313L11.075360959701538,12.136096423721314Q9.469590959701538,13.416696423721314,7.333390959701538,13.416696423721314Q4.813600959701538,13.416696423721314,3.031830959701538,11.634996423721313Q1.2500587697015382,9.853176423721314,1.2500588897015381,7.333386423721313ZM2.750060959701538,7.333386423721313Q2.750060959701538,9.231856423721315,4.0924909597015375,10.574296423721313Q5.434920959701538,11.916696423721314,7.333390959701538,11.916696423721314Q9.231860959701539,11.916696423721314,10.574290959701537,10.574296423721313Q11.916680959701537,9.231856423721315,11.916680959701537,7.333386423721313Q11.916680959701537,5.434926423721313,10.574290959701537,4.092486423721313Q9.231860959701539,2.7500564237213134,7.333390959701538,2.7500564237213134Q5.434920959701538,2.7500564237213134,4.0924909597015375,4.092486423721313Q2.750060959701538,5.434926423721313,2.750060959701538,7.333386423721313Z" fill-rule="evenodd" fill="#595959" fill-opacity="1"/></g></g></svg>