<svg xmlns="http://www.w3.org/2000/svg" xmlns:xlink="http://www.w3.org/1999/xlink" fill="none" version="1.1" width="16" height="16" viewBox="0 0 16 16"><defs><clipPath id="master_svg0_3_07894"><rect x="0" y="0" width="16" height="16" rx="0"/></clipPath></defs><g clip-path="url(#master_svg0_3_07894)"><g transform="matrix(1,0,0,-1,0,20.5)"><path d="M4.0304839999999995,9.719824L4.03033,9.71967Q3.924841,9.614181,3.787013,9.55709Q3.649184,9.5,3.5,9.5Q3.350816,9.5,3.212987,9.55709Q3.075159,9.614181,2.96967,9.71967Q2.864181,9.825159,2.80709,9.962987Q2.75,10.100816,2.75,10.25Q2.75,10.399184,2.80709,10.537013Q2.864181,10.674841,2.96967,10.78033L2.969824,10.780484L7.46967,15.28033Q7.5219,15.33256,7.58332,15.3736Q7.64474,15.41464,7.71299,15.442910000000001Q7.78123,15.47118,7.85368,15.48559Q7.92613,15.5,8,15.5Q8.07387,15.5,8.14632,15.48559Q8.21877,15.47118,8.28701,15.442910000000001Q8.355260000000001,15.41464,8.41668,15.3736Q8.478100000000001,15.33256,8.53033,15.28033L13.02987,10.780792L13.03033,10.78033Q13.13582,10.674841,13.19291,10.537013Q13.25,10.399184,13.25,10.25Q13.25,10.100816,13.19291,9.962987Q13.13582,9.825159,13.03033,9.71967Q13.0269,9.716237,13.02342,9.71285Q12.91838,9.610495,12.78252,9.555247Q12.64666,9.5,12.5,9.5Q12.35082,9.5,12.21299,9.55709Q12.07516,9.614181,11.96967,9.71967L11.96921,9.720132L8,13.68934L4.0304839999999995,9.719824Z" fill-rule="evenodd" fill="#595959" fill-opacity="1"/></g></g></svg>