<svg xmlns="http://www.w3.org/2000/svg" xmlns:xlink="http://www.w3.org/1999/xlink" fill="none" version="1.1" width="32" height="32" viewBox="0 0 32 32"><g><g><g><path d="M7.63080701171875,12.463963906250001Q6.91668601171875,14.15233390625,6.91668601171875,15.99983390625Q6.91668701171875,17.847303906249998,7.63080791171875,19.53570390625Q8.32032801171875,21.16590390625,9.57713701171875,22.42270390625Q10.83394701171875,23.67950390625,12.464147011718751,24.36900390625Q14.15251701171875,25.08320390625,16.00001701171875,25.08320390625Q17.847487011718748,25.08320390625,19.53588701171875,24.36900390625Q21.16608701171875,23.67950390625,22.42288701171875,22.42270390625Q23.67968701171875,21.16590390625,24.36918701171875,19.53570390625Q25.08338701171875,17.847303906249998,25.08338701171875,15.99983390625Q25.08338701171875,14.15233390625,24.36918701171875,12.463963906250001Q23.67968701171875,10.83375390625,22.42288701171875,9.57695390625Q21.16608701171875,8.32014390625,19.53588701171875,7.63062390625Q17.847487011718748,6.91650290625,16.00001701171875,6.91650290625Q14.15251701171875,6.91650390625,12.464147011718751,7.63062480625Q10.83393701171875,8.32014490625,9.57713701171875,9.57695390625Q8.32032601171875,10.83375390625,7.63080701171875,12.463963906250001ZM10.63779701171875,21.36210390625Q8.41668701171875,19.14100390625,8.41668701171875,15.99983390625Q8.41668601171875,12.85871390625,10.63779701171875,10.63761390625Q12.85889701171875,8.41650390625,16.00001701171875,8.41650290625Q19.14118701171875,8.41650290625,21.36228701171875,10.63761390625Q23.58338701171875,12.85871390625,23.58338701171875,15.99983390625Q23.58338701171875,19.14100390625,21.36228701171875,21.36210390625Q19.14118701171875,23.58320390625,16.00001701171875,23.58320390625Q12.85889701171875,23.58320390625,10.63779701171875,21.36210390625Z" fill-rule="evenodd" fill="#595959" fill-opacity="1"/></g><g><path d="M18.16668701171875,13.5L18.16668701171875,14.75Q18.16668701171875,14.82387,18.18109801171875,14.89632Q18.19550901171875,14.96877,18.22377701171875,15.03701Q18.25204601171875,15.10526,18.293085011718752,15.16668Q18.33412401171875,15.2281,18.38635701171875,15.28033Q18.438590011718752,15.33256,18.50000901171875,15.3736Q18.56142901171875,15.41464,18.62967401171875,15.44291Q18.69792001171875,15.47118,18.77036901171875,15.48559Q18.84281851171875,15.5,18.91668701171875,15.5Q18.99055551171875,15.5,19.06300501171875,15.48559Q19.13545401171875,15.47118,19.20370001171875,15.44291Q19.27194501171875,15.41464,19.33336501171875,15.3736Q19.394784011718748,15.33256,19.44701701171875,15.28033Q19.49925001171875,15.2281,19.540289011718748,15.16668Q19.58132801171875,15.10526,19.60959701171875,15.03701Q19.63786501171875,14.96877,19.65227601171875,14.89632Q19.66668701171875,14.82387,19.66668701171875,14.75L19.66668701171875,13.5Q19.66668701171875,13.4261315,19.65227601171875,13.353682Q19.63786501171875,13.281233,19.60959701171875,13.212987Q19.58132801171875,13.144742,19.540289011718748,13.083322Q19.49925001171875,13.021903,19.44701701171875,12.96967Q19.394784011718748,12.917437,19.33336501171875,12.876398Q19.27194501171875,12.835359,19.20370001171875,12.80709Q19.13545401171875,12.778822,19.06300501171875,12.764410999999999Q18.99055551171875,12.75,18.91668701171875,12.75Q18.84281851171875,12.75,18.77036901171875,12.764410999999999Q18.69792001171875,12.778822,18.62967401171875,12.80709Q18.56142901171875,12.835359,18.50000901171875,12.876398Q18.438590011718752,12.917437,18.38635701171875,12.96967Q18.33412401171875,13.021903,18.293085011718752,13.083322Q18.25204601171875,13.144742,18.22377701171875,13.212987Q18.19550901171875,13.281233,18.18109801171875,13.353682Q18.16668701171875,13.4261315,18.16668701171875,13.5Z" fill-rule="evenodd" fill="#595959" fill-opacity="1"/></g><g><path d="M12.33331298828125,13.5L12.33331298828125,14.75Q12.33331298828125,14.82387,12.347723988281249,14.89632Q12.36213498828125,14.96877,12.39040298828125,15.03701Q12.41867198828125,15.10526,12.45971098828125,15.16668Q12.50074998828125,15.2281,12.55298298828125,15.28033Q12.60521598828125,15.33256,12.66663498828125,15.3736Q12.72805498828125,15.41464,12.79629998828125,15.44291Q12.86454598828125,15.47118,12.93699498828125,15.48559Q13.00944448828125,15.5,13.08331298828125,15.5Q13.15718148828125,15.5,13.22963098828125,15.48559Q13.30207998828125,15.47118,13.37032598828125,15.44291Q13.43857098828125,15.41464,13.49999098828125,15.3736Q13.56140998828125,15.33256,13.61364298828125,15.28033Q13.66587598828125,15.2281,13.70691498828125,15.16668Q13.74795398828125,15.10526,13.77622298828125,15.03701Q13.80449098828125,14.96877,13.818901988281251,14.89632Q13.83331298828125,14.82387,13.83331298828125,14.75L13.83331298828125,13.5Q13.83331298828125,13.4261315,13.818901988281251,13.353682Q13.80449098828125,13.281233,13.77622298828125,13.212987Q13.74795398828125,13.144742,13.70691498828125,13.083322Q13.66587598828125,13.021903,13.61364298828125,12.96967Q13.56140998828125,12.917437,13.49999098828125,12.876398Q13.43857098828125,12.835359,13.37032598828125,12.80709Q13.30207998828125,12.778822,13.22963098828125,12.764410999999999Q13.15718148828125,12.75,13.08331298828125,12.75Q13.00944448828125,12.75,12.93699498828125,12.764410999999999Q12.86454598828125,12.778822,12.79629998828125,12.80709Q12.72805498828125,12.835359,12.66663498828125,12.876398Q12.60521598828125,12.917437,12.55298298828125,12.96967Q12.50074998828125,13.021903,12.45971098828125,13.083322Q12.41867198828125,13.144742,12.39040298828125,13.212987Q12.36213498828125,13.281233,12.347723988281249,13.353682Q12.33331298828125,13.4261315,12.33331298828125,13.5Z" fill-rule="evenodd" fill="#595959" fill-opacity="1"/></g><g><path d="M13.754132988281249,18.58109390625Q14.38017298828125,19.83317090625,15.99998298828125,19.83317090625Q17.61978298828125,19.83317090625,18.24582298828125,18.58109390625Q18.31254298828125,18.44765890625,18.425242988281248,18.34991290625Q18.53794298828125,18.25216790625,18.67947298828125,18.20499090625Q18.79362298828125,18.16694290625,18.91394298828125,18.16650890625L18.91664298828125,18.16650390625Q19.09370298828125,18.16650490625,19.25205298828125,18.24568390625Q19.344332988281252,18.29182190625,19.42072298828125,18.36116090625Q19.497112988281252,18.43050090625,19.55195298828125,18.51789090625Q19.60678298828125,18.60528190625,19.63598298828125,18.70423090625Q19.665182988281252,18.80318090625,19.66658298828125,18.90633940625L19.66664298828125,18.91650390625Q19.66664298828125,19.09355590625,19.58746298828125,19.25191390625L19.587402988281248,19.25203990625L19.58720298828125,19.25243690625Q18.54652298828125,21.33317390625,15.99998298828125,21.33317390625Q13.45326798828125,21.33317390625,12.41261298828125,19.25215490625L12.412492988281251,19.25191390625Q12.33331298828125,19.09355490625,12.33331298828125,18.91650390625Q12.33331298828125,18.80196590625,12.36749898828125,18.69264990625Q12.36958798828125,18.68597090625,12.37180098828125,18.67933290625Q12.41814198828125,18.54030890625,12.51340598828125,18.42895390625Q12.60866898828125,18.31759790625,12.73884198828125,18.25029090625Q12.74335698828125,18.24795690625,12.74790298828125,18.24568390625Q12.90626198828125,18.16650390625,13.08331298828125,18.16650390625Q13.19785098828125,18.16650390625,13.30716698828125,18.20068990625Q13.31384598828125,18.20277890625,13.32048398828125,18.20499190625Q13.45950798828125,18.25133290625,13.57086298828125,18.34659690625Q13.68221898828125,18.44185990625,13.74952598828125,18.57203290625Q13.75185998828125,18.57654790625,13.754132988281249,18.58109390625Z" fill-rule="evenodd" fill="#595959" fill-opacity="1"/></g></g></g></svg>