<svg xmlns="http://www.w3.org/2000/svg" xmlns:xlink="http://www.w3.org/1999/xlink" fill="none" version="1.1" width="16" height="16" viewBox="0 0 16 16"><g><g></g><g><path d="M4.5304839999999995,3.469824L12.53033,11.46967Q12.63582,11.57516,12.69291,11.71299Q12.75,11.850819999999999,12.75,12Q12.75,12.07387,12.73559,12.14632Q12.72118,12.21877,12.69291,12.28701Q12.66464,12.35526,12.6236,12.41668Q12.58256,12.4781,12.53033,12.53033Q12.4781,12.58256,12.41668,12.6236Q12.35526,12.66464,12.28701,12.69291Q12.21877,12.72118,12.14632,12.73559Q12.07387,12.75,12,12.75Q11.850819999999999,12.75,11.71299,12.69291Q11.57516,12.63582,11.46967,12.53033L3.46967,4.53033Q3.364181,4.424841,3.30709,4.287013Q3.25,4.149184,3.25,4Q3.25,3.9261315,3.264411,3.853682Q3.278822,3.781233,3.30709,3.712987Q3.335359,3.644742,3.376398,3.583322Q3.417437,3.521903,3.46967,3.46967Q3.521903,3.417437,3.583322,3.376398Q3.644742,3.335359,3.712987,3.30709Q3.781233,3.278822,3.853682,3.264411Q3.9261315,3.25,4,3.25Q4.149184,3.25,4.287013,3.30709Q4.424841,3.364181,4.53033,3.46967L4.5304839999999995,3.469824Z" fill-rule="evenodd" fill="#595959" fill-opacity="1"/></g><g><path d="M12.53033,4.53033Q12.63582,4.424841,12.69291,4.287013Q12.75,4.149184,12.75,4Q12.75,3.9261315,12.73559,3.853682Q12.72118,3.781233,12.69291,3.712987Q12.66464,3.644742,12.6236,3.583322Q12.58256,3.521903,12.53033,3.46967Q12.4781,3.417437,12.41668,3.376398Q12.35526,3.335359,12.28701,3.30709Q12.21877,3.278822,12.14632,3.264411Q12.07387,3.25,12,3.25Q11.850819999999999,3.25,11.71299,3.30709Q11.57516,3.364181,11.46967,3.46967L3.46967,11.46967Q3.364181,11.57516,3.30709,11.71299Q3.25,11.850819999999999,3.25,12Q3.25,12.07387,3.264411,12.14632Q3.278822,12.21877,3.30709,12.28701Q3.335359,12.35526,3.376398,12.41668Q3.417437,12.4781,3.46967,12.53033Q3.521903,12.58256,3.583322,12.6236Q3.644742,12.66464,3.712987,12.69291Q3.781233,12.72118,3.853682,12.73559Q3.9261315,12.75,4,12.75Q4.149184,12.75,4.287013,12.69291Q4.424841,12.63582,4.53033,12.53033L4.530792,12.52987L12.52987,4.530792L12.53033,4.53033L12.53033,4.53033Z" fill-rule="evenodd" fill="#595959" fill-opacity="1"/></g></g></svg>