<svg xmlns="http://www.w3.org/2000/svg" xmlns:xlink="http://www.w3.org/1999/xlink" fill="none" version="1.1" width="16" height="16" viewBox="0 0 16 16"><g><g><path d="M13.99084365234375,7.8703055468750005Q13.38204365234375,8.581025546875,12.51434365234375,9.300255546875Q12.38544365234375,9.407125546875001,12.31414365234375,9.558675546875001Q12.24294365234375,9.710225546875,12.24294365234375,9.877685546875L12.24294365234375,9.885315546874999Q12.24434365234375,10.014425546875,12.28874365234375,10.135665546875Q12.33314365234375,10.256905546875,12.41554365234375,10.356305546875Q12.52234365234375,10.485235546875,12.67394365234375,10.556455546875Q12.82544365234375,10.627685546875,12.99294365234375,10.627685546875L13.00054365234375,10.627645546875Q13.12964365234375,10.626335546875,13.25094365234375,10.581925546875Q13.37214365234375,10.537505546875,13.47154365234375,10.455115546875Q14.74694365234375,9.397975546875,15.54664365234375,8.326225546875001L15.88134365234375,7.877685546875L15.54664365234375,7.429155546875Q12.33694365234375,3.127685546875,8.27891365234375,3.127685546875Q7.53600365234375,3.127685546875,6.77578365234375,3.316370546875L6.77550365234375,3.316438546875L6.77547365234375,3.3164455468750003Q6.63068365234375,3.352389546875,6.51067365234375,3.441005546875Q6.39066365234375,3.529621546875,6.31369365234375,3.6574185468750002Q6.20617365234375,3.835947246875,6.20617365234375,4.044352546875Q6.20617365234375,4.053442546875,6.20639365234375,4.062529546875Q6.20839365234375,4.144993546875,6.22827365234375,4.225051546875Q6.26421365234375,4.369841546875,6.35283365234375,4.489854546875Q6.44144365234375,4.609867546875,6.56924365234375,4.686833546875Q6.74777365234375,4.794352546875,6.95617365234375,4.794352546875Q6.96526365234375,4.794352546875,6.97435365234375,4.794131546875Q7.05681365234375,4.792132546875,7.13687365234375,4.772258546875Q7.71925365234375,4.627685546875,8.27891365234375,4.627685546875Q11.37421365234375,4.627685546875,13.99084365234375,7.8703055468750005ZM9.79400365234375,12.436025546875L9.79425365234375,12.435965546875Q9.85467365234375,12.420855546875,9.91177365234375,12.395975546875Q9.96887365234375,12.371105546875,10.02108365234375,12.337145546875Q10.07330365234375,12.303195546875,10.11920365234375,12.261095546875Q10.16510365234375,12.218995546875,10.20343365234375,12.169905546875Q10.24175365234375,12.120805546875,10.27145365234375,12.066065546875Q10.30116365234375,12.011315546875,10.32142365234375,11.952425546875Q10.34169365234375,11.893535546875,10.35196365234375,11.832105546874999Q10.36224365234375,11.770675546875001,10.36224365234375,11.708385546875L10.36216365234375,11.697445546874999Q10.36089365234375,11.610615546875,10.33982365234375,11.526375546875Q10.30362365234375,11.381655546874999,10.21478365234375,11.261795546875Q10.12595365234375,11.141945546875,9.99802365234375,11.065205546875Q9.81992365234375,10.958385546875,9.61224365234375,10.958385546875L9.611243652343749,10.958385546875Q9.519363652343749,10.958505546875,9.43023365234375,10.980805546875Q8.843073652343751,11.127685546875,8.27891365234375,11.127685546875Q5.18360365234375,11.127685546875,2.56693865234375,7.885065546875Q3.17568365234375,7.174455546875,4.04320365234375,6.455345546875L4.04348365234375,6.455105546875Q4.172413652343749,6.348245546875,4.24363365234375,6.1966955468750005Q4.31486365234375,6.045145546875,4.31486365234375,5.877685546875L4.31482365234375,5.870055546875Q4.31351365234375,5.740945546875,4.26909365234375,5.619705546875Q4.224683652343749,5.498465546875,4.14228365234375,5.399065546875Q4.03542365234375,5.270135546875,3.88387365234375,5.198915546875Q3.73232365234375,5.127685546875,3.56486365234375,5.127685546875L3.5572336523437498,5.127725546875Q3.42812365234375,5.129035546875,3.3068836523437497,5.173455546875Q3.18564365234375,5.217865546875,3.08624365234375,5.300265546875Q1.81088365234375,6.357395546875,1.01114665234375,7.429155546875L0.67645365234375,7.877685546875L1.01114665234375,8.326215546875Q4.22086365234375,12.627685546875,8.27891365234375,12.627685546875Q9.02705365234375,12.627685546875,9.79264365234375,12.436365546875L9.79400365234375,12.436025546875Z" fill-rule="evenodd" fill="#595959" fill-opacity="1"/></g><g><path d="M8.27891365234375,10.294120703125Q9.26584365234375,10.294120703125,9.97059365234375,9.603280703125Q10.07851365234375,9.497480703125,10.137043652343749,9.358150703125Q10.19557365234375,9.218820703125001,10.19557365234375,9.067690703124999Q10.19557365234375,9.052010703125,10.19492365234375,9.036350703125Q10.18910365234375,8.897350703125,10.13383365234375,8.769680703125001Q10.07855365234375,8.642020703125,9.98116365234375,8.542670703125Q9.87537365234375,8.434750703125,9.73604365234375,8.376220703125Q9.59670365234375,8.317690703125,9.44557365234375,8.317690703125Q9.42990365234375,8.317690703125,9.41423365234375,8.318340703125Q9.27524365234375,8.324160703125,9.14757365234375,8.379430703125Q9.01990365234375,8.434710703124999,8.92055365234375,8.532100703125Q8.65326365234375,8.794120703125,8.27891365234375,8.794120703125Q7.89922365234375,8.794120703125,7.63073365234375,8.525630703125Q7.36224365234375,8.257140703125,7.36224365234375,7.877450703125Q7.36224365234375,7.520704703125,7.60303665234375,7.258165703125Q7.69819365234375,7.154410703125,7.74925365234375,7.023208703125Q7.80031365234375,6.892006703125,7.80031365234375,6.75122083081Q7.80031365234375,6.735026703125,7.79961365234375,6.718847803125Q7.79317365234375,6.569802703125,7.73018365234375,6.434566703125Q7.6672036523437495,6.2993317031250005,7.55725465234375,6.198493703125Q7.45349965234375,6.103332703125,7.3222976523437495,6.052276703125Q7.19109665234375,6.001220703125,7.05031065234375,6.001220703125Q7.0341156523437505,6.001220703125,7.01793765234375,6.001919703125Q6.86888965234375,6.008358703125,6.73365265234375,6.071346703125Q6.59841615234375,6.134334703125,6.49757865234375,6.244281703125L6.49750165234375,6.244364703125Q5.86224365234375,6.937053703125,5.86224365234375,7.877450703125Q5.86224365234375,8.878460703125,6.57007195234375,9.586290703125Q7.27789965234375,10.294120703125,8.27891365234375,10.294120703125Z" fill-rule="evenodd" fill="#595959" fill-opacity="1"/></g><g><path d="M2.80935362890625,1.347509546875L2.80919962890625,1.347355546875Q2.70371062890625,1.2418665468749999,2.56588262890625,1.184775546875Q2.42805362890625,1.127685546875,2.27886962890625,1.127685546875Q2.12968562890625,1.127685546875,1.99185662890625,1.184775546875Q1.85402862890625,1.2418665468749999,1.74853962890625,1.347355546875Q1.6430506289062499,1.452844546875,1.58595962890625,1.590672546875Q1.52886962890625,1.728501546875,1.52886962890625,1.877685546875Q1.52886962890625,2.026869546875,1.58595962890625,2.164698546875Q1.6430506289062499,2.302526546875,1.74853962890625,2.408015546875L1.74869362890625,2.408169546875L13.74786962890625,14.407385546875L13.74856962890625,14.407985546875Q13.85406962890625,14.513485546875,13.99186962890625,14.570585546875Q14.12966962890625,14.627685546875,14.27886962890625,14.627685546875Q14.42806962890625,14.627685546875,14.56586962890625,14.570585546875Q14.70366962890625,14.513485546875,14.80916962890625,14.407985546875Q14.91466962890625,14.302485546875,14.97176962890625,14.164685546875Q15.02886962890625,14.026885546875,15.02886962890625,13.877685546875Q15.02886962890625,13.728485546875,14.97176962890625,13.590685546875Q14.91466962890625,13.452885546875,14.80916962890625,13.347385546875L14.80856962890625,13.346685546875L2.80935362890625,1.347509546875Z" fill-rule="evenodd" fill="#595959" fill-opacity="1"/></g></g></svg>