<svg xmlns="http://www.w3.org/2000/svg" xmlns:xlink="http://www.w3.org/1999/xlink" fill="none" version="1.1" width="24" height="24" viewBox="0 0 24 24"><g><g><path d="M12,23C15.0375,23,17.7875,21.7688,19.7782,19.7782C21.7688,17.7875,23,15.0375,23,12C23,8.96246,21.7688,6.21246,19.7782,4.22182C17.7875,2.23122,15.0375,1,12,1C8.96246,1,6.21246,2.23122,4.22182,4.22182C2.23122,6.21246,1,8.96246,1,12C1,15.0375,2.23122,17.7875,4.22182,19.7782C6.21246,21.7688,8.96246,23,12,23Z" fill="#00B955" fill-opacity="1"/></g><g><path d="M16.70711,10.707107Q16.84776,10.566455,16.92388,10.382683Q17,10.198912,17,10Q17,9.9015086,16.98078,9.80491Q16.961570000000002,9.708311,16.92388,9.617317Q16.88619,9.526322,16.83147,9.44443Q16.77675,9.362537,16.70711,9.292893Q16.63746,9.223249,16.55557,9.16853Q16.47368,9.113812,16.38268,9.076121Q16.29169,9.03843,16.19509,9.019214999999999Q16.098489999999998,9,16,9Q15.80109,9,15.61732,9.07612Q15.43355,9.152241,15.29289,9.292893L15.292580000000001,9.293207L11,13.58579L8.707107,11.29289Q8.566454,11.152239999999999,8.382683,11.07612Q8.198912,11,8,11Q7.9015086,11,7.80491,11.01921Q7.708311,11.03843,7.617317,11.07612Q7.526322,11.11381,7.44443,11.16853Q7.362537,11.22325,7.292893,11.29289Q7.223249,11.36254,7.16853,11.44443Q7.113812,11.52632,7.076121,11.61732Q7.03843,11.70831,7.019215,11.80491Q7,11.90151,7,12Q7,12.19891,7.0761199999999995,12.38268Q7.152241,12.56645,7.292893,12.70711L7.293321,12.70753L10.29289,15.70711Q10.36254,15.77675,10.44443,15.83147Q10.52632,15.88619,10.61732,15.92388Q10.70831,15.96157,10.80491,15.98078Q10.90151,16,11,16Q11.09849,16,11.19509,15.98078Q11.29169,15.96157,11.38268,15.92388Q11.47368,15.88619,11.55557,15.83147Q11.63746,15.77675,11.70711,15.70711L16.706789999999998,10.707421L16.70711,10.707107L16.70711,10.707107Z" fill-rule="evenodd" fill="#FFFFFF" fill-opacity="1"/></g></g></svg>