<svg xmlns="http://www.w3.org/2000/svg" xmlns:xlink="http://www.w3.org/1999/xlink" fill="none" version="1.1" width="16" height="16" viewBox="0 0 16 16"><defs><clipPath id="master_svg0_61_3831"><rect x="0" y="0" width="16" height="16" rx="0"/></clipPath></defs><g clip-path="url(#master_svg0_61_3831)"><g transform="matrix(-1,0,0,1,28.66650390625,0)"><path d="M20.333251953125,7.25L14.333251953125,7.25Q14.259383453125,7.25,14.186933953125,7.264411Q14.114484953125,7.278822,14.046238953125,7.30709Q13.977993953125,7.335359,13.916573953125,7.376398Q13.855154953125,7.417437,13.802921953125,7.46967Q13.750688953125,7.521903,13.709649953125,7.583322Q13.668610953125,7.644742,13.640341953125,7.712987Q13.612073953125,7.781233,13.597662953124999,7.853682Q13.583251953125,7.9261315,13.583251953125,8Q13.583251953125,8.0738685,13.597662953124999,8.146318Q13.612073953125,8.218767,13.640341953125,8.287013Q13.668610953125,8.355258,13.709649953125,8.416678Q13.750688953125,8.478097,13.802921953125,8.53033Q13.855154953125,8.582563,13.916573953125,8.623602Q13.977993953125,8.664641,14.046238953125,8.69291Q14.114484953125,8.721178,14.186933953125,8.735589000000001Q14.259383453125,8.75,14.333251953125,8.75L20.333251953125,8.75Q20.407121953125,8.75,20.479571953125,8.735589000000001Q20.552021953125,8.721178,20.620261953125002,8.69291Q20.688511953125,8.664641,20.749931953125,8.623602Q20.811351953125,8.582563,20.863581953125,8.53033Q20.915811953125,8.478097,20.956851953125,8.416678Q20.997891953125,8.355258,21.026161953125,8.287013Q21.054431953125,8.218767,21.068841953125002,8.146318Q21.083251953125,8.0738685,21.083251953125,8Q21.083251953125,7.9261315,21.068841953125002,7.853682Q21.054431953125,7.781233,21.026161953125,7.712987Q20.997891953125,7.644742,20.956851953125,7.583322Q20.915811953125,7.521903,20.863581953125,7.46967Q20.811351953125,7.417437,20.749931953125,7.376398Q20.688511953125,7.335359,20.620261953125002,7.30709Q20.552021953125,7.278822,20.479571953125,7.264411Q20.407121953125,7.25,20.333251953125,7.25Z" fill-rule="evenodd" fill="#595959" fill-opacity="1"/></g><g transform="matrix(-1,0,0,1,28.66650390625,0)"><path d="M16.863581953125,6.53033L16.864011953125,6.529901Q16.867011953125,6.526895,16.869981953125,6.523856L16.870401953125,6.523421Q16.972761953125,6.418381,17.028001953125,6.282522Q17.083251953125,6.146663,17.083251953125,6Q17.083251953125,5.850816,17.026161953125,5.712987Q16.969071953125,5.575159,16.863581953125,5.46967Q16.758091953125,5.364181,16.620261953125,5.30709Q16.482431953125,5.25,16.333251953125,5.25Q16.184071953125,5.25,16.046241953125,5.30709Q15.908411953125,5.364181,15.802921953125,5.46967L15.802771953125,5.469824L13.802921953125,7.46967Q13.750688953125,7.5219000000000005,13.709649953125,7.5833200000000005Q13.668610953125,7.6447400000000005,13.640341953125,7.71299Q13.612073953125,7.78123,13.597662953124999,7.85368Q13.583251953125,7.92613,13.583251953125,8Q13.583251953125,8.07387,13.597662953124999,8.14632Q13.612073953125,8.21877,13.640341953125,8.28701Q13.668610953125,8.35526,13.709649953125,8.41668Q13.750688953125,8.4781,13.802921953125,8.53033L15.802921953125,10.53033Q15.908411953125,10.635819999999999,16.046241953125,10.692910000000001Q16.184071953125,10.75,16.333251953125,10.75Q16.482431953125,10.75,16.620261953125,10.692910000000001Q16.758091953125,10.635819999999999,16.863581953125,10.53033Q16.969071953125,10.42484,17.026161953125,10.28701Q17.083251953125,10.149180000000001,17.083251953125,10Q17.083251953125,9.85082,17.026161953125,9.71299Q16.969071953125,9.57516,16.863581953125,9.46967L15.393911953125,8L16.863581953125,6.53033Z" fill-rule="evenodd" fill="#595959" fill-opacity="1"/></g><g transform="matrix(-1,0,0,1,20,0)"><path d="M10.75,13L10.75,11Q10.75,10.92613,10.735589000000001,10.85368Q10.721178,10.78123,10.69291,10.71299Q10.664641,10.64474,10.623602,10.58332Q10.582563,10.5219,10.53033,10.46967Q10.478097,10.41744,10.416678,10.3764Q10.355258,10.33536,10.287013,10.30709Q10.218767,10.27882,10.146318,10.26441Q10.0738685,10.25,10,10.25Q9.9261315,10.25,9.853682,10.26441Q9.781233,10.27882,9.712987,10.30709Q9.644742,10.33536,9.583322,10.3764Q9.521903,10.41744,9.46967,10.46967Q9.417437,10.5219,9.376398,10.58332Q9.335359,10.64474,9.30709,10.71299Q9.278822,10.78123,9.264410999999999,10.85368Q9.25,10.92613,9.25,11L9.25,13Q9.25,13.7249,9.762563,14.2374Q10.275127,14.75,11,14.75L17,14.75Q17.72487,14.75,18.23744,14.2374Q18.75,13.7249,18.75,13L18.75,3Q18.75,2.275126,18.23744,1.762563Q17.72487,1.25,17,1.25L11,1.25Q10.275126,1.25,9.762563,1.762563Q9.25,2.275126,9.25,3L9.25,5Q9.25,5.073869999999999,9.264410999999999,5.146319999999999Q9.278822,5.21877,9.30709,5.28701Q9.335359,5.3552599999999995,9.376398,5.4166799999999995Q9.417437,5.4780999999999995,9.46967,5.53033Q9.521903,5.58256,9.583322,5.6236Q9.644742,5.66464,9.712987,5.6929099999999995Q9.781233,5.72118,9.853682,5.73559Q9.9261315,5.75,10,5.75Q10.0738685,5.75,10.146318,5.73559Q10.218767,5.72118,10.287013,5.6929099999999995Q10.355258,5.66464,10.416678,5.6236Q10.478097,5.58256,10.53033,5.53033Q10.582563,5.4780999999999995,10.623602,5.4166799999999995Q10.664641,5.3552599999999995,10.69291,5.28701Q10.721178,5.21877,10.735589000000001,5.146319999999999Q10.75,5.073869999999999,10.75,5L10.75,3Q10.75,2.896447,10.823223,2.823223Q10.896447,2.75,11,2.75L17,2.75Q17.25,2.75,17.25,3L17.25,13Q17.25,13.25,17,13.25L11,13.25Q10.75,13.25,10.75,13Z" fill-rule="evenodd" fill="#595959" fill-opacity="1"/></g></g></svg>