<svg xmlns="http://www.w3.org/2000/svg" xmlns:xlink="http://www.w3.org/1999/xlink" fill="none" version="1.1" width="16" height="16" viewBox="0 0 16 16"><g><g></g><g><path d="M0.5833740234375,7.999921953125Q0.5833740234375,11.071981953125,2.7556640234375003,13.244251953125Q4.9279940234375,15.416551953125,8.0000440234375,15.416551953125Q11.0720940234375,15.416551953125,13.2443740234375,13.244251953125Q15.4166740234375,11.071971953125,15.4166740234375,7.999921953125Q15.4166740234375,4.927871953125,13.2443740234375,2.7555419531250003Q11.0721040234375,0.583251953125,8.0000440234375,0.583251953125Q4.9279940234375,0.583251953125,2.7556640234375003,2.7555419531250003Q0.5833740234375,4.927871953125,0.5833740234375,7.999921953125ZM8.0000440234375,13.916551953125Q5.5493040234375,13.916551953125,3.8163240234375,12.183651953125Q2.0833740234375,10.450661953125,2.0833740234375,7.999921953125Q2.0833740234375,5.549181953125,3.8163240234375,3.816201953125Q5.5493040234375,2.083251953125,8.0000440234375,2.083251953125Q10.4507840234375,2.083251953125,12.1837740234375,3.816201953125Q13.9166740234375,5.549191953125,13.9166740234375,7.999921953125Q13.9166740234375,10.450651953125,12.1837740234375,12.183651953125Q10.4507740234375,13.916551953125,8.0000440234375,13.916551953125Z" fill-rule="evenodd" fill="#595959" fill-opacity="1"/></g><g><path d="M6.0554575,4.263709453125Q5.25,5.069166953125,5.25,6.208251953125Q5.25,6.282121953124999,5.264411,6.354571953124999Q5.278822,6.427021953125,5.30709,6.495261953125Q5.335359,6.5635119531249995,5.376398,6.6249319531249995Q5.417437,6.6863519531249995,5.46967,6.738581953125Q5.521903,6.790811953125,5.583322,6.831851953125Q5.644742,6.872891953125,5.712987,6.9011619531249995Q5.781233,6.929431953125,5.853682,6.943841953125Q5.9261315,6.958251953125,6,6.958251953125Q6.0738685,6.958251953125,6.146318,6.943841953125Q6.218767,6.929431953125,6.287013,6.9011619531249995Q6.355258,6.872891953125,6.416678,6.831851953125Q6.478097,6.790811953125,6.53033,6.738581953125Q6.582563,6.6863519531249995,6.623602,6.6249319531249995Q6.664641,6.5635119531249995,6.69291,6.495261953125Q6.721178,6.427021953125,6.735589,6.354571953124999Q6.75,6.282121953124999,6.75,6.208251953125Q6.75,5.690491953125,7.1161200000000004,5.3243719531250004Q7.48224,4.958251953125,8,4.958251953125Q8.517759999999999,4.958251953125,8.88388,5.3243719531250004Q9.25,5.6904819531249995,9.25,6.208251953125Q9.25,6.7260219531250005,8.88388,7.0921319531249996Q8.51777,7.458251953125,8,7.458251953125Q7.92613,7.458251953125,7.85368,7.472661953125Q7.78123,7.487071953125,7.71299,7.5153419531250005Q7.6447400000000005,7.543611953125,7.5833200000000005,7.584651953125Q7.5219000000000005,7.625691953125,7.46967,7.677921953125Q7.41744,7.7301519531250005,7.3764,7.7915719531250005Q7.33536,7.8529919531250005,7.3070900000000005,7.921241953125Q7.27882,7.989481953125,7.26441,8.061931953125Q7.25,8.134381953125,7.25,8.208251953125L7.25,9.541581953125Q7.25,9.615451953125,7.26441,9.687901953125Q7.27882,9.760351953125,7.3070900000000005,9.828601953125Q7.33536,9.896841953125,7.3764,9.958261953125Q7.41744,10.019681953125,7.46967,10.071911953125Q7.5219000000000005,10.124151953125,7.5833200000000005,10.165181953125Q7.6447400000000005,10.206221953124999,7.71299,10.234491953125Q7.78123,10.262761953125,7.85368,10.277171953125Q7.92613,10.291581953125,8,10.291581953125Q8.07387,10.291581953125,8.14632,10.277171953125Q8.21877,10.262761953125,8.28701,10.234491953125Q8.35526,10.206221953124999,8.41668,10.165181953125Q8.4781,10.124151953125,8.53033,10.071911953125Q8.58256,10.019681953125,8.6236,9.958261953125Q8.66464,9.896841953125,8.69291,9.828601953125Q8.72118,9.760351953125,8.73559,9.687901953125Q8.75,9.615451953125,8.75,9.541581953125L8.75,8.861361953125Q9.41844,8.678891953125,9.94454,8.152791953125Q10.75,7.347331953125,10.75,6.208251953125Q10.75,5.069166953125,9.94454,4.263709453125Q9.13908,3.458251953125,8,3.458251953125Q6.860915,3.458251953125,6.0554575,4.263709453125Z" fill-rule="evenodd" fill="#595959" fill-opacity="1"/></g><g><path d="M8.8332959765625,11.708333Q8.8332959765625,11.79041,8.8172759765625,11.870909Q8.801265976562501,11.95141,8.7698559765625,12.027239999999999Q8.7384459765625,12.10306,8.6928459765625,12.17131Q8.6472559765625,12.23955,8.5892159765625,12.29759Q8.5311759765625,12.35563,8.4629359765625,12.40122Q8.3946859765625,12.44682,8.318865976562499,12.47823Q8.2430359765625,12.509640000000001,8.1625349765625,12.52565Q8.0820359765625,12.54167,7.9999589765625,12.54167Q7.9178829765625,12.54167,7.8373839765625,12.52565Q7.7568849765625,12.509640000000001,7.6810559765625,12.47823Q7.6052279765625,12.44682,7.5369839765625,12.40122Q7.4687399765624995,12.35563,7.4107039765625,12.29759Q7.3526669765625,12.23955,7.3070679765625,12.17131Q7.2614688765625,12.10306,7.2300596765625,12.027239999999999Q7.1986504765625,11.95141,7.1826382765625,11.870909Q7.1666259765625,11.79041,7.1666259765625,11.708333Q7.1666259765625,11.626257,7.1826382765625,11.545758Q7.1986504765625,11.465259,7.2300596765625,11.38943Q7.2614688765625,11.313602,7.3070679765625,11.245358Q7.3526669765625,11.177114,7.4107039765625,11.119078Q7.4687399765624995,11.061041,7.5369839765625,11.015442Q7.6052279765625,10.9698429,7.6810559765625,10.9384337Q7.7568849765625,10.9070245,7.8373839765625,10.8910123Q7.9178829765625,10.875,7.9999589765625,10.875Q8.0820359765625,10.875,8.1625349765625,10.8910123Q8.2430359765625,10.9070245,8.318865976562499,10.9384337Q8.3946859765625,10.9698429,8.4629359765625,11.015442Q8.5311759765625,11.061041,8.5892159765625,11.119078Q8.6472559765625,11.177114,8.6928459765625,11.245358Q8.7384459765625,11.313602,8.7698559765625,11.38943Q8.801265976562501,11.465259,8.8172759765625,11.545758Q8.8332959765625,11.626257,8.8332959765625,11.708333Z" fill="#595959" fill-opacity="1"/></g></g></svg>