<svg xmlns="http://www.w3.org/2000/svg" xmlns:xlink="http://www.w3.org/1999/xlink" fill="none" version="1.1" width="32" height="32" viewBox="0 0 32 32"><defs><clipPath id="master_svg0_144_8854"><rect x="6" y="6" width="20" height="20" rx="0"/></clipPath></defs><g><g clip-path="url(#master_svg0_144_8854)"><g transform="matrix(-1,0,0,-1,46.16748046875,27.83349609375)"><path d="M23.833740234375,18.166748046875L23.833740234375,13.916748046875Q23.833740234375,13.842879546875,23.819329234375,13.770430046875Q23.804918234375,13.697981046875,23.776650234375,13.629735046875Q23.748381234375,13.561490046875,23.707342234374998,13.500070046875Q23.666303234375,13.438651046875,23.614070234375,13.386418046875Q23.561837234374998,13.334185046875,23.500418234375,13.293146046875Q23.438998234375,13.252107046875,23.370753234375,13.223838046875Q23.302507234375,13.195570046875,23.230058234375,13.181159046874999Q23.157608734375,13.166748046875,23.083740234375,13.166748046875Q23.009871734375,13.166748046875,22.937422234375,13.181159046874999Q22.864973234375,13.195570046875,22.796727234375,13.223838046875Q22.728482234375,13.252107046875,22.667062234375,13.293146046875Q22.605643234375002,13.334185046875,22.553410234375,13.386418046875Q22.501177234375,13.438651046875,22.460138234375002,13.500070046875Q22.419099234375,13.561490046875,22.390830234375,13.629735046875Q22.362562234375,13.697981046875,22.348151234375,13.770430046875Q22.333740234375,13.842879546875,22.333740234375,13.916748046875L22.333740234375,18.916748046875Q22.333740234375,18.990618046875,22.348151234375,19.063068046875Q22.362562234375,19.135518046875,22.390830234375,19.203758046875002Q22.419099234375,19.272008046875,22.460138234375002,19.333428046875Q22.501177234375,19.394848046875,22.553410234375,19.447078046875Q22.605643234375002,19.499308046875,22.667062234375,19.540348046875Q22.728482234375,19.581388046875,22.796727234375,19.609658046875Q22.864973234375,19.637928046875,22.937422234375,19.652338046875002Q23.009871734375,19.666748046875,23.083740234375,19.666748046875L28.083740234375,19.666748046875Q28.157610234375,19.666748046875,28.230060234375,19.652338046875002Q28.302510234375,19.637928046875,28.370750234375002,19.609658046875Q28.439000234375,19.581388046875,28.500420234375,19.540348046875Q28.561840234375,19.499308046875,28.614070234375,19.447078046875Q28.666300234375,19.394848046875,28.707340234375,19.333428046875Q28.748380234375,19.272008046875,28.776650234375,19.203758046875002Q28.804920234375,19.135518046875,28.819330234375002,19.063068046875Q28.833740234375,18.990618046875,28.833740234375,18.916748046875Q28.833740234375,18.842878046875,28.819330234375002,18.770428046875Q28.804920234375,18.697978046875,28.776650234375,18.629738046874998Q28.748380234375,18.561488046875,28.707340234375,18.500068046875Q28.666300234375,18.438648046875,28.614070234375,18.386418046875Q28.561840234375,18.334188046875,28.500420234375,18.293148046875Q28.439000234375,18.252108046875,28.370750234375002,18.223838046875Q28.302510234375,18.195568046875,28.230060234375,18.181158046874998Q28.157610234375,18.166748046875,28.083740234375,18.166748046875L23.833740234375,18.166748046875Z" fill-rule="evenodd" fill="#595959" fill-opacity="1"/></g><g transform="matrix(-1,0,0,-1,27.83251953125,46.16650390625)"><path d="M18.166259765625,23.833251953125L18.166259765625,28.083251953125Q18.166259765625,28.157121953125,18.180669765624998,28.229571953125Q18.195079765625,28.302021953125,18.223349765625,28.370261953125002Q18.251619765625,28.438511953125,18.292659765625,28.499931953125Q18.333699765625,28.561351953125,18.385929765625,28.613581953125Q18.438159765625,28.665811953125,18.499579765625,28.706851953125Q18.560999765625,28.747891953125,18.629249765624998,28.776161953125Q18.697489765625,28.804431953125,18.769939765625,28.818841953125002Q18.842389765625,28.833251953125,18.916259765625,28.833251953125Q18.990129765625,28.833251953125,19.062579765625,28.818841953125002Q19.135029765625,28.804431953125,19.203269765625002,28.776161953125Q19.271519765625,28.747891953125,19.332939765625,28.706851953125Q19.394359765625,28.665811953125,19.446589765625,28.613581953125Q19.498819765625,28.561351953125,19.539859765625,28.499931953125Q19.580899765625,28.438511953125,19.609169765625,28.370261953125002Q19.637439765625,28.302021953125,19.651849765625002,28.229571953125Q19.666259765625,28.157121953125,19.666259765625,28.083251953125L19.666259765625,23.083251953125Q19.666259765625,23.009383453125,19.651849765625002,22.936933953125Q19.637439765625,22.864484953125,19.609169765625,22.796238953125Q19.580899765625,22.727993953125,19.539859765625,22.666573953125Q19.498819765625,22.605154953125002,19.446589765625,22.552921953125Q19.394359765625,22.500688953125,19.332939765625,22.459649953125002Q19.271519765625,22.418610953125,19.203269765625002,22.390341953125Q19.135029765625,22.362073953125,19.062579765625,22.347662953125Q18.990129765625,22.333251953125,18.916259765625,22.333251953125L13.916259765625,22.333251953125Q13.842391265625,22.333251953125,13.769941765625,22.347662953125Q13.697492765625,22.362073953125,13.629246765625,22.390341953125Q13.561001765625,22.418610953125,13.499581765625,22.459649953125002Q13.438162765625,22.500688953125,13.385929765625,22.552921953125Q13.333696765625,22.605154953125002,13.292657765625,22.666573953125Q13.251618765625,22.727993953125,13.223349765625,22.796238953125Q13.195081765625,22.864484953125,13.180670765624999,22.936933953125Q13.166259765625,23.009383453125,13.166259765625,23.083251953125Q13.166259765625,23.157120453125,13.180670765624999,23.229569953125Q13.195081765625,23.302018953125,13.223349765625,23.370264953125Q13.251618765625,23.438509953125,13.292657765625,23.499929953125Q13.333696765625,23.561348953124998,13.385929765625,23.613581953125Q13.438162765625,23.665814953125,13.499581765625,23.706853953124998Q13.561001765625,23.747892953125,13.629246765625,23.776161953125Q13.697492765625,23.804429953125,13.769941765625,23.818840953125Q13.842391265625,23.833251953125,13.916259765625,23.833251953125L18.166259765625,23.833251953125Z" fill-rule="evenodd" fill="#595959" fill-opacity="1"/></g><g><path d="M23.613259765625,9.447078046875L23.613689765625,9.446649046875Q23.616689765625,9.443643046875,23.619649765625,9.440604046875L23.620079765625,9.440169046875Q23.722429765625,9.335129046875,23.777679765625,9.199270046875Q23.832929765625,9.063411046875,23.832929765625,8.916748046875Q23.832929765625,8.767564046875,23.775839765625,8.629735046875Q23.718749765625,8.491907046875,23.613259765625,8.386418046875Q23.507769765625,8.280929046875,23.369939765625,8.223838046875Q23.232109765625,8.166748046875,23.082929765625,8.166748046875Q22.933739765625,8.166748046875,22.795909765624998,8.223838046875Q22.658089765625,8.280929046875,22.552599765625,8.386418046875L17.135929765625,13.803088046875Q17.030440765625,13.908578046875,16.973349765625,14.046398046875Q16.916259765625,14.184228046874999,16.916259765625,14.333418046875Q16.916259765625,14.482598046875001,16.973349765625,14.620428046875Q17.030440765625,14.758258046875,17.135929765625,14.863748046875Q17.241418765625,14.969238046874999,17.379246765625,15.026328046875001Q17.517075765625,15.083418046875,17.666259765625,15.083418046875Q17.815443765625,15.083418046875,17.953272765625,15.026328046875001Q18.091100765625,14.969238046874999,18.196589765625,14.863748046875L23.613259765625,9.447078046875Z" fill-rule="evenodd" fill="#595959" fill-opacity="1"/></g><g><path d="M14.446589765625,18.613581953125L14.447019765625,18.613152953125Q14.450019765625001,18.610146953125,14.452989765625,18.607107953125L14.453409765625,18.606672953125Q14.555769765625,18.501632953125,14.611009765624999,18.365773953125Q14.666259765625,18.229914953125,14.666259765625,18.083251953125Q14.666259765625,17.934067953125,14.609169765625001,17.796238953125Q14.552079765624999,17.658410953125,14.446589765625,17.552921953125Q14.341099765625,17.447432953125,14.203269765625,17.390341953125Q14.065439765625001,17.333251953125,13.916259765625,17.333251953125Q13.767079765624999,17.333251953125,13.629249765625,17.390341953125Q13.491419765625,17.447432953125,13.385929765625,17.552921953125L8.385929765625,22.552921953125Q8.280440765625,22.658411953125,8.223349765625,22.796241953124998Q8.166259765625,22.934071953125,8.166259765625,23.083251953125Q8.166259765625,23.232431953125,8.223349765625,23.370261953125002Q8.280440765625,23.508091953125,8.385929765625,23.613581953125Q8.491418765625,23.719071953125,8.629246765625,23.776161953125Q8.767075765625,23.833251953125,8.916259765625,23.833251953125Q9.065443765625,23.833251953125,9.203272765625,23.776161953125Q9.341100765625,23.719071953125,9.446589765625,23.613581953125L14.446589765625,18.613581953125Z" fill-rule="evenodd" fill="#595959" fill-opacity="1"/></g></g></g></svg>