<svg xmlns="http://www.w3.org/2000/svg" xmlns:xlink="http://www.w3.org/1999/xlink" fill="none" version="1.1" width="24" height="24" viewBox="0 0 24 24"><g><g><path d="M23,12Q23,12.27,22.9867,12.5397Q22.9735,12.8095,22.947,13.0782Q22.9206,13.3469,22.8809,13.614Q22.8413,13.8811,22.7886,14.146Q22.736,14.4108,22.6703,14.6728Q22.6047,14.9347,22.5263,15.1931Q22.448,15.4515,22.357,15.7058Q22.266,15.96,22.1627,16.2095Q22.0593,16.459,21.9439,16.7031Q21.8284,16.947200000000002,21.7011,17.1854Q21.5738,17.4235,21.435,17.6551Q21.2962,17.8867,21.1462,18.1113Q20.9961,18.3358,20.8353,18.5527Q20.6744,18.7696,20.5031,18.9783Q20.3318,19.1871,20.1505,19.3871Q19.9691,19.5872,19.7782,19.7782Q19.5872,19.9691,19.3871,20.1505Q19.1871,20.3318,18.9783,20.5031Q18.7696,20.6744,18.5527,20.8353Q18.3358,20.9961,18.1113,21.1462Q17.8867,21.2962,17.6551,21.435Q17.4235,21.5738,17.1854,21.7011Q16.947200000000002,21.8284,16.7031,21.9439Q16.459,22.0593,16.2095,22.1627Q15.96,22.266,15.7058,22.357Q15.4515,22.448,15.1931,22.5263Q14.9347,22.6047,14.6728,22.6703Q14.4108,22.736,14.146,22.7886Q13.8811,22.8413,13.614,22.8809Q13.3469,22.9206,13.0782,22.947Q12.8095,22.9735,12.5397,22.9867Q12.27,23,12,23Q11.73,23,11.4603,22.9867Q11.1905,22.9735,10.92181,22.947Q10.65308,22.9206,10.38596,22.8809Q10.11885,22.8413,9.854,22.7886Q9.58916,22.736,9.32722,22.6703Q9.06527,22.6047,8.80687,22.5263Q8.54846,22.448,8.29421,22.357Q8.03996,22.266,7.79048,22.1627Q7.541,22.0593,7.29689,21.9439Q7.05279,21.8284,6.81464,21.7011Q6.57649,21.5738,6.34487,21.435Q6.11325,21.2962,5.88873,21.1462Q5.6642,20.9961,5.44731,20.8353Q5.23041,20.6744,5.02167,20.5031Q4.81293,20.3318,4.61285,20.1505Q4.41277,19.9691,4.221830000000001,19.7782Q4.03088,19.5872,3.84954,19.3871Q3.66819,19.1871,3.49688,18.9783Q3.32558,18.7696,3.16472,18.5527Q3.00386,18.3358,2.8538300000000003,18.1113Q2.70381,17.8867,2.56499,17.6551Q2.4261600000000003,17.4235,2.29887,17.1854Q2.17157,16.947200000000002,2.05612,16.7031Q1.940663,16.459,1.8373249999999999,16.2095Q1.733987,15.96,1.6430150000000001,15.7058Q1.5520429999999998,15.4515,1.473656,15.1931Q1.3952689999999999,14.9347,1.329656,14.6728Q1.264043,14.4108,1.211362,14.146Q1.158681,13.8811,1.1190579999999999,13.614Q1.079436,13.3469,1.052968,13.0782Q1.0265,12.8095,1.01325,12.5397Q1,12.27,1,12Q1,11.73,1.01325,11.4603Q1.0265,11.1905,1.052968,10.92181Q1.079436,10.65308,1.1190579999999999,10.38596Q1.158681,10.11885,1.211362,9.854Q1.264043,9.58916,1.329656,9.32722Q1.3952689999999999,9.06527,1.473656,8.80687Q1.5520429999999998,8.54846,1.6430150000000001,8.29421Q1.733987,8.03996,1.8373249999999999,7.79048Q1.940663,7.541,2.05612,7.29689Q2.17157,7.05278,2.29887,6.81464Q2.4261600000000003,6.57649,2.56499,6.34487Q2.70381,6.11325,2.8538300000000003,5.88873Q3.00386,5.6642,3.16472,5.44731Q3.32558,5.23041,3.49688,5.02167Q3.66819,4.81293,3.84954,4.61285Q4.03088,4.41277,4.221830000000001,4.22182Q4.41277,4.03088,4.61285,3.84954Q4.81293,3.66819,5.02167,3.49688Q5.23041,3.32558,5.44731,3.16472Q5.6642,3.00386,5.88873,2.8538300000000003Q6.11325,2.70381,6.34487,2.5649800000000003Q6.57649,2.4261600000000003,6.81464,2.29887Q7.05279,2.17157,7.29689,2.05612Q7.541,1.940663,7.79048,1.8373249999999999Q8.03996,1.733987,8.29421,1.6430150000000001Q8.54846,1.5520429999999998,8.80687,1.473656Q9.06527,1.3952689999999999,9.32722,1.329656Q9.58916,1.264043,9.854,1.211362Q10.11885,1.158681,10.38596,1.1190579999999999Q10.65308,1.079436,10.92181,1.052968Q11.1905,1.0265,11.4603,1.01325Q11.73,1,12,1Q12.27,1,12.5397,1.01325Q12.8095,1.0265,13.0782,1.052968Q13.3469,1.079436,13.614,1.1190579999999999Q13.8811,1.158681,14.146,1.211362Q14.4108,1.264043,14.6728,1.329656Q14.9347,1.3952689999999999,15.1931,1.473656Q15.4515,1.5520429999999998,15.7058,1.6430150000000001Q15.96,1.733987,16.2095,1.8373249999999999Q16.459,1.940663,16.7031,2.05612Q16.947200000000002,2.17157,17.1854,2.29887Q17.4235,2.4261600000000003,17.6551,2.5649800000000003Q17.8867,2.70381,18.1113,2.8538300000000003Q18.3358,3.00386,18.5527,3.16472Q18.7696,3.32558,18.9783,3.49688Q19.1871,3.66819,19.3871,3.84954Q19.5872,4.03088,19.7782,4.22182Q19.9691,4.41277,20.1505,4.61285Q20.3318,4.81293,20.5031,5.02167Q20.6744,5.23041,20.8353,5.44731Q20.9961,5.6642,21.1462,5.88873Q21.2962,6.11325,21.435,6.34487Q21.5738,6.57649,21.7011,6.81464Q21.8284,7.05278,21.9439,7.29689Q22.0593,7.541,22.1627,7.79048Q22.266,8.03996,22.357,8.29421Q22.448,8.54846,22.5263,8.80687Q22.6047,9.06527,22.6703,9.32722Q22.736,9.58916,22.7886,9.854Q22.8413,10.11885,22.8809,10.38596Q22.9206,10.65308,22.947,10.92181Q22.9735,11.1905,22.9867,11.4603Q23,11.73,23,12Z" fill="#EB4100" fill-opacity="1"/></g><g><path d="M15.535468789062499,9.878737859375Q15.6761187890625,9.738085859375,15.752238789062499,9.554313859375Q15.8283587890625,9.370542859375,15.8283587890625,9.171630859375Q15.8283587890625,9.073139459375,15.8091387890625,8.976540859375Q15.7899287890625,8.879941859375,15.752238789062499,8.788947859375Q15.714548789062501,8.697952859375,15.6598287890625,8.616060859375Q15.6051087890625,8.534167859375,15.535468789062499,8.464523859375Q15.4658187890625,8.394879859375,15.3839287890625,8.340160859375Q15.3020387890625,8.285442859375,15.2110387890625,8.247751859375Q15.120048789062501,8.210060859375,15.023448789062499,8.190845859374999Q14.9268487890625,8.171630859375,14.8283587890625,8.171630859375Q14.6294487890625,8.171630859375,14.4456787890625,8.247750859375Q14.261908789062499,8.323871859375,14.1212487890625,8.464523859375L14.1209387890625,8.464837859375L8.4644017890625,14.121370859375Q8.3237497890625,14.262020859375,8.2476287890625,14.445800859375Q8.1715087890625,14.629570859375,8.1715087890625,14.828480859375Q8.1715087890625,14.926970859375,8.190723789062499,15.023570859374999Q8.2099387890625,15.120170859375001,8.2476297890625,15.211160859375Q8.2853207890625,15.302160859375,8.3400387890625,15.384050859375Q8.3947577890625,15.465940859375,8.4644017890625,15.535590859374999Q8.5340457890625,15.605230859375,8.6159387890625,15.659950859375Q8.6978307890625,15.714670859375001,8.7888257890625,15.752360859374999Q8.8798197890625,15.790050859375,8.9764187890625,15.809260859375Q9.0730173890625,15.828480859375,9.1715087890625,15.828480859375Q9.3704207890625,15.828480859375,9.5541917890625,15.752360859374999Q9.7379627890625,15.676240859375,9.8786157890625,15.535590859374999L15.5351487890625,9.879051859375L15.535468789062499,9.878737859375L15.535468789062499,9.878737859375Z" fill-rule="evenodd" fill="#FFFFFF" fill-opacity="1"/></g><g><path d="M8.464523859375,9.878737859375Q8.323871859375,9.738085859375,8.247750859375,9.554313859375Q8.171630859375,9.370542859375,8.171630859375,9.171630859375Q8.171630859375,9.073139459375,8.190845859374999,8.976540859375Q8.210060859375,8.879941859375,8.247751859375,8.788947859375Q8.285442859375,8.697952859375,8.340160859375,8.616060859375Q8.394879859375,8.534167859375,8.464523859375,8.464523859375Q8.534167859375,8.394879859375,8.616060859375,8.340160859375Q8.697952859375,8.285442859375,8.788947859375,8.247751859375Q8.879941859375,8.210060859375,8.976540859375,8.190845859374999Q9.073139459375,8.171630859375,9.171630859375,8.171630859375Q9.370542859375,8.171630859375,9.554313859375,8.247750859375Q9.738084859375,8.323871859375,9.878737859375,8.464523859375L15.535590859374999,14.121370859375Q15.676240859375,14.262020859375,15.752360859374999,14.445800859375Q15.828480859375,14.629570859375,15.828480859375,14.828480859375Q15.828480859375,14.926970859375,15.809260859375,15.023570859374999Q15.790050859375,15.120170859375001,15.752360859374999,15.211160859375Q15.714670859375001,15.302160859375,15.659950859375,15.384050859375Q15.605230859375,15.465940859375,15.535590859374999,15.535590859374999Q15.465940859375,15.605230859375,15.384050859375,15.659950859375Q15.302160859375,15.714670859375001,15.211160859375,15.752360859374999Q15.120170859375001,15.790050859375,15.023570859374999,15.809260859375Q14.926970859375,15.828480859375,14.828480859375,15.828480859375Q14.629570859375,15.828480859375,14.445800859375,15.752360859374999Q14.262030859374999,15.676240859375,14.121370859375,15.535590859374999L8.464523859375,9.878737859375Z" fill-rule="evenodd" fill="#FFFFFF" fill-opacity="1"/></g></g></svg>