<svg xmlns="http://www.w3.org/2000/svg" xmlns:xlink="http://www.w3.org/1999/xlink" fill="none" version="1.1" width="16" height="16" viewBox="0 0 16 16"><g transform="matrix(-1,0,0,1,32,0)"><g><rect x="16" y="0" width="16" height="16" rx="0" fill-opacity="0" stroke-opacity="1" stroke="#595959" fill="none" stroke-width="0"/></g><g><path d="M18.802960108093263,12.136291053771973L18.803347108093263,12.135911053771972L22.93930110809326,7.9999610537719725L18.802960108093263,3.863621053771973Q18.69747110809326,3.7581310537719728,18.64038040809326,3.6203010537719726Q18.58329010009326,3.4824750537719726,18.58329010009326,3.3332910537719727Q18.58329010009326,3.2594220537719725,18.59770110809326,3.1869730537719727Q18.61211220809326,3.1145240537719725,18.64038040809326,3.0462780537719727Q18.66864870809326,2.9780330537719726,18.70968810809326,2.9166130537719726Q18.750727108093262,2.8551940537719727,18.802960108093263,2.8029610537719725Q18.85519310809326,2.7507280537719727,18.91661210809326,2.7096890537719727Q18.978032108093263,2.668649653771973,19.04627710809326,2.6403813537719727Q19.114523108093262,2.612113153771973,19.18697210809326,2.5977020537719726Q19.25942110809326,2.5832910537719727,19.333290108093262,2.5832910537719727Q19.48247410809326,2.5832910537719727,19.620301108093262,2.6403814537719725Q19.758131108093263,2.6974720537719725,19.863621108093263,2.8029610537719725L24.530291108093262,7.469631053771972Q24.58252110809326,7.521861053771973,24.623561108093263,7.583281053771973Q24.66460110809326,7.644701053771973,24.69286110809326,7.7129410537719725Q24.72113110809326,7.781191053771972,24.735541108093262,7.853641053771972Q24.74996110809326,7.926091053771973,24.74996110809326,7.9999610537719725Q24.74996110809326,8.073831053771972,24.735541108093262,8.146271053771972Q24.72113110809326,8.218721053771972,24.69286110809326,8.286971053771973Q24.66460110809326,8.355211053771972,24.623561108093263,8.416631053771972Q24.58252110809326,8.478051053771972,24.530291108093262,8.530291053771972L19.864011108093262,13.196591053771973L19.863621108093263,13.196991053771972Q19.758131108093263,13.302491053771973,19.620301108093262,13.359491053771972Q19.48247410809326,13.416591053771972,19.333290108093262,13.416591053771972Q19.25942110809326,13.416591053771972,19.18697210809326,13.402191053771972Q19.114523108093262,13.387791053771974,19.04627710809326,13.359491053771972Q18.978032108093263,13.331291053771972,18.91661210809326,13.290191053771972Q18.85519310809326,13.249191053771973,18.802960108093263,13.196991053771972Q18.750727108093262,13.144691053771973,18.70968810809326,13.083291053771973Q18.66864870809326,13.021891053771972,18.64038040809326,12.953591053771973Q18.61211220809326,12.885391053771972,18.59770110809326,12.812991053771972Q18.58329010009326,12.740491053771972,18.58329010009326,12.666591053771972Q18.58329010009326,12.517441053771973,18.64038040809326,12.379611053771972Q18.69747110809326,12.241781053771973,18.802960108093263,12.136291053771973ZM23.136331108093263,12.136291053771973L23.136721108093262,12.135911053771972L27.272671108093263,7.9999610537719725L23.136331108093263,3.863621053771973Q23.030841108093263,3.7581310537719728,22.97375110809326,3.6203010537719726Q22.916661108093262,3.4824750537719726,22.916661108093262,3.3332910537719727Q22.916661108093262,3.2594220537719725,22.931071108093263,3.1869730537719727Q22.94548110809326,3.1145240537719725,22.97375110809326,3.0462780537719727Q23.00202110809326,2.9780330537719726,23.043061108093262,2.9166130537719726Q23.08410110809326,2.8551940537719727,23.136331108093263,2.8029610537719725Q23.188571108093264,2.7507280537719727,23.249991108093262,2.7096890537719727Q23.31140110809326,2.668649653771973,23.379651108093263,2.6403813537719727Q23.447901108093262,2.612113153771973,23.520341108093263,2.5977020537719726Q23.592791108093262,2.5832910537719727,23.666661108093262,2.5832910537719727Q23.815851108093263,2.5832910537719727,23.953681108093264,2.6403814537719725Q24.09150110809326,2.6974720537719725,24.19699110809326,2.8029610537719725L28.863631108093262,7.469631053771972Q28.96913110809326,7.575121053771973,29.026231108093263,7.7129410537719725Q29.08333110809326,7.850771053771973,29.08333110809326,7.9999610537719725Q29.08333110809326,8.149141053771974,29.026231108093263,8.286971053771973Q28.96913110809326,8.424801053771972,28.863631108093262,8.530291053771972L24.19699110809326,13.196991053771972Q24.09150110809326,13.302491053771973,23.953681108093264,13.359491053771972Q23.815851108093263,13.416591053771972,23.666661108093262,13.416591053771972Q23.592791108093262,13.416591053771972,23.520341108093263,13.402191053771972Q23.447901108093262,13.387791053771974,23.379651108093263,13.359491053771972Q23.31140110809326,13.331291053771972,23.249991108093262,13.290191053771972Q23.188571108093264,13.249191053771973,23.136331108093263,13.196991053771972Q23.08410110809326,13.144691053771973,23.043061108093262,13.083291053771973Q23.00202110809326,13.021891053771972,22.97375110809326,12.953591053771973Q22.94548110809326,12.885391053771972,22.931071108093263,12.812991053771972Q22.916661108093262,12.740491053771972,22.916661108093262,12.666591053771972Q22.916661108093262,12.517441053771973,22.97375110809326,12.379611053771972Q23.030841108093263,12.241781053771973,23.136331108093263,12.136291053771973Z" fill-rule="evenodd" fill="#595959" fill-opacity="1"/></g></g></svg>