<svg xmlns="http://www.w3.org/2000/svg" xmlns:xlink="http://www.w3.org/1999/xlink" fill="none" version="1.1" width="40" height="40" viewBox="0 0 40 40"><g><g></g><g><g><g><path d="M36,11L36,20L36,34C36,36.2091,34.2091,38,32,38L8,38C5.79086,38,4,36.2091,4,34L4,6C4,3.79086,5.79086,2,8,2L22,2L27,2L36,11Z" fill-rule="evenodd" fill="#CACACA" fill-opacity="1"/></g></g></g><g><g style="opacity:0.6000000238418579;"><path d="M20,27Q20.17184,27,20.34347,26.9916Q20.51511,26.9831,20.68612,26.9663Q20.857129999999998,26.9494,21.02711,26.9242Q21.19709,26.899,21.36563,26.8655Q21.53417,26.832,21.70086,26.7902Q21.86755,26.7485,22.03199,26.6986Q22.19643,26.648699999999998,22.35823,26.5908Q22.520020000000002,26.532899999999998,22.67878,26.4672Q22.83754,26.401400000000002,22.99288,26.3279Q23.1482,26.2545,23.299799999999998,26.1734Q23.4513,26.092399999999998,23.5987,26.0041Q23.7461,25.9158,23.889,25.8203Q24.0319,25.724800000000002,24.1699,25.622500000000002Q24.3079,25.5201,24.4408,25.411099999999998Q24.5736,25.3021,24.7009,25.186700000000002Q24.828200000000002,25.0713,24.9497,24.9497Q25.0713,24.828200000000002,25.186700000000002,24.7009Q25.3021,24.5736,25.411099999999998,24.4408Q25.5201,24.3079,25.622500000000002,24.1699Q25.724800000000002,24.0319,25.8203,23.889Q25.9158,23.7461,26.0041,23.5987Q26.092399999999998,23.4513,26.1734,23.299799999999998Q26.2545,23.1482,26.3279,22.99288Q26.401400000000002,22.83754,26.4672,22.67878Q26.532899999999998,22.520020000000002,26.5908,22.35823Q26.648699999999998,22.19643,26.6986,22.03199Q26.7485,21.86755,26.7902,21.70086Q26.832,21.53417,26.8655,21.36563Q26.899,21.19709,26.9242,21.02711Q26.9494,20.857129999999998,26.9663,20.68612Q26.9831,20.51511,26.9916,20.34347Q27,20.17184,27,20Q27,19.82816,26.9916,19.65653Q26.9831,19.48489,26.9663,19.31388Q26.9494,19.142870000000002,26.9242,18.97289Q26.899,18.80291,26.8655,18.63437Q26.832,18.46583,26.7902,18.29914Q26.7485,18.13245,26.6986,17.96801Q26.648699999999998,17.80357,26.5908,17.64177Q26.532899999999998,17.47998,26.4672,17.32122Q26.401400000000002,17.16246,26.3279,17.00711Q26.2545,16.851770000000002,26.1734,16.70022Q26.092399999999998,16.54867,26.0041,16.40128Q25.9158,16.25389,25.8203,16.11101Q25.724800000000002,15.96813,25.622500000000002,15.8301Q25.5201,15.69208,25.411099999999998,15.55925Q25.3021,15.42641,25.186700000000002,15.29909Q25.0713,15.171759999999999,24.9497,15.05025Q24.828200000000002,14.92874,24.7009,14.81334Q24.5736,14.69794,24.4408,14.58893Q24.3079,14.47991,24.1699,14.37755Q24.0319,14.27518,23.889,14.17971Q23.7461,14.08424,23.5987,13.9959Q23.4513,13.907556,23.299799999999998,13.826551Q23.1482,13.745546000000001,22.99288,13.672075Q22.83754,13.598604,22.67878,13.532843Q22.520020000000002,13.467083,22.35823,13.409191Q22.19643,13.3513,22.03199,13.301418Q21.86755,13.251535,21.70086,13.209781Q21.53417,13.168027,21.36563,13.134503Q21.19709,13.100979,21.02711,13.0757644Q20.857129999999998,13.0505502,20.68612,13.0337069Q20.51511,13.0168636,20.34347,13.0084318Q20.17184,13,20,13Q19.82816,13,19.65653,13.0084318Q19.48489,13.0168636,19.31388,13.0337069Q19.142870000000002,13.0505502,18.97289,13.0757644Q18.80291,13.100979,18.63437,13.134503Q18.46583,13.168027,18.29914,13.209781Q18.13245,13.251535,17.96801,13.301418Q17.80357,13.3513,17.64177,13.409191Q17.47998,13.467083,17.32122,13.532843Q17.16246,13.598604,17.00711,13.672075Q16.851770000000002,13.745546000000001,16.70022,13.826551Q16.54867,13.907556,16.40128,13.995899Q16.25389,14.08424,16.11101,14.17971Q15.96813,14.27518,15.8301,14.37755Q15.69208,14.47991,15.55925,14.58893Q15.42641,14.69794,15.29909,14.81334Q15.171759999999999,14.92874,15.05025,15.05025Q14.92874,15.171759999999999,14.81334,15.29909Q14.69794,15.42641,14.58893,15.55925Q14.47991,15.69208,14.37755,15.8301Q14.27518,15.96813,14.17971,16.11101Q14.08424,16.25389,13.9959,16.40128Q13.907556,16.54867,13.826551,16.70022Q13.745546000000001,16.851770000000002,13.672075,17.00711Q13.598604,17.16246,13.532843,17.32122Q13.467083,17.47998,13.409191,17.64177Q13.3513,17.80357,13.301418,17.96801Q13.251535,18.13245,13.209781,18.29914Q13.168027,18.46583,13.134503,18.63437Q13.100979,18.80291,13.0757644,18.97289Q13.0505502,19.142870000000002,13.0337069,19.31388Q13.0168636,19.48489,13.0084318,19.65653Q13,19.82816,13,20Q13,20.17184,13.0084318,20.34347Q13.0168636,20.51511,13.0337069,20.68612Q13.0505502,20.857129999999998,13.0757644,21.02711Q13.100979,21.19709,13.134503,21.36563Q13.168027,21.53417,13.209781,21.70086Q13.251535,21.86755,13.301418,22.03199Q13.3513,22.19643,13.409191,22.35823Q13.467083,22.520020000000002,13.532843,22.67878Q13.598604,22.83754,13.672075,22.99288Q13.745546000000001,23.1482,13.826551,23.299799999999998Q13.907556,23.4513,13.995899,23.5987Q14.08424,23.7461,14.17971,23.889Q14.27518,24.0319,14.37755,24.1699Q14.47991,24.3079,14.58893,24.4408Q14.69794,24.5736,14.81334,24.7009Q14.92874,24.828200000000002,15.05025,24.9497Q15.171759999999999,25.0713,15.29909,25.186700000000002Q15.42641,25.3021,15.55925,25.411099999999998Q15.69208,25.5201,15.8301,25.622500000000002Q15.96813,25.724800000000002,16.11101,25.8203Q16.25389,25.9158,16.40128,26.0041Q16.54867,26.092399999999998,16.70022,26.1734Q16.851770000000002,26.2545,17.00711,26.3279Q17.16246,26.401400000000002,17.32122,26.4672Q17.47998,26.532899999999998,17.64177,26.5908Q17.80357,26.648699999999998,17.96801,26.6986Q18.13245,26.7485,18.29914,26.7902Q18.46583,26.832,18.63437,26.8655Q18.80291,26.899,18.97289,26.9242Q19.142870000000002,26.9494,19.31388,26.9663Q19.48489,26.9831,19.65653,26.9916Q19.82816,27,20,27ZM20,25.5Q20.13502,25.5,20.26987,25.4934Q20.40473,25.4867,20.53909,25.4735Q20.67346,25.4603,20.80702,25.4405Q20.94057,25.4207,21.073,25.3943Q21.20542,25.368000000000002,21.33639,25.3352Q21.46736,25.3024,21.59656,25.263199999999998Q21.72577,25.224,21.852890000000002,25.1785Q21.98002,25.133,22.10476,25.0813Q22.2295,25.0297,22.35155,24.971899999999998Q22.47361,24.9142,22.59268,24.8506Q22.711759999999998,24.7869,22.82756,24.7175Q22.94337,24.6481,23.0556,24.5731Q23.1679,24.4981,23.2763,24.4176Q23.3848,24.3372,23.4892,24.2516Q23.5935,24.1659,23.6936,24.075200000000002Q23.793599999999998,23.9846,23.8891,23.8891Q23.9846,23.793599999999998,24.075200000000002,23.6936Q24.1659,23.5935,24.2516,23.4892Q24.3372,23.3848,24.4176,23.2763Q24.4981,23.1679,24.5731,23.0556Q24.6481,22.94337,24.7175,22.82756Q24.7869,22.711750000000002,24.8506,22.59268Q24.9142,22.47361,24.971899999999998,22.35155Q25.0297,22.2295,25.0813,22.10476Q25.133,21.98002,25.1785,21.852890000000002Q25.224,21.72577,25.263199999999998,21.59656Q25.3024,21.46736,25.3352,21.33639Q25.368000000000002,21.20542,25.3943,21.073Q25.4207,20.94057,25.4405,20.80702Q25.4603,20.67346,25.4735,20.53909Q25.4867,20.40473,25.4934,20.26987Q25.5,20.13502,25.5,20Q25.5,19.86498,25.4934,19.73013Q25.4867,19.59527,25.4735,19.46091Q25.4603,19.32654,25.4405,19.19298Q25.4207,19.05943,25.3943,18.927Q25.368000000000002,18.79458,25.3352,18.66361Q25.3024,18.53264,25.263199999999998,18.40343Q25.224,18.27423,25.1785,18.147109999999998Q25.133,18.01998,25.0813,17.89524Q25.0297,17.7705,24.971899999999998,17.64845Q24.9142,17.52639,24.8506,17.40732Q24.7869,17.288240000000002,24.7175,17.17243Q24.6481,17.05663,24.5731,16.94436Q24.4981,16.8321,24.4176,16.72365Q24.3372,16.61521,24.2516,16.51084Q24.1659,16.40647,24.075200000000002,16.30643Q23.9846,16.20638,23.8891,16.11091Q23.793599999999998,16.015439999999998,23.6936,15.92477Q23.5935,15.8341,23.4892,15.74844Q23.3848,15.662790000000001,23.2763,15.58236Q23.1679,15.50193,23.0556,15.426919999999999Q22.94337,15.35191,22.82756,15.28249Q22.711750000000002,15.21308,22.59268,15.14943Q22.47361,15.08579,22.35155,15.02806Q22.2295,14.97033,22.10476,14.91866Q21.98002,14.86699,21.852890000000002,14.82151Q21.72577,14.776019999999999,21.59656,14.73683Q21.46736,14.69763,21.33639,14.66483Q21.20542,14.63202,21.073,14.60568Q20.94057,14.57934,20.80702,14.55953Q20.67346,14.539719999999999,20.53909,14.52648Q20.40473,14.51325,20.26987,14.50662Q20.13502,14.5,20,14.5Q19.86498,14.5,19.73013,14.50662Q19.59527,14.51325,19.46091,14.52648Q19.32654,14.539719999999999,19.19298,14.55953Q19.05943,14.57934,18.927,14.60568Q18.79458,14.63202,18.66361,14.66483Q18.53264,14.69763,18.40343,14.73683Q18.27423,14.776019999999999,18.147109999999998,14.82151Q18.01998,14.86699,17.89524,14.91866Q17.7705,14.97033,17.64845,15.02806Q17.52639,15.08579,17.40732,15.14943Q17.288240000000002,15.21308,17.17243,15.28249Q17.05663,15.35191,16.94436,15.426919999999999Q16.8321,15.50193,16.72365,15.58236Q16.61521,15.662790000000001,16.51084,15.74844Q16.40647,15.8341,16.30643,15.92477Q16.20638,16.015439999999998,16.11091,16.11091Q16.015439999999998,16.20638,15.92477,16.30643Q15.8341,16.40647,15.74844,16.51084Q15.662790000000001,16.61521,15.58236,16.72365Q15.50193,16.8321,15.426919999999999,16.94436Q15.35191,17.05663,15.28249,17.17243Q15.21308,17.288240000000002,15.14943,17.40732Q15.08579,17.52639,15.02806,17.64845Q14.97033,17.7705,14.91866,17.89524Q14.86699,18.01998,14.82151,18.147109999999998Q14.776019999999999,18.27423,14.73683,18.40343Q14.69763,18.53264,14.66483,18.66361Q14.63202,18.79458,14.60568,18.927Q14.57934,19.05943,14.55953,19.19298Q14.539719999999999,19.32654,14.52648,19.46091Q14.51325,19.59527,14.50662,19.73013Q14.5,19.86498,14.5,20Q14.5,20.13502,14.50662,20.26987Q14.51325,20.40473,14.52648,20.53909Q14.539719999999999,20.67346,14.55953,20.80702Q14.57934,20.94057,14.60568,21.073Q14.63202,21.20542,14.66483,21.33639Q14.69763,21.46736,14.73683,21.59656Q14.776019999999999,21.72577,14.82151,21.852890000000002Q14.86699,21.98002,14.91866,22.10476Q14.97033,22.2295,15.02806,22.35155Q15.08579,22.47361,15.14943,22.59268Q15.21308,22.711759999999998,15.28249,22.82756Q15.35191,22.94337,15.426919999999999,23.0556Q15.50193,23.1679,15.58236,23.2763Q15.662790000000001,23.3848,15.74844,23.4892Q15.8341,23.5935,15.92477,23.6936Q16.015439999999998,23.793599999999998,16.11091,23.8891Q16.20638,23.9846,16.30643,24.075200000000002Q16.40647,24.1659,16.51084,24.2516Q16.61521,24.3372,16.72365,24.4176Q16.8321,24.4981,16.94436,24.5731Q17.05663,24.6481,17.17243,24.7175Q17.288240000000002,24.7869,17.40732,24.8506Q17.52639,24.9142,17.64845,24.971899999999998Q17.7705,25.0297,17.89524,25.0813Q18.01998,25.133,18.147109999999998,25.1785Q18.27423,25.224,18.40343,25.263199999999998Q18.53264,25.3024,18.66361,25.3352Q18.79458,25.368000000000002,18.927,25.3943Q19.05943,25.4207,19.19298,25.4405Q19.32654,25.4603,19.46091,25.4735Q19.59527,25.4867,19.73013,25.4934Q19.86498,25.5,20,25.5Z" fill-rule="evenodd" fill="#FFFFFF" fill-opacity="1"/></g><g style="opacity:0.6000000238418579;"><path d="M20,16.399885416030884C20.3797,16.399885416030884,20.69349,16.682039416030882,20.74315,17.048114416030884L20.75,17.149885416030884L20.75,20.149885416030884C20.75,20.564095416030884,20.41421,20.899885416030884,20,20.899885416030884C19.620304,20.899885416030884,19.306509,20.617735416030882,19.25684662,20.251655416030886L19.25,20.149885416030884L19.25,17.149885416030884C19.25,16.735671416030883,19.585786,16.399885416030884,20,16.399885416030884Z" fill="#FFFFFF" fill-opacity="1"/></g><g style="opacity:0.6000000238418579;"><path d="M20,21.600114822387695C20.3797,21.600114822387695,20.69349,21.882268822387694,20.74315,22.248343822387696L20.75,22.350114822387695L20.75,22.850114822387695C20.75,23.264324822387696,20.41421,23.600114822387695,20,23.600114822387695C19.620304,23.600114822387695,19.306509,23.317964822387694,19.25684662,22.951884822387694L19.25,22.850114822387695L19.25,22.350114822387695C19.25,21.935900822387694,19.585786,21.600114822387695,20,21.600114822387695Z" fill="#FFFFFF" fill-opacity="1"/></g></g></g></svg>