<svg xmlns="http://www.w3.org/2000/svg" xmlns:xlink="http://www.w3.org/1999/xlink" fill="none" version="1.1" width="40" height="40" viewBox="0 0 40 40"><defs><linearGradient x1="0.04520531743764877" y1="0.05740882828831673" x2="1" y2="1" id="master_svg0_111_2823"><stop offset="0%" stop-color="#FF7963" stop-opacity="1"/><stop offset="100%" stop-color="#EB2D0A" stop-opacity="1"/></linearGradient><mask id="master_svg1_111_3197/111_3137/111_2821" style="mask-type:alpha" maskUnits="userSpaceOnUse"><g><path d="M36,11L36,20L36,34C36,36.2091,34.2091,38,32,38L8,38C5.79086,38,4,36.2091,4,34L4,6C4,3.79086,5.79086,2,8,2L22,2L27,2L36,11Z" fill-rule="evenodd" fill="#FFFFFF" fill-opacity="1"/></g></mask><filter id="master_svg2_111_3197/111_3137/111_2825" filterUnits="objectBoundingBox" color-interpolation-filters="sRGB" x="-8" y="-8" width="25.378931999206543" height="25.378931999206543"><feFlood flood-opacity="0" result="BackgroundImageFix"/><feBlend mode="normal" in="SourceGraphic" in2="BackgroundImageFix" result="shape"/><feGaussianBlur stdDeviation="2" result="effect1_foregroundBlur"/></filter><linearGradient x1="0.1547146737575531" y1="0.9301541447639465" x2="0.7333070635795593" y2="0.38277938961982727" id="master_svg3_111_2819"><stop offset="0%" stop-color="#FFB0A7" stop-opacity="1"/><stop offset="57.1509063243866%" stop-color="#FF9999" stop-opacity="1"/><stop offset="100%" stop-color="#FFFFFF" stop-opacity="1"/></linearGradient></defs><g><g><g></g><g><g><g><path d="M36,11L36,20L36,34C36,36.2091,34.2091,38,32,38L8,38C5.79086,38,4,36.2091,4,34L4,6C4,3.79086,5.79086,2,8,2L22,2L27,2L36,11Z" fill-rule="evenodd" fill="url(#master_svg0_111_2823)" fill-opacity="1"/></g><g mask="url(#master_svg1_111_3197/111_3137/111_2821)"><g style="opacity:0.6000000238418579;mix-blend-mode:multiply" filter="url(#master_svg2_111_3197/111_3137/111_2825)"><path d="M27.81053352355957,3L37.18946352355957,12.37893L31.81053352355957,12.37893C29.60139352355957,12.37893,27.81053352355957,10.58807,27.81053352355957,8.37893L27.81053352355957,3Z" fill-rule="evenodd" fill="#B10000" fill-opacity="1" style="mix-blend-mode:multiply"/></g></g></g><g><path d="M27,2L36,11L31,11C28.79086,11,27,9.20914,27,7L27,2Z" fill-rule="evenodd" fill="url(#master_svg3_111_2819)" fill-opacity="1"/></g></g><g></g><g><g><path d="M22.33095,22.43915623260498C23.2057,23.18899623260498,24.288800000000002,23.60549623260498,25.4135,23.688896232604982C26.1217,23.688896232604982,27.4964,23.688896232604982,27.4964,22.27253623260498C27.538,21.73099623260498,27.2464,20.81455623260498,25.288600000000002,20.772896232604978C24.413800000000002,20.772896232604978,23.539,20.897866232604983,22.6642,21.06448623260498C21.622790000000002,20.10638623260498,20.747999999999998,18.98166623260498,20.0815,17.731966232604982C20.789659999999998,15.39919623260498,20.831319999999998,13.81624623260498,20.28978,13.06642623260498C20.039839999999998,12.73317323260498,19.62328,12.524890272604981,19.20671,12.524890272604981C18.66517,12.48323373260498,18.165300000000002,12.73317323260498,17.91536,13.19139523260498C17.16554,14.44109623260498,18.24861,16.89883623260498,18.74849,17.89858623260498C18.165300000000002,19.68982623260498,17.45713,21.39774623260498,16.540689999999998,23.06399623260498C12.5833132,24.77189623260498,12.5,25.81329623260498,12.5,26.18829623260498C12.5,26.64649623260498,12.74994,27.10469623260498,13.208162,27.31299623260498C13.374788,27.43799623260498,13.62473,27.47959623260498,13.83301,27.47959623260498C14.87443,27.47959623260498,16.08247,26.31319623260498,17.373820000000002,24.02209623260498C18.99843,23.35559623260498,20.62303,22.81409623260498,22.33095,22.43915623260498ZM19.16503,13.77454623260498L19.29,13.77454623260498C19.49828,14.482706232604981,19.49828,15.23252623260498,19.24834,15.94068623260498C18.95674,15.27418623260498,18.83177,14.52436623260498,18.9984,13.81620623260498C19.04006,13.77454623260498,19.12337,13.77454623260498,19.16503,13.77454623260498ZM19.49829,19.85624623260498L19.53995,19.89789623260498L19.58161,19.81458623260498C20.039830000000002,20.52274623260498,20.62302,21.23090623260498,21.24787,21.855756232604982L21.1229,21.855756232604982L21.16456,21.897416232604982C20.24811,22.10569623260498,19.248350000000002,22.39729623260498,18.33191,22.73059623260498L18.33191,22.64719623260498L18.2486,22.688896232604982C18.70682,21.77244623260498,19.12338,20.814346232604983,19.49829,19.85624623260498ZM24.163800000000002,22.10566623260498C24.5387,22.02234623260498,24.872,22.02234623260498,25.2469,22.02234623260498C26.08,22.02234623260498,26.2466,22.23063623260498,26.2466,22.35560623260498C25.9967,22.43891623260498,25.7051,22.48057623260498,25.4135,22.43891623260498C24.997,22.39725623260498,24.580399999999997,22.31394623260498,24.163800000000002,22.10566623260498ZM13.87466,26.229796232604983L13.74969,26.271396232604978C14.124600000000001,25.72989623260498,14.62448,25.31329623260498,15.24933,25.06339623260498C14.916080000000001,25.60489623260498,14.45786,26.02149623260498,13.87466,26.229796232604983Z" fill-rule="evenodd" fill="#FFFFFF" fill-opacity="1"/></g></g></g></g></svg>