<svg xmlns="http://www.w3.org/2000/svg" xmlns:xlink="http://www.w3.org/1999/xlink" fill="none" version="1.1" width="40" height="40" viewBox="0 0 40 40"><defs><clipPath id="master_svg0_122_6172"><rect x="0" y="0" width="40" height="40" rx="0"/></clipPath></defs><g clip-path="url(#master_svg0_122_6172)"><g><g><g><g><g transform="matrix(1,0,0,-1,0,39.74036788944795)"><path d="M2,19.870183944723976L38,19.870183944723976L38,27.588653944723976C38,29.797783944723975,36.2091,31.588683944723975,34,31.588683944723975L20.7817,31.588683944723975C20.2791,31.588683944723975,19.7949,31.777883944723975,19.4255,32.118683944723976L16.0745,35.210283944723976C15.7051,35.55108394472398,15.2209,35.74028394472398,14.7183,35.74028394472398L11,35.74028394472398L6,35.74028394472398C3.79086,35.74028394472398,2,33.94948394472398,2,31.740283944723977L2,19.870183944723976Z" fill-rule="evenodd" fill="#007AEB" fill-opacity="1"/></g><g></g><g><path d="M5,12.000066757223976L5,19.000066757223976C5,20.10463675722398,5.895431,21.000066757223976,7,21.000066757223976L33,21.000066757223976C34.104600000000005,21.000066757223976,35,20.10463675722398,35,19.000066757223976L35,12.000066757223976C35,11.447781757223977,34.5523,11.000066757223976,34,11.000066757223976L6,11.000066757223976C5.447715,11.000066757223976,5,11.447781757223977,5,12.000066757223976Z" fill="#FFFFFF" fill-opacity="0.5"/></g><g><path d="M5,14.000066757223976L5,21.000066757223976C5,22.10463675722398,5.895431,23.000066757223976,7,23.000066757223976L33,23.000066757223976C34.104600000000005,23.000066757223976,35,22.10463675722398,35,21.000066757223976L35,14.000066757223976C35,13.447781757223977,34.5523,13.000066757223976,34,13.000066757223976L6,13.000066757223976C5.447715,13.000066757223976,5,13.447781757223977,5,14.000066757223976Z" fill="#FFFFFF" fill-opacity="1"/></g><g><path d="M4,15.401433944723976L36,15.401433944723976C37.1046,15.401433944723976,38,16.296864944723975,38,17.401433944723976L38,31.999933944723978C38,34.20913394472397,36.2091,35.99993394472398,34,35.99993394472398L6,35.99993394472398C3.79086,35.99993394472398,2,34.20913394472397,2,31.999933944723978L2,17.401433944723976C2,16.296864944723975,2.895431,15.401433944723976,4,15.401433944723976" fill-rule="evenodd" fill="#4EAAFF" fill-opacity="1"/></g><g><rect x="13" y="32.000066757223976" width="14" height="1" rx="0.5" fill="#AED3FD" fill-opacity="1"/></g></g></g></g></g></g></svg>