<svg xmlns="http://www.w3.org/2000/svg" xmlns:xlink="http://www.w3.org/1999/xlink" fill="none" version="1.1" width="40" height="40" viewBox="0 0 40 40"><defs><linearGradient x1="0.04520531743764877" y1="0.05740882828831673" x2="1" y2="1" id="master_svg0_111_3097"><stop offset="0%" stop-color="#7CD9F3" stop-opacity="1"/><stop offset="100%" stop-color="#1A87ED" stop-opacity="1"/></linearGradient><mask id="master_svg1_111_3207/111_3192/111_3186/111_3098" style="mask-type:alpha" maskUnits="userSpaceOnUse"><g><path d="M36,11L36,20L36,34C36,36.2091,34.2091,38,32,38L8,38C5.79086,38,4,36.2091,4,34L4,6C4,3.79086,5.79086,2,8,2L22,2L27,2L36,11Z" fill-rule="evenodd" fill="#FFFFFF" fill-opacity="1"/></g></mask><filter id="master_svg2_111_3207/111_3192/111_3186/111_3099" filterUnits="objectBoundingBox" color-interpolation-filters="sRGB" x="-8" y="-8" width="25.378931999206543" height="25.378931999206543"><feFlood flood-opacity="0" result="BackgroundImageFix"/><feBlend mode="normal" in="SourceGraphic" in2="BackgroundImageFix" result="shape"/><feGaussianBlur stdDeviation="2" result="effect1_foregroundBlur"/></filter><linearGradient x1="0.13267096877098083" y1="0.9264393448829651" x2="0.6175141930580139" y2="0.42868033051490784" id="master_svg3_111_3104"><stop offset="0%" stop-color="#C7F0FF" stop-opacity="1"/><stop offset="69.61352825164795%" stop-color="#A5E3FF" stop-opacity="1"/><stop offset="100%" stop-color="#FFFFFF" stop-opacity="1"/></linearGradient></defs><g><g><g><g></g><g><g><g><path d="M36,11L36,20L36,34C36,36.2091,34.2091,38,32,38L8,38C5.79086,38,4,36.2091,4,34L4,6C4,3.79086,5.79086,2,8,2L22,2L27,2L36,11Z" fill-rule="evenodd" fill="url(#master_svg0_111_3097)" fill-opacity="1"/></g><g mask="url(#master_svg1_111_3207/111_3192/111_3186/111_3098)"><g style="mix-blend-mode:multiply" filter="url(#master_svg2_111_3207/111_3192/111_3186/111_3099)"><path d="M27.81053352355957,3L37.18946352355957,12.37893L31.81053352355957,12.37893C29.60139352355957,12.37893,27.81053352355957,10.58807,27.81053352355957,8.37893L27.81053352355957,3Z" fill-rule="evenodd" fill="#007DB8" fill-opacity="0.6000000238418579" style="mix-blend-mode:multiply"/></g></g></g><g><path d="M27,2L36,11L31,11C28.79086,11,27,9.20914,27,7L27,2Z" fill-rule="evenodd" fill="url(#master_svg3_111_3104)" fill-opacity="1"/></g></g><g></g><g><g><path d="M21.220000312805162,16.715999603271484L22.90000031280516,22.115999603271483L24.448000312805164,16.715999603271484L26.41600031280516,16.715999603271484L23.64400031280516,25.499999603271483L22.072000312805162,25.499999603271483L20.36800031280516,20.255999603271484L18.712000312805163,25.499999603271483L17.15200031280516,25.499999603271483L14.272000312805162,16.715999603271484L16.384000312805163,16.715999603271484L18.028000312805162,22.115999603271483L19.61200031280516,16.715999603271484L21.220000312805162,16.715999603271484Z" fill="#FFFFFF" fill-opacity="1"/></g></g></g></g></g></svg>