<svg xmlns="http://www.w3.org/2000/svg" xmlns:xlink="http://www.w3.org/1999/xlink" fill="none" version="1.1" width="40" height="40" viewBox="0 0 40 40"><defs><linearGradient x1="0.04520531743764877" y1="0.05740882828831673" x2="1" y2="1" id="master_svg0_111_2980"><stop offset="0%" stop-color="#D585F7" stop-opacity="1"/><stop offset="100%" stop-color="#AC49F5" stop-opacity="1"/></linearGradient><mask id="master_svg1_111_3200/111_3156/111_2978" style="mask-type:alpha" maskUnits="userSpaceOnUse"><g><path d="M36,11L36,20L36,34C36,36.2091,34.2091,38,32,38L8,38C5.79086,38,4,36.2091,4,34L4,6C4,3.79086,5.79086,2,8,2L22,2L27,2L36,11Z" fill-rule="evenodd" fill="#FFFFFF" fill-opacity="1"/></g></mask><filter id="master_svg2_111_3200/111_3156/111_2975" filterUnits="objectBoundingBox" color-interpolation-filters="sRGB" x="-8" y="-8" width="25.378931999206543" height="25.378931999206543"><feFlood flood-opacity="0" result="BackgroundImageFix"/><feBlend mode="normal" in="SourceGraphic" in2="BackgroundImageFix" result="shape"/><feGaussianBlur stdDeviation="2" result="effect1_foregroundBlur"/></filter><linearGradient x1="0.11252430081367493" y1="0.9104441404342651" x2="0.6175141930580139" y2="0.42868033051490784" id="master_svg3_111_2973"><stop offset="0%" stop-color="#ECC3FE" stop-opacity="1"/><stop offset="69.61352825164795%" stop-color="#E6B3FF" stop-opacity="1"/><stop offset="100%" stop-color="#FFFFFF" stop-opacity="1"/></linearGradient></defs><g><g><g></g><g><g><g><path d="M36,11L36,20L36,34C36,36.2091,34.2091,38,32,38L8,38C5.79086,38,4,36.2091,4,34L4,6C4,3.79086,5.79086,2,8,2L22,2L27,2L36,11Z" fill-rule="evenodd" fill="url(#master_svg0_111_2980)" fill-opacity="1"/></g><g mask="url(#master_svg1_111_3200/111_3156/111_2978)"><g style="opacity:0.6000000238418579;mix-blend-mode:multiply" filter="url(#master_svg2_111_3200/111_3156/111_2975)"><path d="M27.81053352355957,3L37.18946352355957,12.37893L31.81053352355957,12.37893C29.60139352355957,12.37893,27.81053352355957,10.58807,27.81053352355957,8.37893L27.81053352355957,3Z" fill-rule="evenodd" fill="#450065" fill-opacity="1" style="mix-blend-mode:multiply"/></g></g></g><g><path d="M27,2L36,11L31,11C28.79086,11,27,9.20914,27,7L27,2Z" fill-rule="evenodd" fill="url(#master_svg3_111_2973)" fill-opacity="1"/></g></g><g></g><g><g><path d="M15.851853880310058,24.6667C16.220043880310058,24.6667,16.51851388031006,24.9652,16.51851388031006,25.333399999999997C16.51851388031006,25.6709,16.26771388031006,25.9499,15.942313880310058,25.994L15.851853880310058,26.0001L14.370370880310059,26.0001C14.002180880310059,26.0001,13.703703880310059,25.7016,13.703703880310059,25.333399999999997C13.703703880310059,24.9959,13.954506880310058,24.717,14.27990788031006,24.672800000000002L14.370370880310059,24.6667L15.851853880310058,24.6667ZM15.851853880310058,22.88892C16.220043880310058,22.88892,16.51851388031006,23.18739,16.51851388031006,23.55558C16.51851388031006,23.89309,16.26771388031006,24.172,15.942313880310058,24.2162L15.851853880310058,24.2222L14.370370880310059,24.2222C14.002180880310059,24.2222,13.703703880310059,23.923769999999998,13.703703880310059,23.55558C13.703703880310059,23.21808,13.954506880310058,22.939149999999998,14.27990788031006,22.895L14.370370880310059,22.88892L15.851853880310058,22.88892ZM15.851853880310058,21.11108C16.220043880310058,21.11108,16.51851388031006,21.40956,16.51851388031006,21.77775C16.51851388031006,22.11526,16.26771388031006,22.394190000000002,15.942313880310058,22.43833L15.851853880310058,22.44442L14.370370880310059,22.44442C14.002180880310059,22.44442,13.703703880310059,22.14594,13.703703880310059,21.77775C13.703703880310059,21.44024,13.954506880310058,21.16131,14.27990788031006,21.11717L14.370370880310059,21.11108L15.851853880310058,21.11108ZM15.851853880310058,19.33325C16.220043880310058,19.33325,16.51851388031006,19.63173,16.51851388031006,19.99992C16.51851388031006,20.33743,16.26771388031006,20.61635,15.942313880310058,20.6605L15.851853880310058,20.66659L14.370370880310059,20.66659C14.002180880310059,20.66659,13.703703880310059,20.36811,13.703703880310059,19.99992C13.703703880310059,19.66241,13.954506880310058,19.38348,14.27990788031006,19.33934L14.370370880310059,19.33325L15.851853880310058,19.33325ZM19.111133880310057,24.6667C19.47932388031006,24.6667,19.777793880310057,24.9652,19.777793880310057,25.333399999999997C19.777793880310057,25.6709,19.52699388031006,25.9499,19.201593880310057,25.994L19.111133880310057,26.0001L17.62964388031006,26.0001C17.261453880310057,26.0001,16.96298388031006,25.7016,16.96298388031006,25.333399999999997C16.96298388031006,24.9959,17.213783880310057,24.717,17.53918388031006,24.672800000000002L17.62964388031006,24.6667L19.111133880310057,24.6667ZM19.111133880310057,22.88892C19.47932388031006,22.88892,19.777793880310057,23.18739,19.777793880310057,23.55558C19.777793880310057,23.89309,19.52699388031006,24.172,19.201593880310057,24.2162L19.111133880310057,24.2222L17.62964388031006,24.2222C17.261453880310057,24.2222,16.96298388031006,23.923769999999998,16.96298388031006,23.55558C16.96298388031006,23.21808,17.213783880310057,22.939149999999998,17.53918388031006,22.895L17.62964388031006,22.88892L19.111133880310057,22.88892ZM19.111133880310057,21.11108C19.47932388031006,21.11108,19.777793880310057,21.40956,19.777793880310057,21.77775C19.777793880310057,22.11526,19.52699388031006,22.394190000000002,19.201593880310057,22.43833L19.111133880310057,22.44442L17.62964388031006,22.44442C17.261453880310057,22.44442,16.96298388031006,22.14594,16.96298388031006,21.77775C16.96298388031006,21.44024,17.213783880310057,21.16131,17.53918388031006,21.11717L17.62964388031006,21.11108L19.111133880310057,21.11108ZM19.111133880310057,19.33325C19.47932388031006,19.33325,19.777793880310057,19.63173,19.777793880310057,19.99992C19.777793880310057,20.33743,19.52699388031006,20.61635,19.201593880310057,20.6605L19.111133880310057,20.66659L17.62964388031006,20.66659C17.261453880310057,20.66659,16.96298388031006,20.36811,16.96298388031006,19.99992C16.96298388031006,19.66241,17.213783880310057,19.38348,17.53918388031006,19.33934L17.62964388031006,19.33325L19.111133880310057,19.33325ZM19.111133880310057,17.55566C19.47932388031006,17.55566,19.777793880310057,17.85414,19.777793880310057,18.22233C19.777793880310057,18.55984,19.52699388031006,18.83877,19.201593880310057,18.88291L19.111133880310057,18.889L17.62964388031006,18.889C17.261453880310057,18.889,16.96298388031006,18.590519999999998,16.96298388031006,18.22233C16.96298388031006,17.88482,17.213783880310057,17.60589,17.53918388031006,17.56175L17.62964388031006,17.55566L19.111133880310057,17.55566ZM19.111133880310057,15.77783C19.47932388031006,15.77783,19.777793880310057,16.07631,19.777793880310057,16.4445C19.777793880310057,16.78201,19.52699388031006,17.06094,19.201593880310057,17.10508L19.111133880310057,17.11117L17.62964388031006,17.11117C17.261453880310057,17.11117,16.96298388031006,16.81269,16.96298388031006,16.4445C16.96298388031006,16.10699,17.213783880310057,15.82806,17.53918388031006,15.78392L17.62964388031006,15.77783L19.111133880310057,15.77783ZM19.111133880310057,14C19.47932388031006,14,19.777793880310057,14.298477,19.777793880310057,14.666667C19.777793880310057,15.00417,19.52699388031006,15.2831,19.201593880310057,15.32725L19.111133880310057,15.33333L17.62964388031006,15.33333C17.261453880310057,15.33333,16.96298388031006,15.03486,16.96298388031006,14.666667C16.96298388031006,14.329159,17.213783880310057,14.0502303,17.53918388031006,14.00608588L17.62964388031006,14L19.111133880310057,14ZM22.37034388031006,24.6667C22.738533880310058,24.6667,23.03701388031006,24.9652,23.03701388031006,25.333399999999997C23.03701388031006,25.6709,22.786213880310058,25.9499,22.46080388031006,25.994L22.37034388031006,26.0001L20.88886388031006,26.0001C20.52067388031006,26.0001,20.22219388031006,25.7016,20.22219388031006,25.333399999999997C20.22219388031006,24.9959,20.47300388031006,24.717,20.798403880310058,24.672800000000002L20.88886388031006,24.6667L22.37034388031006,24.6667ZM25.629603880310057,24.6667C25.99780388031006,24.6667,26.296303880310056,24.9652,26.296303880310056,25.333399999999997C26.296303880310056,25.6709,26.045503880310058,25.9499,25.72010388031006,25.994L25.629603880310057,26.0001L24.14810388031006,26.0001C23.77990388031006,26.0001,23.48147388031006,25.7016,23.48147388031006,25.333399999999997C23.48147388031006,24.9959,23.73230388031006,24.717,24.057703880310058,24.672800000000002L24.14810388031006,24.6667L25.629603880310057,24.6667ZM22.37034388031006,22.88892C22.738533880310058,22.88892,23.03701388031006,23.18739,23.03701388031006,23.55558C23.03701388031006,23.89309,22.786213880310058,24.172,22.46080388031006,24.2162L22.37034388031006,24.2222L20.88886388031006,24.2222C20.52067388031006,24.2222,20.22219388031006,23.923769999999998,20.22219388031006,23.55558C20.22219388031006,23.21808,20.47300388031006,22.939149999999998,20.798403880310058,22.895L20.88886388031006,22.88892L22.37034388031006,22.88892ZM25.629603880310057,22.88892C25.99780388031006,22.88892,26.296303880310056,23.18739,26.296303880310056,23.55558C26.296303880310056,23.89309,26.045503880310058,24.172,25.72010388031006,24.2162L25.629603880310057,24.2222L24.14810388031006,24.2222C23.77990388031006,24.2222,23.48147388031006,23.923769999999998,23.48147388031006,23.55558C23.48147388031006,23.21808,23.73230388031006,22.939149999999998,24.057703880310058,22.895L24.14810388031006,22.88892L25.629603880310057,22.88892ZM22.37034388031006,21.11108C22.738533880310058,21.11108,23.03701388031006,21.40956,23.03701388031006,21.77775C23.03701388031006,22.11526,22.786213880310058,22.394190000000002,22.46080388031006,22.43833L22.37034388031006,22.44442L20.88886388031006,22.44442C20.52067388031006,22.44442,20.22219388031006,22.14594,20.22219388031006,21.77775C20.22219388031006,21.44024,20.47300388031006,21.16131,20.798403880310058,21.11717L20.88886388031006,21.11108L22.37034388031006,21.11108ZM25.629603880310057,21.11108C25.99780388031006,21.11108,26.296303880310056,21.40956,26.296303880310056,21.77775C26.296303880310056,22.11526,26.045503880310058,22.394190000000002,25.72010388031006,22.43833L25.629603880310057,22.44442L24.14810388031006,22.44442C23.77990388031006,22.44442,23.48147388031006,22.14594,23.48147388031006,21.77775C23.48147388031006,21.44024,23.73230388031006,21.16131,24.057703880310058,21.11717L24.14810388031006,21.11108L25.629603880310057,21.11108ZM25.629603880310057,19.33325C25.99780388031006,19.33325,26.296303880310056,19.63173,26.296303880310056,19.99992C26.296303880310056,20.33743,26.045503880310058,20.61635,25.72010388031006,20.6605L25.629603880310057,20.66659L24.14810388031006,20.66659C23.77990388031006,20.66659,23.48147388031006,20.36811,23.48147388031006,19.99992C23.48147388031006,19.66241,23.73230388031006,19.38348,24.057703880310058,19.33934L24.14810388031006,19.33325L25.629603880310057,19.33325ZM25.629603880310057,17.55566C25.99780388031006,17.55566,26.296303880310056,17.85414,26.296303880310056,18.22233C26.296303880310056,18.55984,26.045503880310058,18.83877,25.72010388031006,18.88291L25.629603880310057,18.889L24.14810388031006,18.889C23.77990388031006,18.889,23.48147388031006,18.590519999999998,23.48147388031006,18.22233C23.48147388031006,17.88482,23.73230388031006,17.60589,24.057703880310058,17.56175L24.14810388031006,17.55566L25.629603880310057,17.55566Z" fill="#FFFFFF" fill-opacity="1"/></g></g></g></g></svg>