<svg xmlns="http://www.w3.org/2000/svg" xmlns:xlink="http://www.w3.org/1999/xlink" fill="none" version="1.1" width="40" height="40" viewBox="0 0 40 40"><defs><linearGradient x1="0.04520531743764877" y1="0.05740882828831673" x2="1" y2="1" id="master_svg0_111_3116"><stop offset="0%" stop-color="#73E2D1" stop-opacity="1"/><stop offset="100%" stop-color="#40C1AD" stop-opacity="1"/></linearGradient><mask id="master_svg1_111_3209/111_3190/111_3114" style="mask-type:alpha" maskUnits="userSpaceOnUse"><g><path d="M36,11L36,20L36,34C36,36.2091,34.2091,38,32,38L8,38C5.79086,38,4,36.2091,4,34L4,6C4,3.79086,5.79086,2,8,2L22,2L27,2L36,11Z" fill-rule="evenodd" fill="#FFFFFF" fill-opacity="1"/></g></mask><filter id="master_svg2_111_3209/111_3190/111_3118" filterUnits="objectBoundingBox" color-interpolation-filters="sRGB" x="-8" y="-8" width="25.378931999206543" height="25.378931999206543"><feFlood flood-opacity="0" result="BackgroundImageFix"/><feBlend mode="normal" in="SourceGraphic" in2="BackgroundImageFix" result="shape"/><feGaussianBlur stdDeviation="2" result="effect1_foregroundBlur"/></filter><linearGradient x1="0.11252430081367493" y1="0.9104441404342651" x2="0.6175141930580139" y2="0.42868033051490784" id="master_svg3_111_3112"><stop offset="0%" stop-color="#C0FFF5" stop-opacity="1"/><stop offset="69.61352825164795%" stop-color="#A9F3E8" stop-opacity="1"/><stop offset="100%" stop-color="#FFFFFF" stop-opacity="1"/></linearGradient></defs><g><g><g></g><g><g><g><path d="M36,11L36,20L36,34C36,36.2091,34.2091,38,32,38L8,38C5.79086,38,4,36.2091,4,34L4,6C4,3.79086,5.79086,2,8,2L22,2L27,2L36,11Z" fill-rule="evenodd" fill="url(#master_svg0_111_3116)" fill-opacity="1"/></g><g mask="url(#master_svg1_111_3209/111_3190/111_3114)"><g style="opacity:0.6000000238418579;mix-blend-mode:multiply" filter="url(#master_svg2_111_3209/111_3190/111_3118)"><path d="M27.81053352355957,3L37.18946352355957,12.37893L31.81053352355957,12.37893C29.60139352355957,12.37893,27.81053352355957,10.58807,27.81053352355957,8.37893L27.81053352355957,3Z" fill-rule="evenodd" fill="#064F6C" fill-opacity="1" style="mix-blend-mode:multiply"/></g></g></g><g><path d="M27,2L36,11L31,11C28.79086,11,27,9.20914,27,7L27,2Z" fill-rule="evenodd" fill="url(#master_svg3_111_3112)" fill-opacity="1"/></g></g><g></g><g><g><path d="M20.91189,18.10091956085205L16.62421,13.81322956085205L15,15.43743956085205L18.47476,18.91240956085205L15,22.38859956085205L16.62421,24.01282956085205L20.91189,19.72511956085205L20.99561,19.631869560852053C21.35841,19.18088956085205,21.3305,18.51952956085205,20.91189,18.10091956085205ZM25,26.18662956085205L25,23.88962956085205L18.26221,23.88962956085205L18.26221,26.18662956085205L25,26.18662956085205Z" fill-rule="evenodd" fill="#FFFFFF" fill-opacity="1"/></g></g></g></g></svg>