<svg xmlns="http://www.w3.org/2000/svg" xmlns:xlink="http://www.w3.org/1999/xlink" fill="none" version="1.1" width="40" height="40" viewBox="0 0 40 40"><defs><linearGradient x1="0.04520531743764877" y1="0.05740882828831673" x2="1" y2="1" id="master_svg0_111_3021"><stop offset="0%" stop-color="#D9D9D9" stop-opacity="1"/><stop offset="100%" stop-color="#AEAEAE" stop-opacity="1"/></linearGradient><mask id="master_svg1_111_3205/111_3176/111_3064" style="mask-type:alpha" maskUnits="userSpaceOnUse"><g><path d="M36,11L36,20L36,34C36,36.2091,34.2091,38,32,38L8,38C5.79086,38,4,36.2091,4,34L4,6C4,3.79086,5.79086,2,8,2L22,2L27,2L36,11Z" fill-rule="evenodd" fill="#FFFFFF" fill-opacity="1"/></g></mask><filter id="master_svg2_111_3205/111_3176/111_3065" filterUnits="objectBoundingBox" color-interpolation-filters="sRGB" x="-8" y="-8" width="25.378931999206543" height="25.378931999206543"><feFlood flood-opacity="0" result="BackgroundImageFix"/><feBlend mode="normal" in="SourceGraphic" in2="BackgroundImageFix" result="shape"/><feGaussianBlur stdDeviation="2" result="effect1_foregroundBlur"/></filter><linearGradient x1="0.13267096877098083" y1="0.9264393448829651" x2="0.6175141930580139" y2="0.42868033051490784" id="master_svg3_111_3014"><stop offset="0%" stop-color="#E9E9E9" stop-opacity="1"/><stop offset="69.61352825164795%" stop-color="#E0E0E0" stop-opacity="1"/><stop offset="100%" stop-color="#FFFFFF" stop-opacity="1"/></linearGradient></defs><g><g><g></g><g><g><g><path d="M36,11L36,20L36,34C36,36.2091,34.2091,38,32,38L8,38C5.79086,38,4,36.2091,4,34L4,6C4,3.79086,5.79086,2,8,2L22,2L27,2L36,11Z" fill-rule="evenodd" fill="url(#master_svg0_111_3021)" fill-opacity="1"/></g><g mask="url(#master_svg1_111_3205/111_3176/111_3064)"><g style="opacity:0.6000000238418579;mix-blend-mode:multiply" filter="url(#master_svg2_111_3205/111_3176/111_3065)"><path d="M27.81053352355957,3L37.18946352355957,12.37893L31.81053352355957,12.37893C29.60139352355957,12.37893,27.81053352355957,10.58807,27.81053352355957,8.37893L27.81053352355957,3Z" fill-rule="evenodd" fill="#6E6E6E" fill-opacity="1" style="mix-blend-mode:multiply"/></g></g></g><g><path d="M27,2L36,11L31,11C28.79086,11,27,9.20914,27,7L27,2Z" fill-rule="evenodd" fill="url(#master_svg3_111_3014)" fill-opacity="1"/></g></g><g></g><g transform="matrix(-1,0,0,1,51,0)"><g><path d="M25.366497,18.68537725341797L27.69083,21.00972725341797L29.10505,19.595517253417967L26.78071,17.271167253417968Q26.494517,16.98497725341797,26.50009,16.56896725341797Q26.50588,16.137247253417968,26.81906,15.824067253417969Q27.13226,15.510877253417968,27.56398,15.505087253417969Q27.97998,15.499514253417969,28.26616,15.785707253417968L30.94339,18.46291725341797L32.3576,17.04869725341797L29.68039,14.371502253417969Q28.79728,13.48837725341797,27.53717,13.505270253417969Q26.292769,13.52195025341797,25.4048581,14.409845153417969Q24.516953,15.297737253417969,24.500273,16.54215725341797Q24.48338,17.80228725341797,25.366497,18.68537725341797Z" fill-rule="evenodd" fill="#FFFFFF" fill-opacity="1"/></g><g><path d="M33.73381350357056,24.214788347167968L31.056600503570557,21.53756834716797L29.642386503570556,22.95178834716797L32.319603503570555,25.62899834716797Q33.202733503570556,26.51212834716797,34.46283350357056,26.49523834716797Q35.70724350357056,26.47856834716797,36.59515350357056,25.590658347167967Q37.483043503570556,24.70273834716797,37.49972350357056,23.45834834716797Q37.51662350357056,22.19822834716797,36.633493503570556,21.315108347167968L34.309153503570556,18.990761347167968L32.89494350357056,20.40497534716797L35.21928350357056,22.72931834716797Q35.50548350357056,23.01551834716797,35.49990350357056,23.43153834716797Q35.494123503570556,23.86325834716797,35.18094350357056,24.17644834716797Q34.867753503570555,24.48963834716797,34.436033503570556,24.49541834716797Q34.020023503570556,24.500998347167968,33.73381350357056,24.214788347167968Z" fill-rule="evenodd" fill="#FFFFFF" fill-opacity="1"/></g><g><path d="M30.236328325653076,17.755703122692967L30.943429325653078,18.46282367529297Q31.229629325653075,18.74903267529297,31.224051325653075,19.16504967529297Q31.218263325653076,19.59676967529297,30.905071325653076,19.909959675292967L30.197958325653076,20.617069675292967L31.612178325653076,22.031289675292967L32.31928532565308,21.324179675292967Q33.20718832565308,20.43626967529297,33.22386832565308,19.191859675292967Q33.24076832565308,17.931764675292968,32.357670325653075,17.048635675292967L31.650576325653077,16.34150967529297L30.236328325653076,17.755703122692967Z" fill-rule="evenodd" fill="#FFFFFF" fill-opacity="1"/></g><g><path d="M30.34961019555664,17.93062100341797L29.64250349555664,18.637734003417968Q28.754601195556642,19.52563700341797,28.73791719555664,20.77004100341797Q28.72102419555664,22.03015100341797,29.60413219555664,22.91326100341797L30.31123919555664,23.62037100341797L31.72545419555664,22.20615100341797L31.01834419555664,21.499041003417968Q30.73216019555664,21.21286100341797,30.73773419555664,20.79685100341797Q30.743524195556642,20.365141003417968,31.05671419555664,20.05194800341797L31.76383419555664,19.34484100341797L30.34961019555664,17.93062100341797Z" fill-rule="evenodd" fill="#FFFFFF" fill-opacity="1"/></g></g></g></g></svg>