<svg xmlns="http://www.w3.org/2000/svg" xmlns:xlink="http://www.w3.org/1999/xlink" fill="none" version="1.1" width="24" height="24" viewBox="0 0 24 24"><defs><clipPath id="master_svg0_487_01646"><rect x="0" y="0" width="24" height="24" rx="0"/></clipPath></defs><g clip-path="url(#master_svg0_487_01646)"><g><path d="M3.974609375,6.72509765625L19.974609375,6.72509765625Q20.048509375,6.72509765625,20.120909375,6.71068665625Q20.193409375,6.69627565625,20.261609375,6.66800765625Q20.329909375,6.63973865625,20.391309375,6.59869965625Q20.452709375,6.55766065625,20.504909375,6.50542765625Q20.557209375,6.45319465625,20.598209375,6.39177565625Q20.639209375,6.33035565625,20.667509375,6.26211065625Q20.695809375,6.19386465625,20.710209375,6.12141565625Q20.724609375,6.04896615625,20.724609375,5.97509765625Q20.724609375,5.90122915625,20.710209375,5.82877965625Q20.695809375,5.75633065625,20.667509375,5.68808465625Q20.639209375,5.61983965625,20.598209375,5.55841965625Q20.557209375,5.49700065625,20.504909375,5.44476765625Q20.452709375,5.39253465625,20.391309375,5.35149565625Q20.329909375,5.31045665625,20.261609375,5.28218765625Q20.193409375,5.25391965625,20.120909375,5.23950865625Q20.048509375,5.22509765625,19.974609375,5.22509765625L3.974609375,5.22509765625Q3.900740875,5.22509765625,3.828291375,5.23950865625Q3.755842375,5.25391965625,3.687596375,5.28218765625Q3.619351375,5.31045665625,3.557931375,5.35149565625Q3.496512375,5.39253465625,3.444279375,5.44476765625Q3.392046375,5.49700065625,3.351007375,5.55841965625Q3.309968375,5.61983965625,3.281699375,5.68808465625Q3.253431375,5.75633065625,3.239020375,5.82877965625Q3.224609375,5.90122915625,3.224609375,5.97509765625Q3.224609375,6.04896615625,3.239020375,6.12141565625Q3.253431375,6.19386465625,3.281699375,6.26211065625Q3.309968375,6.33035565625,3.351007375,6.39177565625Q3.392046375,6.45319465625,3.444279375,6.50542765625Q3.496512375,6.55766065625,3.557931375,6.59869965625Q3.619351375,6.63973865625,3.687596375,6.66800765625Q3.755842375,6.69627565625,3.828291375,6.71068665625Q3.900740875,6.72509765625,3.974609375,6.72509765625Z" fill-rule="evenodd" fill="#000000" fill-opacity="1"/></g><g><path d="M3.974609375,12.72509765625L19.974609375,12.72509765625Q20.048509375,12.72509765625,20.120909375,12.710686656250001Q20.193409375,12.69627565625,20.261609375,12.66800765625Q20.329909375,12.63973865625,20.391309375,12.59869965625Q20.452709375,12.55766065625,20.504909375,12.50542765625Q20.557209375,12.45319465625,20.598209375,12.39177565625Q20.639209375,12.33035565625,20.667509375,12.26211065625Q20.695809375,12.19386465625,20.710209375,12.12141565625Q20.724609375,12.04896615625,20.724609375,11.97509765625Q20.724609375,11.90122915625,20.710209375,11.82877965625Q20.695809375,11.75633065625,20.667509375,11.68808465625Q20.639209375,11.61983965625,20.598209375,11.55841965625Q20.557209375,11.49700065625,20.504909375,11.44476765625Q20.452709375,11.39253465625,20.391309375,11.35149565625Q20.329909375,11.31045665625,20.261609375,11.28218765625Q20.193409375,11.25391965625,20.120909375,11.239508656249999Q20.048509375,11.22509765625,19.974609375,11.22509765625L3.974609375,11.22509765625Q3.900740875,11.22509765625,3.828291375,11.239508656249999Q3.755842375,11.25391965625,3.687596375,11.28218765625Q3.619351375,11.31045665625,3.557931375,11.35149565625Q3.496512375,11.39253465625,3.444279375,11.44476765625Q3.392046375,11.49700065625,3.351007375,11.55841965625Q3.309968375,11.61983965625,3.281699375,11.68808465625Q3.253431375,11.75633065625,3.239020375,11.82877965625Q3.224609375,11.90122915625,3.224609375,11.97509765625Q3.224609375,12.04896615625,3.239020375,12.12141565625Q3.253431375,12.19386465625,3.281699375,12.26211065625Q3.309968375,12.33035565625,3.351007375,12.39177565625Q3.392046375,12.45319465625,3.444279375,12.50542765625Q3.496512375,12.55766065625,3.557931375,12.59869965625Q3.619351375,12.63973865625,3.687596375,12.66800765625Q3.755842375,12.69627565625,3.828291375,12.710686656250001Q3.900740875,12.72509765625,3.974609375,12.72509765625Z" fill-rule="evenodd" fill="#000000" fill-opacity="1"/></g><g><path d="M3.974609375,18.72509765625L19.974609375,18.72509765625Q20.048509375,18.72509765625,20.120909375,18.71068665625Q20.193409375,18.69627565625,20.261609375,18.66800765625Q20.329909375,18.63973865625,20.391309375,18.598699656249998Q20.452709375,18.55766065625,20.504909375,18.50542765625Q20.557209375,18.453194656249998,20.598209375,18.39177565625Q20.639209375,18.33035565625,20.667509375,18.26211065625Q20.695809375,18.19386465625,20.710209375,18.12141565625Q20.724609375,18.04896615625,20.724609375,17.97509765625Q20.724609375,17.90122915625,20.710209375,17.82877965625Q20.695809375,17.75633065625,20.667509375,17.68808465625Q20.639209375,17.61983965625,20.598209375,17.55841965625Q20.557209375,17.497000656250002,20.504909375,17.44476765625Q20.452709375,17.39253465625,20.391309375,17.351495656250002Q20.329909375,17.31045665625,20.261609375,17.28218765625Q20.193409375,17.25391965625,20.120909375,17.23950865625Q20.048509375,17.22509765625,19.974609375,17.22509765625L3.974609375,17.22509765625Q3.900740875,17.22509765625,3.828291375,17.23950865625Q3.755842375,17.25391965625,3.687596375,17.28218765625Q3.619351375,17.31045665625,3.557931375,17.351495656250002Q3.496512375,17.39253465625,3.444279375,17.44476765625Q3.392046375,17.497000656250002,3.351007375,17.55841965625Q3.309968375,17.61983965625,3.281699375,17.68808465625Q3.253431375,17.75633065625,3.239020375,17.82877965625Q3.224609375,17.90122915625,3.224609375,17.97509765625Q3.224609375,18.04896615625,3.239020375,18.12141565625Q3.253431375,18.19386465625,3.281699375,18.26211065625Q3.309968375,18.33035565625,3.351007375,18.39177565625Q3.392046375,18.453194656249998,3.444279375,18.50542765625Q3.496512375,18.55766065625,3.557931375,18.598699656249998Q3.619351375,18.63973865625,3.687596375,18.66800765625Q3.755842375,18.69627565625,3.828291375,18.71068665625Q3.900740875,18.72509765625,3.974609375,18.72509765625Z" fill-rule="evenodd" fill="#000000" fill-opacity="1"/></g></g></svg>