<svg xmlns="http://www.w3.org/2000/svg" xmlns:xlink="http://www.w3.org/1999/xlink" fill="none" version="1.1" width="24" height="24" viewBox="0 0 24 24"><g><g><g><path d="M2.9169921875,9.25L2.9169921875,14.75Q2.9169921875,15.47487,3.4295551875,15.98744Q3.9421181875,16.5,4.6669921875,16.5L8.2503221875,16.5Q8.3241921875,16.5,8.3966421875,16.485590000000002Q8.4690921875,16.47118,8.5373421875,16.442909999999998Q8.6055821875,16.41464,8.6670021875,16.3736Q8.7284221875,16.33256,8.7806521875,16.28033Q8.8328921875,16.2281,8.8739321875,16.16668Q8.914962187499999,16.10526,8.9432321875,16.037010000000002Q8.9715021875,15.96877,8.9859121875,15.89632Q9.0003221875,15.82387,9.0003221875,15.75L9.0003221875,8.25Q9.0003221875,8.1761315,8.9859121875,8.103682Q8.9715021875,8.031233,8.9432321875,7.962987Q8.914962187499999,7.894742,8.8739221875,7.833322Q8.8328921875,7.771903,8.7806521875,7.71967Q8.7284221875,7.667437,8.6670021875,7.626398Q8.6055821875,7.585359,8.5373421875,7.55709Q8.4690921875,7.528822,8.3966421875,7.514411Q8.3241921875,7.5,8.2503221875,7.5L4.6669921875,7.5Q3.9421181875,7.5,3.4295551875,8.012563Q2.9169921875,8.525126,2.9169921875,9.25ZM4.6669921875,15Q4.4169921875,15,4.4169921875,14.75L4.4169921875,9.25Q4.4169921875,9,4.6669921875,9L7.5003221875,9L7.5003221875,15L4.6669921875,15Z" fill-rule="evenodd" fill="#595959" fill-opacity="1"/></g><g><path d="M15,17.570496093750002L8.522442,15.05139609375L8.521835,15.05115609375Q8.390701,15.00016609375,8.250000695597,15.00016609375L8.24544917,15.00017609375Q8.132691,15.00086609375,8.025118,15.03467609375Q7.917546,15.06848609375,7.824671,15.13242609375Q7.731797,15.19637609375,7.661831,15.28480609375Q7.591866,15.37319609375,7.550996,15.47829609375Q7.5,15.60949609375,7.5,15.75019609375Q7.5,15.75829609375,7.500178,15.76649609375Q7.503431,15.91569609375,7.563514,16.05219609375Q7.623596,16.18879609375,7.7313600000000005,16.291896093749997Q7.839125,16.39509609375,7.978165,16.44919609375L7.978773,16.44939609375L15.47817,19.36579609375Q15.61721,19.419896093749998,15.76635,19.416696093749998Q15.9155,19.413396093750002,16.05205,19.35329609375Q16.1886,19.293196093749998,16.29177,19.18549609375Q16.394930000000002,19.07769609375,16.448999999999998,18.93869609375Q16.5,18.80749609375,16.5,18.66679609375L16.5,5.33349609375Q16.5,5.25962759375,16.485590000000002,5.18717809375Q16.47118,5.11472909375,16.442909999999998,5.04648309375Q16.41464,4.97823809375,16.3736,4.91681809375Q16.33256,4.85539909375,16.28033,4.80316609375Q16.2281,4.75093309375,16.16668,4.70989409375Q16.10526,4.66885509375,16.037010000000002,4.64058609375Q15.96877,4.61231809375,15.89632,4.59790709375Q15.82387,4.58349609375,15.75,4.58349609375Q15.609300000000001,4.58349609375,15.47817,4.63449309375L7.978358,7.5510860937499995L7.978165,7.55115609375Q7.87253,7.5922360937499995,7.783751,7.66270609375Q7.694972,7.73316609375,7.630978,7.8267060937499995Q7.566985,7.92025609375,7.533492,8.02853609375Q7.5,8.13681609375,7.5,8.25016609375L7.500131,8.26417609375Q7.502625,8.397616093749999,7.550997,8.52199609375Q7.605068,8.661036093749999,7.708232,8.76880609375Q7.811395,8.87656609375,7.947946,8.93664609375Q8.092295,9.00016609375,8.25,9.00016609375L8.25229121,9.00015609375Q8.391806,8.99973609375,8.521835,8.94916609375L8.522028,8.94909609375L15,6.42987609375L15,17.570496093750002Z" fill-rule="evenodd" fill="#595959" fill-opacity="1"/></g><g><path d="M17.9169921875,9.08349609375Q17.9169921875,9.15736459375,17.9314031875,9.22981409375Q17.9458141875,9.30226309375,17.9740821875,9.37050909375Q18.0023511875,9.43875409375,18.043390187500002,9.50017409375Q18.0844291875,9.56159309375,18.1366621875,9.61382609375Q18.188895187500002,9.66605909375,18.2503141875,9.70709809375Q18.3117341875,9.74813709375,18.3799791875,9.77640609375Q18.4482251875,9.80467409375,18.5206741875,9.819085093750001Q18.5931236875,9.83349609375,18.6669921875,9.83349609375L19.5003251875,9.83349609375Q19.5741941875,9.83349609375,19.6466431875,9.819085093750001Q19.7190921875,9.80467409375,19.7873421875,9.77640609375Q19.8555821875,9.74813709375,19.9170021875,9.70709809375Q19.9784221875,9.66605909375,20.0306521875,9.61382609375Q20.0828921875,9.56159309375,20.1239321875,9.50017409375Q20.1649621875,9.43875409375,20.1932321875,9.37050909375Q20.2215021875,9.30226309375,20.2359121875,9.22981409375Q20.2503221875,9.15736459375,20.2503221875,9.08349609375Q20.2503221875,9.00962759375,20.2359121875,8.93717809375Q20.2215021875,8.86472909375,20.1932321875,8.79648309375Q20.1649621875,8.72823809375,20.1239321875,8.66681809375Q20.0828921875,8.60539909375,20.0306521875,8.55316609375Q19.9784221875,8.50093309375,19.9170021875,8.45989409375Q19.8555821875,8.41885509375,19.7873421875,8.39058609375Q19.7190921875,8.36231809375,19.6466431875,8.347907093749999Q19.5741941875,8.33349609375,19.5003251875,8.33349609375L18.6669921875,8.33349609375Q18.5931236875,8.33349609375,18.5206741875,8.347907093749999Q18.4482251875,8.36231809375,18.3799791875,8.39058609375Q18.3117341875,8.41885509375,18.2503141875,8.45989409375Q18.188895187500002,8.50093309375,18.1366621875,8.55316609375Q18.0844291875,8.60539909375,18.043390187500002,8.66681809375Q18.0023511875,8.72823809375,17.9740821875,8.79648309375Q17.9458141875,8.86472909375,17.9314031875,8.93717809375Q17.9169921875,9.00962759375,17.9169921875,9.08349609375Z" fill-rule="evenodd" fill="#595959" fill-opacity="1"/></g><g><path d="M18.25,13.16650390625L20.33333,13.16650390625Q20.4072,13.16650390625,20.47965,13.152092906250001Q20.5521,13.13768190625,20.620350000000002,13.10941390625Q20.68859,13.08114490625,20.75001,13.04010590625Q20.81143,12.99906690625,20.86366,12.94683390625Q20.9159,12.89460090625,20.95694,12.83318190625Q20.99797,12.77176190625,21.02624,12.70351690625Q21.05451,12.63527090625,21.06892,12.56282190625Q21.08333,12.49037240625,21.08333,12.41650390625Q21.08333,12.34263540625,21.06892,12.27018590625Q21.05451,12.19773690625,21.02624,12.12949090625Q20.99797,12.06124590625,20.95694,11.99982590625Q20.9159,11.93840690625,20.86366,11.88617390625Q20.81143,11.83394090625,20.75001,11.79290190625Q20.68859,11.75186290625,20.620350000000002,11.72359390625Q20.5521,11.69532590625,20.47965,11.680914906249999Q20.4072,11.66650390625,20.33333,11.66650390625L18.25,11.66650390625Q18.1761315,11.66650390625,18.103682,11.680914906249999Q18.031233,11.69532590625,17.962987,11.72359390625Q17.894742,11.75186290625,17.833322,11.79290190625Q17.771903000000002,11.83394090625,17.71967,11.88617390625Q17.667437,11.93840690625,17.626398000000002,11.99982590625Q17.585359,12.06124590625,17.55709,12.12949090625Q17.528822,12.19773690625,17.514411,12.27018590625Q17.5,12.34263540625,17.5,12.41650390625Q17.5,12.49037240625,17.514411,12.56282190625Q17.528822,12.63527090625,17.55709,12.70351690625Q17.585359,12.77176190625,17.626398000000002,12.83318190625Q17.667437,12.89460090625,17.71967,12.94683390625Q17.771903000000002,12.99906690625,17.833322,13.04010590625Q17.894742,13.08114490625,17.962987,13.10941390625Q18.031233,13.13768190625,18.103682,13.152092906250001Q18.1761315,13.16650390625,18.25,13.16650390625Z" fill-rule="evenodd" fill="#595959" fill-opacity="1"/></g><g><path d="M17.9169921875,15.75Q17.9169921875,15.8238685,17.9314031875,15.896318Q17.9458141875,15.968767,17.9740821875,16.037013Q18.0023511875,16.105258,18.043390187500002,16.166678Q18.0844291875,16.228096999999998,18.1366621875,16.28033Q18.188895187500002,16.332563,18.2503141875,16.373601999999998Q18.3117341875,16.414641,18.3799791875,16.44291Q18.4482251875,16.471178,18.5206741875,16.485589Q18.5931236875,16.5,18.6669921875,16.5L19.5003251875,16.5Q19.5741941875,16.5,19.6466431875,16.485589Q19.7190921875,16.471178,19.7873421875,16.44291Q19.8555821875,16.414641,19.9170021875,16.373601999999998Q19.9784221875,16.332563,20.0306521875,16.28033Q20.0828921875,16.228096999999998,20.1239321875,16.166678Q20.1649621875,16.105258,20.1932321875,16.037013Q20.2215021875,15.968767,20.2359121875,15.896318Q20.2503221875,15.8238685,20.2503221875,15.75Q20.2503221875,15.6761315,20.2359121875,15.603682Q20.2215021875,15.531233,20.1932321875,15.462987Q20.1649621875,15.394742,20.1239321875,15.333322Q20.0828921875,15.271903,20.0306521875,15.21967Q19.9784221875,15.167437,19.9170021875,15.126398Q19.8555821875,15.085359,19.7873421875,15.05709Q19.7190921875,15.028822,19.6466431875,15.014410999999999Q19.5741941875,15,19.5003251875,15L18.6669921875,15Q18.5931236875,15,18.5206741875,15.014410999999999Q18.4482251875,15.028822,18.3799791875,15.05709Q18.3117341875,15.085359,18.2503141875,15.126398Q18.188895187500002,15.167437,18.1366621875,15.21967Q18.0844291875,15.271903,18.043390187500002,15.333322Q18.0023511875,15.394742,17.9740821875,15.462987Q17.9458141875,15.531233,17.9314031875,15.603682Q17.9169921875,15.6761315,17.9169921875,15.75Z" fill-rule="evenodd" fill="#595959" fill-opacity="1"/></g></g></g></svg>