<svg xmlns="http://www.w3.org/2000/svg" xmlns:xlink="http://www.w3.org/1999/xlink" fill="none" version="1.1" width="24" height="24" viewBox="0 0 24 24"><g><g><g><path d="M12.000342572288513,19.0001073261261Q11.421772572288512,19.0001073261261,10.959082572288514,19.343407326126098Q10.504182572288514,19.6809073261261,10.332982572288513,20.2164073261261Q10.310772572288514,20.2859073261261,10.275612572288512,20.349807326126097Q10.240442572288513,20.413707326126097,10.193622572288513,20.4696073261261Q10.146812572288514,20.5255073261261,10.090102572288513,20.5713073261261Q10.033402572288512,20.6172073261261,9.968922572288513,20.651207326126098Q9.904442572288513,20.6853073261261,9.834612572288513,20.706307326126097Q9.764782572288514,20.7273073261261,9.692222572288514,20.7344073261261Q9.619652572288512,20.741607326126097,9.547062572288514,20.7346073261261Q9.474472572288512,20.727707326126097,9.404582572288513,20.7069073261261Q7.117932572288513,20.0261073261261,5.454892572288513,18.298007326126097Q5.407072572288513,18.2483073261261,5.369112572288513,18.1907073261261Q5.331152572288513,18.133207326126097,5.304332572288513,18.069607326126096Q5.277512572288513,18.0061073261261,5.262732572288513,17.9387073261261Q5.247942572288514,17.871407326126096,5.2456925722885135,17.8024073261261Q5.243442572288513,17.733507326126098,5.253792572288513,17.665307326126097Q5.264142572288513,17.5972073261261,5.286762572288513,17.5320073261261Q5.309372572288513,17.466907326126098,5.343482572288513,17.4069073261261Q5.377602572288513,17.347007326126096,5.4220725722885135,17.2943073261261Q5.833682572288513,16.8065073261261,5.833682572288513,16.1667073261261Q5.833682572288513,15.441907326126099,5.321112572288513,14.929307326126098Q4.808552572288513,14.4167073261261,4.083682572288513,14.4167073261261Q3.9963325722885132,14.4167073261261,3.909520572288513,14.425307326126099Q3.840892572288513,14.432007326126099,3.7721845722885132,14.426107326126099Q3.703477572288513,14.420207326126098,3.636994572288513,14.401907326126098Q3.5705125722885134,14.383607326126098,3.508483572288513,14.353507326126099Q3.4464555722885133,14.323407326126098,3.3909615722885134,14.282407326126098Q3.3354665722885133,14.241507326126099,3.288367572288513,14.1911073261261Q3.241267572288513,14.1407073261261,3.204142572288513,14.082607326126098Q3.167017572288513,14.024507326126098,3.141111572288513,13.960607326126098Q3.115205572288513,13.896707326126098,3.1013875722885134,13.829107326126099Q2.917012572288513,12.927717326126098,2.917012572288513,12.000077326126098Q2.917012572288513,10.599597326126098,3.333060572288513,9.275067326126099Q3.350988572288513,9.217997326126099,3.3777375722885132,9.164477326126098Q3.4044865722885134,9.110967326126099,3.4393805722885133,9.062377326126098Q3.4742745722885133,9.0137773261261,3.516430572288513,8.971327326126099Q3.558586572288513,8.928887326126098,3.606938572288513,8.8936573261261Q3.6552905722885134,8.858427326126098,3.708615572288513,8.831307326126097Q3.761940572288513,8.804187326126097,3.818890572288513,8.785867326126098Q3.875840572288513,8.767547326126099,3.934972572288513,8.758477326126098Q3.994112572288513,8.7494173261261,4.053932572288513,8.749847326126098L4.089022572288513,8.750097326126099Q4.808552572288513,8.7500773261261,5.321112572288513,8.2375073261261Q5.833682572288513,7.724947326126099,5.833682572288513,7.000077326126099Q5.833682572288513,6.590857326126098,5.654572572288513,6.227547326126098Q5.627982572288513,6.173627326126098,5.610332572288513,6.116157326126098Q5.592672572288514,6.058697326126099,5.584402572288513,5.999147326126099Q5.576122572288513,5.939607326126099,5.577442572288513,5.879497326126099Q5.578762572288513,5.819397326126099,5.589632572288513,5.760267326126099Q5.600502572288513,5.701147326126099,5.620652572288513,5.6445073261260985Q5.640802572288513,5.587867326126099,5.669722572288514,5.5351573261260985Q5.698642572288513,5.482457326126099,5.7355825722885125,5.435027326126098Q5.772522572288514,5.387597326126098,5.816552572288513,5.346657326126099Q7.442712572288513,3.8346033261260986,9.571962572288513,3.2451902261260988Q9.633972572288513,3.2280270261260986,9.697982572288513,3.221673656126099Q9.762002572288512,3.215320316126099,9.826172572288513,3.2199625161260985Q9.890342572288514,3.2246047161260987,9.952772572288513,3.2401068261260986Q10.015212572288513,3.2556089261260985,10.074102572288513,3.2815180261260988Q10.132992572288513,3.3074271261260986,10.186602572288514,3.342986326126099Q10.240212572288513,3.3785453261260985,10.286992572288513,3.4227153261260987Q10.333762572288514,3.4668863261260987,10.372332572288514,3.5183763261260985Q10.410902572288514,3.5698673261260985,10.440132572288512,3.6271743261260987Q10.927982572288514,4.583417326126098,12.000342572288513,4.583417326126098Q13.072712572288513,4.583417326126098,13.560512572288513,3.6271743261260987Q13.589812572288514,3.5698673261260985,13.628312572288513,3.5183763261260985Q13.666912572288513,3.4668853261260986,13.713712572288513,3.4227153261260987Q13.760512572288514,3.3785453261260985,13.814112572288513,3.342986326126099Q13.867712572288513,3.3074270261260987,13.926612572288514,3.2815179261260985Q13.985512572288513,3.2556088261260987,14.047912572288514,3.2401067261260987Q14.110312572288514,3.224604616126099,14.174512572288513,3.2199624161260987Q14.238712572288513,3.2153202161260985,14.302712572288513,3.2216735561260985Q14.366712572288513,3.2280269261260988,14.428712572288513,3.2451901261260985Q16.55801257228851,3.8346033261260986,18.184112572288512,5.346667326126099Q18.228212572288513,5.387597326126098,18.265112572288515,5.435027326126098Q18.30201257228851,5.482457326126099,18.331012572288515,5.5351573261260985Q18.359912572288515,5.587867326126099,18.380012572288514,5.6445073261260985Q18.400212572288513,5.701147326126099,18.411112572288513,5.760267326126099Q18.421912572288512,5.819397326126099,18.423212572288513,5.879497326126099Q18.424612572288513,5.939607326126099,18.41631257228851,5.999147326126099Q18.408012572288513,6.058697326126099,18.390312572288515,6.116157326126098Q18.372712572288513,6.173627326126098,18.34611257228851,6.227547326126098Q18.167012572288513,6.590857326126098,18.167012572288513,7.000077326126099Q18.167012572288513,7.724947326126099,18.679612572288512,8.2375073261261Q19.19211257228851,8.7500773261261,19.917012572288513,8.7500773261261L19.94671257228851,8.749847326126098Q20.006612572288514,8.7494173261261,20.065712572288515,8.758477326126098Q20.124812572288512,8.7675373261261,20.181812572288514,8.785867326126098Q20.238712572288513,8.804187326126097,20.292112572288513,8.831307326126097Q20.345412572288513,8.858427326126098,20.393712572288514,8.8936573261261Q20.44211257228851,8.928887326126098,20.484212572288513,8.971337326126099Q20.526412572288514,9.0137873261261,20.561312572288514,9.062377326126098Q20.596212572288515,9.110977326126099,20.622912572288513,9.1644873261261Q20.649712572288514,9.217997326126099,20.667612572288512,9.275077326126098Q21.083712572288512,10.5996573261261,21.083712572288512,12.000077326126098Q21.083712572288512,12.927697326126099,20.899312572288512,13.829107326126099Q20.885512572288512,13.896707326126098,20.859612572288512,13.960607326126098Q20.833712572288512,14.024507326126098,20.796512572288513,14.082607326126098Q20.759412572288515,14.1407073261261,20.712312572288514,14.1911073261261Q20.665212572288514,14.241507326126099,20.60971257228851,14.282407326126098Q20.554212572288513,14.323407326126098,20.492212572288512,14.353507326126099Q20.430212572288514,14.383607326126098,20.363712572288513,14.401907326126098Q20.29721257228851,14.420207326126098,20.228512572288512,14.426107326126099Q20.159812572288512,14.432007326126099,20.091212572288512,14.425307326126099Q20.004312572288512,14.4167073261261,19.917012572288513,14.4167073261261Q19.19211257228851,14.4167073261261,18.679612572288512,14.929307326126098Q18.167012572288513,15.441907326126099,18.167012572288513,16.1667073261261Q18.167012572288513,16.8065073261261,18.578612572288513,17.2943073261261Q18.623112572288512,17.347007326126096,18.657212572288515,17.4069073261261Q18.691312572288513,17.466907326126098,18.713912572288514,17.5320073261261Q18.73651257228851,17.5972073261261,18.746912572288515,17.665307326126097Q18.757212572288513,17.733507326126098,18.755012572288514,17.802507326126097Q18.752712572288512,17.871407326126096,18.737912572288515,17.9387073261261Q18.723212572288514,18.0061073261261,18.696312572288512,18.069607326126096Q18.66951257228851,18.133207326126097,18.631612572288514,18.1907073261261Q18.593612572288514,18.2483073261261,18.54581257228851,18.298007326126097Q16.882812572288515,20.0261073261261,14.596112572288513,20.7069073261261Q14.526212572288513,20.727707326126097,14.453612572288513,20.7347073261261Q14.381012572288514,20.741607326126097,14.308512572288514,20.7344073261261Q14.235912572288512,20.7273073261261,14.166112572288514,20.706307326126097Q14.096212572288513,20.6853073261261,14.031812572288514,20.651207326126098Q13.967312572288513,20.6172073261261,13.910612572288514,20.5713073261261Q13.853912572288513,20.5255073261261,13.807112572288514,20.4696073261261Q13.760212572288513,20.413707326126097,13.725112572288513,20.349807326126097Q13.689912572288513,20.2859073261261,13.667712572288513,20.2164073261261Q13.496512572288513,19.6809073261261,13.041612572288512,19.343407326126098Q12.578912572288512,19.0001073261261,12.000342572288513,19.0001073261261ZM12.000342572288513,17.5001073261261Q13.074612572288514,17.5001073261261,13.935412572288513,18.1387073261261Q14.459212572288513,18.5274073261261,14.780512572288513,19.0592073261261Q16.028112572288514,18.572007326126098,17.032612572288514,17.6748073261261Q16.667012572288513,16.9879073261261,16.667012572288513,16.1667073261261Q16.667012572288513,14.820507326126098,17.618912572288515,13.8686073261261Q18.429612572288512,13.057897326126099,19.526412572288514,12.9376773261261Q19.583712572288512,12.473167326126099,19.583712572288512,12.000077326126098Q19.583712572288512,11.084267326126099,19.371112572288514,10.208437326126099Q18.371712572288516,10.050987326126098,17.618912572288515,9.298167326126098Q16.667012572288513,8.3462673261261,16.667012572288513,7.000077326126099Q16.667012572288513,6.544017326126099,16.787512572288513,6.117547326126099Q15.775112572288513,5.288467326126099,14.548312572288513,4.854357326126099Q14.206312572288514,5.287487326126099,13.721712572288514,5.590527326126098Q12.933512572288514,6.083417326126098,12.000342572288513,6.083417326126098Q11.067202572288513,6.083417326126098,10.279012572288513,5.590527326126098Q9.794422572288514,5.287487326126099,9.452402572288513,4.854357326126099Q8.225622572288513,5.288467326126099,7.2131525722885135,6.117547326126099Q7.333682572288513,6.544017326126099,7.333682572288513,7.000077326126099Q7.333682572288513,8.3462673261261,6.381772572288513,9.298167326126098Q5.630262572288514,10.049677326126098,4.629672572288513,10.207877326126098Q4.417012572288513,11.083947326126099,4.417012572288513,12.000077326126098Q4.417012572288513,12.473177326126098,4.474262572288513,12.9376773261261Q5.571032572288513,13.057897326126099,6.381772572288513,13.8686073261261Q7.333682572288513,14.820507326126098,7.333682572288513,16.1667073261261Q7.333682572288513,16.9879073261261,6.968082572288513,17.6748073261261Q7.972602572288513,18.572007326126098,9.220222572288513,19.0592073261261Q9.541432572288514,18.5274073261261,10.065292572288513,18.1387073261261Q10.926072572288513,17.5001073261261,12.000342572288513,17.5001073261261ZM8.333032572288513,12.000147326126099Q8.333032572288513,10.481367326126097,9.406972572288513,9.407427326126099Q10.480912572288513,8.333477326126099,11.999692572288513,8.333477326126099Q13.518512572288513,8.333477326126099,14.592412572288513,9.407427326126099Q15.666312572288513,10.481367326126097,15.666312572288513,12.000147326126099Q15.666312572288513,13.518907326126099,14.592412572288513,14.592907326126099Q13.518512572288513,15.666807326126099,11.999692572288513,15.666807326126099Q10.480912572288513,15.666807326126099,9.406972572288513,14.592907326126099Q8.333032572288513,13.518907326126099,8.333032572288513,12.000147326126099ZM9.833032572288513,12.000147326126099Q9.833032572288513,12.897617326126099,10.467632572288514,13.532207326126098Q11.102232572288512,14.166807326126099,11.999692572288513,14.166807326126099Q12.897162572288513,14.166807326126099,13.531712572288512,13.532207326126098Q14.166312572288513,12.897617326126099,14.166312572288513,12.000147326126099Q14.166312572288513,11.102687326126098,13.531712572288512,10.4680873261261Q12.897162572288513,9.833477326126099,11.999692572288513,9.833477326126099Q11.102232572288512,9.833477326126099,10.467632572288514,10.4680873261261Q9.833032572288513,11.102687326126098,9.833032572288513,12.000147326126099Z" fill-rule="evenodd" fill="#595959" fill-opacity="1"/></g></g></g></svg>