<svg xmlns="http://www.w3.org/2000/svg" xmlns:xlink="http://www.w3.org/1999/xlink" fill="none" version="1.1" width="20" height="20" viewBox="0 0 20 20"><defs><clipPath id="master_svg0_920_7591"><rect x="0" y="0" width="20" height="20" rx="0"/></clipPath></defs><g clip-path="url(#master_svg0_920_7591)"><g><path d="M2.58343505859375,2.5003251875L2.58343505859375,17.5002921875Q2.58343505859375,18.1561921875,3.04718505859375,18.6198921875Q3.51092905859375,19.0836921875,4.16676805859375,19.0836921875L15.83343505859375,19.0836921875Q16.48923505859375,19.0836921875,16.95303505859375,18.6198921875Q17.41673505859375,18.1561921875,17.41673505859375,17.5002921875L17.41673505859375,5.8336621875Q17.41673505859375,5.7597921875,17.40233505859375,5.6873421875Q17.38793505859375,5.614892187500001,17.35963505859375,5.5466421875Q17.331435058593748,5.4784021875,17.290335058593747,5.4169821875Q17.24933505859375,5.3555621875,17.19713505859375,5.303332187500001Q17.14483505859375,5.251092187499999,17.08343505859375,5.2100521875000005Q17.02203505859375,5.1690221874999995,16.95373505859375,5.1407521875Q16.88553505859375,5.1124821874999995,16.81313505859375,5.0980721875Q16.74063505859375,5.0836621875,16.66673505859375,5.0836621875L13.25010505859375,5.0836621875L13.25010505859375,1.6669921875Q13.25010505859375,1.5931236874999999,13.23569505859375,1.5206741875Q13.22127505859375,1.4482251875,13.19301505859375,1.3799791875Q13.16474505859375,1.3117341875,13.12370505859375,1.2503141875Q13.08266505859375,1.1888951875,13.03043505859375,1.1366621875Q12.97819505859375,1.0844291875,12.91677505859375,1.0433901875Q12.85535505859375,1.0023511875,12.78711505859375,0.9740821875Q12.71886505859375,0.9458141875,12.64641505859375,0.9314031875Q12.57396505859375,0.9169921875,12.50010505859375,0.9169921875L4.16676805859375,0.9169921875Q3.51093005859375,0.9169921875,3.04718205859375,1.3807401875Q2.58343505859375,1.8444871875,2.58343505859375,2.5003251875ZM4.16676805859375,17.5836921875Q4.08343505859375,17.5836921875,4.08343505859375,17.5002921875L4.08343505859375,2.5003251875Q4.08343505859375,2.4169921875,4.16676805859375,2.4169921875L11.75010505859375,2.4169921875L11.75010505859375,5.8336621875Q11.75010505859375,5.9075321875,11.76451505859375,5.9799721875Q11.77892505859375,6.0524221875,11.80719505859375,6.1206721875Q11.83546505859375,6.1889121875,11.87649505859375,6.2503321875Q11.91753505859375,6.3117521875,11.96977505859375,6.3639921875Q12.02200505859375,6.4162221875,12.08342505859375,6.4572621875Q12.14484505859375,6.4983021875,12.21308505859375,6.5265721875Q12.28133505859375,6.5548321875,12.35378505859375,6.5692521875Q12.42623505859375,6.5836621875,12.50010505859375,6.5836621875L15.91673505859375,6.5836621875L15.91673505859375,17.5002921875Q15.91673505859375,17.5348921875,15.89233505859375,17.5592921875Q15.86793505859375,17.5836921875,15.83343505859375,17.5836921875L4.16676805859375,17.5836921875Z" fill-rule="evenodd" fill="#595959" fill-opacity="1"/></g><g><path d="M13.030484,1.1368161875L17.197,5.303332187500001Q17.30249,5.4088221875,17.35958,5.5466421875Q17.41667,5.6844721875,17.41667,5.8336621875Q17.41667,5.9075321875,17.40226,5.9799721875Q17.38784,6.0524221875,17.35958,6.1206721875Q17.331310000000002,6.1889121875,17.29027,6.2503321875Q17.24923,6.3117521875,17.197,6.3639921875Q17.144759999999998,6.4162221875,17.08334,6.4572621875Q17.02192,6.4983021875,16.95368,6.5265721875Q16.88543,6.5548321875,16.81298,6.5692521875Q16.74054,6.5836621875,16.66667,6.5836621875Q16.51748,6.5836621875,16.379649999999998,6.5265721875Q16.24183,6.4694821875,16.13634,6.3639921875L11.969824,2.1974761875L11.96967,2.1973221875Q11.864181,2.0918331875,11.80709,1.9540051875Q11.75,1.8161761875,11.75,1.6669921875Q11.75,1.5931236874999999,11.764410999999999,1.5206741875Q11.778822,1.4482251875,11.80709,1.3799791875Q11.835359,1.3117341875,11.876398,1.2503141875Q11.917437,1.1888951875,11.96967,1.1366621875Q12.021903,1.0844291875,12.083322,1.0433901875Q12.144742,1.0023511875,12.212987,0.9740821875Q12.281233,0.9458141875,12.353682,0.9314031875Q12.4261315,0.9169921875,12.5,0.9169921875Q12.649184,0.9169921875,12.787013,0.9740821875Q12.924841,1.0311731874999999,13.03033,1.1366621875L13.030484,1.1368161875Z" fill-rule="evenodd" fill="#595959" fill-opacity="1"/></g><g transform="matrix(0,1,-1,0,20.833587646484375,-3.333587646484375)"><path d="M14.697247646484374,9.28033Q14.802737646484374,9.174841,14.859827646484375,9.037013Q14.916917646484375,8.899184,14.916917646484375,8.75Q14.916917646484375,8.6761315,14.902507646484375,8.603682Q14.888097646484376,8.531233,14.859827646484375,8.462987Q14.831557646484375,8.394742,14.790527646484374,8.333322Q14.749487646484376,8.271903,14.697247646484374,8.21967Q14.645017646484375,8.167437,14.583597646484375,8.126398Q14.522177646484375,8.085359,14.453937646484375,8.05709Q14.385687646484374,8.028822,14.313237646484374,8.014410999999999Q14.240787646484375,8,14.166917646484375,8Q14.017737646484376,8,13.879907646484375,8.05709Q13.742077646484375,8.114181,13.636587646484376,8.21967L13.636437646484374,8.219824L11.553257646484376,10.303Q11.501024646484375,10.35524,11.459985646484375,10.41666Q11.418946646484375,10.47808,11.390677646484376,10.54632Q11.362409646484375,10.61457,11.347998646484374,10.68702Q11.333587646484375,10.75946,11.333587646484375,10.83333Q11.333587646484375,10.9072,11.347998646484374,10.97965Q11.362409646484375,11.0521,11.390677646484376,11.12035Q11.418946646484375,11.18859,11.459985646484375,11.25001Q11.501024646484375,11.31143,11.553257646484376,11.36366L13.636587646484376,13.447Q13.742077646484375,13.552489999999999,13.879907646484375,13.609580000000001Q14.017737646484376,13.66667,14.166917646484375,13.66667Q14.240787646484375,13.66667,14.313237646484374,13.65226Q14.385687646484374,13.63784,14.453937646484375,13.609580000000001Q14.522177646484375,13.58131,14.583597646484375,13.54027Q14.645017646484375,13.49923,14.697247646484374,13.447Q14.749487646484376,13.39476,14.790527646484374,13.33334Q14.831557646484375,13.27192,14.859827646484375,13.20368Q14.888097646484376,13.13543,14.902507646484375,13.06298Q14.916917646484375,12.99054,14.916917646484375,12.91667Q14.916917646484375,12.767479999999999,14.859827646484375,12.62965Q14.802737646484374,12.49183,14.697247646484374,12.38634L13.144247646484375,10.83333L14.697247646484374,9.28033Z" fill-rule="evenodd" fill="#595959" fill-opacity="1"/></g><g><path d="M9.25,8.75Q9.25,8.6761315,9.264410999999999,8.603682Q9.278822,8.531233,9.30709,8.462987Q9.335359,8.394742,9.376398,8.333322Q9.417437,8.271903,9.46967,8.21967Q9.521903,8.167437,9.583322,8.126398Q9.644742,8.085359,9.712987,8.05709Q9.781233,8.028822,9.853682,8.014410999999999Q9.9261315,8,10,8Q10.0738685,8,10.146318,8.014410999999999Q10.218767,8.028822,10.287013,8.05709Q10.355258,8.085359,10.416678,8.126398Q10.478097,8.167437,10.53033,8.21967Q10.582563,8.271903,10.623602,8.333322Q10.664641,8.394742,10.69291,8.462987Q10.721178,8.531233,10.735589000000001,8.603682Q10.75,8.6761315,10.75,8.75L10.75,14.16667Q10.75,14.24054,10.735589000000001,14.31298Q10.721178,14.38543,10.69291,14.45368Q10.664641,14.52192,10.623602,14.58334Q10.582563,14.64476,10.53033,14.697Q10.478097,14.74923,10.416678,14.79027Q10.355258,14.83131,10.287013,14.859580000000001Q10.218767,14.88784,10.146318,14.90226Q10.0738685,14.91667,10,14.91667Q9.9261315,14.91667,9.853682,14.90226Q9.781233,14.88784,9.712987,14.859580000000001Q9.644742,14.83131,9.583322,14.79027Q9.521903,14.74923,9.46967,14.697Q9.417437,14.64476,9.376398,14.58334Q9.335359,14.52192,9.30709,14.45368Q9.278822,14.38543,9.264410999999999,14.31298Q9.25,14.24054,9.25,14.16667L9.25,8.75Z" fill-rule="evenodd" fill="#595959" fill-opacity="1"/></g></g></svg>