<svg xmlns="http://www.w3.org/2000/svg" xmlns:xlink="http://www.w3.org/1999/xlink" fill="none" version="1.1" width="20"
  height="20" viewBox="0 0 20 20">
  <defs>
    <clipPath id="master_svg0_920_7587">
      <rect x="0" y="0" width="20" height="20" rx="0" />
    </clipPath>
  </defs>
  <g clip-path="url(#master_svg0_920_7587)">
    <g>
      <path
        d="M1.333343505859375,3.333333L1.333343505859375,16.6667Q1.333343505859375,17.322499999999998,1.797093505859375,17.7863Q2.260837505859375,18.25,2.916676505859375,18.25L17.083343505859375,18.25Q17.739143505859374,18.25,18.202943505859373,17.7863Q18.666643505859376,17.322499999999998,18.666643505859376,16.6667L18.666643505859376,5.83333Q18.666643505859376,5.17748,18.202943505859373,4.71374Q17.739143505859374,4.25,17.083343505859375,4.25L10.351293505859376,4.25L8.492843505859376,2.019862Q8.385973505859376,1.891616,8.234793505859376,1.820808Q8.083613505859375,1.75,7.916673505859375,1.75L2.916676505859375,1.75Q2.260838505859375,1.75,1.797091505859375,2.213748Q1.333343505859375,2.677495,1.333343505859375,3.333333ZM2.857748505859375,16.7256Q2.833343505859375,16.7012,2.833343505859375,16.6667L2.833343505859375,3.333333Q2.833343505859375,3.25,2.916676505859375,3.25L7.565393505859375,3.25L9.423843505859374,5.4801400000000005Q9.530713505859374,5.60838,9.681893505859374,5.67919Q9.833073505859375,5.75,10.000013505859375,5.75L17.083343505859375,5.75Q17.166643505859376,5.75,17.166643505859376,5.83333L17.166643505859376,16.6667Q17.166643505859376,16.75,17.083343505859375,16.75L2.916676505859375,16.75Q2.882154505859375,16.75,2.857748505859375,16.7256Z"
        fill-rule="evenodd" fill="#595959" fill-opacity="1" />
    </g>
    <g>
      <path
        d="M6.969824,10.30301609375L6.96967,10.30316609375Q6.864181,10.40865609375,6.80709,10.54648609375Q6.75,10.68431609375,6.75,10.83349609375Q6.75,10.90736609375,6.764411,10.97981609375Q6.778822,11.05226609375,6.80709,11.12050609375Q6.835359,11.18875609375,6.876398,11.25017609375Q6.917437,11.31159609375,6.96967,11.36382609375Q7.021903,11.41605609375,7.083322,11.45709609375Q7.144742,11.49813609375,7.212987,11.52640609375Q7.281233,11.55467609375,7.353682,11.56908609375Q7.4261315,11.58349609375,7.5,11.58349609375Q7.649184,11.58349609375,7.787013,11.52640609375Q7.924841,11.469316093749999,8.03033,11.36382609375L10.000589999999999,9.39356609375L11.97002,11.35863609375L11.97026,11.35887609375Q12.07571,11.46409609375,12.213370000000001,11.52102609375Q12.35103,11.57795609375,12.5,11.57795609375Q12.57387,11.57795609375,12.64632,11.56354609375Q12.71877,11.54913609375,12.78701,11.52086609375Q12.855260000000001,11.49259609375,12.91668,11.45155609375Q12.978100000000001,11.410516093750001,13.03033,11.35828609375Q13.08256,11.30604609375,13.1236,11.24463609375Q13.16464,11.18321609375,13.192910000000001,11.11496609375Q13.22118,11.04671609375,13.23559,10.97427609375Q13.25,10.90182609375,13.25,10.82795609375Q13.25,10.67855609375,13.19275,10.54055609375Q13.1355,10.40256609375,13.02974,10.29703609375L13.029499999999999,10.29679609375L10.52974,7.80257809375Q10.47749,7.75044009375,10.41607,7.70949009375Q10.354659999999999,7.66853909375,10.286439999999999,7.64034809375Q10.21822,7.61215609375,10.14581,7.59780609375Q10.0734,7.5834550937500005,9.99958,7.58349609375Q9.92577,7.5835370937499995,9.85338,7.59796809375Q9.78098,7.61239909375,9.7128,7.64066609375Q9.64461,7.66893309375,9.58324,7.70995209375Q9.52187,7.75097009375,9.46967,7.80316609375L6.969824,10.30301609375Z"
        fill-rule="evenodd" fill="#595959" fill-opacity="1" />
    </g>
    <g>
      <path
        d="M9.25,8.33349609375Q9.25,8.25962759375,9.264410999999999,8.18717809375Q9.278822,8.11472909375,9.30709,8.04648309375Q9.335359,7.97823809375,9.376398,7.91681809375Q9.417437,7.85539909375,9.46967,7.80316609375Q9.521903,7.75093309375,9.583322,7.70989409375Q9.644742,7.66885509375,9.712987,7.64058609375Q9.781233,7.61231809375,9.853682,7.59790709375Q9.9261315,7.58349609375,10,7.58349609375Q10.0738685,7.58349609375,10.146318,7.59790709375Q10.218767,7.61231809375,10.287013,7.64058609375Q10.355258,7.66885509375,10.416678,7.70989409375Q10.478097,7.75093309375,10.53033,7.80316609375Q10.582563,7.85539909375,10.623602,7.91681809375Q10.664641,7.97823809375,10.69291,8.04648309375Q10.721178,8.11472909375,10.735589000000001,8.18717809375Q10.75,8.25962759375,10.75,8.33349609375L10.75,14.16682609375Q10.75,14.24069609375,10.735589000000001,14.31314609375Q10.721178,14.38559609375,10.69291,14.45384609375Q10.664641,14.52208609375,10.623602,14.58350609375Q10.582563,14.64492609375,10.53033,14.69715609375Q10.478097,14.74939609375,10.416678,14.79043609375Q10.355258,14.831466093749999,10.287013,14.85973609375Q10.218767,14.88800609375,10.146318,14.90241609375Q10.0738685,14.91682609375,10,14.91682609375Q9.9261315,14.91682609375,9.853682,14.90241609375Q9.781233,14.88800609375,9.712987,14.85973609375Q9.644742,14.831466093749999,9.583322,14.79043609375Q9.521903,14.74939609375,9.46967,14.69715609375Q9.417437,14.64492609375,9.376398,14.58350609375Q9.335359,14.52208609375,9.30709,14.45384609375Q9.278822,14.38559609375,9.264410999999999,14.31314609375Q9.25,14.24069609375,9.25,14.16682609375L9.25,8.33349609375Z"
        fill-rule="evenodd" fill="#595959" fill-opacity="1" />
    </g>
  </g>
</svg>