<svg xmlns="http://www.w3.org/2000/svg" xmlns:xlink="http://www.w3.org/1999/xlink" fill="none" version="1.1" width="16" height="16" viewBox="0 0 16 16"><defs><clipPath id="master_svg0_134_4331"><rect x="0" y="0" width="16" height="16" rx="0"/></clipPath></defs><g clip-path="url(#master_svg0_134_4331)"><g><rect x="1.66668701171875" y="1.66668701171875" width="12.666666984558105" height="12.666666984558105" rx="1.3333333730697632" fill-opacity="0" stroke-opacity="1" stroke="#007AEB" fill="none" stroke-width="1.5" stroke-linecap="ROUND"/></g><g><path d="M7.25,1.66668701171875L7.25,14.33338701171875Q7.25,14.40718701171875,7.264411,14.47968701171875Q7.278822,14.55208701171875,7.30709,14.62038701171875Q7.335359,14.68858701171875,7.376398,14.74998701171875Q7.417437,14.81148701171875,7.46967,14.86368701171875Q7.521903,14.91588701171875,7.583322,14.95698701171875Q7.644742,14.99798701171875,7.712987,15.02628701171875Q7.781233,15.05448701171875,7.853682,15.06898701171875Q7.9261315,15.08338701171875,8,15.08338701171875Q8.0738685,15.08338701171875,8.146318,15.06898701171875Q8.218767,15.05448701171875,8.287013,15.02628701171875Q8.355258,14.99798701171875,8.416678,14.95698701171875Q8.478097,14.91588701171875,8.53033,14.86368701171875Q8.582563,14.81148701171875,8.623602,14.74998701171875Q8.664641,14.68858701171875,8.69291,14.62038701171875Q8.721178,14.55208701171875,8.735589000000001,14.47968701171875Q8.75,14.40718701171875,8.75,14.33338701171875L8.75,1.66668701171875Q8.75,1.5928185117187499,8.735589000000001,1.52036901171875Q8.721178,1.44792001171875,8.69291,1.37967401171875Q8.664641,1.31142901171875,8.623602,1.25000901171875Q8.582563,1.18859001171875,8.53033,1.13635701171875Q8.478097,1.08412401171875,8.416678,1.04308501171875Q8.355258,1.00204601171875,8.287013,0.97377701171875Q8.218767,0.94550901171875,8.146318,0.93109801171875Q8.0738685,0.91668701171875,8,0.91668701171875Q7.9261315,0.91668701171875,7.853682,0.93109801171875Q7.781233,0.94550901171875,7.712987,0.97377701171875Q7.644742,1.00204601171875,7.583322,1.04308501171875Q7.521903,1.08412401171875,7.46967,1.13635701171875Q7.417437,1.18859001171875,7.376398,1.25000901171875Q7.335359,1.31142901171875,7.30709,1.37967401171875Q7.278822,1.44792001171875,7.264411,1.52036901171875Q7.25,1.5928185117187499,7.25,1.66668701171875Z" fill-rule="evenodd" fill="#007AEB" fill-opacity="1"/></g><g><path d="M1.66668701171875,8.75L14.33338701171875,8.75Q14.40718701171875,8.75,14.47968701171875,8.735589000000001Q14.55208701171875,8.721178,14.62038701171875,8.69291Q14.68858701171875,8.664641,14.74998701171875,8.623602Q14.81148701171875,8.582563,14.86368701171875,8.53033Q14.91588701171875,8.478097,14.95698701171875,8.416678Q14.99798701171875,8.355258,15.02628701171875,8.287013Q15.05448701171875,8.218767,15.06898701171875,8.146318Q15.08338701171875,8.0738685,15.08338701171875,8Q15.08338701171875,7.9261315,15.06898701171875,7.853682Q15.05448701171875,7.781233,15.02628701171875,7.712987Q14.99798701171875,7.644742,14.95698701171875,7.583322Q14.91588701171875,7.521903,14.86368701171875,7.46967Q14.81148701171875,7.417437,14.74998701171875,7.376398Q14.68858701171875,7.335359,14.62038701171875,7.30709Q14.55208701171875,7.278822,14.47968701171875,7.264411Q14.40718701171875,7.25,14.33338701171875,7.25L1.66668701171875,7.25Q1.5928185117187499,7.25,1.52036901171875,7.264411Q1.44792001171875,7.278822,1.37967401171875,7.30709Q1.31142901171875,7.335359,1.25000901171875,7.376398Q1.18859001171875,7.417437,1.13635701171875,7.46967Q1.08412401171875,7.521903,1.04308501171875,7.583322Q1.00204601171875,7.644742,0.97377701171875,7.712987Q0.94550901171875,7.781233,0.93109801171875,7.853682Q0.91668701171875,7.9261315,0.91668701171875,8Q0.91668701171875,8.0738685,0.93109801171875,8.146318Q0.94550901171875,8.218767,0.97377701171875,8.287013Q1.00204601171875,8.355258,1.04308501171875,8.416678Q1.08412401171875,8.478097,1.13635701171875,8.53033Q1.18859001171875,8.582563,1.25000901171875,8.623602Q1.31142901171875,8.664641,1.37967401171875,8.69291Q1.44792001171875,8.721178,1.52036901171875,8.735589000000001Q1.5928185117187499,8.75,1.66668701171875,8.75Z" fill-rule="evenodd" fill="#007AEB" fill-opacity="1"/></g></g></svg>