<svg xmlns="http://www.w3.org/2000/svg" xmlns:xlink="http://www.w3.org/1999/xlink" fill="none" version="1.1" width="16" height="16" viewBox="0 0 16 16"><g><g><path d="M5.8195492304229735,2.1530875391540527Q4.916459230422974,3.056171539154053,4.916459230422974,4.333331539154052Q4.916459230422974,5.610491539154053,5.8195492304229735,6.513581539154052Q6.722639230422974,7.4166615391540525,7.9997992304229735,7.4166615391540525Q9.276959230422973,7.4166615391540525,10.180039230422974,6.513581539154052Q11.083129230422974,5.610491539154053,11.083129230422974,4.333331539154052Q11.083129230422974,3.056171539154053,10.180039230422974,2.1530875391540527Q9.276959230422973,1.2499994039540527,7.9997992304229735,1.2499995231540528Q6.722639230422974,1.2499995231540528,5.8195492304229735,2.1530875391540527ZM6.880209230422974,5.452921539154053Q6.416459230422974,4.989171539154053,6.416459230422974,4.333331539154052Q6.416459230422974,3.677491539154053,6.880209230422974,3.2137515391540528Q7.343959230422974,2.7500015391540527,7.9997992304229735,2.7500015391540527Q8.655639230422974,2.7500015391540527,9.119379230422973,3.2137515391540528Q9.583129230422974,3.677491539154053,9.583129230422974,4.333331539154052Q9.583129230422974,4.989171539154053,9.119379230422973,5.452921539154053Q8.655639230422974,5.9166615391540525,7.9997992304229735,5.9166615391540525Q7.343959230422974,5.9166615391540525,6.880209230422974,5.452921539154053ZM3.115519230422974,8.955621539154052Q2.1263552304229734,9.459621539154053,1.6223542304229737,10.448791539154053L1.6223532304229735,10.448791539154053Q1.3553312304229737,10.972851539154053,1.2887813304229736,11.787381539154053Q1.2499592304229736,12.262581539154052,1.2499592304229736,13.599881539154053Q1.2499592304229736,14.076281539154053,1.5867862304229736,14.413081539154053Q1.9236132304229736,14.749881539154053,2.3999592304229735,14.749881539154053L13.599959230422973,14.749881539154053Q14.076259230422973,14.749881539154053,14.413159230422973,14.413081539154053Q14.749959230422974,14.076281539154053,14.749959230422974,13.599881539154053Q14.749959230422974,12.262581539154052,14.711159230422973,11.787381539154053Q14.644559230422974,10.972861539154053,14.377559230422973,10.448811539154052Q13.873559230422973,9.459631539154053,12.884459230422973,8.955631539154052Q12.360359230422974,8.688621539154052,11.545859230422973,8.622071539154053Q11.070659230422974,8.583251539154052,9.733289230422974,8.583251539154052L6.266629230422974,8.583251539154052Q4.929259230422973,8.583251539154052,4.454099230422974,8.622071539154053Q3.6395692304229734,8.688621539154052,3.115519230422974,8.955621539154052ZM2.7515792304229736,13.249881539154053Q2.7683492304229738,11.503681539154053,2.9588592304229735,11.129781539154052L2.9588692304229736,11.129771539154053Q3.241599230422974,10.574871539154053,3.7964692304229737,10.292151539154053Q4.206479230422973,10.083251539154054,6.266629230422974,10.083251539154054L9.733289230422974,10.083251539154054Q11.793459230422974,10.083251539154054,12.203459230422974,10.292141539154052Q12.758359230422974,10.574881539154052,13.041059230422974,11.129761539154053Q13.231559230422974,11.503681539154053,13.248359230422974,13.249881539154053L2.7515792304229736,13.249881539154053Z" fill-rule="evenodd" fill="#595959" fill-opacity="1"/></g></g></svg>