<svg xmlns="http://www.w3.org/2000/svg" xmlns:xlink="http://www.w3.org/1999/xlink" fill="none" version="1.1" width="24" height="24" viewBox="0 0 24 24"><defs><clipPath id="master_svg0_234_5229"><rect x="0" y="0" width="24" height="24" rx="0"/></clipPath></defs><g clip-path="url(#master_svg0_234_5229)"><g><path d="M3.75,6.75L20.25,6.75Q20.3239,6.75,20.3963,6.735589Q20.4688,6.721178,20.537,6.69291Q20.6053,6.664641,20.6667,6.623602Q20.7281,6.582563,20.7803,6.53033Q20.8326,6.478097,20.8736,6.416678Q20.9146,6.355258,20.9429,6.287013Q20.9712,6.218767,20.9856,6.146318Q21,6.0738685,21,6Q21,5.9261315,20.9856,5.853682Q20.9712,5.781233,20.9429,5.712987Q20.9146,5.644742,20.8736,5.583322Q20.8326,5.521903,20.7803,5.46967Q20.7281,5.417437,20.6667,5.376398Q20.6053,5.335359,20.537,5.30709Q20.4688,5.278822,20.3963,5.264411Q20.3239,5.25,20.25,5.25L3.75,5.25Q3.6761315,5.25,3.603682,5.264411Q3.531233,5.278822,3.462987,5.30709Q3.394742,5.335359,3.333322,5.376398Q3.271903,5.417437,3.21967,5.46967Q3.167437,5.521903,3.126398,5.583322Q3.085359,5.644742,3.05709,5.712987Q3.028822,5.781233,3.014411,5.853682Q3,5.9261315,3,6Q3,6.0738685,3.014411,6.146318Q3.028822,6.218767,3.05709,6.287013Q3.085359,6.355258,3.126398,6.416678Q3.167437,6.478097,3.21967,6.53033Q3.271903,6.582563,3.333322,6.623602Q3.394742,6.664641,3.462987,6.69291Q3.531233,6.721178,3.603682,6.735589Q3.6761315,6.75,3.75,6.75Z" fill-rule="evenodd" fill="#000000" fill-opacity="1"/></g><g><path d="M3.75,12.75L20.25,12.75Q20.3239,12.75,20.3963,12.735589000000001Q20.4688,12.721178,20.537,12.69291Q20.6053,12.664641,20.6667,12.623602Q20.7281,12.582563,20.7803,12.53033Q20.8326,12.478097,20.8736,12.416678Q20.9146,12.355258,20.9429,12.287013Q20.9712,12.218767,20.9856,12.146318Q21,12.0738685,21,12Q21,11.9261315,20.9856,11.853682Q20.9712,11.781233,20.9429,11.712987Q20.9146,11.644742,20.8736,11.583322Q20.8326,11.521903,20.7803,11.46967Q20.7281,11.417437,20.6667,11.376398Q20.6053,11.335359,20.537,11.30709Q20.4688,11.278822,20.3963,11.264410999999999Q20.3239,11.25,20.25,11.25L3.75,11.25Q3.6761315,11.25,3.603682,11.264410999999999Q3.531233,11.278822,3.462987,11.30709Q3.394742,11.335359,3.333322,11.376398Q3.271903,11.417437,3.21967,11.46967Q3.167437,11.521903,3.126398,11.583322Q3.085359,11.644742,3.05709,11.712987Q3.028822,11.781233,3.014411,11.853682Q3,11.9261315,3,12Q3,12.0738685,3.014411,12.146318Q3.028822,12.218767,3.05709,12.287013Q3.085359,12.355258,3.126398,12.416678Q3.167437,12.478097,3.21967,12.53033Q3.271903,12.582563,3.333322,12.623602Q3.394742,12.664641,3.462987,12.69291Q3.531233,12.721178,3.603682,12.735589000000001Q3.6761315,12.75,3.75,12.75Z" fill-rule="evenodd" fill="#000000" fill-opacity="1"/></g><g><path d="M3.75,18.75L20.25,18.75Q20.3239,18.75,20.3963,18.735589Q20.4688,18.721178,20.537,18.69291Q20.6053,18.664641,20.6667,18.623601999999998Q20.7281,18.582563,20.7803,18.53033Q20.8326,18.478096999999998,20.8736,18.416678Q20.9146,18.355258,20.9429,18.287013Q20.9712,18.218767,20.9856,18.146318Q21,18.0738685,21,18Q21,17.9261315,20.9856,17.853682Q20.9712,17.781233,20.9429,17.712987Q20.9146,17.644742,20.8736,17.583322Q20.8326,17.521903000000002,20.7803,17.46967Q20.7281,17.417437,20.6667,17.376398000000002Q20.6053,17.335359,20.537,17.30709Q20.4688,17.278822,20.3963,17.264411Q20.3239,17.25,20.25,17.25L3.75,17.25Q3.6761315,17.25,3.603682,17.264411Q3.531233,17.278822,3.462987,17.30709Q3.394742,17.335359,3.333322,17.376398000000002Q3.271903,17.417437,3.21967,17.46967Q3.167437,17.521903000000002,3.126398,17.583322Q3.085359,17.644742,3.05709,17.712987Q3.028822,17.781233,3.014411,17.853682Q3,17.9261315,3,18Q3,18.0738685,3.014411,18.146318Q3.028822,18.218767,3.05709,18.287013Q3.085359,18.355258,3.126398,18.416678Q3.167437,18.478096999999998,3.21967,18.53033Q3.271903,18.582563,3.333322,18.623601999999998Q3.394742,18.664641,3.462987,18.69291Q3.531233,18.721178,3.603682,18.735589Q3.6761315,18.75,3.75,18.75Z" fill-rule="evenodd" fill="#000000" fill-opacity="1"/></g></g></svg>