<svg xmlns="http://www.w3.org/2000/svg" xmlns:xlink="http://www.w3.org/1999/xlink" fill="none" version="1.1" width="16" height="16" viewBox="0 0 16 16"><defs><clipPath id="master_svg0_920_7522"><rect x="0" y="0" width="16" height="16" rx="0"/></clipPath></defs><g clip-path="url(#master_svg0_920_7522)"><g><path d="M3.33317090625,15.41679609375L7.33317390625,15.41679609375Q7.40704390625,15.41679609375,7.47948390625,15.40239609375Q7.55193390625,15.38799609375,7.62018390625,15.35969609375Q7.68842390625,15.33149609375,7.74984390625,15.29039609375Q7.81126390625,15.24939609375,7.86350390625,15.19719609375Q7.91573390625,15.14489609375,7.95677390625,15.08349609375Q7.99781390625,15.02209609375,8.026083906250001,14.95379609375Q8.05434390625,14.88559609375,8.06876390625,14.81319609375Q8.08317390625,14.74069609375,8.08317390625,14.66679609375Q8.08317390625,14.59299609375,8.06876390625,14.52049609375Q8.05434390625,14.44809609375,8.026083906250001,14.37979609375Q7.99781390625,14.31159609375,7.95677390625,14.25019609375Q7.91573390625,14.18869609375,7.86350390625,14.13649609375Q7.81126390625,14.08429609375,7.74984390625,14.04319609375Q7.68842390625,14.00219609375,7.62018390625,13.97389609375Q7.55193390625,13.94569609375,7.47948390625,13.93119609375Q7.40704390625,13.91679609375,7.33317390625,13.91679609375L3.41650390625,13.91679609375L3.41650390625,2.08349609375L9.99914390625,2.08349609375L12.58317390625,4.9546360937500005L12.58317390625,7.66682609375Q12.58317390625,7.74069609375,12.59758390625,7.81314609375Q12.61199390625,7.88559609375,12.64026390625,7.95384609375Q12.66850390625,8.02208609375,12.70960390625,8.08350609375Q12.75060390625,8.14492609375,12.80280390625,8.19715609375Q12.85510390625,8.24939609375,12.91650390625,8.29043609375Q12.97790390625,8.331466093749999,13.04620390625,8.35973609375Q13.11440390625,8.38800609375,13.18680390625,8.40241609375Q13.25930390625,8.41682609375,13.33320390625,8.41682609375Q13.40700390625,8.41682609375,13.47950390625,8.40241609375Q13.55190390625,8.38800609375,13.62020390625,8.35973609375Q13.68840390625,8.331466093749999,13.74980390625,8.29042609375Q13.81130390625,8.24939609375,13.86350390625,8.19715609375Q13.91570390625,8.14492609375,13.95680390625,8.08350609375Q13.99780390625,8.02208609375,14.02610390625,7.95384609375Q14.05430390625,7.88559609375,14.06880390625,7.81314609375Q14.08320390625,7.74069609375,14.08320390625,7.66682609375L14.08320390625,4.66682609375Q14.08320390625,4.52786609375,14.03340390625,4.39813609375Q13.98360390625,4.26839609375,13.89060390625,4.1651060937499995L10.89064390625,0.83177209375Q10.78396390625,0.71324609375,10.63830390625,0.64837109375Q10.49263390625,0.58349609375,10.33317390625,0.58349609375L3.33317090625,0.58349609375Q2.74636780625,0.58349609375,2.33143590625,0.9984280937500001Q1.91650390625,1.41336009375,1.91650390625,2.00016309375L1.91650390625,14.00019609375Q1.91650390625,14.58699609375,2.33143790625,15.00189609375Q2.7463684062500002,15.41679609375,3.33317090625,15.41679609375Z" fill-rule="evenodd" fill="#646464" fill-opacity="1"/></g><g><path d="M10.19698790625,9.469824L14.19683390625,13.46967Q14.302323906249999,13.57516,14.359413906250001,13.71299Q14.41650390625,13.85082,14.41650390625,14Q14.41650390625,14.07387,14.40209390625,14.14632Q14.38768390625,14.21877,14.359413906250001,14.28701Q14.33114390625,14.355260000000001,14.29010390625,14.41668Q14.24906390625,14.478100000000001,14.19683390625,14.53033Q14.144603906250001,14.58256,14.08318390625,14.6236Q14.021763906250001,14.66464,13.95351390625,14.692910000000001Q13.88527390625,14.72118,13.81282390625,14.73559Q13.74037390625,14.75,13.66650390625,14.75Q13.51732390625,14.75,13.37949390625,14.692910000000001Q13.24166390625,14.635819999999999,13.13617390625,14.53033L9.13632790625,10.530484L9.13617390625,10.53033Q9.03068490625,10.424841,8.97359390625,10.287013Q8.91650390625,10.149184,8.91650390625,10Q8.91650390625,9.9261315,8.930914906249999,9.853682Q8.94532590625,9.781233,8.97359390625,9.712987Q9.00186290625,9.644742,9.04290190625,9.583322Q9.08394090625,9.521903,9.13617390625,9.46967Q9.18840690625,9.417437,9.24982590625,9.376398Q9.31124590625,9.335359,9.37949090625,9.30709Q9.44773690625,9.278822,9.52018590625,9.264410999999999Q9.59263540625,9.25,9.66650390625,9.25Q9.81568790625,9.25,9.95351690625,9.30709Q10.09134490625,9.364181,10.19683390625,9.46967L10.19698790625,9.469824Z" fill-rule="evenodd" fill="#595959" fill-opacity="1"/></g><g><path d="M14.19683390625,10.53033Q14.302323906249999,10.424841,14.359413906250001,10.287013Q14.41650390625,10.149184,14.41650390625,10Q14.41650390625,9.9261315,14.40209390625,9.853682Q14.38768390625,9.781233,14.359413906250001,9.712987Q14.33114390625,9.644742,14.29010390625,9.583322Q14.24906390625,9.521903,14.19683390625,9.46967Q14.144603906250001,9.417437,14.08318390625,9.376398Q14.021763906250001,9.335359,13.95351390625,9.30709Q13.88527390625,9.278822,13.81282390625,9.264410999999999Q13.74037390625,9.25,13.66650390625,9.25Q13.51732390625,9.25,13.37949390625,9.30709Q13.24166390625,9.364181,13.13617390625,9.46967L9.13617390625,13.46967Q9.03068490625,13.57516,8.97359390625,13.71299Q8.91650390625,13.85082,8.91650390625,14Q8.91650390625,14.07387,8.930914906249999,14.14632Q8.94532590625,14.21877,8.97359390625,14.28701Q9.00186290625,14.355260000000001,9.04290190625,14.41668Q9.08394090625,14.478100000000001,9.13617390625,14.53033Q9.18840690625,14.58256,9.24982590625,14.6236Q9.31124590625,14.66464,9.37949090625,14.692910000000001Q9.44773690625,14.72118,9.52018590625,14.73559Q9.59263540625,14.75,9.66650390625,14.75Q9.81568790625,14.75,9.95351690625,14.692910000000001Q10.09134490625,14.635819999999999,10.19683390625,14.53033L14.19683390625,10.53033L14.19683390625,10.53033Z" fill-rule="evenodd" fill="#595959" fill-opacity="1"/></g><g><path d="M9.25,1.33349609375Q9.25,1.2596275937499999,9.264410999999999,1.18717809375Q9.278822,1.11472909375,9.30709,1.04648309375Q9.335359,0.9782380937499999,9.376398,0.91681809375Q9.417437,0.85539909375,9.46967,0.80316609375Q9.521903,0.75093309375,9.583322,0.70989409375Q9.644742,0.66885509375,9.712987,0.64058609375Q9.781233,0.61231809375,9.853682,0.59790709375Q9.9261315,0.58349609375,10,0.58349609375Q10.0738685,0.58349609375,10.146318,0.59790709375Q10.218767,0.61231809375,10.287013,0.64058609375Q10.355258,0.66885509375,10.416678,0.70989409375Q10.478097,0.75093309375,10.53033,0.80316609375Q10.582563,0.85539909375,10.623602,0.91681809375Q10.664641,0.9782380937499999,10.69291,1.04648309375Q10.721178,1.11472909375,10.735589000000001,1.18717809375Q10.75,1.2596275937499999,10.75,1.33349609375L10.75,3.91682609375L13.33333,3.91682609375Q13.4072,3.91682609375,13.47965,3.93123609375Q13.5521,3.94565609375,13.62035,3.97391609375Q13.68859,4.00218609375,13.75001,4.04322609375Q13.81143,4.08426609375,13.86366,4.13649609375Q13.9159,4.18873609375,13.95693,4.25015609375Q13.99797,4.311566093750001,14.02624,4.37981609375Q14.05451,4.4480660937500005,14.06892,4.52051609375Q14.08333,4.59295609375,14.08333,4.66682609375Q14.08333,4.74069609375,14.06892,4.8131460937499995Q14.05451,4.885596093749999,14.02624,4.95384609375Q13.99797,5.02208609375,13.95694,5.08350609375Q13.9159,5.14492609375,13.86366,5.197156093749999Q13.81143,5.249396093750001,13.75001,5.29042609375Q13.68859,5.3314660937500005,13.62035,5.35973609375Q13.5521,5.38800609375,13.47965,5.40241609375Q13.4072,5.41682609375,13.33333,5.41682609375L10,5.41682609375Q9.9261315,5.41682609375,9.853682,5.40241609375Q9.781233,5.38800609375,9.712987,5.35973609375Q9.644742,5.3314660937500005,9.583322,5.2904360937499995Q9.521903,5.249396093750001,9.46967,5.197156093749999Q9.417437,5.14492609375,9.376398,5.08350609375Q9.335359,5.02208609375,9.30709,4.95384609375Q9.278822,4.885596093749999,9.264410999999999,4.8131460937499995Q9.25,4.74069609375,9.25,4.66682609375L9.25,1.33349609375Z" fill-rule="evenodd" fill="#595959" fill-opacity="1"/></g></g></svg>