<svg xmlns="http://www.w3.org/2000/svg" xmlns:xlink="http://www.w3.org/1999/xlink" fill="none" version="1.1" width="16" height="16" viewBox="0 0 16 16"><g><g><path d="M3.22703,3.22703Q1.25,5.20406,1.25,8Q1.25,10.79594,3.22703,12.773Q5.20406,14.75,8,14.75Q10.79594,14.75,12.773,12.773Q14.75,10.79594,14.75,8Q14.75,5.20406,12.773,3.22703Q10.79594,1.25,8,1.25Q5.20406,1.25,3.22703,3.22703ZM4.28769,11.71231Q2.75,10.17462,2.75,8Q2.75,5.82538,4.28769,4.28769Q5.82538,2.75,8,2.75Q10.17463,2.75,11.71231,4.28769Q13.25,5.82538,13.25,8Q13.25,10.17462,11.71231,11.71231Q10.17462,13.25,8,13.25Q5.82538,13.25,4.28769,11.71231Z" fill-rule="evenodd" fill="#595959" fill-opacity="1"/></g><g><path d="M5.7499755859375,6.199951171875Q5.7499755859375,6.126082671875,5.7643865859375,6.053633171875Q5.7787975859375,5.981184171875,5.8070655859375,5.912938171875Q5.8353345859375,5.844693171875,5.8763735859375,5.783273171875Q5.9174125859375,5.721854171875,5.9696455859375,5.669621171875Q6.0218785859375,5.617388171875,6.0832975859375,5.576349171875Q6.1447175859375,5.535310171875,6.2129625859375,5.507041171875Q6.2812086859375,5.478773171875,6.3536578259375,5.464362171875Q6.4261069859375,5.449951171875,6.4999755859375,5.449951171875Q6.5738445859375,5.449951171875,6.6462935859375,5.464362171875Q6.7187425859375,5.478773171875,6.7869875859375,5.507041171875Q6.8552335859374995,5.535310171875,6.9166535859375,5.576349171875Q6.9780725859375,5.617388171875,7.0303055859375,5.669621171875Q7.0825385859375,5.721854171875,7.1235775859375,5.783273171875Q7.1646165859375,5.844693171875,7.1928845859375,5.912938171875Q7.2211535859375005,5.981184171875,7.2355645859374995,6.053633171875Q7.2499755859375,6.126082671875,7.2499755859375,6.199951171875L7.2499755859375,9.799951171875Q7.2499755859375,9.873821171875,7.2355645859374995,9.946271171875Q7.2211535859375005,10.018721171875,7.1928855859375,10.086961171875Q7.1646165859375,10.155211171874999,7.1235775859375,10.216631171875001Q7.0825385859375,10.278051171875,7.0303055859375,10.330281171875Q6.9780725859375,10.382511171874999,6.9166535859375,10.423551171875001Q6.8552335859374995,10.464591171875,6.7869875859375,10.492861171875Q6.7187425859375,10.521131171875,6.6462935859375,10.535541171875Q6.5738445859375,10.549951171875,6.4999755859375,10.549951171875Q6.4261069859375,10.549951171875,6.3536578259375,10.535541171875Q6.2812086859375,10.521131171875,6.2129625859375,10.492861171875Q6.1447175859375,10.464591171875,6.0832975859375,10.423551171875001Q6.0218785859375,10.382511171874999,5.9696455859375,10.330281171875Q5.9174125859375,10.278051171875,5.8763735859375,10.216631171875001Q5.8353345859375,10.155211171874999,5.8070655859375,10.086961171875Q5.7787975859375,10.018721171875,5.7643865859375,9.946271171875Q5.7499755859375,9.873821171875,5.7499755859375,9.799951171875L5.7499755859375,6.199951171875Z" fill-rule="evenodd" fill="#595959" fill-opacity="1"/></g><g><path d="M8.7499755859375,6.199951171875Q8.7499755859375,6.126082671875,8.7643865859375,6.053633171875Q8.7787975859375,5.981184171875,8.8070655859375,5.912938171875Q8.8353345859375,5.844693171875,8.8763735859375,5.783273171875Q8.9174125859375,5.721854171875,8.9696455859375,5.669621171875Q9.0218785859375,5.617388171875,9.0832975859375,5.576349171875Q9.1447175859375,5.535310171875,9.2129625859375,5.507041171875Q9.2812086859375,5.478773171875,9.3536578259375,5.464362171875Q9.4261069859375,5.449951171875,9.4999755859375,5.449951171875Q9.5738445859375,5.449951171875,9.6462935859375,5.464362171875Q9.7187425859375,5.478773171875,9.7869875859375,5.507041171875Q9.8552335859375,5.535310171875,9.9166535859375,5.576349171875Q9.9780725859375,5.617388171875,10.0303055859375,5.669621171875Q10.0825385859375,5.721854171875,10.1235775859375,5.783273171875Q10.1646165859375,5.844693171875,10.1928845859375,5.912938171875Q10.2211535859375,5.981184171875,10.2355645859375,6.053633171875Q10.2499755859375,6.126082671875,10.2499755859375,6.199951171875L10.2499755859375,9.799951171875Q10.2499755859375,9.873821171875,10.2355645859375,9.946271171875Q10.2211535859375,10.018721171875,10.1928855859375,10.086961171875Q10.1646165859375,10.155211171874999,10.1235775859375,10.216631171875001Q10.0825385859375,10.278051171875,10.0303055859375,10.330281171875Q9.9780725859375,10.382511171874999,9.9166535859375,10.423551171875001Q9.8552335859375,10.464591171875,9.7869875859375,10.492861171875Q9.7187425859375,10.521131171875,9.6462935859375,10.535541171875Q9.5738445859375,10.549951171875,9.4999755859375,10.549951171875Q9.4261069859375,10.549951171875,9.3536578259375,10.535541171875Q9.2812086859375,10.521131171875,9.2129625859375,10.492861171875Q9.1447175859375,10.464591171875,9.0832975859375,10.423551171875001Q9.0218785859375,10.382511171874999,8.9696455859375,10.330281171875Q8.9174125859375,10.278051171875,8.8763735859375,10.216631171875001Q8.8353345859375,10.155211171874999,8.8070655859375,10.086961171875Q8.7787975859375,10.018721171875,8.7643865859375,9.946271171875Q8.7499755859375,9.873821171875,8.7499755859375,9.799951171875L8.7499755859375,6.199951171875Z" fill-rule="evenodd" fill="#595959" fill-opacity="1"/></g></g></svg>