<svg xmlns="http://www.w3.org/2000/svg" xmlns:xlink="http://www.w3.org/1999/xlink" fill="none" version="1.1" width="16" height="16" viewBox="0 0 16 16"><g><g><path d="M6.463322628860474,4.530291539154053L6.4630926288604735,4.530521539154053L3.7436626288604735,7.249961539154053L13.933042628860473,7.249961539154053Q14.006842628860474,7.249961539154053,14.079342628860473,7.264371539154053Q14.151742628860474,7.2787815391540525,14.220042628860474,7.3070515391540525Q14.288242628860473,7.3353215391540525,14.349642628860474,7.376361539154053Q14.411142628860473,7.417391539154052,14.463342628860474,7.469631539154053Q14.515542628860473,7.521861539154052,14.556642628860473,7.5832815391540525Q14.597642628860473,7.6447015391540525,14.625942628860473,7.712941539154053Q14.654142628860473,7.781191539154053,14.668642628860473,7.853641539154053Q14.683042628860473,7.9260915391540525,14.683042628860473,7.999961539154053Q14.683042628860473,8.073831539154053,14.668642628860473,8.146281539154053Q14.654142628860473,8.218721539154053,14.625942628860473,8.286971539154052Q14.597642628860473,8.355221539154051,14.556642628860473,8.416631539154054Q14.515542628860473,8.478051539154052,14.463342628860474,8.530291539154053Q14.411142628860473,8.582521539154053,14.349642628860474,8.623561539154053Q14.288242628860473,8.664601539154052,14.220042628860474,8.692871539154051Q14.151742628860474,8.721141539154052,14.079342628860473,8.735551539154052Q14.006842628860474,8.749961539154054,13.933042628860473,8.749961539154054L3.7436626288604735,8.749961539154054L6.462932628860473,11.469241539154053L6.463322628860474,11.469631539154053Q6.561692628860474,11.568001539154054,6.618242628860473,11.695111539154052Q6.674792628860474,11.822221539154052,6.681992628860474,11.961151539154052Q6.6829926288604735,11.980541539154054,6.6829926288604735,11.999961539154052Q6.6829926288604735,12.149141539154053,6.625902628860474,12.286971539154052Q6.568812628860473,12.424801539154053,6.463322628860474,12.530291539154053Q6.364442628860473,12.629171539154052,6.236572628860474,12.685771539154052Q6.108702628860474,12.742381539154053,5.969022628860474,12.749091539154053Q5.951012628860473,12.749961539154052,5.9329926288604735,12.749961539154052Q5.783802628860474,12.749961539154052,5.645982628860474,12.692871539154053Q5.508152628860474,12.635781539154053,5.402662628860473,12.530291539154053L1.4030176288604737,8.530631539154053L1.4026726288604736,8.530291539154053Q1.2971836288604737,8.424801539154053,1.2400938288604737,8.286971539154052Q1.1830036640604735,8.149141539154053,1.1830036640604735,7.999961539154053Q1.1830036628604736,7.850771539154053,1.2400938288604737,7.712951539154052Q1.2971836288604737,7.575121539154053,1.4026726288604736,7.469631539154053L5.402432628860474,3.469865539154053L5.402662628860473,3.469629539154053Q5.507392628860473,3.364902539154053,5.644062628860474,3.307846339154053Q5.780742628860474,3.2507900491540527,5.928842628860473,3.2499709131540526L5.9329926288604735,3.2499595881540526Q6.079652628860473,3.249959387154053,6.215512628860473,3.3052067391540527Q6.3513726288604735,3.360454539154053,6.456412628860473,3.4628095391540525L6.4568526288604735,3.4632335391540527Q6.459892628860474,3.4661995391540525,6.462892628860474,3.469200539154053L6.463322628860474,3.469629539154053Q6.568812628860473,3.5751185391540528,6.625902628860474,3.7129465391540526Q6.6829926288604735,3.8507755391540526,6.6829926288604735,3.9999595391540526Q6.6829926288604735,4.147882539154053,6.626832628860473,4.284731539154053Q6.5706626288604735,4.421571539154053,6.466742628860474,4.526841539154052Q6.465042628860473,4.528571539154052,6.463322628860474,4.530291539154053Z" fill-rule="evenodd" fill="#595959" fill-opacity="1"/></g></g></svg>