<svg xmlns="http://www.w3.org/2000/svg" xmlns:xlink="http://www.w3.org/1999/xlink" fill="none" version="1.1" width="16" height="16" viewBox="0 0 16 16"><g><g><path d="M0.833251953125,13.3333L0.833251953125,4Q0.833251953125,3.37868,1.272591753125,2.9393398Q1.7119319531250001,2.5,2.333251953125,2.5L13.666551953125,2.5Q14.287951953125,2.5,14.727251953125,2.9393398Q15.166551953125,3.378679,15.166551953125,4L15.166551953125,13.3333Q15.166551953125,13.9547,14.727251953125,14.394Q14.287951953125,14.8333,13.666551953125,14.8333L2.333251953125,14.8333Q1.711930953125,14.8333,1.272591753125,14.394Q0.833251953125,13.9547,0.833251953125,13.3333ZM1.833251953125,13.3333Q1.833251953125,13.5404,1.979698953125,13.6869Q2.126145953125,13.8333,2.333251953125,13.8333L13.666551953125,13.8333Q13.873651953125,13.8333,14.020151953125,13.6869Q14.166551953125,13.5404,14.166551953125,13.3333L14.166551953125,4Q14.166551953125,3.792894,14.020151953125,3.646447Q13.873651953125,3.5,13.666551953125,3.5L2.333251953125,3.5Q2.126144953125,3.5,1.979698953125,3.646447Q1.833251953125,3.792893,1.833251953125,4L1.833251953125,13.3333Z" fill="#595959" fill-opacity="1"/></g><g><path d="M14.5,7.333251953125L1.5,7.333251953125L1.5,6.333251953125L14.5,6.333251953125L14.5,7.333251953125Z" fill-rule="evenodd" fill="#595959" fill-opacity="1"/></g><g><path d="M4.333251953125,2Q4.333251953125,1.9507543,4.342859313125,1.9024549Q4.352466653125,1.854155,4.371312153125,1.8086579999999999Q4.390157653125,1.763161,4.417517153125,1.722215Q4.444876953125,1.681269,4.479698953125,1.646447Q4.514520953125,1.611625,4.555466953125,1.584265Q4.596412953125,1.5569060000000001,4.641909953125,1.53806Q4.687406953125,1.519215,4.735706953125,1.509607Q4.784005953125,1.5,4.833251953125,1.5Q4.882497953125,1.5,4.930796953125,1.509607Q4.979096953125,1.519215,5.024593953125,1.53806Q5.070090953125,1.5569060000000001,5.111036953125,1.584265Q5.151982953125,1.611625,5.186804953125,1.646447Q5.221626953125,1.681269,5.248986953125,1.722215Q5.276345953125,1.763161,5.295191953125,1.8086579999999999Q5.314036953125,1.854155,5.323644953125,1.9024549Q5.333251953125,1.9507543,5.333251953125,2L5.333251953125,4.66667Q5.333251953125,4.71591,5.323644953125,4.76421Q5.314036953125,4.81251,5.295191953125,4.85801Q5.276345953125,4.90351,5.248986953125,4.94445Q5.221626953125,4.9854,5.186804953125,5.02022Q5.151982953125,5.05504,5.111036953125,5.0824Q5.070090953125,5.10976,5.024593953125,5.12861Q4.979096953125,5.14745,4.930796953125,5.1570599999999995Q4.882497953125,5.16667,4.833251953125,5.16667Q4.784005953125,5.16667,4.735706953125,5.1570599999999995Q4.687406953125,5.14745,4.641909953125,5.12861Q4.596412953125,5.10976,4.555466953125,5.0824Q4.514520953125,5.05504,4.479698953125,5.02022Q4.444876953125,4.9854,4.417517153125,4.94445Q4.390157653125,4.90351,4.371312153125,4.85801Q4.352466653125,4.81251,4.342859313125,4.76421Q4.333251953125,4.71591,4.333251953125,4.66667L4.333251953125,2Z" fill-rule="evenodd" fill="#595959" fill-opacity="1"/></g><g><path d="M11,2Q11,1.9507543,11.00960736,1.9024549Q11.0192147,1.854155,11.0380602,1.8086579999999999Q11.0569057,1.763161,11.0842652,1.722215Q11.111625,1.681269,11.146447,1.646447Q11.181269,1.611625,11.222215,1.584265Q11.263161,1.5569060000000001,11.308658,1.53806Q11.354155,1.519215,11.402455,1.509607Q11.450754,1.5,11.5,1.5Q11.549246,1.5,11.597545,1.509607Q11.645845,1.519215,11.691342,1.53806Q11.736839,1.5569060000000001,11.777785,1.584265Q11.818731,1.611625,11.853553,1.646447Q11.888375,1.681269,11.915735,1.722215Q11.943094,1.763161,11.96194,1.8086579999999999Q11.980785000000001,1.854155,11.990393,1.9024549Q12,1.9507543,12,2L12,4.66667Q12,4.71591,11.990393,4.76421Q11.980785000000001,4.81251,11.96194,4.85801Q11.943094,4.90351,11.915735,4.94445Q11.888375,4.9854,11.853553,5.02022Q11.818731,5.05504,11.777785,5.0824Q11.736839,5.10976,11.691342,5.12861Q11.645845,5.14745,11.597545,5.1570599999999995Q11.549246,5.16667,11.5,5.16667Q11.450754,5.16667,11.402455,5.1570599999999995Q11.354155,5.14745,11.308658,5.12861Q11.263161,5.10976,11.222215,5.0824Q11.181269,5.05504,11.146447,5.02022Q11.111625,4.9854,11.0842652,4.94445Q11.0569057,4.90351,11.0380602,4.85801Q11.0192147,4.81251,11.00960736,4.76421Q11,4.71591,11,4.66667L11,2Z" fill-rule="evenodd" fill="#595959" fill-opacity="1"/></g></g></svg>