<svg xmlns="http://www.w3.org/2000/svg" xmlns:xlink="http://www.w3.org/1999/xlink" fill="none" version="1.1" width="16" height="16" viewBox="0 0 16 16"><g><g><path d="M14.499925441360473,10.32687976158142L14.499925441360473,7.999999761581421Q14.499925441360473,7.950749761581421,14.490325441360474,7.902449761581421Q14.480725441360473,7.854149761581421,14.461925441360474,7.808659761581421Q14.443025441360474,7.763159761581421,14.415725441360474,7.7222097615814205Q14.388325441360474,7.6812697615814205,14.353525441360473,7.646449761581421Q14.318725441360474,7.611619761581421,14.277725441360474,7.5842597615814205Q14.236825441360473,7.556909761581421,14.191325441360474,7.538059761581421Q14.145825441360474,7.519209761581421,14.097525441360474,7.509609761581421Q14.049225441360473,7.499999761581421,13.999925441360473,7.499999761581421Q13.950725441360474,7.499999761581421,13.902425441360474,7.509609761581421Q13.854125441360473,7.519209761581421,13.808625441360473,7.538059761581421Q13.763125441360474,7.556909761581421,13.722125441360474,7.5842597615814205Q13.681225441360473,7.611619761581421,13.646425441360474,7.646449761581421Q13.611625441360474,7.6812697615814205,13.584225441360473,7.7222097615814205Q13.556825441360473,7.763159761581421,13.538025441360473,7.808659761581421Q13.519125441360474,7.854149761581421,13.509525441360474,7.902449761581421Q13.499925441360473,7.950749761581421,13.499925441360473,7.999999761581421L13.499925441360473,9.33325976158142L12.095925441360473,8.28021976158142Q11.747525441360473,8.01895976158142,11.313185441360474,8.049819761581421Q10.878835441360474,8.080679761581422,10.570945441360474,8.38856976158142L9.025075441360475,9.934439761581421L6.774055441360473,8.00498976158142Q6.437975441360473,7.716909761581421,5.995365441360474,7.724279761581421Q5.552755441360474,7.731659761581421,5.2264454413604735,8.03078976158142L2.4999594413604735,10.530069761581421L2.4999594413604735,2.999999761581421Q2.4999594413604735,2.7928897615814208,2.6464054413604736,2.6464497615814206Q2.792855441360474,2.499999761581421,2.9999554413604734,2.499999761581421L7.999955441360473,2.499999761581421Q8.049205441360474,2.499999761581421,8.097505441360473,2.490392761581421Q8.145805441360473,2.480784761581421,8.191305441360473,2.461939761581421Q8.236795441360474,2.4430937615814208,8.277745441360473,2.4157347615814206Q8.318685441360474,2.388374761581421,8.353515441360473,2.3535527615814207Q8.388335441360475,2.318730761581421,8.415695441360473,2.2777847615814206Q8.443055441360475,2.2368387615814207,8.461895441360474,2.191341761581421Q8.480745441360472,2.145844761581421,8.490355441360474,2.097544761581421Q8.499955441360473,2.049245761581421,8.499955441360473,1.999999761581421Q8.499955441360473,1.9507537615814208,8.490355441360474,1.902454761581421Q8.480745441360472,1.854154761581421,8.461895441360474,1.8086577615814208Q8.443055441360475,1.7631607615814209,8.415695441360473,1.722214761581421Q8.388335441360475,1.6812687615814208,8.353515441360473,1.646446761581421Q8.318685441360474,1.611624761581421,8.277745441360473,1.5842649615814208Q8.236795441360474,1.5569054615814208,8.191305441360473,1.538059961581421Q8.145805441360473,1.519214461581421,8.097505441360473,1.5096071215814209Q8.049205441360474,1.499999761581421,7.999955441360473,1.499999761581421L2.9999554413604734,1.499999761581421Q2.3786384413604735,1.499999761581421,1.9392994413604736,1.939339761581421Q1.4999592303604736,2.378679761581421,1.4999592303604736,2.999999761581421L1.4999592303604736,12.999999761581421Q1.4999592303604736,13.62129976158142,1.9392994413604736,14.060699761581422Q2.3786394413604737,14.499999761581421,2.9999554413604734,14.499999761581421L12.999925441360473,14.499999761581421Q13.621325441360474,14.499999761581421,14.060625441360473,14.060699761581422Q14.499925441360473,13.62129976158142,14.499925441360473,12.999999761581421L14.499925441360473,10.33968976158142L14.500025441360474,10.33328976158142L14.499925441360473,10.32687976158142ZM13.499925441360473,10.58325976158142L11.495905441360474,9.080219761581422Q11.380245441360474,8.99347976158142,11.278055441360474,9.095669761581421L9.786575441360474,10.58714976158142L10.992025441360473,11.620399761581421Q11.075135441360473,11.69159976158142,11.120885441360473,11.791099761581421Q11.166625441360473,11.89059976158142,11.166625441360473,11.999999761581421Q11.166625441360473,12.049299761581421,11.157015441360473,12.09759976158142Q11.147415441360474,12.14589976158142,11.128565441360474,12.19139976158142Q11.109715441360473,12.236899761581421,11.082365441360473,12.27779976158142Q11.055005441360473,12.31879976158142,11.020175441360474,12.353599761581421Q10.985355441360474,12.388399761581422,10.944415441360473,12.415799761581422Q10.903465441360474,12.44309976158142,10.857965441360474,12.46199976158142Q10.812475441360474,12.480799761581421,10.764175441360473,12.49039976158142Q10.715875441360474,12.499999761581421,10.666625441360473,12.499999761581421Q10.577105441360473,12.499999761581421,10.493155441360473,12.46899976158142Q10.409195441360474,12.437899761581422,10.341235441360473,12.37969976158142L10.340925441360474,12.379399761581421L6.1232654413604735,8.764249761581421Q6.011095441360474,8.66809976158142,5.902205441360474,8.767919761581421L2.4999594413604735,11.88659976158142L2.4999594413604735,12.999999761581421Q2.4999594413604735,13.207099761581421,2.6464054413604736,13.353599761581421Q2.792855441360474,13.499999761581421,2.9999554413604734,13.499999761581421L12.999925441360473,13.499999761581421Q13.207025441360473,13.499999761581421,13.353525441360473,13.353599761581421Q13.499925441360473,13.207099761581421,13.499925441360473,12.999999761581421L13.499925441360473,10.58325976158142ZM12.083325441360474,1.499999761581421Q12.034125441360473,1.499999761581421,11.985825441360474,1.5096071215814209Q11.937525441360474,1.519214461581421,11.892025441360474,1.538059961581421Q11.846525441360473,1.5569054615814208,11.805525441360473,1.5842649615814208Q11.764625441360474,1.611624761581421,11.729825441360473,1.646446761581421Q11.694925441360473,1.6812687615814208,11.667625441360473,1.722214761581421Q11.640225441360474,1.7631607615814209,11.621425441360474,1.8086577615814208Q11.602525441360473,1.854154761581421,11.592925441360473,1.902454761581421Q11.583325441360474,1.9507537615814208,11.583325441360474,1.999999761581421L11.583325441360474,3.583249761581421L9.999955441360473,3.583249761581421Q9.950715441360474,3.583249761581421,9.902415441360473,3.592859761581421Q9.854115441360474,3.6024697615814207,9.808615441360473,3.6213097615814207Q9.763115441360474,3.6401597615814207,9.722175441360474,3.667519761581421Q9.681225441360473,3.694879761581421,9.646405441360473,3.7296997615814207Q9.611585441360473,3.764519761581421,9.584225441360473,3.805469761581421Q9.556865441360474,3.846409761581421,9.538015441360473,3.891909761581421Q9.519175441360474,3.9374097615814208,9.509565441360474,3.985709761581421Q9.499955441360473,4.034009761581421,9.499955441360473,4.0832497615814205Q9.499955441360473,4.132499761581421,9.509565441360474,4.1807997615814205Q9.519175441360474,4.229099761581421,9.538015441360473,4.274589761581421Q9.556865441360474,4.320089761581421,9.584225441360473,4.361039761581421Q9.611585441360473,4.401979761581421,9.646405441360473,4.43680976158142Q9.681225441360473,4.471629761581421,9.722175441360474,4.498989761581421Q9.763115441360474,4.526349761581421,9.808615441360473,4.545189761581421Q9.854115441360474,4.564039761581421,9.902415441360473,4.573639761581421Q9.950715441360474,4.5832497615814205,9.999955441360473,4.5832497615814205L11.583325441360474,4.5832497615814205L11.583325441360474,5.999999761581421Q11.583325441360474,6.049249761581421,11.592925441360473,6.097549761581421Q11.602525441360473,6.145839761581421,11.621425441360474,6.191339761581421Q11.640225441360474,6.236839761581421,11.667625441360473,6.277779761581421Q11.694925441360473,6.318729761581421,11.729825441360473,6.353549761581421Q11.764625441360474,6.388369761581421,11.805525441360473,6.415729761581421Q11.846525441360473,6.443089761581421,11.892025441360474,6.461939761581421Q11.937525441360474,6.480779761581421,11.985825441360474,6.490389761581421Q12.034125441360473,6.499999761581421,12.083325441360474,6.499999761581421Q12.132625441360474,6.499999761581421,12.180925441360474,6.490389761581421Q12.229225441360473,6.480779761581421,12.274625441360474,6.461939761581421Q12.320125441360474,6.443089761581421,12.361125441360473,6.415729761581421Q12.402025441360474,6.388369761581421,12.436925441360474,6.353549761581421Q12.471725441360473,6.318729761581421,12.499025441360473,6.277779761581421Q12.526425441360473,6.236839761581421,12.545225441360474,6.191339761581421Q12.564125441360474,6.145839761581421,12.573725441360473,6.097549761581421Q12.583325441360474,6.049249761581421,12.583325441360474,5.999999761581421L12.583325441360474,4.5832497615814205L13.999925441360473,4.5832497615814205Q14.049225441360473,4.5832497615814205,14.097525441360474,4.573639761581421Q14.145825441360474,4.564039761581421,14.191325441360474,4.545189761581421Q14.236825441360473,4.526349761581421,14.277725441360474,4.498989761581421Q14.318725441360474,4.471629761581421,14.353525441360473,4.43680976158142Q14.388325441360474,4.401979761581421,14.415725441360474,4.361039761581421Q14.443025441360474,4.320089761581421,14.461925441360474,4.274589761581421Q14.480725441360473,4.229099761581421,14.490325441360474,4.1807997615814205Q14.499925441360473,4.132499761581421,14.499925441360473,4.0832497615814205Q14.499925441360473,4.034009761581421,14.490325441360474,3.985709761581421Q14.480725441360473,3.9374097615814208,14.461925441360474,3.891909761581421Q14.443025441360474,3.846409761581421,14.415725441360474,3.805469761581421Q14.388325441360474,3.764519761581421,14.353525441360473,3.7296997615814207Q14.318725441360474,3.694879761581421,14.277725441360474,3.667519761581421Q14.236825441360473,3.6401597615814207,14.191325441360474,3.6213097615814207Q14.145825441360474,3.6024697615814207,14.097525441360474,3.592859761581421Q14.049225441360473,3.583249761581421,13.999925441360473,3.583249761581421L12.583325441360474,3.583249761581421L12.583325441360474,1.999999761581421Q12.583325441360474,1.9507537615814208,12.573725441360473,1.902454761581421Q12.564125441360474,1.854154761581421,12.545225441360474,1.8086577615814208Q12.526425441360473,1.7631607615814209,12.499025441360473,1.722214761581421Q12.471725441360473,1.6812687615814208,12.436925441360474,1.646446761581421Q12.402025441360474,1.611624761581421,12.361125441360473,1.5842649615814208Q12.320125441360474,1.5569054615814208,12.274625441360474,1.538059961581421Q12.229225441360473,1.519214461581421,12.180925441360474,1.5096071215814209Q12.132625441360474,1.499999761581421,12.083325441360474,1.499999761581421Z" fill-rule="evenodd" fill="#595959" fill-opacity="1"/></g></g></svg>