<svg xmlns="http://www.w3.org/2000/svg" xmlns:xlink="http://www.w3.org/1999/xlink" fill="none" version="1.1" width="16" height="16" viewBox="0 0 16 16"><g><g><rect x="2" y="2.0000076293945312" width="12" height="12" rx="0.6666666865348816" fill-opacity="0" stroke-opacity="1" stroke="#595959" fill="none" stroke-width="1"/></g><g transform="matrix(0.7071067690849304,-0.7071067690849304,0.7071067690849304,0.7071067690849304,-4.094917636764876,6.114482228491397)"><path d="M4.8333740234375,8.000244140625Q4.8333740234375,7.950998440625,4.8429810234375,7.902699040625Q4.8525890234375,7.854399140625,4.8714340234375,7.808902140625Q4.8902800234375,7.763405140625,4.9176390234375,7.722459140625Q4.9449990234375,7.681513140625,4.9798210234375,7.646691140625Q5.0146430234375,7.611869140625,5.0555890234375,7.584509140625Q5.0965350234375,7.557150140625,5.1420320234375,7.538304140625Q5.1875290234375,7.519459140625,5.2358289234375,7.509851140625Q5.2841283234375,7.500244140625,5.3333740234375,7.500244140625Q5.3826197234375,7.500244140625,5.4309191234375,7.509851140625Q5.4792190234375,7.519459140625,5.5247160234375,7.538304140625Q5.5702130234375,7.557150140625,5.6111590234375,7.584509140625Q5.6521050234375,7.611869140625,5.6869270234375,7.646691140625Q5.7217490234375,7.681513140625,5.7491090234375,7.722459140625Q5.7764680234375,7.763405140625,5.7953140234375,7.808902140625Q5.8141590234375,7.854399140625,5.8237670234375,7.902699040625Q5.8333740234375,7.950998440625,5.8333740234375,8.000244140625L5.8333740234375,10.161744140625Q5.8333740234375,10.328404140625,6.0000300234375,10.328414140625L10.519244023437501,10.328694140625L10.5192740234375,10.328694140625Q10.5685240234375,10.328694140625,10.616814023437499,10.338304140625Q10.6651140234375,10.347914140625,10.7106040234375,10.366764140625Q10.7561040234375,10.385614140625,10.7970440234375,10.412974140625Q10.8379940234375,10.440334140625,10.872814023437499,10.475154140625Q10.9076240234375,10.509974140625,10.9349840234375,10.550924140625Q10.962344023437499,10.591864140624999,10.9811840234375,10.637364140625Q11.0000340234375,10.682854140625,11.0096340234375,10.731154140625Q11.019244023437501,10.779454140624999,11.019244023437501,10.828694140625Q11.019244023437501,10.877944140625,11.0096340234375,10.926244140625Q11.0000340234375,10.974544140625,10.9811840234375,11.020034140625Q10.962344023437499,11.065534140625001,10.9349840234375,11.106484140625Q10.9076240234375,11.147424140625,10.8727940234375,11.182244140625Q10.8379740234375,11.217074140625,10.7970340234375,11.244424140625Q10.7560840234375,11.271784140625,10.7105840234375,11.290634140625Q10.6650940234375,11.309484140624999,10.6167940234375,11.319084140625Q10.5684940234375,11.328694140625,10.519244023437501,11.328694140625L10.519214023437499,11.328694140625L5.9999670234375,11.328414140625Q5.5167390234375,11.328384140625,5.1750570234375,10.986674140625Q4.8333740234375,10.644974140625,4.8333740234375,10.161744140625L4.8333740234375,8.000244140625Z" fill-rule="evenodd" fill="#595959" fill-opacity="1"/></g></g></svg>