<svg xmlns="http://www.w3.org/2000/svg" xmlns:xlink="http://www.w3.org/1999/xlink" fill="none" version="1.1" width="16" height="16" viewBox="0 0 16 16"><g><g><path d="M7.3333740234375,2.83349609375L14.6667440234375,2.83349609375Q14.7159940234375,2.83349609375,14.7642940234375,2.84310309375Q14.8125940234375,2.85271109375,14.858084023437499,2.8715560937499998Q14.9035840234375,2.89040209375,14.9445340234375,2.91776109375Q14.9854740234375,2.94512109375,15.0203040234375,2.97994309375Q15.0551240234375,3.01476509375,15.0824840234375,3.05571109375Q15.1098440234375,3.09665709375,15.1286840234375,3.14215409375Q15.147534023437501,3.18765109375,15.1571440234375,3.23595099375Q15.1667440234375,3.28425039375,15.1667440234375,3.33349609375Q15.1667440234375,3.38274179375,15.1571440234375,3.43104119375Q15.147534023437501,3.47934109375,15.1286840234375,3.52483809375Q15.1098440234375,3.57033509375,15.0824840234375,3.61128109375Q15.0551240234375,3.65222709375,15.0203040234375,3.68704909375Q14.9854740234375,3.72187109375,14.9445340234375,3.74923109375Q14.9035840234375,3.77659009375,14.858084023437499,3.7954360937500002Q14.8125940234375,3.81428109375,14.7642940234375,3.82388909375Q14.7159940234375,3.83349609375,14.6667440234375,3.83349609375L7.3333740234375,3.83349609375Q7.2841283234375,3.83349609375,7.2358289234375,3.82388909375Q7.1875290234375,3.81428109375,7.1420320234375,3.7954360937500002Q7.0965350234375,3.77659009375,7.0555890234375,3.74923109375Q7.0146430234375,3.72187109375,6.9798210234375,3.68704909375Q6.9449990234375,3.65222709375,6.9176390234375,3.61128109375Q6.8902800234375,3.57033509375,6.8714340234375,3.52483809375Q6.8525890234375,3.47934109375,6.8429810234375,3.43104119375Q6.8333740234375,3.38274179375,6.8333740234375,3.33349609375Q6.8333740234375,3.28425039375,6.8429810234375,3.23595099375Q6.8525890234375,3.18765109375,6.8714340234375,3.14215409375Q6.8902800234375,3.09665709375,6.9176390234375,3.05571109375Q6.9449990234375,3.01476509375,6.9798210234375,2.97994309375Q7.0146430234375,2.94512109375,7.0555890234375,2.91776109375Q7.0965350234375,2.89040209375,7.1420320234375,2.8715560937499998Q7.1875290234375,2.85271109375,7.2358289234375,2.84310309375Q7.2841283234375,2.83349609375,7.3333740234375,2.83349609375Z" fill-rule="evenodd" fill="#595959" fill-opacity="1"/></g><g><path d="M7.3333740234375,7.500007629394531L14.6667440234375,7.500007629394531Q14.7159940234375,7.500007629394531,14.7642940234375,7.509614629394531Q14.8125940234375,7.519222629394531,14.858084023437499,7.538067629394531Q14.9035840234375,7.556913629394531,14.9445340234375,7.5842726293945315Q14.9854740234375,7.611632629394531,15.0203040234375,7.6464546293945315Q15.0551240234375,7.681276629394532,15.0824840234375,7.7222226293945315Q15.1098440234375,7.7631686293945315,15.1286840234375,7.808665629394532Q15.147534023437501,7.854162629394532,15.1571440234375,7.902462529394532Q15.1667440234375,7.950761929394531,15.1667440234375,8.000007629394531Q15.1667440234375,8.049253329394531,15.1571440234375,8.09755272939453Q15.147534023437501,8.14585262939453,15.1286840234375,8.191349629394532Q15.1098440234375,8.236846629394531,15.0824840234375,8.277792629394531Q15.0551240234375,8.318738629394531,15.0203040234375,8.353560629394531Q14.9854740234375,8.388382629394531,14.9445340234375,8.415742629394531Q14.9035840234375,8.443101629394532,14.858084023437499,8.461947629394531Q14.8125940234375,8.480792629394532,14.7642940234375,8.49040062939453Q14.7159940234375,8.500007629394531,14.6667440234375,8.500007629394531L7.3333740234375,8.500007629394531Q7.2841283234375,8.500007629394531,7.2358289234375,8.49040062939453Q7.1875290234375,8.480792629394532,7.1420320234375,8.461947629394531Q7.0965350234375,8.443101629394532,7.0555890234375,8.415742629394531Q7.0146430234375,8.388382629394531,6.9798210234375,8.353560629394531Q6.9449990234375,8.318738629394531,6.9176390234375,8.277792629394531Q6.8902800234375,8.236846629394531,6.8714340234375,8.191349629394532Q6.8525890234375,8.14585262939453,6.8429810234375,8.09755272939453Q6.8333740234375,8.049253329394531,6.8333740234375,8.000007629394531Q6.8333740234375,7.950761929394531,6.8429810234375,7.902462529394532Q6.8525890234375,7.854162629394532,6.8714340234375,7.808665629394532Q6.8902800234375,7.7631686293945315,6.9176390234375,7.7222226293945315Q6.9449990234375,7.681276629394532,6.9798210234375,7.6464546293945315Q7.0146430234375,7.611632629394531,7.0555890234375,7.5842726293945315Q7.0965350234375,7.556913629394531,7.1420320234375,7.538067629394531Q7.1875290234375,7.519222629394531,7.2358289234375,7.509614629394531Q7.2841283234375,7.500007629394531,7.3333740234375,7.500007629394531Z" fill-rule="evenodd" fill="#595959" fill-opacity="1"/></g><g><path d="M7.3333740234375,12.16650390625L14.6667440234375,12.16650390625Q14.7159940234375,12.16650390625,14.7642940234375,12.17611090625Q14.8125940234375,12.185718906249999,14.858084023437499,12.20456390625Q14.9035840234375,12.22340990625,14.9445340234375,12.25076890625Q14.9854740234375,12.27812890625,15.0203040234375,12.31295090625Q15.0551240234375,12.34777290625,15.0824840234375,12.38871890625Q15.1098440234375,12.42966490625,15.1286840234375,12.47516190625Q15.147534023437501,12.52065890625,15.1571440234375,12.56895880625Q15.1667440234375,12.61725820625,15.1667440234375,12.66650390625Q15.1667440234375,12.71574960625,15.1571440234375,12.76404900625Q15.147534023437501,12.81234890625,15.1286840234375,12.85784590625Q15.1098440234375,12.90334290625,15.0824840234375,12.94428890625Q15.0551240234375,12.98523490625,15.0203040234375,13.02005690625Q14.9854740234375,13.05487890625,14.9445340234375,13.08223890625Q14.9035840234375,13.10959790625,14.858084023437499,13.12844390625Q14.8125940234375,13.147288906250001,14.7642940234375,13.15689690625Q14.7159940234375,13.16650390625,14.6667440234375,13.16650390625L7.3333740234375,13.16650390625Q7.2841283234375,13.16650390625,7.2358289234375,13.15689690625Q7.1875290234375,13.147288906250001,7.1420320234375,13.12844390625Q7.0965350234375,13.10959790625,7.0555890234375,13.08223890625Q7.0146430234375,13.05487890625,6.9798210234375,13.02005690625Q6.9449990234375,12.98523490625,6.9176390234375,12.94428890625Q6.8902800234375,12.90334290625,6.8714340234375,12.85784590625Q6.8525890234375,12.81234890625,6.8429810234375,12.76404900625Q6.8333740234375,12.71574960625,6.8333740234375,12.66650390625Q6.8333740234375,12.61725820625,6.8429810234375,12.56895880625Q6.8525890234375,12.52065890625,6.8714340234375,12.47516190625Q6.8902800234375,12.42966490625,6.9176390234375,12.38871890625Q6.9449990234375,12.34777290625,6.9798210234375,12.31295090625Q7.0146430234375,12.27812890625,7.0555890234375,12.25076890625Q7.0965350234375,12.22340990625,7.1420320234375,12.20456390625Q7.1875290234375,12.185718906249999,7.2358289234375,12.17611090625Q7.2841283234375,12.16650390625,7.3333740234375,12.16650390625Z" fill-rule="evenodd" fill="#595959" fill-opacity="1"/></g><g><path d="M5.6869240234375,2.353560629394531Q5.7572540234375,2.2832346293945314,5.7953140234375,2.1913496293945314Q5.8333740234375,2.0994638293945314,5.8333740234375,2.0000076293945312Q5.8333740234375,1.9507619293945313,5.8237640234375,1.9024625293945312Q5.8141540234375,1.8541626293945312,5.7953140234375,1.8086656293945311Q5.7764640234375,1.7631686293945312,5.7491040234375,1.7222226293945313Q5.7217440234375,1.6812766293945312,5.6869240234375,1.6464546293945312Q5.6521040234375,1.6116326293945313,5.6111540234375,1.5842726293945313Q5.5702140234375,1.5569136293945314,5.5247140234375,1.5380676293945312Q5.4792140234375,1.5192226293945312,5.4309240234375,1.5096146293945312Q5.3826240234375,1.5000076293945312,5.3333740234375,1.5000076293945312Q5.2339140234374995,1.5000076293945312,5.1420340234375,1.5380676293945312Q5.0501440234375,1.5761286293945314,4.9798240234375,1.6464546293945312L2.6667040234375,3.959567629394531L1.6869870234375,2.9798476293945315L1.6869270234375,2.979787629394531Q1.6166010234375001,2.9094616293945315,1.5247160234375001,2.8714016293945313Q1.4328302234375,2.833341629394531,1.3333740234375,2.833341629394531Q1.2841283234375,2.833341629394531,1.2358289234375,2.8429486293945314Q1.1875290234375,2.8525556293945313,1.1420320234374999,2.8714016293945313Q1.0965350234375,2.8902466293945315,1.0555890234375,2.9176066293945313Q1.0146430234375,2.944965629394531,0.9798210234375,2.979787629394531Q0.9449990234375,3.014607629394531,0.9176390234375,3.0555576293945315Q0.8902800234375,3.0964976293945314,0.8714340234375,3.141997629394531Q0.8525890234375,3.187497629394531,0.8429810234374999,3.235797629394531Q0.8333740234375,3.284097629394531,0.8333740234375,3.3333376293945314Q0.8333740234375,3.432797629394531,0.8714340234375,3.5246876293945313Q0.9094940234375,3.616567629394531,0.9798210234375,3.6868976293945313L2.3131540234375,5.020227629394531Q2.3834840234375,5.090557629394532,2.4753640234375,5.128617629394531Q2.5672540234375,5.166677629394531,2.6667040234375,5.166677629394531Q2.7661640234375,5.166677629394531,2.8580540234375,5.128617629394531Q2.9499340234374998,5.090557629394532,3.0202640234375,5.020227629394531L5.6867140234375,2.353774629394531L5.6869240234375,2.353560629394531L5.6869240234375,2.353560629394531Z" fill-rule="evenodd" fill="#595959" fill-opacity="1"/></g><g><path d="M5.6869240234375,7.02005690625Q5.7572540234375,6.94973090625,5.7953140234375,6.85784590625Q5.8333740234375,6.76596010625,5.8333740234375,6.66650390625Q5.8333740234375,6.61725820625,5.8237640234375,6.56895880625Q5.8141540234375,6.52065890625,5.7953140234375,6.47516190625Q5.7764640234375,6.42966490625,5.7491040234375,6.38871890625Q5.7217440234375,6.34777290625,5.6869240234375,6.31295090625Q5.6521040234375,6.27812890625,5.6111540234375,6.25076890625Q5.5702140234375,6.22340990625,5.5247140234375,6.20456390625Q5.4792140234375,6.18571890625,5.4309240234375,6.17611090625Q5.3826240234375,6.16650390625,5.3333740234375,6.16650390625Q5.2339140234374995,6.16650390625,5.1420340234375,6.20456390625Q5.0501440234375,6.24262490625,4.9798240234375,6.31295090625L2.6667040234375,8.62606390625L1.6869870234375,7.64634390625L1.6869270234375,7.64628390625Q1.6166010234375001,7.57595790625,1.5247160234375001,7.5378979062500004Q1.4328302234375,7.49983790625,1.3333740234375,7.49983790625Q1.2841283234375,7.49983790625,1.2358289234375,7.50944490625Q1.1875290234375,7.51905190625,1.1420320234374999,7.5378979062500004Q1.0965350234375,7.55674290625,1.0555890234375,7.58410290625Q1.0146430234375,7.61146190625,0.9798210234375,7.64628390625Q0.9449990234375,7.68110390625,0.9176390234375,7.72205390625Q0.8902800234375,7.76299390625,0.8714340234375,7.80849390625Q0.8525890234375,7.85399390625,0.8429810234374999,7.90229390625Q0.8333740234375,7.95059390625,0.8333740234375,7.99983390625Q0.8333740234375,8.09929390625,0.8714340234375,8.19118390625Q0.9094940234375,8.28306390625,0.9798210234375,8.35339390625L2.3131540234375,9.68672390625Q2.3834840234375,9.75705390625,2.4753640234375,9.79511390625Q2.5672540234375,9.83317390625,2.6667040234375,9.83317390625Q2.7661640234375,9.83317390625,2.8580540234375,9.79511390625Q2.9499340234374998,9.75705390625,3.0202640234375,9.68672390625L5.6867140234375,7.02027090625L5.6869240234375,7.02005690625L5.6869240234375,7.02005690625Z" fill-rule="evenodd" fill="#595959" fill-opacity="1"/></g><g><path d="M5.6869240234375,11.68704909375Q5.7572540234375,11.61672309375,5.7953140234375,11.52483809375Q5.8333740234375,11.43295229375,5.8333740234375,11.33349609375Q5.8333740234375,11.28425039375,5.8237640234375,11.23595099375Q5.8141540234375,11.18765109375,5.7953140234375,11.14215409375Q5.7764640234375,11.09665709375,5.7491040234375,11.05571109375Q5.7217440234375,11.01476509375,5.6869240234375,10.97994309375Q5.6521040234375,10.94512109375,5.6111540234375,10.91776109375Q5.5702140234375,10.89040209375,5.5247140234375,10.87155609375Q5.4792140234375,10.852711093749999,5.4309240234375,10.84310309375Q5.3826240234375,10.83349609375,5.3333740234375,10.83349609375Q5.2339140234374995,10.83349609375,5.1420340234375,10.87155609375Q5.0501440234375,10.90961709375,4.9798240234375,10.97994309375L2.6667040234375,13.29305609375L1.6869870234375,12.31333609375L1.6869270234375,12.31327609375Q1.6166010234375001,12.24295009375,1.5247160234375001,12.20489009375Q1.4328302234375,12.16683009375,1.3333740234375,12.16683009375Q1.2841283234375,12.16683009375,1.2358289234375,12.17643709375Q1.1875290234375,12.18604409375,1.1420320234374999,12.20489009375Q1.0965350234375,12.22373509375,1.0555890234375,12.25109509375Q1.0146430234375,12.27845409375,0.9798210234375,12.31327609375Q0.9449990234375,12.34809609375,0.9176390234375,12.38904609375Q0.8902800234375,12.42998609375,0.8714340234375,12.47548609375Q0.8525890234375,12.52098609375,0.8429810234374999,12.56928609375Q0.8333740234375,12.617586093749999,0.8333740234375,12.66682609375Q0.8333740234375,12.76628609375,0.8714340234375,12.85817609375Q0.9094940234375,12.95005609375,0.9798210234375,13.02038609375L2.3131540234375,14.35371609375Q2.3834840234375,14.42404609375,2.4753640234375,14.46210609375Q2.5672540234375,14.50016609375,2.6667040234375,14.50016609375Q2.7661640234375,14.50016609375,2.8580540234375,14.46210609375Q2.9499340234374998,14.42404609375,3.0202640234375,14.35371609375L5.6867140234375,11.68726309375L5.6869240234375,11.68704909375L5.6869240234375,11.68704909375Z" fill-rule="evenodd" fill="#595959" fill-opacity="1"/></g></g></svg>