<svg xmlns="http://www.w3.org/2000/svg" xmlns:xlink="http://www.w3.org/1999/xlink" fill="none" version="1.1" width="16" height="16" viewBox="0 0 16 16"><g><g><path d="M0.8334146739302368,3.3333565348815917L0.8334146739302368,12.666686534881592Q0.8334146739302368,13.149886534881592,1.1751232519302368,13.491686534881591Q1.5168322519302369,13.833386534881592,2.0000822519302366,13.833386534881592L14.000082251930237,13.833386534881592Q14.483282251930238,13.833386534881592,14.825082251930237,13.491686534881591Q15.166782251930236,13.149986534881592,15.166782251930236,12.666686534881592L15.166782251930236,3.3333565348815917Q15.166782251930236,2.8501035348815917,14.825082251930237,2.5083955348815916Q14.483282251930238,2.166686534881592,14.000082251930237,2.166686534881592L2.0000822519302366,2.166686534881592Q1.5168322519302369,2.166686534881592,1.1751232519302368,2.5083955348815916Q0.8334146739302368,2.850104534881592,0.8334146739302368,3.3333565348815917ZM1.8334122519302367,3.8370265348815917L1.8334122519302367,12.666686534881592Q1.8334122519302367,12.833386534881592,2.0000822519302366,12.833386534881592L14.000082251930237,12.833386534881592Q14.166782251930236,12.833386534881592,14.166782251930236,12.666686534881592L14.166782251930236,3.8369565348815917L8.307012251930237,8.394536534881592Q8.241182251930237,8.445726534881592,8.162312251930237,8.472796534881592Q8.083432251930237,8.49985653488159,8.000042251930237,8.49985653488159Q7.916652251930237,8.49985653488159,7.837772251930237,8.472796534881592Q7.758892251930237,8.445726534881592,7.693072251930237,8.394536534881592L1.8334122519302367,3.8370265348815917ZM13.399682251930237,3.166686534881592L2.600372251930237,3.166686534881592L8.000042251930237,7.366426534881592L13.399682251930237,3.166686534881592Z" fill-rule="evenodd" fill="#595959" fill-opacity="1"/></g></g></svg>