<svg xmlns="http://www.w3.org/2000/svg" xmlns:xlink="http://www.w3.org/1999/xlink" fill="currentColor" version="1.1" width="1em" height="1em" viewBox="0 0 32 32"><g><g><g><path d="M13.5,18L18.5,18Q18.57387,18,18.64632,17.985589Q18.71877,17.971178,18.787010000000002,17.94291Q18.85526,17.914641,18.91668,17.873601999999998Q18.9781,17.832563,19.03033,17.78033Q19.08256,17.728096999999998,19.1236,17.666678Q19.16464,17.605258,19.19291,17.537013Q19.22118,17.468767,19.235590000000002,17.396318Q19.25,17.3238685,19.25,17.25Q19.25,17.1761315,19.235590000000002,17.103682Q19.22118,17.031233,19.19291,16.962987Q19.16464,16.894742,19.1236,16.833322Q19.08256,16.771903000000002,19.03033,16.71967Q18.9781,16.667437,18.91668,16.626398000000002Q18.85526,16.585359,18.787010000000002,16.55709Q18.71877,16.528822,18.64632,16.514411Q18.57387,16.5,18.5,16.5L13.5,16.5Q13.4261315,16.5,13.353682,16.514411Q13.281233,16.528822,13.212987,16.55709Q13.144742,16.585359,13.083322,16.626398000000002Q13.021903,16.667437,12.96967,16.71967Q12.917437,16.771903000000002,12.876398,16.833322Q12.835359,16.894742,12.80709,16.962987Q12.778822,17.031233,12.764410999999999,17.103682Q12.75,17.1761315,12.75,17.25Q12.75,17.3238685,12.764410999999999,17.396318Q12.778822,17.468767,12.80709,17.537013Q12.835359,17.605258,12.876398,17.666678Q12.917437,17.728096999999998,12.96967,17.78033Q13.021903,17.832563,13.083322,17.873601999999998Q13.144742,17.914641,13.212987,17.94291Q13.281233,17.971178,13.353682,17.985589Q13.4261315,18,13.5,18Z" fill-rule="evenodd" fill="currentColor" fill-opacity="1"/></g><g><path d="M15.25,14.75L15.25,19.75Q15.25,19.82387,15.264410999999999,19.89632Q15.278822,19.96877,15.30709,20.037010000000002Q15.335359,20.10526,15.376398,20.16668Q15.417437,20.2281,15.46967,20.28033Q15.521903,20.33256,15.583322,20.3736Q15.644742,20.41464,15.712987,20.44291Q15.781233,20.47118,15.853682,20.485590000000002Q15.9261315,20.5,16,20.5Q16.0738685,20.5,16.146318,20.485590000000002Q16.218767,20.47118,16.287013,20.44291Q16.355258,20.41464,16.416678,20.3736Q16.478096999999998,20.33256,16.53033,20.28033Q16.582563,20.2281,16.623601999999998,20.16668Q16.664641,20.10526,16.69291,20.037010000000002Q16.721178,19.96877,16.735589,19.89632Q16.75,19.82387,16.75,19.75L16.75,14.75Q16.75,14.6761315,16.735589,14.603682Q16.721178,14.531233,16.69291,14.462987Q16.664641,14.394742,16.623601999999998,14.333322Q16.582563,14.271903,16.53033,14.21967Q16.478096999999998,14.167437,16.416678,14.126398Q16.355258,14.085359,16.287013,14.05709Q16.218767,14.028822,16.146318,14.014410999999999Q16.0738685,14,16,14Q15.9261315,14,15.853682,14.014410999999999Q15.781233,14.028822,15.712987,14.05709Q15.644742,14.085359,15.583322,14.126398Q15.521903,14.167437,15.46967,14.21967Q15.417437,14.271903,15.376398,14.333322Q15.335359,14.394742,15.30709,14.462987Q15.278822,14.531233,15.264410999999999,14.603682Q15.25,14.6761315,15.25,14.75Z" fill-rule="evenodd" fill="currentColor" fill-opacity="1"/></g><g><path d="M9.06998076171875,24.25L22.91663076171875,24.25Q23.641530761718748,24.25,24.15413076171875,23.7374Q24.66663076171875,23.224899999999998,24.66663076171875,22.5L24.66663076171875,12Q24.66663076171875,11.27513,24.15413076171875,10.76256Q23.641530761718748,10.25,22.91663076171875,10.25L16.46836076171875,10.25Q16.35127076171875,10.25,16.27631076171875,10.16005L14.79267076171875,8.379677Q14.26794076171875,7.75,13.448280761718749,7.75L9.08237076171875,7.75Q8.35798576171875,7.75,7.84552376171875,8.261974Q7.33306176171875,8.773947,7.3323717617187505,9.498332L7.31998476171875,22.4983Q7.31929376171875,23.2237,7.83195776171875,23.736800000000002Q8.34462276171875,24.25,9.06998076171875,24.25ZM23.09343076171875,22.6768Q23.02023076171875,22.75,22.91663076171875,22.75L9.06998076171875,22.75Q8.96635976171875,22.75,8.89312276171875,22.6767Q8.81988576171875,22.6034,8.819983761718749,22.4998L8.83237076171875,9.499761Q8.83260876171875,9.25,9.08237076171875,9.25L13.448280761718749,9.25Q13.56537076171875,9.25,13.64034076171875,9.339954L15.12398076171875,11.12032Q15.64871076171875,11.75,16.46836076171875,11.75L22.91663076171875,11.75Q23.16663076171875,11.75,23.16663076171875,12L23.16663076171875,22.5Q23.16663076171875,22.6036,23.09343076171875,22.6768Z" fill-rule="evenodd" fill="currentColor" fill-opacity="1"/></g></g></g></svg>