<svg xmlns="http://www.w3.org/2000/svg" xmlns:xlink="http://www.w3.org/1999/xlink" fill="none" version="1.1" width="1em" height="1em" viewBox="0 0 16 16"><g><g><path d="M8.0003221875,15.33320390625C10.0253521875,15.33320390625,11.8586921875,14.51230390625,13.1857921875,13.18530390625C14.5127921875,11.85820390625,15.3336921875,10.02486390625,15.3336921875,7.99983390625C15.3336921875,5.97481390625,14.5127921875,4.14147390625,13.1857921875,2.81438390625C11.8586921875,1.48731690625,10.0253521875,0.66650390625,8.0003221875,0.66650390625C5.9753021875,0.66650390625,4.1419621875,1.48731690625,2.8148721875,2.81438390625C1.4878051875,4.14147390625,0.6669921875,5.97481390625,0.6669921875,7.99983390625C0.6669921875,10.02486390625,1.4878051875,11.85820390625,2.8148721875,13.18530390625C4.1419621875,14.51230390625,5.9753021875,15.33320390625,8.0003221875,15.33320390625ZM8.0003221875,14.33320390625Q10.6236521875,14.33320390625,12.4786921875,12.47820390625Q14.3336921875,10.62316390625,14.3336921875,7.99983390625Q14.3336921875,5.37651390625,12.4786921875,3.52148390625Q10.6236521875,1.66650390625,8.0003221875,1.66650390625Q5.3770021875,1.66650390625,3.5219721875,3.52149390625Q1.6669921875,5.37651390625,1.6669921875,7.99983390625Q1.6669921875,10.62316390625,3.5219821875,12.47820390625Q5.3770021875,14.33320390625,8.0003221875,14.33320390625Z" fill-rule="evenodd" fill="#00B955" fill-opacity="1"/></g><g><path d="M11.330456875,7.330378828125Q11.435946874999999,7.224889828125,11.493036875,7.087061828125Q11.550126875,6.949232828125,11.550126875,6.800048828125Q11.550126875,6.726180328125,11.535716875,6.653730828125Q11.521306875,6.581281828125,11.493036875,6.513035828125Q11.464766874999999,6.444790828125,11.423726875,6.383370828125Q11.382696875,6.321951828125,11.330456875,6.269718828125Q11.278226875,6.217485828125,11.216806875,6.176446828125Q11.155386875,6.135407828125,11.087146875,6.107138828125Q11.018896875,6.078870828125,10.946446875,6.064459828125Q10.873996875,6.050048828125,10.800126875,6.050048828125Q10.650946874999999,6.050048828125,10.513116875,6.107138828125Q10.375286875,6.164229828125,10.269796875,6.269718828125L7.466796875,9.072718828125L5.997126875,7.603051828125Q5.891637875,7.497562828125,5.753809875,7.440472828125Q5.615980875,7.383381828125,5.466796875,7.383381828125Q5.392928375,7.383381828125,5.320478875,7.3977928281250005Q5.248029875,7.412203828125,5.179783875,7.440472828125Q5.111538875,7.468740828125,5.050118875,7.509779828125Q4.988699875,7.550818828125,4.936466875,7.603051828125Q4.884233875,7.655284828125,4.843194875,7.716704828125Q4.802155875,7.7781238281250005,4.773886875,7.846368828125Q4.745618875,7.9146188281250005,4.731207875,7.987068828125Q4.716796875,8.059508828125,4.716796875,8.133378828125Q4.716796875,8.282568828125001,4.773886875,8.420398828125Q4.830977875,8.558218828125,4.936466875,8.663708828125L4.936761875,8.664008828125L6.936466875,10.663708828125Q6.9886968750000005,10.715948828125,7.0501168750000005,10.756988828125Q7.1115368750000005,10.798018828125,7.179786875,10.826288828125Q7.248026875,10.854558828125,7.320476875,10.868968828125Q7.392926875,10.883378828125,7.466796875,10.883378828125Q7.540666874999999,10.883378828125,7.613116874999999,10.868968828125Q7.685566875,10.854558828125,7.753806875,10.826288828125Q7.8220568749999995,10.798018828125,7.8834768749999995,10.756988828125Q7.9448968749999995,10.715948828125,7.997126875,10.663708828125L11.330456875,7.330378828125L11.330456875,7.330378828125Z" fill-rule="evenodd" fill="#00B955" fill-opacity="1"/></g></g></svg>