<svg xmlns="http://www.w3.org/2000/svg" xmlns:xlink="http://www.w3.org/1999/xlink" fill="currentColor" version="1.1"
  width="1em" height="1em" viewBox="0 0 12 12">
  <g>
    <g>
      <g>
        <path
          d="M5.490735641326904,5.490752938201904C5.746435641326904,5.235052438201905,6.146565641326904,5.211806938201904,6.428525641326905,5.421015938201904L6.509305641326904,5.490752938201904L8.429935641326903,7.411389938201904C8.711205641326904,7.6926599382019045,8.711205641326904,8.148689938201905,8.429935641326903,8.429959938201904C8.174235641326904,8.685659938201905,7.774105641326904,8.708899938201904,7.492145641326904,8.499689938201904L7.4113656413269045,8.429959938201904L6.000075641326904,7.018989938201904L4.588665641326904,8.429959938201904C4.3329676413269045,8.685659938201905,3.9328386413269043,8.708899938201904,3.650878641326904,8.499689938201904L3.5700986413269042,8.429959938201904C3.314398141326904,8.174259938201905,3.2911526413269043,7.774129938201904,3.5003616413269043,7.492169938201904L3.5700986413269042,7.411389938201904L5.490735641326904,5.490752938201904Z"
          fill="currentColor" fill-opacity="1" />
      </g>
      <g>
        <path
          d="M8.400741031951904,3.3591303825269043C8.798521031951903,3.3591303825269043,9.120981031951905,3.6815916413269045,9.120981031951905,4.079367641326904C9.120981031951905,4.443995641326905,8.850021031951904,4.745335641326904,8.498471031951905,4.793025641326905L8.400741031951904,4.799605641326904L3.5991580319519043,4.799605641326904C3.2013820319519044,4.799605641326904,2.8789210319519043,4.477145641326905,2.8789210319519043,4.079367641326904C2.8789210319519043,3.7147396413269043,3.1498780319519044,3.413396941326904,3.501426031951904,3.3657053013269045L3.5991580319519043,3.3591303825269043L8.400741031951904,3.3591303825269043Z"
          fill="currentColor" fill-opacity="1" />
      </g>
    </g>
  </g>
</svg>