<svg xmlns="http://www.w3.org/2000/svg" xmlns:xlink="http://www.w3.org/1999/xlink" fill="currentColor" version="1.1" width="1em" height="1em" viewBox="0 0 16 16"><g><g></g><g><path d="M1.25,3L1.25,13Q1.25,13.7249,1.762563,14.2374Q2.27513,14.75,3,14.75L13,14.75Q13.7249,14.75,14.2374,14.2374Q14.75,13.7249,14.75,13L14.75,3Q14.75,2.27513,14.2374,1.762563Q13.7249,1.25,13,1.25L3,1.25Q2.27513,1.25,1.762563,1.762563Q1.25,2.27513,1.25,3ZM3,13.25Q2.75,13.25,2.75,13L2.75,3Q2.75,2.75,3,2.75L13,2.75Q13.25,2.75,13.25,3L13.25,13Q13.25,13.25,13,13.25L3,13.25ZM3.5835,4.4165L3.5835,7.08317Q3.5835,7.15704,3.59791,7.22949Q3.61232,7.30194,3.64059,7.37018Q3.66885,7.43843,3.70989,7.49985Q3.75093,7.56127,3.80317,7.6135Q3.8554,7.66573,3.91682,7.70677Q3.97824,7.74781,4.04648,7.77608Q4.11473,7.80435,4.18718,7.81876Q4.25963,7.83317,4.3335,7.83317L7.00016,7.83317Q7.07403,7.83317,7.14648,7.81876Q7.21893,7.80435,7.28718,7.77608Q7.35542,7.74781,7.41684,7.70677Q7.47826,7.66573,7.53049,7.6135Q7.58273,7.56127,7.62376,7.49985Q7.6648,7.43843,7.69307,7.37018Q7.72134,7.30194,7.73575,7.22949Q7.75016,7.15704,7.75016,7.08317L7.75016,4.4165Q7.75016,4.34263,7.73575,4.2701899999999995Q7.72134,4.19774,7.69307,4.1294900000000005Q7.6648,4.061249999999999,7.62376,3.99983Q7.58273,3.93841,7.53049,3.88617Q7.47826,3.83394,7.41684,3.7929Q7.35542,3.75186,7.28717,3.72359Q7.21893,3.69533,7.14648,3.68091Q7.07403,3.6665,7.00016,3.6665L4.3335,3.6665Q4.25963,3.6665,4.18718,3.68091Q4.11473,3.69533,4.04648,3.72359Q3.97824,3.75186,3.91682,3.7929Q3.8554,3.83394,3.80317,3.88617Q3.75093,3.93841,3.70989,3.99983Q3.66885,4.061249999999999,3.64059,4.1294900000000005Q3.61232,4.19774,3.59791,4.2701899999999995Q3.5835,4.34263,3.5835,4.4165ZM9.000119999999999,3.66667L11.6668,3.66667Q11.7407,3.66667,11.8131,3.68108Q11.8856,3.69549,11.9538,3.72376Q12.022,3.75203,12.0835,3.79306Q12.1449,3.8341,12.1971,3.88634Q12.2494,3.93857,12.2904,3.99999Q12.3314,4.06141,12.3597,4.12965Q12.388,4.197900000000001,12.4024,4.2703500000000005Q12.4168,4.3428,12.4168,4.41667Q12.4168,4.49054,12.4024,4.56298Q12.388,4.6354299999999995,12.3597,4.70368Q12.3314,4.77192,12.2904,4.83334Q12.2494,4.89476,12.1971,4.947Q12.1449,4.99923,12.0835,5.04027Q12.022,5.08131,11.9538,5.109579999999999Q11.8856,5.137840000000001,11.8131,5.15226Q11.7407,5.16667,11.6668,5.16667L9.000119999999999,5.16667Q8.92625,5.16667,8.8538,5.15226Q8.78135,5.137840000000001,8.71311,5.109579999999999Q8.644860000000001,5.08131,8.58344,5.04027Q8.522020000000001,4.99923,8.46979,4.947Q8.41756,4.89476,8.37652,4.83334Q8.33548,4.77192,8.307210000000001,4.70368Q8.27894,4.6354299999999995,8.26453,4.56298Q8.250119999999999,4.49054,8.250119999999999,4.41667Q8.250119999999999,4.3428,8.26453,4.2703500000000005Q8.27894,4.197900000000001,8.307210000000001,4.12965Q8.33548,4.06141,8.37652,3.99999Q8.41756,3.93857,8.46979,3.88634Q8.522020000000001,3.8341,8.58344,3.79306Q8.644860000000001,3.75203,8.71311,3.72376Q8.78135,3.69549,8.8538,3.68108Q8.92625,3.66667,9.000119999999999,3.66667ZM5.0835,6.33317L5.0835,5.1665L6.25016,5.1665L6.25016,6.33317L5.0835,6.33317ZM9.000119999999999,5.99992L11.6668,5.99992Q11.7407,5.99992,11.8131,6.01433Q11.8856,6.02874,11.9538,6.05701Q12.022,6.08528,12.0835,6.12632Q12.1449,6.16736,12.1971,6.21959Q12.2494,6.27182,12.2904,6.33324Q12.3314,6.39466,12.3597,6.4629Q12.388,6.53115,12.4024,6.6036Q12.4168,6.67605,12.4168,6.74992Q12.4168,6.82379,12.4024,6.89624Q12.388,6.96868,12.3597,7.03693Q12.3314,7.10518,12.2904,7.1666Q12.2494,7.22801,12.1971,7.28025Q12.1449,7.33248,12.0835,7.37352Q12.022,7.41456,11.9538,7.44283Q11.8856,7.4711,11.8131,7.48551Q11.7407,7.49992,11.6668,7.49992L9.000119999999999,7.49992Q8.92625,7.49992,8.8538,7.48551Q8.78135,7.4711,8.71311,7.44283Q8.644860000000001,7.41456,8.58344,7.37352Q8.522020000000001,7.33248,8.46979,7.28025Q8.41756,7.22801,8.37652,7.1666Q8.33548,7.10518,8.307210000000001,7.03693Q8.27894,6.96868,8.26453,6.89624Q8.250119999999999,6.82379,8.250119999999999,6.74992Q8.250119999999999,6.67605,8.26453,6.6036Q8.27894,6.53115,8.307210000000001,6.4629Q8.33548,6.39466,8.37652,6.33324Q8.41756,6.27182,8.46979,6.21959Q8.522020000000001,6.16736,8.58344,6.12632Q8.644860000000001,6.08528,8.71311,6.05701Q8.78135,6.02874,8.8538,6.01433Q8.92625,5.99992,9.000119999999999,5.99992ZM3.5835,9.08325L3.5835,11.7499Q3.5835,11.8238,3.59791,11.8962Q3.61232,11.9687,3.64059,12.0369Q3.66885,12.1052,3.70989,12.1666Q3.75093,12.228,3.80317,12.2802Q3.8554,12.3325,3.91682,12.3735Q3.97824,12.4146,4.04648,12.4428Q4.11473,12.4711,4.18718,12.4855Q4.25963,12.4999,4.3335,12.4999L7.00016,12.4999Q7.07403,12.4999,7.14648,12.4855Q7.21893,12.4711,7.28718,12.4428Q7.35542,12.4146,7.41684,12.3735Q7.47826,12.3325,7.53049,12.2802Q7.58273,12.228,7.62376,12.1666Q7.6648,12.1052,7.69307,12.0369Q7.72134,11.9687,7.73575,11.8962Q7.75016,11.8238,7.75016,11.7499L7.75016,9.08325Q7.75016,9.00938,7.73575,8.93693Q7.72134,8.86448,7.69307,8.796240000000001Q7.6648,8.72799,7.62376,8.66657Q7.58273,8.60515,7.53049,8.55292Q7.47826,8.500689999999999,7.41684,8.45965Q7.35542,8.418610000000001,7.28717,8.39034Q7.21893,8.36207,7.14648,8.347660000000001Q7.07403,8.33325,7.00016,8.33325L4.3335,8.33325Q4.25963,8.33325,4.18718,8.347660000000001Q4.11473,8.36207,4.04648,8.39034Q3.97824,8.418610000000001,3.91682,8.45965Q3.8554,8.500689999999999,3.80317,8.55292Q3.75093,8.60515,3.70989,8.66657Q3.66885,8.72799,3.64059,8.796240000000001Q3.61232,8.86448,3.59791,8.93693Q3.5835,9.00938,3.5835,9.08325ZM9.000119999999999,8.66667L11.6668,8.66667Q11.7407,8.66667,11.8131,8.68108Q11.8856,8.69549,11.9538,8.72376Q12.022,8.75202,12.0835,8.79306Q12.1449,8.8341,12.1971,8.88634Q12.2494,8.93857,12.2904,8.99999Q12.3314,9.06141,12.3597,9.12965Q12.388,9.1979,12.4024,9.27035Q12.4168,9.3428,12.4168,9.41667Q12.4168,9.49053,12.4024,9.56298Q12.388,9.63543,12.3597,9.70368Q12.3314,9.77192,12.2904,9.83334Q12.2494,9.89476,12.1971,9.947Q12.1449,9.99923,12.0835,10.04027Q12.022,10.08131,11.9538,10.10958Q11.8856,10.13784,11.8131,10.15226Q11.7407,10.16667,11.6668,10.16667L9.000119999999999,10.16667Q8.92625,10.16667,8.8538,10.15226Q8.78135,10.13784,8.71311,10.10958Q8.644860000000001,10.08131,8.58344,10.04027Q8.522020000000001,9.99923,8.46979,9.947Q8.41756,9.89476,8.37652,9.83334Q8.33548,9.77192,8.307210000000001,9.70368Q8.27894,9.63543,8.26453,9.56298Q8.250119999999999,9.49053,8.250119999999999,9.41667Q8.250119999999999,9.3428,8.26453,9.27035Q8.27894,9.1979,8.307210000000001,9.12965Q8.33548,9.06141,8.37652,8.99999Q8.41756,8.93857,8.46979,8.88634Q8.522020000000001,8.8341,8.58344,8.79306Q8.644860000000001,8.75202,8.71311,8.72376Q8.78135,8.69549,8.8538,8.68108Q8.92625,8.66667,9.000119999999999,8.66667ZM5.0835,10.99992L5.0835,9.83325L6.25016,9.83325L6.25016,10.99992L5.0835,10.99992ZM9.000119999999999,10.99992L11.6668,10.99992Q11.7407,10.99992,11.8131,11.01433Q11.8856,11.02874,11.9538,11.05701Q12.022,11.08528,12.0835,11.12632Q12.1449,11.16736,12.1971,11.21959Q12.2494,11.2718,12.2904,11.3332Q12.3314,11.3947,12.3597,11.4629Q12.388,11.5312,12.4024,11.6036Q12.4168,11.6761,12.4168,11.7499Q12.4168,11.8238,12.4024,11.8962Q12.388,11.9687,12.3597,12.0369Q12.3314,12.1052,12.2904,12.1666Q12.2494,12.228,12.1971,12.2802Q12.1449,12.3325,12.0835,12.3735Q12.022,12.4146,11.9538,12.4428Q11.8856,12.4711,11.8131,12.4855Q11.7407,12.4999,11.6668,12.4999L9.000119999999999,12.4999Q8.92625,12.4999,8.8538,12.4855Q8.78135,12.4711,8.71311,12.4428Q8.644860000000001,12.4146,8.58344,12.3735Q8.522020000000001,12.3325,8.46979,12.2802Q8.41756,12.228,8.37652,12.1666Q8.33548,12.1052,8.307210000000001,12.0369Q8.27894,11.9687,8.26453,11.8962Q8.250119999999999,11.8238,8.250119999999999,11.7499Q8.250119999999999,11.6761,8.26453,11.6036Q8.27894,11.5312,8.307210000000001,11.4629Q8.33548,11.3947,8.37652,11.3332Q8.41756,11.2718,8.46979,11.21959Q8.522020000000001,11.16736,8.58344,11.12632Q8.644860000000001,11.08528,8.71311,11.05701Q8.78135,11.02874,8.8538,11.01433Q8.92625,10.99992,9.000119999999999,10.99992Z" fill-rule="evenodd" fill="currentColor" fill-opacity="1"/></g></g></svg>