<svg xmlns="http://www.w3.org/2000/svg" xmlns:xlink="http://www.w3.org/1999/xlink" fill="none" version="1.1" width="1em"
  height="1em" viewBox="0 0 16 16">
  <g>
    <g>
      <rect x="0" y="0" width="16" height="16" rx="2" fill="#F7F7F7" fill-opacity="1" />
      <rect x="0.75" y="0.75" width="14.5" height="14.5" rx="1.25" fill-opacity="0" stroke-opacity="1" stroke="currentColor"
        fill="none" stroke-width="1.5" />
      <g>
        <g></g>
        <g>
          <path
            d="M12.70711,6.20716803515625Q12.84776,6.06651603515625,12.92388,5.88274503515625Q13,5.69897303515625,13,5.50006103515625Q13,5.40156963515625,12.98079,5.30497103515625Q12.96157,5.20837203515625,12.92388,5.11737803515625Q12.88619,5.02638303515625,12.83147,4.94449103515625Q12.77675,4.86259803515625,12.70711,4.79295403515625Q12.63746,4.72331003515625,12.55557,4.66859103515625Q12.47368,4.61387303515625,12.38268,4.57618203515625Q12.29169,4.53849103515625,12.19509,4.51927603515625Q12.09849,4.50006103515625,12,4.50006103515625Q11.80109,4.50006103515625,11.61732,4.5761810351562495Q11.43355,4.65230203515625,11.29289,4.79295403515625L7,9.08585103515625L5.207107,7.29295103515625Q5.066455,7.15230103515625,4.882683,7.0761810351562495Q4.698912,7.00006103515625,4.5,7.00006103515625Q4.4015086,7.00006103515625,4.30491,7.01927103515625Q4.208311,7.03849103515625,4.117317,7.0761810351562495Q4.026322,7.11387103515625,3.94443,7.1685910351562505Q3.862537,7.22331103515625,3.792893,7.29295103515625Q3.723249,7.36260103515625,3.66853,7.4444910351562505Q3.6138120000000002,7.52638103515625,3.576121,7.617381035156249Q3.53843,7.70837103515625,3.519215,7.80497103515625Q3.5,7.90157103515625,3.5,8.00006103515625Q3.5,8.19897103515625,3.57612,8.38274103515625Q3.652241,8.56651103515625,3.792893,8.70717103515625L6.29289,11.20717103515625Q6.36254,11.27681103515625,6.4444300000000005,11.33153103515625Q6.52632,11.38625103515625,6.617319999999999,11.42394103515625Q6.70831,11.46163103515625,6.80491,11.48084103515625Q6.90151,11.50006103515625,7,11.50006103515625Q7.09849,11.50006103515625,7.19509,11.48084103515625Q7.29169,11.46163103515625,7.382680000000001,11.42394103515625Q7.47368,11.38625103515625,7.5555699999999995,11.33153103515625Q7.63746,11.27681103515625,7.70711,11.20717103515625L12.70687,6.20740503515625L12.70711,6.20716803515625L12.70711,6.20716803515625Z"
            fill-rule="evenodd" fill="currentColor" fill-opacity="1" />
        </g>
      </g>
    </g>
  </g>
</svg>