<svg xmlns="http://www.w3.org/2000/svg" xmlns:xlink="http://www.w3.org/1999/xlink" fill="currentColor" version="1.1" width="1em" height="1em" viewBox="0 0 16 16"><g><g></g><g><path d="M5.348503390106201,4.287843390106201L11.712309390106201,10.6516493901062Q11.817799390106202,10.7571393901062,11.874889390106201,10.894969390106201Q11.9319793901062,11.032799390106202,11.9319793901062,11.1819793901062Q11.9319793901062,11.255849390106201,11.917569390106202,11.328299390106201Q11.9031593901062,11.400749390106201,11.874889390106201,11.468989390106202Q11.846619390106202,11.537239390106201,11.805579390106201,11.598659390106201Q11.7645393901062,11.660079390106201,11.712309390106201,11.712309390106201Q11.660079390106201,11.7645393901062,11.598659390106201,11.805579390106201Q11.537239390106201,11.846619390106202,11.468989390106202,11.874889390106201Q11.400749390106201,11.9031593901062,11.328299390106201,11.917569390106202Q11.255849390106201,11.9319793901062,11.1819793901062,11.9319793901062Q11.032799390106202,11.9319793901062,10.894969390106201,11.874889390106201Q10.7571393901062,11.817799390106202,10.6516493901062,11.712309390106201L4.287843390106201,5.348503390106201L4.287689390106201,5.348349390106201Q4.1822003901062015,5.242860390106201,4.125109390106201,5.105032390106201Q4.068019390106201,4.967203390106201,4.068019390106201,4.818019390106201Q4.068019390106201,4.7441508901062015,4.082430390106201,4.671701390106201Q4.096841390106201,4.5992523901062015,4.125109390106201,4.531006390106201Q4.153378390106202,4.462761390106201,4.194417390106201,4.401341390106201Q4.235456390106201,4.339922390106201,4.287689390106201,4.287689390106201Q4.339922390106201,4.235456390106201,4.401341390106201,4.194417390106201Q4.462761390106201,4.153378390106202,4.531006390106201,4.125109390106201Q4.5992523901062015,4.096841390106201,4.671701390106201,4.082430390106201Q4.7441508901062015,4.068019390106201,4.818019390106201,4.068019390106201Q4.967203390106201,4.068019390106201,5.105032390106201,4.125109390106201Q5.242860390106201,4.1822003901062015,5.348349390106201,4.287689390106201L5.348503390106201,4.287843390106201Z" fill-rule="evenodd" fill="currentColor" fill-opacity="1"/></g><g><path d="M11.712309390106201,5.348349390106201Q11.817799390106202,5.242860390106201,11.874889390106201,5.105032390106201Q11.9319793901062,4.967203390106201,11.9319793901062,4.818019390106201Q11.9319793901062,4.7441508901062015,11.917569390106202,4.671701390106201Q11.9031593901062,4.5992523901062015,11.874889390106201,4.531006390106201Q11.846619390106202,4.462761390106201,11.805579390106201,4.401341390106201Q11.7645393901062,4.339922390106201,11.712309390106201,4.287689390106201Q11.660079390106201,4.235456390106201,11.598659390106201,4.194417390106201Q11.537239390106201,4.153378390106202,11.468989390106202,4.125109390106201Q11.400749390106201,4.096841390106201,11.328299390106201,4.082430390106201Q11.255849390106201,4.068019390106201,11.1819793901062,4.068019390106201Q11.032799390106202,4.068019390106201,10.894969390106201,4.125109390106201Q10.7571393901062,4.1822003901062015,10.6516493901062,4.287689390106201L4.287689390106201,10.6516493901062Q4.1822003901062015,10.7571393901062,4.125109390106201,10.894969390106201Q4.068019390106201,11.032799390106202,4.068019390106201,11.1819793901062Q4.068019390106201,11.255849390106201,4.082430390106201,11.328299390106201Q4.096841390106201,11.400749390106201,4.125109390106201,11.468989390106202Q4.153378390106202,11.537239390106201,4.194417390106201,11.598659390106201Q4.235456390106201,11.660079390106201,4.287689390106201,11.712309390106201Q4.339922390106201,11.7645393901062,4.401341390106201,11.805579390106201Q4.462761390106201,11.846619390106202,4.531006390106201,11.874889390106201Q4.5992523901062015,11.9031593901062,4.671701390106201,11.917569390106202Q4.7441508901062015,11.9319793901062,4.818019390106201,11.9319793901062Q4.967203390106201,11.9319793901062,5.105032390106201,11.874889390106201Q5.242860390106201,11.817799390106202,5.348349390106201,11.712309390106201L11.712309390106201,5.348349390106201L11.712309390106201,5.348349390106201Z" fill-rule="evenodd" fill="currentColor" fill-opacity="1"/></g></g></svg>