<svg xmlns="http://www.w3.org/2000/svg" xmlns:xlink="http://www.w3.org/1999/xlink" fill="currentColor" version="1.1" width="1em" height="1em" viewBox="0 0 16 16"><g><g><path d="M6.66667,2.66677298828125Q6.66667,2.7322729882812498,6.66025,2.79746298828125Q6.65383,2.86264298828125,6.64105,2.92689298828125Q6.6282700000000006,2.99113298828125,6.609249999999999,3.05381298828125Q6.59024,3.1164929882812498,6.56517,3.17701298828125Q6.54011,3.23753298828125,6.5092300000000005,3.29529298828125Q6.47835,3.35306298828125,6.44196,3.40753298828125Q6.40557,3.46199298828125,6.36401,3.51262298828125Q6.3224599999999995,3.56326298828125,6.27614,3.60957298828125Q6.22983,3.65589298828125,6.17919,3.69745298828125Q6.12856,3.73900298828125,6.07409,3.77539298828125Q6.019629999999999,3.81178298828125,5.96186,3.84266298828125Q5.90409,3.87354298828125,5.84358,3.89860298828125Q5.78306,3.92367298828125,5.7203800000000005,3.94269298828125Q5.6577,3.96170298828125,5.59345,3.97448298828125Q5.52921,3.98726298828125,5.46402,3.99368298828125Q5.39884,4.000102988281251,5.33333,4.000102988281251Q5.26783,4.000102988281251,5.20264,3.99368298828125Q5.13746,3.98726298828125,5.0732099999999996,3.97448298828125Q5.00897,3.96170298828125,4.946287,3.94269298828125Q4.883605,3.92367298828125,4.8230889999999995,3.89860298828125Q4.7625720000000005,3.87354298828125,4.704804,3.84266298828125Q4.647036,3.81178298828125,4.592573,3.77539298828125Q4.53811,3.73900298828125,4.487476,3.69745298828125Q4.436842,3.65589298828125,4.390524,3.60957298828125Q4.344207,3.56326298828125,4.302653,3.51262298828125Q4.261098,3.46199298828125,4.224707,3.40753298828125Q4.188316,3.35306298828125,4.157438,3.29529298828125Q4.126561,3.23753298828125,4.101494,3.17701298828125Q4.0764272,3.1164929882812498,4.0574129,3.05381298828125Q4.0383985,2.99113298828125,4.0256196,2.92689298828125Q4.0128407,2.86264298828125,4.00642036,2.79746298828125Q4,2.7322729882812498,4,2.66677298828125Q4,2.60126298828125,4.00642036,2.53608298828125Q4.0128407,2.47089298828125,4.0256196,2.40664298828125Q4.0383985,2.34240298828125,4.0574129,2.27972198828125Q4.0764272,2.21703998828125,4.101494,2.15652398828125Q4.126561,2.09600798828125,4.157438,2.03823898828125Q4.188316,1.9804709882812501,4.224707,1.92600798828125Q4.261098,1.87154498828125,4.302653,1.82091098828125Q4.344207,1.7702769882812501,4.390524,1.72395898828125Q4.436842,1.67764198828125,4.487476,1.63608798828125Q4.53811,1.59453298828125,4.592573,1.55814198828125Q4.647036,1.52175098828125,4.704804,1.49087298828125Q4.7625720000000005,1.4599959882812499,4.8230889999999995,1.43492898828125Q4.883605,1.40986228828125,4.946287,1.3908479882812501Q5.00897,1.37183358828125,5.0732099999999996,1.35905468828125Q5.13746,1.34627578828125,5.20264,1.33985541828125Q5.26783,1.33343505828125,5.33333,1.33343505828125Q5.39884,1.33343505828125,5.46402,1.33985541828125Q5.52921,1.34627578828125,5.59345,1.35905468828125Q5.6577,1.37183358828125,5.7203800000000005,1.3908479882812501Q5.78306,1.40986228828125,5.84358,1.43492898828125Q5.90409,1.4599959882812499,5.96186,1.49087298828125Q6.019629999999999,1.52175098828125,6.07409,1.55814198828125Q6.12856,1.59453298828125,6.17919,1.63608798828125Q6.22983,1.67764198828125,6.27614,1.72395898828125Q6.3224599999999995,1.7702769882812501,6.36401,1.82091098828125Q6.40557,1.87154498828125,6.44196,1.92600798828125Q6.47835,1.9804709882812501,6.5092300000000005,2.03823898828125Q6.54011,2.0960069882812498,6.56517,2.15652398828125Q6.59024,2.21703998828125,6.609249999999999,2.27972198828125Q6.6282700000000006,2.34240298828125,6.64105,2.40664298828125Q6.65383,2.47089298828125,6.66025,2.53608298828125Q6.66667,2.60126298828125,6.66667,2.66677298828125ZM6.66667,8.000142988281251Q6.66667,8.065642988281251,6.66025,8.130832988281249Q6.65383,8.19602298828125,6.64105,8.26026298828125Q6.6282700000000006,8.32450298828125,6.609249999999999,8.38719298828125Q6.59024,8.44987298828125,6.56517,8.51038298828125Q6.54011,8.57090298828125,6.5092300000000005,8.628672988281249Q6.47835,8.68644298828125,6.44196,8.740902988281249Q6.40557,8.79536298828125,6.36401,8.84600298828125Q6.3224599999999995,8.896632988281251,6.27614,8.942952988281249Q6.22983,8.98926298828125,6.17919,9.030822988281251Q6.12856,9.07237298828125,6.07409,9.10876298828125Q6.019629999999999,9.14516298828125,5.96186,9.17603298828125Q5.90409,9.20691298828125,5.84358,9.23198298828125Q5.78306,9.257052988281249,5.7203800000000005,9.27606298828125Q5.6577,9.29507298828125,5.59345,9.307852988281251Q5.52921,9.32063298828125,5.46402,9.327052988281249Q5.39884,9.33347298828125,5.33333,9.33347298828125Q5.26783,9.33347298828125,5.20264,9.327052988281249Q5.13746,9.32063298828125,5.0732099999999996,9.307852988281251Q5.00897,9.29507298828125,4.946287,9.27606298828125Q4.883605,9.257052988281249,4.8230889999999995,9.23198298828125Q4.7625720000000005,9.20691298828125,4.704804,9.17603298828125Q4.647036,9.14516298828125,4.592573,9.10876298828125Q4.53811,9.07237298828125,4.487476,9.030822988281251Q4.436842,8.98927298828125,4.390524,8.942952988281249Q4.344207,8.896632988281251,4.302653,8.84600298828125Q4.261098,8.79536298828125,4.224707,8.740902988281249Q4.188316,8.68644298828125,4.157438,8.628672988281249Q4.126561,8.57090298828125,4.101494,8.51038298828125Q4.0764272,8.44987298828125,4.0574129,8.38719298828125Q4.0383985,8.32450298828125,4.0256196,8.26026298828125Q4.0128407,8.19602298828125,4.00642036,8.130832988281249Q4,8.065642988281251,4,8.000142988281251Q4,7.93464298828125,4.00642036,7.86945298828125Q4.0128407,7.80426298828125,4.0256196,7.74002298828125Q4.0383985,7.67577298828125,4.0574129,7.61309298828125Q4.0764272,7.55041298828125,4.101494,7.48989298828125Q4.126561,7.42938298828125,4.157438,7.37161298828125Q4.188316,7.31384298828125,4.224707,7.25938298828125Q4.261098,7.20492298828125,4.302653,7.15428298828125Q4.344207,7.10365298828125,4.390524,7.05733298828125Q4.436842,7.01101298828125,4.487476,6.96946298828125Q4.53811,6.92790298828125,4.592573,6.89151298828125Q4.647036,6.85512298828125,4.704804,6.82424298828125Q4.7625720000000005,6.79337298828125,4.8230889999999995,6.76830298828125Q4.883605,6.74323298828125,4.946287,6.72422298828125Q5.00897,6.70520298828125,5.0732099999999996,6.69243298828125Q5.13746,6.67965298828125,5.20264,6.67323298828125Q5.26783,6.66681298828125,5.33333,6.66681298828125Q5.39884,6.66681298828125,5.46402,6.67323298828125Q5.52921,6.67965298828125,5.59345,6.69243298828125Q5.6577,6.70520298828125,5.7203800000000005,6.72422298828125Q5.78306,6.74323298828125,5.84358,6.76830298828125Q5.90409,6.79337298828125,5.96186,6.82424298828125Q6.019629999999999,6.85512298828125,6.07409,6.89151298828125Q6.12856,6.92790298828125,6.17919,6.96946298828125Q6.22983,7.01101298828125,6.27614,7.05733298828125Q6.3224599999999995,7.10365298828125,6.36401,7.15428298828125Q6.40557,7.20492298828125,6.44196,7.25938298828125Q6.47835,7.31384298828125,6.5092300000000005,7.37161298828125Q6.54011,7.42938298828125,6.56517,7.48989298828125Q6.59024,7.55041298828125,6.609249999999999,7.61309298828125Q6.6282700000000006,7.67577298828125,6.64105,7.74002298828125Q6.65383,7.80426298828125,6.66025,7.86945298828125Q6.66667,7.93464298828125,6.66667,8.000142988281251ZM6.66667,13.33351298828125Q6.66667,13.39901298828125,6.66025,13.46421298828125Q6.65383,13.52941298828125,6.64105,13.59361298828125Q6.6282700000000006,13.65791298828125,6.609249999999999,13.72051298828125Q6.59024,13.78321298828125,6.56517,13.84371298828125Q6.54011,13.90431298828125,6.5092300000000005,13.96201298828125Q6.47835,14.01981298828125,6.44196,14.07431298828125Q6.40557,14.12871298828125,6.36401,14.17941298828125Q6.3224599999999995,14.23001298828125,6.27614,14.27631298828125Q6.22983,14.32261298828125,6.17919,14.36421298828125Q6.12856,14.40571298828125,6.07409,14.44211298828125Q6.019629999999999,14.47851298828125,5.96186,14.50941298828125Q5.90409,14.54031298828125,5.84358,14.56531298828125Q5.78306,14.59041298828125,5.7203800000000005,14.60941298828125Q5.6577,14.62841298828125,5.59345,14.64121298828125Q5.52921,14.65401298828125,5.46402,14.66041298828125Q5.39884,14.66681298828125,5.33333,14.66681298828125Q5.26783,14.66681298828125,5.20264,14.66041298828125Q5.13746,14.65401298828125,5.0732099999999996,14.64121298828125Q5.00897,14.62841298828125,4.946287,14.60941298828125Q4.883605,14.59041298828125,4.8230889999999995,14.56531298828125Q4.7625720000000005,14.54031298828125,4.704804,14.50941298828125Q4.647036,14.47851298828125,4.592573,14.44211298828125Q4.53811,14.40571298828125,4.487476,14.36421298828125Q4.436842,14.32261298828125,4.390524,14.27631298828125Q4.344207,14.23001298828125,4.302653,14.17941298828125Q4.261098,14.12871298828125,4.224707,14.07431298828125Q4.188316,14.01981298828125,4.157438,13.96201298828125Q4.126561,13.90431298828125,4.101494,13.84371298828125Q4.0764272,13.78321298828125,4.0574129,13.72051298828125Q4.0383985,13.65791298828125,4.0256196,13.59361298828125Q4.0128407,13.52941298828125,4.00642036,13.46421298828125Q4,13.39901298828125,4,13.33351298828125Q4,13.26801298828125,4.00642036,13.20281298828125Q4.0128407,13.13761298828125,4.0256196,13.07341298828125Q4.0383985,13.00911298828125,4.0574129,12.94651298828125Q4.0764272,12.88381298828125,4.101494,12.82331298828125Q4.126561,12.76271298828125,4.157438,12.70501298828125Q4.188316,12.64721298828125,4.224707,12.59271298828125Q4.261098,12.53831298828125,4.302653,12.48761298828125Q4.344207,12.43701298828125,4.390524,12.39071298828125Q4.436842,12.34441298828125,4.487476,12.30281298828125Q4.53811,12.26131298828125,4.592573,12.22491298828125Q4.647036,12.18851298828125,4.704804,12.15761298828125Q4.7625720000000005,12.12671298828125,4.8230889999999995,12.10171298828125Q4.883605,12.07661298828125,4.946287,12.05761298828125Q5.00897,12.03861298828125,5.0732099999999996,12.02581298828125Q5.13746,12.01301298828125,5.20264,12.00661298828125Q5.26783,12.00021298828125,5.33333,12.00021298828125Q5.39884,12.00021298828125,5.46402,12.00661298828125Q5.52921,12.01301298828125,5.59345,12.02581298828125Q5.6577,12.03861298828125,5.7203800000000005,12.05761298828125Q5.78306,12.07661298828125,5.84358,12.10171298828125Q5.90409,12.12671298828125,5.96186,12.15761298828125Q6.019629999999999,12.18851298828125,6.07409,12.22491298828125Q6.12856,12.26131298828125,6.17919,12.30281298828125Q6.22983,12.34441298828125,6.27614,12.39071298828125Q6.3224599999999995,12.43701298828125,6.36401,12.48761298828125Q6.40557,12.53831298828125,6.44196,12.59271298828125Q6.47835,12.64721298828125,6.5092300000000005,12.70501298828125Q6.54011,12.76271298828125,6.56517,12.82331298828125Q6.59024,12.88381298828125,6.609249999999999,12.94651298828125Q6.6282700000000006,13.00911298828125,6.64105,13.07341298828125Q6.65383,13.13761298828125,6.66025,13.20281298828125Q6.66667,13.26801298828125,6.66667,13.33351298828125ZM11.99998,2.66677298828125Q11.99998,2.7322729882812498,11.99356,2.79746298828125Q11.98714,2.86264298828125,11.97436,2.92689298828125Q11.96158,2.99113298828125,11.94257,3.05381298828125Q11.923549999999999,3.1164929882812498,11.898489999999999,3.17701298828125Q11.87342,3.23753298828125,11.84254,3.29529298828125Q11.81166,3.35306298828125,11.775269999999999,3.40753298828125Q11.73888,3.46199298828125,11.697330000000001,3.51262298828125Q11.65577,3.56326298828125,11.60946,3.60957298828125Q11.56314,3.65589298828125,11.5125,3.69745298828125Q11.461870000000001,3.73900298828125,11.407409999999999,3.77539298828125Q11.35294,3.81178298828125,11.29518,3.84266298828125Q11.23741,3.87354298828125,11.17689,3.89860298828125Q11.11637,3.92367298828125,11.05369,3.94269298828125Q10.99101,3.96170298828125,10.926770000000001,3.97448298828125Q10.86252,3.98726298828125,10.79734,3.99368298828125Q10.73215,4.000102988281251,10.66665,4.000102988281251Q10.601140000000001,4.000102988281251,10.53596,3.99368298828125Q10.47077,3.98726298828125,10.40653,3.97448298828125Q10.342279999999999,3.96170298828125,10.2796,3.94269298828125Q10.21692,3.92367298828125,10.1564,3.89860298828125Q10.09589,3.87354298828125,10.03812,3.84266298828125Q9.98035,3.81178298828125,9.925889999999999,3.77539298828125Q9.87142,3.73900298828125,9.820789999999999,3.69745298828125Q9.770150000000001,3.65589298828125,9.72384,3.60957298828125Q9.677520000000001,3.56326298828125,9.63597,3.51262298828125Q9.59441,3.46199298828125,9.558019999999999,3.40753298828125Q9.52163,3.35306298828125,9.49075,3.29529298828125Q9.459869999999999,3.23753298828125,9.434809999999999,3.17701298828125Q9.40974,3.1164929882812498,9.39073,3.05381298828125Q9.37171,2.99113298828125,9.35893,2.92689298828125Q9.34615,2.86264298828125,9.33973,2.79746298828125Q9.33331,2.7322729882812498,9.33331,2.66677298828125Q9.33331,2.60126298828125,9.33973,2.53608298828125Q9.34615,2.47089298828125,9.35893,2.40664298828125Q9.37171,2.34240298828125,9.39073,2.27972198828125Q9.40974,2.21703998828125,9.434809999999999,2.15652398828125Q9.459869999999999,2.09600798828125,9.49075,2.03823898828125Q9.52163,1.9804709882812501,9.558019999999999,1.92600798828125Q9.59441,1.87154498828125,9.63597,1.82091098828125Q9.677520000000001,1.7702769882812501,9.72384,1.72395898828125Q9.770150000000001,1.67764198828125,9.820789999999999,1.63608798828125Q9.87142,1.59453298828125,9.925889999999999,1.55814198828125Q9.98035,1.52175098828125,10.03812,1.49087298828125Q10.09589,1.4599959882812499,10.1564,1.43492898828125Q10.21692,1.40986228828125,10.2796,1.3908479882812501Q10.342279999999999,1.37183358828125,10.40653,1.35905468828125Q10.47077,1.34627578828125,10.53596,1.33985541828125Q10.601140000000001,1.33343505828125,10.66665,1.33343505828125Q10.73215,1.33343505828125,10.79734,1.33985541828125Q10.86252,1.34627578828125,10.926770000000001,1.35905468828125Q10.99101,1.37183358828125,11.05369,1.3908479882812501Q11.11637,1.40986228828125,11.17689,1.43492898828125Q11.23741,1.4599959882812499,11.29518,1.49087298828125Q11.35294,1.52175098828125,11.407409999999999,1.55814198828125Q11.461870000000001,1.59453298828125,11.5125,1.63608798828125Q11.56314,1.67764198828125,11.609449999999999,1.72395898828125Q11.65577,1.7702769882812501,11.697330000000001,1.82091098828125Q11.73888,1.87154498828125,11.775269999999999,1.92600798828125Q11.81166,1.9804709882812501,11.84254,2.03823898828125Q11.87342,2.0960069882812498,11.89848,2.15652398828125Q11.923549999999999,2.21703998828125,11.94257,2.27972198828125Q11.96158,2.34240298828125,11.97436,2.40664298828125Q11.98714,2.47089298828125,11.99356,2.53608298828125Q11.99998,2.60126298828125,11.99998,2.66677298828125ZM11.99998,8.000142988281251Q11.99998,8.065642988281251,11.99356,8.130832988281249Q11.98714,8.19602298828125,11.97436,8.26026298828125Q11.96158,8.32450298828125,11.94257,8.38719298828125Q11.923549999999999,8.44987298828125,11.898489999999999,8.51038298828125Q11.87342,8.57090298828125,11.84254,8.628672988281249Q11.81166,8.68644298828125,11.775269999999999,8.740902988281249Q11.73888,8.79536298828125,11.697330000000001,8.84600298828125Q11.65577,8.896632988281251,11.60946,8.942952988281249Q11.56314,8.98926298828125,11.5125,9.030822988281251Q11.461870000000001,9.07237298828125,11.407409999999999,9.10876298828125Q11.35294,9.14516298828125,11.29518,9.17603298828125Q11.23741,9.20691298828125,11.17689,9.23198298828125Q11.11637,9.257052988281249,11.05369,9.27606298828125Q10.99101,9.29507298828125,10.926770000000001,9.307852988281251Q10.86252,9.32063298828125,10.79734,9.327052988281249Q10.73215,9.33347298828125,10.66665,9.33347298828125Q10.601140000000001,9.33347298828125,10.53596,9.327052988281249Q10.47077,9.32063298828125,10.40653,9.307852988281251Q10.342279999999999,9.29507298828125,10.2796,9.27606298828125Q10.21692,9.257052988281249,10.1564,9.23198298828125Q10.09589,9.20691298828125,10.03812,9.17603298828125Q9.98035,9.14516298828125,9.925889999999999,9.10876298828125Q9.87142,9.07237298828125,9.820789999999999,9.030822988281251Q9.770150000000001,8.98927298828125,9.72384,8.942952988281249Q9.677520000000001,8.896632988281251,9.63597,8.84600298828125Q9.59441,8.79536298828125,9.558019999999999,8.740902988281249Q9.52163,8.68644298828125,9.49075,8.628672988281249Q9.459869999999999,8.57090298828125,9.434809999999999,8.51038298828125Q9.40974,8.44987298828125,9.39073,8.38719298828125Q9.37171,8.32450298828125,9.35893,8.26026298828125Q9.34615,8.19602298828125,9.33973,8.130832988281249Q9.33331,8.065642988281251,9.33331,8.000142988281251Q9.33331,7.93464298828125,9.33973,7.86945298828125Q9.34615,7.80426298828125,9.35893,7.74002298828125Q9.37171,7.67577298828125,9.39073,7.61309298828125Q9.40974,7.55041298828125,9.434809999999999,7.48989298828125Q9.459869999999999,7.42938298828125,9.49075,7.37161298828125Q9.52163,7.31384298828125,9.558019999999999,7.25938298828125Q9.59441,7.20492298828125,9.63597,7.15428298828125Q9.677520000000001,7.10365298828125,9.72384,7.05733298828125Q9.770150000000001,7.01101298828125,9.820789999999999,6.96946298828125Q9.87142,6.92790298828125,9.925889999999999,6.89151298828125Q9.98035,6.85512298828125,10.03812,6.82424298828125Q10.09589,6.79337298828125,10.1564,6.76830298828125Q10.21692,6.74323298828125,10.2796,6.72422298828125Q10.342279999999999,6.70520298828125,10.40653,6.69243298828125Q10.47077,6.67965298828125,10.53596,6.67323298828125Q10.601140000000001,6.66681298828125,10.66665,6.66681298828125Q10.73215,6.66681298828125,10.79734,6.67323298828125Q10.86252,6.67965298828125,10.926770000000001,6.69243298828125Q10.99101,6.70520298828125,11.05369,6.72422298828125Q11.11637,6.74323298828125,11.17689,6.76830298828125Q11.23741,6.79337298828125,11.29518,6.82424298828125Q11.35294,6.85512298828125,11.407409999999999,6.89151298828125Q11.461870000000001,6.92790298828125,11.5125,6.96946298828125Q11.56314,7.01101298828125,11.609449999999999,7.05733298828125Q11.65577,7.10365298828125,11.697330000000001,7.15428298828125Q11.73888,7.20492298828125,11.775269999999999,7.25938298828125Q11.81166,7.31384298828125,11.84254,7.37161298828125Q11.87342,7.42938298828125,11.89848,7.48989298828125Q11.923549999999999,7.55041298828125,11.94257,7.61309298828125Q11.96158,7.67577298828125,11.97436,7.74002298828125Q11.98714,7.80426298828125,11.99356,7.86945298828125Q11.99998,7.93464298828125,11.99998,8.000142988281251ZM11.99998,13.33351298828125Q11.99998,13.39901298828125,11.99356,13.46421298828125Q11.98714,13.52941298828125,11.97436,13.59361298828125Q11.96158,13.65791298828125,11.94257,13.72051298828125Q11.923549999999999,13.78321298828125,11.898489999999999,13.84371298828125Q11.87342,13.90431298828125,11.84254,13.96201298828125Q11.81166,14.01981298828125,11.775269999999999,14.07431298828125Q11.73888,14.12871298828125,11.697330000000001,14.17941298828125Q11.65577,14.23001298828125,11.60946,14.27631298828125Q11.56314,14.32261298828125,11.5125,14.36421298828125Q11.461870000000001,14.40571298828125,11.407409999999999,14.44211298828125Q11.35294,14.47851298828125,11.29518,14.50941298828125Q11.23741,14.54031298828125,11.17689,14.56531298828125Q11.11637,14.59041298828125,11.05369,14.60941298828125Q10.99101,14.62841298828125,10.926770000000001,14.64121298828125Q10.86252,14.65401298828125,10.79734,14.66041298828125Q10.73215,14.66681298828125,10.66665,14.66681298828125Q10.601140000000001,14.66681298828125,10.53596,14.66041298828125Q10.47077,14.65401298828125,10.40653,14.64121298828125Q10.342279999999999,14.62841298828125,10.2796,14.60941298828125Q10.21692,14.59041298828125,10.1564,14.56531298828125Q10.09589,14.54031298828125,10.03812,14.50941298828125Q9.98035,14.47851298828125,9.925889999999999,14.44211298828125Q9.87142,14.40571298828125,9.820789999999999,14.36421298828125Q9.770150000000001,14.32261298828125,9.72384,14.27631298828125Q9.677520000000001,14.23001298828125,9.63597,14.17941298828125Q9.59441,14.12871298828125,9.558019999999999,14.07431298828125Q9.52163,14.01981298828125,9.49075,13.96201298828125Q9.459869999999999,13.90431298828125,9.434809999999999,13.84371298828125Q9.40974,13.78321298828125,9.39073,13.72051298828125Q9.37171,13.65791298828125,9.35893,13.59361298828125Q9.34615,13.52941298828125,9.33973,13.46421298828125Q9.33331,13.39901298828125,9.33331,13.33351298828125Q9.33331,13.26801298828125,9.33973,13.20281298828125Q9.34615,13.13761298828125,9.35893,13.07341298828125Q9.37171,13.00911298828125,9.39073,12.94651298828125Q9.40974,12.88381298828125,9.434809999999999,12.82331298828125Q9.459869999999999,12.76271298828125,9.49075,12.70501298828125Q9.52163,12.64721298828125,9.558019999999999,12.59271298828125Q9.59441,12.53831298828125,9.63597,12.48761298828125Q9.677520000000001,12.43701298828125,9.72384,12.39071298828125Q9.770150000000001,12.34441298828125,9.820789999999999,12.30281298828125Q9.87142,12.26131298828125,9.925889999999999,12.22491298828125Q9.98035,12.18851298828125,10.03812,12.15761298828125Q10.09589,12.12671298828125,10.1564,12.10171298828125Q10.21692,12.07661298828125,10.2796,12.05761298828125Q10.342279999999999,12.03861298828125,10.40653,12.02581298828125Q10.47077,12.01301298828125,10.53596,12.00661298828125Q10.601140000000001,12.00021298828125,10.66665,12.00021298828125Q10.73215,12.00021298828125,10.79734,12.00661298828125Q10.86252,12.01301298828125,10.926770000000001,12.02581298828125Q10.99101,12.03861298828125,11.05369,12.05761298828125Q11.11637,12.07661298828125,11.17689,12.10171298828125Q11.23741,12.12671298828125,11.29518,12.15761298828125Q11.35294,12.18851298828125,11.407409999999999,12.22491298828125Q11.461870000000001,12.26131298828125,11.5125,12.30281298828125Q11.56314,12.34441298828125,11.609449999999999,12.39071298828125Q11.65577,12.43701298828125,11.697330000000001,12.48761298828125Q11.73888,12.53831298828125,11.775269999999999,12.59271298828125Q11.81166,12.64721298828125,11.84254,12.70501298828125Q11.87342,12.76271298828125,11.89848,12.82331298828125Q11.923549999999999,12.88381298828125,11.94257,12.94651298828125Q11.96158,13.00911298828125,11.97436,13.07341298828125Q11.98714,13.13761298828125,11.99356,13.20281298828125Q11.99998,13.26801298828125,11.99998,13.33351298828125Z" fill="currentColor" fill-opacity="1"/></g></g></svg>