<svg xmlns="http://www.w3.org/2000/svg" xmlns:xlink="http://www.w3.org/1999/xlink" fill="currentColor" version="1.1" width="1em" height="1em" viewBox="0 0 16 16"><g transform="matrix(-1,0,0,1,32,0)"><g><rect x="16" y="0" width="1em" height="1em" rx="0" fill-opacity="0" stroke-opacity="1" stroke="#595959" fill="currentColor" stroke-width="1em"/></g><g><path d="M24.53031298828125,12.136251953125L24.52992298828125,12.135871953125L20.39397298828125,7.999921953125L24.53031298828125,3.863581953125Q24.63580298828125,3.758091953125,24.69289298828125,3.620261953125Q24.74998298828125,3.482435953125,24.74998298828125,3.333251953125Q24.74998298828125,3.259382953125,24.73557298828125,3.186933953125Q24.72115298828125,3.114484953125,24.69289298828125,3.046238953125Q24.664622988281252,2.977993953125,24.62358298828125,2.916573953125Q24.58254298828125,2.855154953125,24.53031298828125,2.802921953125Q24.478072988281248,2.750688953125,24.41665298828125,2.709649953125Q24.35523298828125,2.668610553125,24.28699298828125,2.640342253125Q24.21874298828125,2.612074053125,24.14629298828125,2.597662953125Q24.07385298828125,2.583251953125,23.99998298828125,2.583251953125Q23.85079298828125,2.583251953125,23.712962988281248,2.640342353125Q23.57514298828125,2.697432953125,23.46965298828125,2.802921953125L18.80298298828125,7.469591953125Q18.75074998828125,7.521821953125,18.709710988281252,7.583241953125Q18.66867158828125,7.644661953125,18.64040338828125,7.712901953125Q18.61213508828125,7.781151953125,18.59772408828125,7.853601953125Q18.58331302319685,7.926051953125,18.58331302319685,7.999921953125Q18.58331302319685,8.073791953125,18.59772408828125,8.146231953125Q18.61213508828125,8.218681953125,18.64040338828125,8.286931953125Q18.66867158828125,8.355171953125,18.709710988281252,8.416591953125Q18.75074998828125,8.478011953125,18.80298298828125,8.530251953125L23.46926298828125,13.196551953125L23.46965298828125,13.196951953125Q23.57514298828125,13.302451953125,23.712962988281248,13.359451953125Q23.85079298828125,13.416551953125,23.99998298828125,13.416551953125Q24.07385298828125,13.416551953125,24.14629298828125,13.402151953125Q24.21874298828125,13.387751953125,24.28699298828125,13.359451953125Q24.35523298828125,13.331251953125,24.41665298828125,13.290151953125Q24.478072988281248,13.249151953125,24.53031298828125,13.196951953125Q24.58254298828125,13.144651953125,24.62358298828125,13.083251953125Q24.664622988281252,13.021851953125,24.69289298828125,12.953551953125Q24.72115298828125,12.885351953125,24.73557298828125,12.812951953125Q24.74998298828125,12.740451953125,24.74998298828125,12.666551953125Q24.74998298828125,12.517401953125,24.69289298828125,12.379571953125Q24.63580298828125,12.241741953125,24.53031298828125,12.136251953125ZM28.86371298828125,12.136251953125L28.86331298828125,12.135871953125L24.72734298828125,7.999921953125L28.86371298828125,3.863581953125Q28.96921298828125,3.758091953125,29.02621298828125,3.620261953125Q29.08331298828125,3.482435953125,29.08331298828125,3.333251953125Q29.08331298828125,3.259382953125,29.068912988281248,3.186933953125Q29.05451298828125,3.114484953125,29.02621298828125,3.046238953125Q28.99801298828125,2.977993953125,28.95691298828125,2.916573953125Q28.91591298828125,2.855154953125,28.86371298828125,2.802921953125Q28.811412988281248,2.750688953125,28.75001298828125,2.709649953125Q28.68861298828125,2.668610553125,28.620412988281252,2.640342253125Q28.552122988281248,2.612074053125,28.47967298828125,2.597662953125Q28.407222988281248,2.583251953125,28.33335298828125,2.583251953125Q28.18417298828125,2.583251953125,28.04634298828125,2.640342353125Q27.908512988281252,2.697432953125,27.80302298828125,2.802921953125L23.13635298828125,7.469591953125Q23.08412298828125,7.521821953125,23.04308298828125,7.583241953125Q23.00204298828125,7.644661953125,22.97377298828125,7.712901953125Q22.94551298828125,7.781151953125,22.93109298828125,7.853601953125Q22.916682988281252,7.926051953125,22.916682988281252,7.999921953125Q22.916682988281252,8.073791953125,22.93109298828125,8.146231953125Q22.94551298828125,8.218681953125,22.97377298828125,8.286931953125Q23.00204298828125,8.355171953125,23.04308298828125,8.416591953125Q23.08412298828125,8.478011953125,23.13635298828125,8.530251953125L27.80263298828125,13.196551953125L27.80302298828125,13.196951953125Q27.908512988281252,13.302451953125,28.04634298828125,13.359451953125Q28.18417298828125,13.416551953125,28.33335298828125,13.416551953125Q28.407222988281248,13.416551953125,28.47967298828125,13.402151953125Q28.552122988281248,13.387751953125,28.620412988281252,13.359451953125Q28.68861298828125,13.331251953125,28.75001298828125,13.290151953125Q28.811412988281248,13.249151953125,28.86371298828125,13.196951953125Q28.91591298828125,13.144651953125,28.95691298828125,13.083251953125Q28.99801298828125,13.021851953125,29.02621298828125,12.953551953125Q29.05451298828125,12.885351953125,29.068912988281248,12.812951953125Q29.08331298828125,12.740451953125,29.08331298828125,12.666551953125Q29.08331298828125,12.517401953125,29.026312988281248,12.379571953125Q28.96921298828125,12.241741953125,28.86371298828125,12.136251953125Z" fill-rule="evenodd" fill="currentColor" fill-opacity="1"/></g></g></svg>