<svg xmlns="http://www.w3.org/2000/svg" xmlns:xlink="http://www.w3.org/1999/xlink" fill="currentColor" version="1.1" width="1em" height="1em" viewBox="0 0 16 16"><g><g></g><g><path d="M2.7661191006469728,4.549861300735474L2.0000391006469727,4.549861300735474Q1.9261701006469727,4.549861300735474,1.8537211006469727,4.535451300735474Q1.7812721006469725,4.521041300735474,1.7130261006469727,4.492771300735473Q1.6447811006469726,4.464501300735474,1.5833611006469726,4.4234613007354735Q1.5219421006469727,4.382421300735474,1.4697091006469727,4.330191300735473Q1.4174761006469727,4.277961300735473,1.3764371006469727,4.216541300735473Q1.3353977006469726,4.155121300735473,1.3071294006469727,4.086871300735474Q1.2788612006469726,4.018631300735473,1.2644501006469726,3.9461813007354736Q1.2500391006469727,3.8737313007354737,1.2500391006469727,3.799861300735474Q1.2500391006469727,3.7259913007354735,1.2644501006469726,3.6535413007354736Q1.2788612006469726,3.5810913007354737,1.3071294006469727,3.512851300735474Q1.3353977006469726,3.4446013007354734,1.3764371006469727,3.383181300735474Q1.4174761006469727,3.321761300735474,1.4697091006469727,3.2695313007354736Q1.5219421006469727,3.217301300735474,1.5833611006469726,3.1762613007354736Q1.6447811006469726,3.1352213007354734,1.7130261006469727,3.1069513007354734Q1.7812721006469725,3.0786813007354734,1.8537211006469727,3.0642713007354736Q1.9261701006469727,3.049861300735474,2.0000391006469727,3.049861300735474L5.155899100646973,3.049861300735474L5.9290491006469725,1.6394463007354736Q5.977519100646973,1.5510083007354736,6.047639100646973,1.4785183007354736Q6.117759100646973,1.4060273007354736,6.204539100646973,1.3546363007354736Q6.291319100646973,1.3032440007354735,6.388589100646973,1.2766016007354737Q6.485859100646973,1.2499592897354737,6.586719100646973,1.2499592897354737L9.433149100646972,1.2499592307354737Q9.534809100646973,1.2499592307354737,9.632809100646973,1.2770247007354736Q9.730809100646972,1.3040902007354735,9.818059100646973,1.3562683007354737Q9.905319100646972,1.4084453007354736,9.975529100646973,1.4819693007354737Q10.045749100646972,1.5554933007354736,10.093859100646972,1.6450563007354737L10.848449100646972,3.049861300735474L14.000039100646973,3.049861300735474Q14.073939100646973,3.049861300735474,14.146339100646973,3.0642713007354736Q14.218839100646973,3.0786813007354734,14.287039100646973,3.1069513007354734Q14.355339100646972,3.1352213007354734,14.416739100646973,3.1762613007354736Q14.478139100646972,3.217301300735474,14.530339100646973,3.2695313007354736Q14.582639100646972,3.321761300735474,14.623639100646972,3.383181300735474Q14.664639100646973,3.4446013007354734,14.692939100646973,3.512851300735474Q14.721239100646972,3.5810913007354737,14.735639100646972,3.6535413007354736Q14.750039100646973,3.7259913007354735,14.750039100646973,3.799861300735474Q14.750039100646973,3.8737313007354737,14.735639100646972,3.9461813007354736Q14.721239100646972,4.018631300735473,14.692939100646973,4.086871300735474Q14.664639100646973,4.155121300735473,14.623639100646972,4.216541300735473Q14.582639100646972,4.277961300735473,14.530339100646973,4.330191300735473Q14.478139100646972,4.382421300735474,14.416739100646973,4.4234613007354735Q14.355339100646972,4.464501300735474,14.287039100646973,4.492771300735473Q14.218839100646973,4.521041300735474,14.146339100646973,4.535451300735474Q14.073939100646973,4.549861300735474,14.000039100646973,4.549861300735474L13.233939100646973,4.549861300735474Q13.250039100646973,4.671601300735474,13.250039100646973,4.800011300735473L13.250039100646973,12.999981300735474Q13.250039100646973,13.724881300735474,12.737439100646972,14.237481300735473Q12.224939100646973,14.749981300735474,11.500039100646973,14.749981300735474L4.500039100646973,14.749981300735474Q3.7751691006469725,14.749981300735474,3.262599100646973,14.237481300735473Q2.7500391006469727,13.724881300735474,2.7500391006469727,12.999981300735474L2.7500391006469727,4.800011300735473Q2.7500391006469727,4.671601300735474,2.7661191006469728,4.549861300735474ZM9.145749100646974,3.049861300735474L6.866489100646973,3.049861300735474L7.030879100646973,2.7499613007354737L8.984659100646972,2.7499613007354737L9.145749100646974,3.049861300735474ZM11.500039100646973,4.550011300735473L4.500039100646973,4.550011300735473Q4.250039100646973,4.550011300735473,4.250039100646973,4.800011300735473L4.250039100646973,12.999981300735474Q4.250039100646973,13.249981300735474,4.500039100646973,13.249981300735474L11.500039100646973,13.249981300735474Q11.750039100646973,13.249981300735474,11.750039100646973,12.999981300735474L11.750039100646973,4.800011300735473Q11.750039100646973,4.550011300735473,11.500039100646973,4.550011300735473ZM6.800059100646973,6.050011300735473Q6.726199100646973,6.050011300735473,6.653749100646973,6.064421300735473Q6.581299100646973,6.078831300735474,6.513049100646973,6.107101300735474Q6.444809100646973,6.1353613007354735,6.383389100646973,6.176401300735473Q6.321969100646973,6.217441300735474,6.269729100646972,6.269681300735473Q6.217499100646973,6.321911300735474,6.176459100646973,6.383331300735474Q6.135419100646972,6.444751300735474,6.107149100646972,6.512991300735473Q6.078889100646973,6.581241300735473,6.064479100646973,6.653691300735473Q6.050059100646973,6.726141300735474,6.050059100646973,6.800011300735473L6.050059100646973,10.700011300735474Q6.050059100646973,10.773881300735473,6.064479100646973,10.846321300735474Q6.078889100646973,10.918771300735473,6.107149100646972,10.987021300735474Q6.135419100646972,11.055261300735474,6.176459100646973,11.116681300735474Q6.217499100646973,11.178101300735474,6.269729100646972,11.230341300735473Q6.321969100646973,11.282581300735474,6.383389100646973,11.323581300735473Q6.444809100646973,11.364681300735473,6.513049100646973,11.392881300735473Q6.581299100646973,11.421181300735473,6.653749100646973,11.435581300735473Q6.726199100646973,11.449981300735473,6.800059100646973,11.449981300735473Q6.873929100646973,11.449981300735473,6.946379100646973,11.435581300735473Q7.018829100646973,11.421181300735473,7.087079100646973,11.392881300735473Q7.155319100646973,11.364681300735473,7.216739100646973,11.323581300735473Q7.278159100646973,11.282581300735474,7.330389100646973,11.230341300735473Q7.382629100646973,11.178101300735474,7.423669100646973,11.116681300735474Q7.464699100646973,11.055261300735474,7.492969100646973,10.987021300735474Q7.521239100646973,10.918771300735473,7.535649100646973,10.846321300735474Q7.550059100646973,10.773881300735473,7.550059100646973,10.700011300735474L7.550059100646973,6.800011300735473Q7.550059100646973,6.726141300735474,7.535649100646973,6.653691300735473Q7.521239100646973,6.581241300735473,7.492969100646973,6.512991300735473Q7.464699100646973,6.444751300735474,7.423669100646973,6.383331300735474Q7.382629100646973,6.321911300735474,7.330389100646973,6.269681300735473Q7.278159100646973,6.217441300735474,7.216739100646973,6.176401300735473Q7.155319100646973,6.1353613007354735,7.087079100646973,6.107101300735474Q7.018829100646973,6.078831300735474,6.946379100646973,6.064421300735473Q6.873929100646973,6.050011300735473,6.800059100646973,6.050011300735473ZM9.200089100646974,6.050011300735473Q9.126219100646972,6.050011300735473,9.053769100646972,6.064421300735473Q8.981319100646973,6.078831300735474,8.913079100646971,6.107101300735474Q8.844829100646972,6.1353613007354735,8.783409100646972,6.176401300735473Q8.721989100646972,6.217441300735474,8.669759100646973,6.269681300735473Q8.617519100646973,6.321911300735474,8.576489100646974,6.383331300735474Q8.535449100646971,6.444751300735474,8.507179100646972,6.512991300735473Q8.478909100646973,6.581241300735473,8.464499100646972,6.653691300735473Q8.450089100646974,6.726141300735474,8.450089100646974,6.800011300735473L8.450089100646974,10.700011300735474Q8.450089100646974,10.773881300735473,8.464499100646972,10.846321300735474Q8.478909100646973,10.918771300735473,8.507179100646972,10.987021300735474Q8.535449100646971,11.055261300735474,8.576489100646974,11.116681300735474Q8.617519100646973,11.178101300735474,8.669759100646973,11.230341300735473Q8.721989100646972,11.282581300735474,8.783409100646972,11.323581300735473Q8.844829100646972,11.364681300735473,8.913079100646971,11.392881300735473Q8.981319100646973,11.421181300735473,9.053769100646972,11.435581300735473Q9.126219100646972,11.449981300735473,9.200089100646974,11.449981300735473Q9.273959100646973,11.449981300735473,9.346409100646973,11.435581300735473Q9.418849100646973,11.421181300735473,9.487099100646972,11.392881300735473Q9.555349100646973,11.364681300735473,9.616769100646973,11.323581300735473Q9.678179100646974,11.282581300735474,9.730419100646973,11.230341300735473Q9.782649100646973,11.178101300735474,9.823689100646973,11.116681300735474Q9.864729100646972,11.055261300735474,9.892999100646973,10.987021300735474Q9.921259100646973,10.918771300735473,9.935679100646972,10.846321300735474Q9.950089100646972,10.773881300735473,9.950089100646972,10.700011300735474L9.950089100646972,6.800011300735473Q9.950089100646972,6.726141300735474,9.935679100646972,6.653691300735473Q9.921259100646973,6.581241300735473,9.892999100646973,6.512991300735473Q9.864729100646972,6.444751300735474,9.823689100646973,6.383331300735474Q9.782649100646973,6.321911300735474,9.730419100646973,6.269681300735473Q9.678179100646974,6.217441300735474,9.616769100646973,6.176401300735473Q9.555349100646973,6.1353613007354735,9.487099100646972,6.107101300735474Q9.418849100646973,6.078831300735474,9.346409100646973,6.064421300735473Q9.273959100646973,6.050011300735473,9.200089100646974,6.050011300735473Z" fill-rule="evenodd" fill="currentColor" fill-opacity="1"/></g></g></svg>