<svg xmlns="http://www.w3.org/2000/svg" xmlns:xlink="http://www.w3.org/1999/xlink" fill="currentColor" version="1.1" width="1em" height="1em" viewBox="0 0 16 16"><g><g></g><g><path d="M2.0000391006469727,13.166629705238343L14.000039100646973,13.166629705238343Q14.073939100646973,13.166629705238343,14.146339100646973,13.181029705238343Q14.218839100646973,13.195429705238343,14.287039100646973,13.223729705238343Q14.355339100646972,13.252029705238343,14.416739100646973,13.293029705238343Q14.478139100646972,13.334029705238342,14.530339100646973,13.386329705238342Q14.582639100646972,13.438529705238341,14.623639100646972,13.499929705238342Q14.664639100646973,13.561329705238343,14.692939100646973,13.629629705238342Q14.721239100646972,13.697829705238343,14.735639100646972,13.770329705238343Q14.750039100646973,13.842729705238343,14.750039100646973,13.916629705238343Q14.750039100646973,13.990529705238343,14.735639100646972,14.062929705238343Q14.721239100646972,14.135429705238343,14.692939100646973,14.203629705238342Q14.664639100646973,14.271929705238342,14.623639100646972,14.333329705238341Q14.582639100646972,14.394729705238342,14.530339100646973,14.446929705238341Q14.478139100646972,14.499229705238342,14.416739100646973,14.540229705238342Q14.355339100646972,14.581229705238343,14.287039100646973,14.609529705238343Q14.218839100646973,14.637829705238342,14.146339100646973,14.652229705238343Q14.073939100646973,14.666629705238343,14.000039100646973,14.666629705238343L2.0000391006469727,14.666629705238343Q1.9261701006469727,14.666629705238343,1.8537211006469727,14.652229705238343Q1.7812721006469725,14.637829705238342,1.7130261006469727,14.609529705238343Q1.6447811006469726,14.581229705238343,1.5833611006469726,14.540229705238342Q1.5219421006469727,14.499229705238342,1.4697091006469727,14.446929705238341Q1.4174761006469727,14.394729705238342,1.3764371006469727,14.333329705238341Q1.3353977006469726,14.271929705238342,1.3071294006469727,14.203629705238342Q1.2788612006469726,14.135429705238343,1.2644501006469726,14.062929705238343Q1.2500391006469727,13.990529705238343,1.2500391006469727,13.916629705238343Q1.2500391006469727,13.842729705238343,1.2644501006469726,13.770329705238343Q1.2788612006469726,13.697829705238343,1.3071294006469727,13.629629705238342Q1.3353977006469726,13.561329705238343,1.3764371006469727,13.499929705238342Q1.4174761006469727,13.438529705238341,1.4697091006469727,13.386329705238342Q1.5219421006469727,13.334029705238342,1.5833611006469726,13.293029705238343Q1.6447811006469726,13.252029705238343,1.7130261006469727,13.223729705238343Q1.7812721006469725,13.195429705238343,1.8537211006469727,13.181029705238343Q1.9261701006469727,13.166629705238343,2.0000391006469727,13.166629705238343ZM9.701569100646973,1.3862617052383424L9.701129100646973,1.3866957052383424L2.8027691006469726,8.293329705238342Q2.6974191006469725,8.398799705238343,2.6404191006469726,8.536539705238344Q2.5834091006469726,8.674269705238341,2.5834091006469726,8.823339705238343L2.5834091006469726,11.250029705238342Q2.5834091006469726,11.323929705238342,2.597819100646973,11.396329705238342Q2.6122391006469727,11.468829705238342,2.6404991006469727,11.537029705238343Q2.6687691006469727,11.605329705238342,2.7098091006469724,11.666729705238343Q2.7508491006469726,11.728129705238342,2.803079100646973,11.780329705238342Q2.8553191006469727,11.832629705238343,2.9167391006469727,11.873629705238342Q2.9781591006469728,11.914729705238342,3.0463991006469726,11.942929705238342Q3.1146491006469725,11.971229705238342,3.1870991006469724,11.985629705238342Q3.259549100646973,12.000029705238342,3.3334091006469726,12.000029705238342L5.772479100646972,12.000029705238342Q5.921709100646972,12.000029705238342,6.059569100646972,11.942929705238342Q6.197429100646973,11.885829705238342,6.302929100646972,11.780229705238343L13.197239100646973,4.882949705238342Q13.249439100646972,4.830719705238343,13.290439100646973,4.769319705238342Q13.331439100646973,4.707909705238342,13.359639100646973,4.6396797052383425Q13.387939100646973,4.571449705238342,13.402339100646973,4.499019705238343Q13.416739100646973,4.426589705238342,13.416739100646973,4.352739705238342Q13.416739100646973,4.278889705238342,13.402339100646973,4.206459705238342Q13.387939100646973,4.134029705238342,13.359639100646973,4.0657997052383426Q13.331439100646973,3.9975697052383423,13.290439100646973,3.9361697052383424Q13.249439100646972,3.8747597052383425,13.197239100646973,3.8225297052383422L10.762229100646973,1.3864937052383424Q10.656759100646973,1.2809817052383423,10.518939100646973,1.2238609052383422Q10.381129100646973,1.1667404131383423,10.231939100646972,1.1667077542383424Q10.082759100646973,1.1666750382383422,9.944919100646972,1.2237352052383423Q9.807079100646973,1.2807957052383423,9.701569100646973,1.3862617052383424ZM10.231979100646972,2.9777997052383425L4.083409100646973,9.133739705238343L4.083409100646973,10.500039705238342L5.461719100646973,10.500039705238342L11.606339100646972,4.352739705238342L10.231979100646972,2.9777997052383425Z" fill-rule="evenodd" fill="currentColor" fill-opacity="1"/></g></g></svg>