<svg xmlns="http://www.w3.org/2000/svg" xmlns:xlink="http://www.w3.org/1999/xlink" fill="currentColor" version="1.1" width="1em" height="1em" viewBox="0 0 16 16"><g><g><path d="M10.56084298828125,5.140498046875L8.67132298828125,1.333325046875Q8.63848298828125,1.267157046875,8.59336298828125,1.208668046875Q8.54825298828125,1.150178046875,8.492592988281249,1.1016150468750001Q8.43692298828125,1.0530510468749998,8.37286298828125,1.016279046875Q8.308792988281251,0.979507046875,8.23879298828125,0.955941046875Q8.16878298828125,0.932374046875,8.09552298828125,0.922918046875Q8.022252988281249,0.913462046875,7.94856298828125,0.918481046875Q7.87486298828125,0.923499046875,7.80356298828125,0.942799046875Q7.73225298828125,0.962098046875,7.66609298828125,0.994938046875Q7.55516298828125,1.049991046875,7.46782298828125,1.137782046875Q7.38048298828125,1.2255730468750001,7.32600298828125,1.336781046875L5.46248298828125,5.140518046875L1.22568398828125,5.754878046875Q1.07804398828125,5.776288046875,0.94983498828125,5.852568046875Q0.82162598828125,5.928848046875,0.73236698828125,6.048378046875Q0.64310798828125,6.167918046875,0.60638798828125,6.312508046875Q0.56966698828125,6.457108046875,0.59107598828125,6.604748046875Q0.60879598828125,6.726948046875,0.66475698828125,6.837018046875Q0.72071798828125,6.947088046875,0.80901198828125,7.033408046875L3.87910298828125,10.034858046875L3.14611298828125,14.203548046875Q3.1333229882812503,14.276248046875,3.13496298828125,14.350148046875Q3.13661298828125,14.423948046875,3.1526329882812503,14.496048046875Q3.16865298828125,14.568248046875,3.1984429882812497,14.635848046875Q3.2282229882812503,14.703448046875,3.27062298828125,14.763848046875Q3.31302298828125,14.824348046875,3.36640298828125,14.875448046875Q3.41979298828125,14.926448046875,3.48210298828125,14.966148046875Q3.54442298828125,15.005848046875,3.61328298828125,15.032548046875Q3.68214298828125,15.059248046875,3.75489298828125,15.072048046875Q3.87862298828125,15.093848046875,4.00268298828125,15.074048046875Q4.12675298828125,15.054348046875,4.23760298828125,14.995248046875L7.99955298828125,12.989748046875L11.76231298828125,14.995248046875Q11.82751298828125,15.030048046875,11.89821298828125,15.051348046875Q11.96891298828125,15.072748046875,12.04251298828125,15.079848046875Q12.11601298828125,15.087048046875,12.18951298828125,15.079748046875Q12.26301298828125,15.072348046875,12.33371298828125,15.050848046875Q12.40431298828125,15.029348046875,12.46941298828125,14.994448046875Q12.53451298828125,14.959548046875,12.59161298828125,14.912648046875Q12.64861298828125,14.865648046875,12.69541298828125,14.808548046875Q12.74221298828125,14.751348046875,12.77701298828125,14.686148046875Q12.83591298828125,14.575548046875,12.85571298828125,14.451748046875Q12.87551298828125,14.327948046875,12.85391298828125,14.204448046875L12.12621298828125,10.034868046875L15.19141298828125,7.032948046875Q15.24421298828125,6.981268046875,15.28591298828125,6.920278046875Q15.32751298828125,6.859288046875,15.35651298828125,6.791338046875Q15.38551298828125,6.723398046875,15.40071298828125,6.651098046875Q15.41581298828125,6.578808046875,15.41661298828125,6.504938046875Q15.41741298828125,6.431078046875,15.40371298828125,6.358478046875Q15.39011298828125,6.285888046875,15.36251298828125,6.217348046875Q15.33491298828125,6.148808046875,15.29451298828125,6.086968046875Q15.25421298828125,6.025118046875,15.20251298828125,5.972348046875Q15.11631298828125,5.884358046875,15.00651298828125,5.828548046875Q14.89671298828125,5.772738046875,14.77491298828125,5.754968046875L10.56084298828125,5.140498046875ZM8.00387298828125,3.3625680468750003L9.39193298828125,6.159368046875Q9.43236298828125,6.240828046875,9.49109298828125,6.310268046875Q9.54981298828125,6.379708046875,9.62343298828125,6.433098046875Q9.69705298828125,6.486478046875,9.78129298828125,6.520728046875Q9.86554298828125,6.554978046875,9.95553298828125,6.568098046875L13.06001298828125,7.020778046875L10.79474298828125,9.239278046875Q10.72955298828125,9.303128046874999,10.68156298828125,9.380748046875Q10.63358298828125,9.458378046875,10.60561298828125,9.545238046875Q10.57764298828125,9.632098046875,10.57131298828125,9.723138046875Q10.56499298828125,9.814168046875,10.58068298828125,9.904068046875L11.11213298828125,12.948948046875L8.35228298828125,11.477958046875Q8.270842988281249,11.434548046875,8.18130298828125,11.412178046875Q8.09176298828125,11.389808046875,7.99948298828125,11.389818046875Q7.90719298828125,11.389818046875,7.81766298828125,11.412198046875Q7.72812298828125,11.434578046875,7.64668298828125,11.477988046875L4.88995298828125,12.947648046875L5.42494298828125,9.904998046875Q5.44078298828125,9.814918046875,5.43451298828125,9.723678046875Q5.42824298828125,9.632438046875,5.40022298828125,9.545378046875001Q5.37221298828125,9.458318046875,5.32409298828125,9.380538046875Q5.27598298828125,9.302758046874999,5.21058298828125,9.238828046875L2.94264298828125,7.021598046875L6.06947298828125,6.568188046875Q6.16003298828125,6.555058046875,6.24477298828125,6.520538046875Q6.32952298828125,6.486018046875,6.40347298828125,6.432138046875Q6.47743298828125,6.378258046875,6.53627298828125,6.308168046875Q6.59510298828125,6.238088046875,6.63536298828125,6.155918046875L8.00387298828125,3.3625680468750003Z" fill-rule="evenodd" fill="currentColor" fill-opacity="1"/></g></g></svg>