<svg xmlns="http://www.w3.org/2000/svg" xmlns:xlink="http://www.w3.org/1999/xlink" fill="currentColor" version="1.1" width="1em" height="1em" viewBox="0 0 16 16"><g><g></g><g><path d="M14.9858,1.428627Q14.8841,1.342144,14.7588,1.2960720000000001Q14.6335,1.25,14.5,1.25L1.5,1.25Q1.4261314999999999,1.25,1.353682,1.264411Q1.281233,1.278822,1.212987,1.30709Q1.144742,1.335359,1.083322,1.376398Q1.021903,1.417437,0.96967,1.46967Q0.917437,1.521903,0.876398,1.583322Q0.835359,1.644742,0.80709,1.712987Q0.778822,1.781233,0.764411,1.853682Q0.75,1.9261314999999999,0.75,2Q0.75,2.133508,0.796072,2.2588150000000002Q0.842144,2.384122,0.928627,2.485832L5.95,8.39132L5.95,12.7071Q5.95,12.8117,5.97866,12.9124Q6.00732,13.0131,6.06244,13.102Q6.11757,13.191,6.19495,13.2615Q6.27233,13.332,6.36605,13.3786L8.96605,14.6715Q9.03219,14.7044,9.103480000000001,14.7238Q9.17476,14.7431,9.24846,14.7482Q9.32215,14.7533,9.39542,14.7439Q9.468689999999999,14.7345,9.53872,14.711Q9.60874,14.6875,9.67284,14.6508Q9.73693,14.614,9.79263,14.5655Q9.84833,14.517,9.89349,14.4585Q9.93866,14.4001,9.97155,14.334Q10.05,14.1762,10.05,14L10.05,8.39132L15.0714,2.485832Q15.1192,2.429557,15.1552,2.365028Q15.1911,2.300499,15.2138,2.230196Q15.2365,2.159892,15.245,2.0865171Q15.2535,2.0131417,15.2476,1.9395137Q15.2416,1.865886,15.2214,1.794835Q15.2012,1.723784,15.1675,1.65804Q15.1338,1.592297,15.088,1.534387Q15.0421,1.476477,14.9858,1.428627ZM12.8778,2.75L3.12219,2.75L7.27137,7.62973Q7.35786,7.73144,7.40393,7.85675Q7.45,7.98206,7.45,8.11556L7.45,12.2424L8.55,12.7894L8.55,8.11556Q8.55,7.98206,8.596070000000001,7.85675Q8.642140000000001,7.73144,8.728629999999999,7.62973L12.8778,2.75Z" fill-rule="evenodd" fill="currentColor" fill-opacity="1"/></g></g></svg>