<svg xmlns="http://www.w3.org/2000/svg" xmlns:xlink="http://www.w3.org/1999/xlink" fill="currentColor" version="1.1" width="1em" height="1em" viewBox="0 0 24 24"><g transform="matrix(-1,0,0,1,48,0)"><g transform="matrix(0,1,1,0,27.375,-27.375)"><path d="M33.155484,4.719824L33.15533,4.71967Q33.049841,4.614181,32.912013,4.55709Q32.774184,4.5,32.625,4.5Q32.475816,4.5,32.337987,4.55709Q32.200159,4.614181,32.09467,4.71967Q31.989181,4.825159,31.93209,4.962987Q31.875,5.100816,31.875,5.25Q31.875,5.399184,31.93209,5.537013Q31.989181,5.674841,32.09467,5.78033L32.094824,5.7804839999999995L38.84467,12.53033Q38.8969,12.58256,38.95832,12.6236Q39.01974,12.66464,39.08799,12.692910000000001Q39.15623,12.72118,39.22868,12.73559Q39.30113,12.75,39.375,12.75Q39.44887,12.75,39.52132,12.73559Q39.59377,12.72118,39.66201,12.692910000000001Q39.73026,12.66464,39.79168,12.6236Q39.8531,12.58256,39.90533,12.53033L46.6549,5.780792L46.6553,5.78033Q46.7608,5.674841,46.8179,5.537013Q46.875,5.399184,46.875,5.25Q46.875,5.100816,46.8179,4.962987Q46.7608,4.825159,46.6553,4.71967Q46.6519,4.716238,46.6484,4.7128499999999995Q46.5434,4.610495,46.4075,4.555247Q46.271699999999996,4.5,46.125,4.5Q46.0912,4.5,46.0576,4.5030339999999995Q45.9264,4.51487,45.8071,4.570699Q45.687799999999996,4.626529,45.5947,4.71967L45.5942,4.7201319999999996L39.375,10.93934L33.155484,4.719824Z" fill-rule="evenodd" fill="currentColor" fill-opacity="1"/></g></g></svg>