<svg xmlns="http://www.w3.org/2000/svg" xmlns:xlink="http://www.w3.org/1999/xlink" fill="currentColor" version="1.1" width="1em" height="1em" viewBox="0 0 16 16"><g transform="matrix(-1,0,0,1,32,0)"><g><rect x="16" y="0" width="1em" height="1em" rx="0" fill-opacity="0" stroke-opacity="1"  fill="currentColor" stroke-width="1em"/></g><g transform="matrix(0,1,-1,0,29.75,-22.75)"><path d="M26.780484,2.969824L26.78033,2.96967Q26.674841,2.864181,26.537013,2.80709Q26.399184,2.75,26.25,2.75Q26.100816,2.75,25.962987,2.80709Q25.825159,2.864181,25.71967,2.96967Q25.614181,3.075159,25.55709,3.212987Q25.5,3.350816,25.5,3.5Q25.5,3.649184,25.55709,3.787013Q25.614181,3.924841,25.71967,4.03033L25.719824,4.0304839999999995L30.21967,8.53033Q30.2719,8.58256,30.33332,8.6236Q30.39474,8.66464,30.462989999999998,8.692910000000001Q30.53123,8.72118,30.60368,8.73559Q30.67613,8.75,30.75,8.75Q30.82387,8.75,30.89632,8.73559Q30.96877,8.72118,31.037010000000002,8.692910000000001Q31.10526,8.66464,31.16668,8.6236Q31.2281,8.58256,31.28033,8.53033L35.77987,4.030792L35.78033,4.03033Q35.88582,3.924841,35.94291,3.787013Q36,3.649184,36,3.5Q36,3.350816,35.94291,3.212987Q35.88582,3.075159,35.78033,2.96967Q35.7769,2.966237,35.77342,2.96285Q35.66838,2.8604950000000002,35.53252,2.805247Q35.39666,2.75,35.25,2.75Q35.10082,2.75,34.96299,2.80709Q34.82516,2.864181,34.71967,2.96967L34.719210000000004,2.970132L30.75,6.93934L26.780484,2.969824Z" fill-rule="evenodd" fill="currentColor" fill-opacity="1"/></g></g></svg>