<svg xmlns="http://www.w3.org/2000/svg" xmlns:xlink="http://www.w3.org/1999/xlink" fill="currentColor" version="1.1" width="1em" height="1em" viewBox="0 0 16 16"><g><g><path d="M8.000003373069763,13.75024413175583Q7.586713373069763,13.75024413175583,7.2563733730697635,13.995344131755829Q6.931243373069763,14.23654413175583,6.808983373069763,14.618944131755828Q6.786783373069763,14.688444131755828,6.751613373069763,14.752344131755828Q6.7164433730697635,14.816144131755829,6.669633373069763,14.872144131755828Q6.622813373069763,14.92804413175583,6.566113373069763,14.973844131755829Q6.509403373069763,15.019644131755829,6.444923373069763,15.05374413175583Q6.380453373069763,15.087844131755828,6.310623373069763,15.108844131755829Q6.240793373069764,15.12984413175583,6.168223373069763,15.136944131755829Q6.095653373069763,15.144144131755828,6.023063373069763,15.137144131755829Q5.950483373069763,15.130244131755829,5.880593373069763,15.10944413175583Q4.013403373069764,14.553544131755828,2.6555533730697634,13.142544131755828Q2.607733373069763,13.092844131755829,2.569773373069763,13.035244131755828Q2.5318233730697632,12.977744131755829,2.505003373069763,12.91414413175583Q2.478183373069763,12.850644131755828,2.4633933730697635,12.78324413175583Q2.4486133730697635,12.71594413175583,2.446353373069763,12.647044131755829Q2.444103373069763,12.57804413175583,2.454453373069763,12.509944131755828Q2.464813373069763,12.44174413175583,2.4874233730697632,12.376544131755828Q2.5100333730697635,12.31144413175583,2.544153373069763,12.251444131755829Q2.5782633730697633,12.19154413175583,2.6227433730697634,12.138844131755828Q2.9166633730697633,11.790444131755828,2.9166633730697633,11.33354413175583Q2.9166633730697633,10.815764131755829,2.5505533730697634,10.449644131755829Q2.184433373069763,10.08353413175583,1.666663373069763,10.08353413175583Q1.6041533730697632,10.08353413175583,1.5420063730697633,10.08963413175583Q1.4733783730697632,10.096384131755828,1.404671373069763,10.090494131755829Q1.3359643730697632,10.08461413175583,1.2694813730697632,10.066294131755829Q1.2029993730697632,10.047984131755829,1.140971373069763,10.01785413175583Q1.0789423730697631,9.98772413175583,1.0234483730697632,9.946794131755828Q0.9679543730697632,9.905854131755829,0.9208553730697632,9.855484131755828Q0.8737563730697632,9.805114131755829,0.8366303730697632,9.747004131755828Q0.7995053730697632,9.688894131755829,0.7735993730697632,9.624984131755829Q0.7476933730697632,9.561084131755829,0.7338753730697631,9.493524131755828Q0.5833333730697632,8.757494131755829,0.5833333730697632,8.00019413175583Q0.5833333730697632,6.856814131755828,0.9230653730697631,5.775244131755829Q0.9409933730697632,5.718164131755829,0.9677423730697632,5.664654131755829Q0.9944913730697632,5.611144131755829,1.029385373069763,5.562554131755829Q1.0642783730697631,5.5139541317558285,1.1064343730697632,5.471504131755829Q1.148590373069763,5.429054131755829,1.196942373069763,5.393824131755829Q1.2452943730697632,5.358604131755829,1.298619373069763,5.331484131755829Q1.3519443730697631,5.304364131755829,1.4088943730697632,5.286044131755829Q1.465843373069763,5.267714131755829,1.5249773730697633,5.258654131755829Q1.5841133730697632,5.249594131755829,1.6439333730697632,5.250014131755829L1.6720033730697632,5.250214131755829Q2.184433373069763,5.250194131755829,2.5505533730697634,4.884084131755829Q2.9166633730697633,4.517964131755829,2.9166633730697633,4.000194131755829Q2.9166633730697633,3.7077941317558287,2.788843373069763,3.4485041317558287Q2.7622533730697634,3.394584131755829,2.744603373069763,3.337114131755829Q2.726943373069763,3.2796541317558288,2.718673373069763,3.220104131755829Q2.7103933730697634,3.160564131755829,2.711713373069763,3.100454131755829Q2.7130333730697633,3.0403541317558287,2.723903373069763,2.981224131755829Q2.734773373069763,2.922104131755829,2.7549233730697633,2.8654641317558287Q2.775073373069763,2.808824131755829,2.8039933730697633,2.7561141317558286Q2.832913373069763,2.703414131755829,2.869853373069763,2.6559841317558286Q2.906793373069763,2.608554131755829,2.9508233730697633,2.5676141317558288Q4.278573373069763,1.3330291317558287,6.017273373069763,0.8517268317558289Q6.079283373069763,0.8345636317558288,6.143303373069763,0.8282102717558288Q6.207323373069763,0.8218569517558288,6.2714833730697634,0.8264991817558288Q6.335653373069763,0.8311414017558288,6.398093373069763,0.8466435317558288Q6.460523373069763,0.8621456317558288,6.519413373069763,0.8880548317558289Q6.5783033730697635,0.9139639317558288,6.6319133730697635,0.9495231317558288Q6.685523373069763,0.9850821317558288,6.7323033730697635,1.029252131755829Q6.779073373069763,1.073423131755829,6.817643373069763,1.1249131317558287Q6.856213373069763,1.176404131755829,6.885443373069763,1.233711131755829Q7.233973373069763,1.9168741317558289,8.000003373069763,1.9168741317558289Q8.766023373069762,1.9168741317558289,9.114553373069763,1.233711131755829Q9.143793373069764,1.176404131755829,9.182353373069763,1.1249131317558287Q9.220923373069763,1.073423131755829,9.267703373069763,1.029252131755829Q9.314473373069763,0.9850821317558288,9.368093373069764,0.9495231317558288Q9.421703373069763,0.9139639317558288,9.480583373069763,0.8880548317558289Q9.539473373069763,0.8621457317558289,9.601913373069763,0.8466436317558289Q9.664353373069764,0.8311414617558288,9.728513373069763,0.8264992517558288Q9.792683373069764,0.8218570317558288,9.856703373069763,0.8282103717558289Q9.920723373069762,0.8345637317558289,9.982723373069764,0.8517269317558288Q11.721433373069763,1.3330291317558287,13.049133373069763,2.5676141317558288Q13.093233373069763,2.608554131755829,13.130133373069762,2.6559841317558286Q13.167133373069763,2.703414131755829,13.196033373069763,2.7561141317558286Q13.224933373069764,2.808824131755829,13.245033373069763,2.8654641317558287Q13.265233373069764,2.922104131755829,13.276133373069763,2.981224131755829Q13.286933373069763,3.0403541317558287,13.288333373069763,3.100454131755829Q13.289633373069764,3.1605541317558288,13.281333373069764,3.220104131755829Q13.273033373069763,3.2796441317558287,13.255433373069764,3.337114131755829Q13.237733373069764,3.394584131755829,13.211133373069764,3.4485041317558287Q13.083333373069763,3.7077941317558287,13.083333373069763,4.000194131755829Q13.083333373069763,4.517964131755829,13.449433373069763,4.884084131755829Q13.815533373069764,5.250194131755829,14.333333373069763,5.250194131755829L14.356033373069764,5.250014131755829Q14.415933373069763,5.249594131755829,14.475033373069763,5.258654131755829Q14.534133373069762,5.267714131755829,14.591133373069763,5.286044131755829Q14.648033373069763,5.304364131755829,14.701333373069764,5.331484131755829Q14.754733373069763,5.358604131755829,14.803033373069763,5.3938341317558285Q14.851433373069764,5.429064131755829,14.893533373069763,5.471504131755829Q14.935733373069763,5.5139541317558285,14.970633373069763,5.562554131755829Q15.005533373069763,5.611144131755829,15.032233373069763,5.664664131755829Q15.059033373069763,5.718174131755829,15.076933373069764,5.775254131755829Q15.416633373069763,6.856854131755829,15.416633373069763,8.00019413175583Q15.416633373069763,8.757474131755828,15.266133373069763,9.493514131755829Q15.252333373069764,9.561074131755829,15.226433373069764,9.624984131755829Q15.200533373069764,9.688894131755829,15.163333373069763,9.747004131755828Q15.126233373069763,9.805114131755829,15.079133373069762,9.855484131755828Q15.032033373069764,9.905854131755829,14.976533373069763,9.946794131755828Q14.921033373069763,9.98772413175583,14.859033373069764,10.01785413175583Q14.797033373069763,10.047984131755829,14.730533373069763,10.066304131755828Q14.664033373069763,10.08461413175583,14.595333373069764,10.090494131755829Q14.526633373069764,10.096384131755828,14.458033373069764,10.08963413175583Q14.395833373069763,10.08353413175583,14.333333373069763,10.08353413175583Q13.815533373069764,10.08353413175583,13.449433373069763,10.449644131755829Q13.083333373069763,10.815764131755829,13.083333373069763,11.33354413175583Q13.083333373069763,11.790444131755828,13.377233373069764,12.138844131755828Q13.421733373069763,12.19154413175583,13.455833373069764,12.251444131755829Q13.489933373069762,12.31144413175583,13.512533373069763,12.376544131755828Q13.535133373069764,12.44174413175583,13.545533373069762,12.509944131755828Q13.555933373069763,12.57804413175583,13.553633373069763,12.647044131755829Q13.551333373069763,12.71594413175583,13.536633373069764,12.78324413175583Q13.521833373069763,12.850644131755828,13.495033373069763,12.91414413175583Q13.468133373069763,12.977744131755829,13.430233373069763,13.035244131755828Q13.392233373069763,13.092844131755829,13.344433373069764,13.142544131755828Q11.986633373069763,14.553544131755828,10.119413373069763,15.10944413175583Q10.049523373069762,15.130244131755829,9.976933373069762,15.137144131755829Q9.904343373069763,15.144144131755828,9.831783373069763,15.136944131755829Q9.759213373069763,15.12984413175583,9.689383373069763,15.108844131755829Q9.619553373069763,15.087844131755828,9.555073373069764,15.05374413175583Q9.490603373069764,15.019644131755829,9.433893373069763,14.973844131755829Q9.377183373069764,14.92804413175583,9.330373373069763,14.872144131755828Q9.283553373069763,14.816144131755829,9.248383373069764,14.752344131755828Q9.213223373069763,14.688444131755828,9.191013373069763,14.618944131755828Q9.068763373069762,14.23654413175583,8.743633373069763,13.995344131755829Q8.413283373069763,13.75024413175583,8.000003373069763,13.75024413175583ZM8.000003373069763,12.25024413175583Q8.908983373069763,12.25024413175583,9.637423373069764,12.79064413175583Q10.026703373069763,13.07954413175583,10.283733373069763,13.461744131755829Q11.135933373069763,13.108344131755828,11.839433373069763,12.503844131755828Q11.583333373069763,11.965744131755828,11.583333373069763,11.33354413175583Q11.583333373069763,10.194444131755828,12.388833373069764,9.388984131755828Q13.030933373069763,8.746874131755828,13.885033373069763,8.61665413175583Q13.916633373069763,8.31081413175583,13.916633373069763,8.00019413175583Q13.916633373069763,7.335364131755829,13.773133373069763,6.697644131755829Q12.988533373069764,6.5444541317558285,12.388833373069764,5.9447441317558285Q11.583333373069763,5.139284131755828,11.583333373069763,4.000194131755829Q11.583333373069763,3.665734131755829,11.659933373069762,3.350034131755829Q10.941233373069764,2.7803941317558287,10.086793373069764,2.4608841317558285Q9.818753373069763,2.7732641317558286,9.456603373069763,2.9997441317558287Q8.789553373069763,3.416874131755829,8.000003373069763,3.416874131755829Q7.210443373069763,3.416874131755829,6.543403373069763,2.9997441317558287Q6.181243373069763,2.7732641317558286,5.913203373069763,2.4608841317558285Q5.058803373069763,2.7803941317558287,4.340023373069763,3.350034131755829Q4.416663373069763,3.665734131755829,4.416663373069763,4.000194131755829Q4.416663373069763,5.139284131755828,3.6112133730697633,5.9447441317558285Q3.012673373069763,6.543274131755829,2.226963373069763,6.697024131755829Q2.083333373069763,7.335024131755829,2.083333373069763,8.00019413175583Q2.083333373069763,8.31082413175583,2.1149533730697634,8.61665413175583Q2.969093373069763,8.746874131755828,3.6112133730697633,9.388984131755828Q4.416663373069763,10.194444131755828,4.416663373069763,11.33354413175583Q4.416663373069763,11.965744131755828,4.160583373069763,12.503844131755828Q4.864063373069763,13.108344131755828,5.716273373069763,13.461744131755829Q5.973303373069763,13.07954413175583,6.362583373069763,12.79064413175583Q7.091013373069763,12.25024413175583,8.000003373069763,12.25024413175583ZM4.916703373069764,8.00016413175583Q4.916703373069764,6.723004131755829,5.819793373069763,5.819914131755829Q6.722883373069763,4.916834131755829,8.000043373069763,4.916834131755829Q9.277203373069764,4.916834131755829,10.180293373069762,5.819914131755829Q11.083333373069763,6.723004131755829,11.083333373069763,8.00016413175583Q11.083333373069763,9.27732413175583,10.180283373069763,10.180414131755828Q9.277203373069764,11.08354413175583,8.000043373069763,11.08354413175583Q6.722883373069763,11.08354413175583,5.819793373069763,10.180414131755828Q4.916703373069764,9.27732413175583,4.916703373069764,8.00016413175583ZM6.416703373069764,8.00016413175583Q6.416703373069764,8.656004131755829,6.880453373069763,9.11975413175583Q7.344203373069763,9.58349413175583,8.000043373069763,9.58349413175583Q8.655883373069763,9.58349413175583,9.119623373069762,9.11975413175583Q9.583373373069763,8.656004131755829,9.583373373069763,8.00016413175583Q9.583373373069763,7.344324131755829,9.119623373069762,6.880574131755829Q8.655883373069763,6.416834131755829,8.000043373069763,6.416834131755829Q7.344203373069763,6.416834131755829,6.880453373069763,6.880574131755829Q6.416703373069764,7.344324131755829,6.416703373069764,8.00016413175583Z" fill-rule="evenodd" fill="currentColor" fill-opacity="1"/></g></g></svg>