<svg xmlns="http://www.w3.org/2000/svg" xmlns:xlink="http://www.w3.org/1999/xlink" fill="currentColor" version="1.1" width="1em" height="1em" viewBox="0 0 16 16"><g><g><path d="M1.33331298828125,6.749918953125L14.66661298828125,6.749918953125L14.66661298828125,6.748251953125Q14.73211298828125,6.748251953125,14.79641298828125,6.735473953125Q14.86061298828125,6.722695953125,14.92111298828125,6.697631953125Q14.98161298828125,6.672566953125,15.03611298828125,6.636178953125Q15.09051298828125,6.599790953125,15.13691298828125,6.553477953125Q15.18321298828125,6.507164953125,15.21961298828125,6.452705953125Q15.25591298828125,6.398247953125,15.28101298828125,6.337735953125Q15.30611298828125,6.277224953125,15.31891298828125,6.212986953125Q15.33161298828125,6.148748953125,15.33161298828125,6.083251953125Q15.33161298828125,6.017754953125,15.31891298828125,5.953516953125Q15.30611298828125,5.889278553125,15.28101298828125,5.828767473125Q15.25591298828125,5.768256353125,15.21961298828125,5.713797953125Q15.18321298828125,5.659338953125,15.13691298828125,5.613025953125Q15.09051298828125,5.566712953125,15.03611298828125,5.530324953125Q14.98161298828125,5.493936953125,14.92111298828125,5.468871953125Q14.86061298828125,5.443807953125,14.79641298828125,5.431029953125Q14.73211298828125,5.418251953125,14.66661298828125,5.418251953125L14.66661298828125,5.416584953125L1.33331298828125,5.416584953125L1.33331298828125,5.418251953125Q1.26781618828125,5.418251953125,1.20357798828125,5.431029953125Q1.13933998828125,5.443807953125,1.07882898828125,5.468871953125Q1.01831698828125,5.493936953125,0.96385898828125,5.530324953125Q0.90939998828125,5.566712953125,0.86308698828125,5.613025953125Q0.81677398828125,5.659338953125,0.78038598828125,5.713797953125Q0.74399798828125,5.768256353125,0.71893298828125,5.828767473125Q0.69386898828125,5.889278653125,0.68109098828125,5.953516953125Q0.66831298828125,6.017754953125,0.66831298828125,6.083251953125Q0.66831298828125,6.148748953125,0.68109098828125,6.212986953125Q0.69386898828125,6.277224953125,0.71893298828125,6.337735953125Q0.74399798828125,6.398247953125,0.78038598828125,6.452705953125Q0.81677398828125,6.507164953125,0.86308698828125,6.553477953125Q0.90939998828125,6.599790953125,0.96385898828125,6.636178953125Q1.01831698828125,6.672566953125,1.07882898828125,6.697631953125Q1.13933998828125,6.722695953125,1.20357798828125,6.735473953125Q1.26781618828125,6.748251953125,1.33331298828125,6.748251953125L1.33331298828125,6.749918953125Z" fill-rule="evenodd" fill="currentColor" fill-opacity="1"/></g><g><path d="M5.25002001171875,14L5.25002001171875,6L6.58335401171875,6L6.58335401171875,14L5.25002001171875,14Z" fill-rule="evenodd" fill="currentColor" fill-opacity="1"/></g><g><path d="M9.583333,14L9.583333,6L10.916667,6L10.916667,14L9.583333,14Z" fill-rule="evenodd" fill="currentColor" fill-opacity="1"/></g><g><path d="M1.33331298828125,10.749918953125L14.66661298828125,10.749918953125L14.66661298828125,10.748251953125Q14.73211298828125,10.748251953125,14.79641298828125,10.735473953125Q14.86061298828125,10.722695953125,14.92111298828125,10.697631953125Q14.98161298828125,10.672566953125,15.03611298828125,10.636178953125Q15.09051298828125,10.599790953125,15.13691298828125,10.553477953125Q15.18321298828125,10.507164953125,15.21961298828125,10.452705953125Q15.25591298828125,10.398247953125,15.28101298828125,10.337735953125Q15.30611298828125,10.277224953125,15.31891298828125,10.212986953125Q15.33161298828125,10.148748953125,15.33161298828125,10.083251953125Q15.33161298828125,10.017754953125,15.31891298828125,9.953516953125Q15.30611298828125,9.889278553125,15.28101298828125,9.828767473125Q15.25591298828125,9.768256353125,15.21961298828125,9.713797953125Q15.18321298828125,9.659338953125,15.13691298828125,9.613025953125Q15.09051298828125,9.566712953125,15.03611298828125,9.530324953125Q14.98161298828125,9.493936953125,14.92111298828125,9.468871953125Q14.86061298828125,9.443807953125,14.79641298828125,9.431029953125Q14.73211298828125,9.418251953125,14.66661298828125,9.418251953125L14.66661298828125,9.416584953125L1.33331298828125,9.416584953125L1.33331298828125,9.418251953125Q1.26781618828125,9.418251953125,1.20357798828125,9.431029953125Q1.13933998828125,9.443807953125,1.07882898828125,9.468871953125Q1.01831698828125,9.493936953125,0.96385898828125,9.530324953125Q0.90939998828125,9.566712953125,0.86308698828125,9.613025953125Q0.81677398828125,9.659338953125,0.78038598828125,9.713797953125Q0.74399798828125,9.768256353125,0.71893298828125,9.828767473125Q0.69386898828125,9.889278653125,0.68109098828125,9.953516953125Q0.66831298828125,10.017754953125,0.66831298828125,10.083251953125Q0.66831298828125,10.148748953125,0.68109098828125,10.212986953125Q0.69386898828125,10.277224953125,0.71893298828125,10.337735953125Q0.74399798828125,10.398247953125,0.78038598828125,10.452705953125Q0.81677398828125,10.507164953125,0.86308698828125,10.553477953125Q0.90939998828125,10.599790953125,0.96385898828125,10.636178953125Q1.01831698828125,10.672566953125,1.07882898828125,10.697631953125Q1.13933998828125,10.722695953125,1.20357798828125,10.735473953125Q1.26781618828125,10.748251953125,1.33331298828125,10.748251953125L1.33331298828125,10.749918953125Z" fill-rule="evenodd" fill="currentColor" fill-opacity="1"/></g><g><rect x="1.33331298828125" y="2" width="1em" height="1em" rx="1" fill-opacity="0" stroke-opacity="1" stroke="#595959" fill="currentColor" stroke-width="1em"/></g></g></svg>