<svg xmlns="http://www.w3.org/2000/svg" xmlns:xlink="http://www.w3.org/1999/xlink" fill="currentColor" version="1.1" width="1em" height="1em" viewBox="0 0 16 16"><defs><clipPath id="master_svg0_3_09352"><rect x="0" y="0" width="1em" height="1em" rx="0"/></clipPath></defs><g clip-path="url(#master_svg0_3_09352)"><g><path d="M14.75,13.33333L14.75,10Q14.75,9.9261315,14.7356,9.853682Q14.7212,9.781233,14.6929,9.712987Q14.6646,9.644742,14.6236,9.583322Q14.5826,9.521903,14.5303,9.46967Q14.4781,9.417437,14.4167,9.376398Q14.3553,9.335359,14.287,9.30709Q14.2188,9.278822,14.1463,9.264410999999999Q14.0739,9.25,14,9.25Q13.9261,9.25,13.8537,9.264410999999999Q13.7812,9.278822,13.713,9.30709Q13.6447,9.335359,13.5833,9.376398Q13.5219,9.417437,13.4697,9.46967Q13.4174,9.521903,13.3764,9.583322Q13.3354,9.644742,13.3071,9.712987Q13.2788,9.781233,13.2644,9.853682Q13.25,9.9261315,13.25,10L13.25,13.25L2.75,13.25L2.75,10.00274658Q2.75,9.928878,2.735589,9.856429Q2.721178,9.78398,2.69291,9.715734Q2.664641,9.647488,2.623602,9.586069Q2.582563,9.52465,2.53033,9.472417Q2.478097,9.420184,2.416678,9.379144Q2.355258,9.338105,2.287013,9.309837Q2.218767,9.281569,2.146318,9.267158Q2.0738685,9.252747,2,9.252747Q1.9261314999999999,9.252747,1.853682,9.267158Q1.781233,9.281569,1.712987,9.309837Q1.644742,9.338105,1.583322,9.379144Q1.521903,9.420184,1.46967,9.472417Q1.417437,9.52465,1.376398,9.586069Q1.335359,9.647488,1.30709,9.715734Q1.278822,9.78398,1.264411,9.856429Q1.25,9.928878,1.25,10.00274658L1.25,13.33333Q1.25,13.92014,1.664932,14.33507Q2.0798644,14.75,2.666667,14.75L13.3333,14.75Q13.9201,14.75,14.3351,14.33507Q14.75,13.92014,14.75,13.33333Z" fill-rule="evenodd" fill="currentColor" fill-opacity="1"/></g><g><path d="M5.5304839999999995,7.136572046875L5.53033,7.136418046875Q5.424841,7.030929046875,5.287013,6.973838046875Q5.149184,6.916748046875,5,6.916748046875Q4.850816,6.916748046875,4.712987,6.973838046875Q4.575159,7.030929046875,4.46967,7.136418046875Q4.364181,7.241907046875,4.30709,7.379735046875Q4.25,7.517564046875,4.25,7.666748046875Q4.25,7.815932046875,4.30709,7.953761046875Q4.364181,8.091589046875,4.46967,8.197078046875L4.469824,8.197232046875L7.46967,11.197078046875Q7.5219000000000005,11.249308046875,7.5833200000000005,11.290348046875Q7.6447400000000005,11.331388046875,7.71299,11.359658046875Q7.78123,11.387928046875,7.853680000000001,11.402338046875Q7.926130000000001,11.416748046875,8,11.416748046875Q8.07387,11.416748046875,8.14632,11.402338046875Q8.21877,11.387928046875,8.28701,11.359658046875Q8.35526,11.331388046875,8.41668,11.290348046875Q8.4781,11.249308046875,8.53033,11.197078046875L11.53033,8.197078046875L11.53076,8.196649046875Q11.533760000000001,8.193643046875,11.53673,8.190604046875L11.53715,8.190169046875Q11.63951,8.085129046875,11.694749999999999,7.949270046875Q11.75,7.813411046875,11.75,7.666748046875Q11.75,7.517564046875,11.692910000000001,7.379735046875Q11.635819999999999,7.241907046875,11.53033,7.136418046875Q11.42484,7.030929046875,11.28701,6.973838046875Q11.149180000000001,6.916748046875,11,6.916748046875Q10.850819999999999,6.916748046875,10.71299,6.973838046875Q10.57516,7.030929046875,10.46967,7.136418046875L8,9.606088046875L5.5304839999999995,7.136572046875Z" fill-rule="evenodd" fill="currentColor" fill-opacity="1"/></g><g><path d="M7.2471923828125,2L7.2471923828125,10.66667Q7.2471923828125,10.74053,7.2616033828125,10.81298Q7.2760143828125,10.88543,7.3042823828125,10.95368Q7.3325513828125,11.02192,7.3735903828125,11.08334Q7.4146293828125,11.14476,7.4668623828125,11.197Q7.5190953828125,11.24923,7.5805143828125,11.29027Q7.6419343828125,11.33131,7.7101793828125,11.35958Q7.7784253828125,11.38784,7.8508743828125,11.40226Q7.9233238828125,11.41667,7.9971923828125,11.41667Q8.0710608828125,11.41667,8.1435103828125,11.40226Q8.2159593828125,11.38784,8.2842053828125,11.35958Q8.3524503828125,11.33131,8.4138703828125,11.29027Q8.4752893828125,11.24923,8.5275223828125,11.197Q8.5797553828125,11.14476,8.6207943828125,11.08334Q8.6618333828125,11.02192,8.6901023828125,10.95368Q8.7183703828125,10.88543,8.732781382812501,10.81298Q8.7471923828125,10.74053,8.7471923828125,10.66667L8.7471923828125,2Q8.7471923828125,1.9261314999999999,8.732781382812501,1.853682Q8.7183703828125,1.781233,8.6901023828125,1.712987Q8.6618333828125,1.644742,8.6207943828125,1.583322Q8.5797553828125,1.521903,8.5275223828125,1.46967Q8.4752893828125,1.417437,8.4138703828125,1.376398Q8.3524503828125,1.335359,8.2842053828125,1.30709Q8.2159593828125,1.278822,8.1435103828125,1.264411Q8.0710608828125,1.25,7.9971923828125,1.25Q7.9233238828125,1.25,7.8508743828125,1.264411Q7.7784253828125,1.278822,7.7101793828125,1.30709Q7.6419343828125,1.335359,7.5805143828125,1.376398Q7.5190953828125,1.417437,7.4668623828125,1.46967Q7.4146293828125,1.521903,7.3735903828125,1.583322Q7.3325513828125,1.644742,7.3042823828125,1.712987Q7.2760143828125,1.781233,7.2616033828125,1.853682Q7.2471923828125,1.9261314999999999,7.2471923828125,2Z" fill-rule="evenodd" fill="currentColor" fill-opacity="1"/></g></g></svg>