<svg xmlns="http://www.w3.org/2000/svg" xmlns:xlink="http://www.w3.org/1999/xlink" fill="currentColor" version="1.1" width="1em" height="1em" viewBox="0 0 32 32"><defs><clipPath id="master_svg0_144_8853"><rect x="6" y="6" width="1em" height="1em" rx="0"/></clipPath></defs><g><g clip-path="url(#master_svg0_144_8853)"><g><path d="M17.25,15.5L22.25,15.5Q22.32387,15.5,22.39632,15.48559Q22.46877,15.47118,22.537010000000002,15.442910000000001Q22.60526,15.41464,22.66668,15.3736Q22.7281,15.33256,22.78033,15.28033Q22.83256,15.228100000000001,22.8736,15.16668Q22.91464,15.105260000000001,22.94291,15.03701Q22.97118,14.96877,22.985590000000002,14.89632Q23,14.82387,23,14.75Q23,14.67613,22.985590000000002,14.60368Q22.97118,14.53123,22.94291,14.46299Q22.91464,14.394739999999999,22.8736,14.33332Q22.83256,14.271899999999999,22.78033,14.21967Q22.7281,14.16744,22.66668,14.1264Q22.60526,14.08536,22.537010000000002,14.057089999999999Q22.46877,14.02882,22.39632,14.01441Q22.32387,14,22.25,14L18,14L18,9.75Q18,9.6761315,17.985589,9.603682Q17.971178,9.531233,17.94291,9.462987Q17.914641,9.394742,17.873601999999998,9.333322Q17.832563,9.271903,17.78033,9.21967Q17.728096999999998,9.167437,17.666678,9.126398Q17.605258,9.085359,17.537013,9.05709Q17.468767,9.028822,17.396318,9.014410999999999Q17.3238685,9,17.25,9Q17.1761315,9,17.103682,9.014410999999999Q17.031233,9.028822,16.962987,9.05709Q16.894742,9.085359,16.833322,9.126398Q16.771903000000002,9.167437,16.71967,9.21967Q16.667437,9.271903,16.626398000000002,9.333322Q16.585359,9.394742,16.55709,9.462987Q16.528822,9.531233,16.514411,9.603682Q16.5,9.6761315,16.5,9.75L16.5,14.75Q16.5,14.82387,16.514411,14.89632Q16.528822,14.96877,16.55709,15.03701Q16.585359,15.105260000000001,16.626398000000002,15.16668Q16.667437,15.228100000000001,16.71967,15.28033Q16.771903000000002,15.33256,16.833322,15.3736Q16.894742,15.41464,16.962987,15.442910000000001Q17.031233,15.47118,17.103682,15.48559Q17.1761315,15.5,17.25,15.5Z" fill-rule="evenodd" fill="currentColor" fill-opacity="1"/></g><g><path d="M14.75,16.5L9.75,16.5Q9.6761315,16.5,9.603682,16.514411Q9.531233,16.528822,9.462987,16.55709Q9.394742,16.585359,9.333322,16.626398000000002Q9.271903,16.667437,9.21967,16.71967Q9.167437,16.771903000000002,9.126398,16.833322Q9.085359,16.894742,9.05709,16.962987Q9.028822,17.031233,9.014410999999999,17.103682Q9,17.1761315,9,17.25Q9,17.3238685,9.014410999999999,17.396318Q9.028822,17.468767,9.05709,17.537013Q9.085359,17.605258,9.126398,17.666678Q9.167437,17.728096999999998,9.21967,17.78033Q9.271903,17.832563,9.333322,17.873601999999998Q9.394742,17.914641,9.462987,17.94291Q9.531233,17.971178,9.603682,17.985589Q9.6761315,18,9.75,18L14,18L14,22.25Q14,22.32387,14.01441,22.39632Q14.02882,22.46877,14.057089999999999,22.537010000000002Q14.08536,22.60526,14.1264,22.66668Q14.16744,22.7281,14.21967,22.78033Q14.271899999999999,22.83256,14.33332,22.8736Q14.394739999999999,22.91464,14.46299,22.94291Q14.53123,22.97118,14.60368,22.985590000000002Q14.67613,23,14.75,23Q14.82387,23,14.89632,22.985590000000002Q14.96877,22.97118,15.03701,22.94291Q15.105260000000001,22.91464,15.16668,22.8736Q15.228100000000001,22.83256,15.28033,22.78033Q15.33256,22.7281,15.3736,22.66668Q15.41464,22.60526,15.442910000000001,22.537010000000002Q15.47118,22.46877,15.48559,22.39632Q15.5,22.32387,15.5,22.25L15.5,17.25Q15.5,17.1761315,15.48559,17.103682Q15.47118,17.031233,15.442910000000001,16.962987Q15.41464,16.894742,15.3736,16.833322Q15.33256,16.771903000000002,15.28033,16.71967Q15.228100000000001,16.667437,15.16668,16.626398000000002Q15.105260000000001,16.585359,15.03701,16.55709Q14.96877,16.528822,14.89632,16.514411Q14.82387,16.5,14.75,16.5Z" fill-rule="evenodd" fill="currentColor" fill-opacity="1"/></g><g><path d="M24.03033,9.03033L24.03076,9.029901Q24.03376,9.026895,24.03673,9.023856L24.03715,9.023421Q24.13951,8.918381,24.19475,8.782522Q24.25,8.646663,24.25,8.5Q24.25,8.350816,24.19291,8.212987Q24.13582,8.075159,24.03033,7.96967Q23.92484,7.864181,23.787010000000002,7.80709Q23.64918,7.75,23.5,7.75Q23.35082,7.75,23.212989999999998,7.80709Q23.07516,7.864181,22.96967,7.96967L16.71967,14.21967Q16.614181,14.32516,16.55709,14.46299Q16.5,14.600819999999999,16.5,14.75Q16.5,14.899180000000001,16.55709,15.03701Q16.614181,15.17484,16.71967,15.28033Q16.825159,15.385819999999999,16.962987,15.442910000000001Q17.100816,15.5,17.25,15.5Q17.399184,15.5,17.537013,15.442910000000001Q17.674841,15.385819999999999,17.78033,15.28033L24.03033,9.03033Z" fill-rule="evenodd" fill="currentColor" fill-opacity="1"/></g><g><path d="M15.28033,17.78033L15.28076,17.779901Q15.283760000000001,17.776895,15.28673,17.773856L15.28715,17.773421Q15.38951,17.668381,15.444749999999999,17.532522Q15.5,17.396663,15.5,17.25Q15.5,17.100816,15.442910000000001,16.962987Q15.385819999999999,16.825159,15.28033,16.71967Q15.17484,16.614181,15.03701,16.55709Q14.899180000000001,16.5,14.75,16.5Q14.600819999999999,16.5,14.46299,16.55709Q14.32516,16.614181,14.21967,16.71967L7.96967,22.96967Q7.864181,23.07516,7.80709,23.212989999999998Q7.75,23.35082,7.75,23.5Q7.75,23.64918,7.80709,23.787010000000002Q7.864181,23.92484,7.96967,24.03033Q8.075159,24.13582,8.212987,24.19291Q8.350816,24.25,8.5,24.25Q8.649184,24.25,8.787013,24.19291Q8.924841,24.13582,9.03033,24.03033L15.28033,17.78033Z" fill-rule="evenodd" fill="currentColor" fill-opacity="1"/></g></g></g></svg>