<svg xmlns="http://www.w3.org/2000/svg" xmlns:xlink="http://www.w3.org/1999/xlink" fill="currentColor" version="1.1" width="1em" height="1em" viewBox="0 0 16 16"><defs><clipPath id="master_svg0_3_09322"><rect x="0" y="0" width="1em" height="1em" rx="0"/></clipPath></defs><g clip-path="url(#master_svg0_3_09322)"><g><path d="M7.25068,7.24756L7.25499,2.5L7.255,2.499318Q7.25505,2.434101,7.26637,2.369873Q7.27769,2.305644,7.29992,2.244333Q7.32215,2.1830220000000002,7.35463,2.126469Q7.38711,2.069915,7.42887,2.0198169999999998Q7.47062,1.969719,7.5204,1.92758Q7.57017,1.885441,7.62647,1.8525260000000001Q7.68278,1.8196112,7.74392,1.7969087Q7.80505,1.7742061,7.86919,1.7623972Q7.93653,1.75,8.004999999999999,1.75L8.00568,1.75Q8.07089,1.7500593234,8.13512,1.7613748Q8.199349999999999,1.7726903,8.26066,1.7949222Q8.32197,1.8171541,8.37853,1.8496352Q8.43508,1.882116,8.48518,1.923871Q8.53528,1.965626,8.57741,2.015402Q8.61955,2.065178,8.652470000000001,2.12148Q8.68538,2.177782,8.70809,2.2389200000000002Q8.730789999999999,2.300059,8.7426,2.364198Q8.754999999999999,2.431533,8.754999999999999,2.5L8.75499,2.500682L8.75068,7.24756L13.5,7.24756Q13.5739,7.24756,13.6463,7.26197Q13.7188,7.27638,13.787,7.30465Q13.8553,7.33292,13.9167,7.37396Q13.9781,7.415,14.0303,7.46723Q14.0826,7.51946,14.1236,7.58088Q14.1646,7.6423,14.1929,7.71055Q14.2212,7.77879,14.2356,7.85124Q14.25,7.92369,14.25,7.99756Q14.25,8.07143,14.2356,8.14388Q14.2212,8.21632,14.1929,8.28457Q14.1646,8.352820000000001,14.1236,8.41424Q14.0826,8.475660000000001,14.0303,8.52789Q13.9781,8.58012,13.9167,8.62116Q13.8553,8.6622,13.787,8.690470000000001Q13.7188,8.71874,13.6463,8.73315Q13.5739,8.74756,13.5,8.74756L8.74932,8.74756L8.745000000000001,13.5L8.74499,13.5007Q8.74486,13.6499,8.68764,13.7876Q8.63043,13.9254,8.524840000000001,14.0308Q8.42587,14.1296,8.29795,14.1861Q8.170020000000001,14.2426,8.030339999999999,14.2492Q8.01268,14.25,7.995,14.25L7.99431,14.25Q7.9291,14.2499,7.86487,14.2386Q7.80064,14.2273,7.73933,14.2051Q7.67802,14.1828,7.62146,14.1504Q7.56491,14.1179,7.51481,14.0761Q7.46471,14.0344,7.42257,13.9846Q7.38044,13.9348,7.34752,13.8785Q7.31461,13.8222,7.2919,13.7611Q7.2692,13.6999,7.25739,13.6358Q7.245,13.5685,7.245,13.5L7.245,13.4993L7.24932,8.74756L2.5,8.74756Q2.426131,8.74756,2.353682,8.73315Q2.281233,8.71874,2.212987,8.690470000000001Q2.144742,8.6622,2.083322,8.62116Q2.021903,8.58012,1.96967,8.52789Q1.917437,8.475660000000001,1.876398,8.41424Q1.8353586,8.352820000000001,1.8070903,8.28457Q1.7788221,8.21632,1.764411,8.14388Q1.75,8.07143,1.75,7.99756Q1.75,7.92369,1.764411,7.85124Q1.7788221,7.77879,1.8070903,7.71055Q1.8353586,7.6423,1.876398,7.58088Q1.917437,7.51946,1.96967,7.46723Q2.021903,7.415,2.083322,7.37396Q2.144742,7.33292,2.212987,7.30465Q2.281233,7.27638,2.353682,7.26197Q2.426131,7.24756,2.5,7.24756L7.25068,7.24756Z" fill-rule="evenodd" fill="currentColor" fill-opacity="1"/></g></g></svg>