<svg xmlns="http://www.w3.org/2000/svg" xmlns:xlink="http://www.w3.org/1999/xlink" fill="currentColor" version="1.1" width="1em" height="1em" viewBox="0 0 16 16"><defs><clipPath id="master_svg0_21_3381"><rect x="0" y="0" width="1em" height="1em" rx="0"/></clipPath></defs><g clip-path="url(#master_svg0_21_3381)"><g transform="matrix(-1,0,0,-1,27.333984375,12.666748046875)"><path d="M14.4169921875,9.5833740234375L14.4169921875,6.3333740234375Q14.4169921875,6.2595055234375,14.402581187500001,6.1870560234375Q14.3881701875,6.1146070234375,14.3599021875,6.0463610234375Q14.3316331875,5.9781160234375,14.2905941875,5.9166960234375Q14.2495551875,5.8552770234375,14.1973221875,5.8030440234375Q14.1450891875,5.7508110234375,14.0836701875,5.7097720234375Q14.0222501875,5.6687330234375,13.9540051875,5.6404640234375Q13.8857591875,5.6121960234375,13.8133101875,5.5977850234375Q13.7408606875,5.5833740234375,13.6669921875,5.5833740234375Q13.5931236875,5.5833740234375,13.5206741875,5.5977850234375Q13.4482251875,5.6121960234375,13.3799791875,5.6404640234375Q13.3117341875,5.6687330234375,13.2503141875,5.7097720234375Q13.1888951875,5.7508110234375,13.1366621875,5.8030440234375Q13.0844291875,5.8552770234375,13.0433901875,5.9166960234375Q13.0023511875,5.9781160234375,12.9740821875,6.0463610234375Q12.9458141875,6.1146070234375,12.931403187499999,6.1870560234375Q12.9169921875,6.2595055234375,12.9169921875,6.3333740234375L12.9169921875,10.3333740234375Q12.9169921875,10.4072440234375,12.931403187499999,10.4796940234375Q12.9458141875,10.5521440234375,12.9740821875,10.6203840234375Q13.0023511875,10.688634023437501,13.0433901875,10.7500540234375Q13.0844291875,10.811474023437501,13.1366621875,10.8637040234375Q13.1888951875,10.9159340234375,13.2503141875,10.9569740234375Q13.3117341875,10.9980140234375,13.3799791875,11.026284023437501Q13.4482251875,11.0545540234375,13.5206741875,11.0689640234375Q13.5931236875,11.0833740234375,13.6669921875,11.0833740234375L17.6669921875,11.0833740234375Q17.7408621875,11.0833740234375,17.8133121875,11.0689640234375Q17.8857621875,11.0545540234375,17.954002187500002,11.026284023437501Q18.0222521875,10.9980140234375,18.0836721875,10.9569740234375Q18.1450921875,10.9159340234375,18.1973221875,10.8637040234375Q18.2495521875,10.811474023437501,18.2905921875,10.7500540234375Q18.3316321875,10.688634023437501,18.3599021875,10.6203840234375Q18.3881721875,10.5521440234375,18.402582187500002,10.4796940234375Q18.4169921875,10.4072440234375,18.4169921875,10.3333740234375Q18.4169921875,10.2595040234375,18.402582187500002,10.1870540234375Q18.3881721875,10.1146040234375,18.3599021875,10.0463640234375Q18.3316321875,9.9781140234375,18.2905921875,9.9166940234375Q18.2495521875,9.8552740234375,18.1973221875,9.8030440234375Q18.1450921875,9.7508140234375,18.0836721875,9.7097740234375Q18.0222521875,9.6687340234375,17.954002187500002,9.6404640234375Q17.8857621875,9.6121940234375,17.8133121875,9.5977840234375Q17.7408621875,9.5833740234375,17.6669921875,9.5833740234375L14.4169921875,9.5833740234375Z" fill-rule="evenodd" fill="currentColor" fill-opacity="1"/></g><g transform="matrix(-1,0,0,-1,12.666015625,27.333251953125)"><path d="M9.5830078125,14.4166259765625L9.5830078125,17.6666259765625Q9.5830078125,17.7404959765625,9.5974178125,17.8129459765625Q9.6118278125,17.8853959765625,9.6400978125,17.953635976562502Q9.6683678125,18.0218859765625,9.7094078125,18.0833059765625Q9.7504478125,18.1447259765625,9.8026778125,18.1969559765625Q9.8549078125,18.2491859765625,9.9163278125,18.2902259765625Q9.9777478125,18.3312659765625,10.0459978125,18.3595359765625Q10.1142378125,18.3878059765625,10.1866878125,18.402215976562502Q10.2591378125,18.4166259765625,10.3330078125,18.4166259765625Q10.4068778125,18.4166259765625,10.4793278125,18.402215976562502Q10.5517778125,18.3878059765625,10.6200178125,18.3595359765625Q10.688267812500001,18.3312659765625,10.7496878125,18.2902259765625Q10.811107812500001,18.2491859765625,10.8633378125,18.1969559765625Q10.9155678125,18.1447259765625,10.9566078125,18.0833059765625Q10.9976478125,18.0218859765625,11.025917812500001,17.953635976562502Q11.0541878125,17.8853959765625,11.0685978125,17.8129459765625Q11.0830078125,17.7404959765625,11.0830078125,17.6666259765625L11.0830078125,13.6666259765625Q11.0830078125,13.5927574765625,11.0685978125,13.5203079765625Q11.0541878125,13.4478589765625,11.025917812500001,13.3796129765625Q10.9976478125,13.3113679765625,10.9566078125,13.2499479765625Q10.9155678125,13.1885289765625,10.8633378125,13.1362959765625Q10.811107812500001,13.0840629765625,10.7496878125,13.0430239765625Q10.688267812500001,13.0019849765625,10.6200178125,12.9737159765625Q10.5517778125,12.9454479765625,10.4793278125,12.931036976562499Q10.4068778125,12.9166259765625,10.3330078125,12.9166259765625L6.3330078125,12.9166259765625Q6.2591393125,12.9166259765625,6.1866898125,12.931036976562499Q6.1142408125,12.9454479765625,6.0459948125,12.9737159765625Q5.9777498125,13.0019849765625,5.9163298125,13.0430239765625Q5.8549108125,13.0840629765625,5.8026778125,13.1362959765625Q5.7504448125,13.1885289765625,5.7094058125,13.2499479765625Q5.6683668125,13.3113679765625,5.6400978125,13.3796129765625Q5.6118298125,13.4478589765625,5.5974188125,13.5203079765625Q5.5830078125,13.5927574765625,5.5830078125,13.6666259765625Q5.5830078125,13.7404944765625,5.5974188125,13.8129439765625Q5.6118298125,13.8853929765625,5.6400978125,13.9536389765625Q5.6683668125,14.0218839765625,5.7094058125,14.0833039765625Q5.7504448125,14.1447229765625,5.8026778125,14.1969559765625Q5.8549108125,14.2491889765625,5.9163298125,14.2902279765625Q5.9777498125,14.3312669765625,6.0459948125,14.3595359765625Q6.1142408125,14.3878039765625,6.1866898125,14.402214976562501Q6.2591393125,14.4166259765625,6.3330078125,14.4166259765625L9.5830078125,14.4166259765625Z" fill-rule="evenodd" fill="currentColor" fill-opacity="1"/></g><g><path d="M14.1966678125,2.8637040234375L14.197097812500001,2.8632750234374997Q14.200097812500001,2.8602690234375,14.203067812499999,2.8572300234375L14.2034878125,2.8567950234375Q14.3058478125,2.7517550234375,14.361097812499999,2.6158960234375Q14.4163378125,2.4800370234375,14.4163378125,2.3333740234375Q14.4163378125,2.1841900234375,14.3592478125,2.0463610234375Q14.302157812499999,1.9085330234375,14.1966678125,1.8030440234375Q14.0911778125,1.6975550234374999,13.9533578125,1.6404640234375Q13.815527812500001,1.5833740234375,13.6663378125,1.5833740234375Q13.517157812499999,1.5833740234375,13.3793278125,1.6404640234375Q13.2414978125,1.6975550234374999,13.1360078125,1.8030440234375L8.8026778125,6.1363740234375Q8.6971888125,6.2418640234375005,8.6400978125,6.3796940234375Q8.5830078125,6.5175240234375,8.5830078125,6.6667040234375Q8.5830078125,6.8158940234375,8.6400978125,6.9537240234375Q8.6971888125,7.0915440234375,8.8026778125,7.1970340234375Q8.9081668125,7.3025240234375,9.0459948125,7.3596140234375Q9.1838238125,7.4167040234375,9.3330078125,7.4167040234375Q9.4821918125,7.4167040234375,9.6200208125,7.3596140234375Q9.7578488125,7.3025240234375,9.8633378125,7.1970340234375L14.1966678125,2.8637040234375Z" fill-rule="evenodd" fill="currentColor" fill-opacity="1"/></g><g><path d="M6.8633378125,10.1969559765625L6.8637678125,10.1965269765625Q6.8667678125,10.1935209765625,6.8697378125,10.1904819765625L6.8701578125,10.1900469765625Q6.9725078125,10.0850069765625,7.0277578125,9.9491479765625Q7.0830078125,9.8132889765625,7.0830078125,9.6666259765625Q7.0830078125,9.5174419765625,7.0259178125,9.3796129765625Q6.9688278125,9.2417849765625,6.8633378125,9.1362959765625Q6.7578478125,9.0308069765625,6.6200178125,8.9737159765625Q6.4821878125,8.9166259765625,6.3330078125,8.9166259765625Q6.183827812500001,8.9166259765625,6.0459978125,8.9737159765625Q5.9081678125,9.0308069765625,5.8026778125,9.1362959765625L1.8026778125,13.1362959765625Q1.6971888124999999,13.2417859765625,1.6400978125,13.3796159765625Q1.5830078125,13.5174459765625,1.5830078125,13.6666259765625Q1.5830078125,13.815805976562501,1.6400978125,13.9536359765625Q1.6971888124999999,14.0914659765625,1.8026778125,14.1969559765625Q1.9081668125,14.302445976562499,2.0459948125,14.359535976562501Q2.1838238125,14.4166259765625,2.3330078125,14.4166259765625Q2.4821918125,14.4166259765625,2.6200208125,14.359535976562501Q2.7578488125,14.302445976562499,2.8633378125,14.1969559765625L6.8633378125,10.1969559765625Z" fill-rule="evenodd" fill="currentColor" fill-opacity="1"/></g></g></svg>