<svg xmlns="http://www.w3.org/2000/svg" xmlns:xlink="http://www.w3.org/1999/xlink" fill="currentColor" version="1.1" width="1em" height="1em" viewBox="0 0 16 16"><g><g><path d="M0.5833333134651184,7.999873313465119Q0.5833333134651184,4.927793313465118,2.7556233134651182,2.7555033134651183Q4.927913313465118,0.5832112434651184,7.999993313465119,0.5832112434651184Q11.072133313465118,0.5832112434651184,13.244333313465118,2.7555033134651183Q15.416633313465118,4.927793313465118,15.416633313465118,7.999873313465119Q15.416633313465118,11.071933313465118,13.244333313465118,13.244233313465118Q11.072133313465118,15.416533313465118,8.000003313465118,15.416533313465118Q4.927913313465118,15.416533313465118,2.7556233134651182,13.244233313465118Q0.5833333134651184,11.071933313465118,0.5833333134651184,7.999873313465119ZM2.0833333134651184,7.999873313465119Q2.0833333134651184,10.450643313465118,3.8162833134651186,12.18363331346512Q5.549233313465119,13.916533313465118,8.000003313465118,13.916533313465118Q10.450763313465119,13.916533313465118,12.183733313465119,12.18363331346512Q13.916633313465118,10.450633313465119,13.916633313465118,7.999873313465119Q13.916633313465118,5.549113313465118,12.183733313465119,3.8161633134651183Q10.450763313465119,2.0832133134651185,7.999993313465119,2.0832133134651185Q5.549233313465119,2.0832133134651185,3.8162833134651186,3.8161633134651183Q2.0833333134651184,5.549113313465118,2.0833333134651184,7.999873313465119ZM8.002803313465119,3.2499633134651185Q7.9289333134651185,3.2499633134651185,7.856493313465118,3.2643733134651183Q7.784043313465118,3.2787733134651185,7.715803313465118,3.3070433134651185Q7.647563313465119,3.3353033134651184,7.586143313465119,3.3763433134651186Q7.524733313465118,3.4173733134651183,7.472493313465119,3.4696033134651185Q7.420263313465118,3.5218333134651183,7.379223313465118,3.5832433134651183Q7.338183313465119,3.6446533134651182,7.309913313465119,3.7128933134651185Q7.281643313465119,3.7811333134651184,7.267223313465118,3.853573313465118Q7.2528133134651185,3.9260233134651186,7.252803313465118,3.9998833134651184L7.252803313465118,3.9999633134651185L7.252403313465118,8.002813313465118Q7.252383313465119,8.152023313465119,7.309473313465118,8.289873313465119Q7.366563313465118,8.427723313465119,7.472073313465119,8.533223313465118L10.298533313465118,11.359733313465119Q10.40402331346512,11.465133313465119,10.541853313465118,11.522233313465119Q10.679633313465118,11.579333313465119,10.828833313465118,11.579333313465119Q10.902733313465118,11.579333313465119,10.975233313465118,11.564933313465119Q11.047633313465118,11.550533313465118,11.115833313465119,11.522233313465119Q11.184133313465118,11.494033313465119,11.245533313465119,11.452933313465119Q11.306933313465118,11.411933313465118,11.359233313465118,11.359733313465119Q11.411433313465118,11.307433313465118,11.452433313465118,11.246033313465118Q11.493533313465118,11.184633313465119,11.521733313465118,11.116333313465118Q11.550033313465118,11.048133313465119,11.564433313465118,10.975633313465119Q11.578833313465118,10.903233313465119,11.578833313465118,10.829333313465119Q11.578833313465118,10.680133313465118,11.521733313465118,10.542343313465118Q11.464733313465118,10.404523313465118,11.359233313465118,10.299033313465118L8.752433313465119,7.692263313465118L8.752803313465119,4.000033313465119L8.752803313465119,3.9999633134651185Q8.752803313465119,3.9260933134651186,8.738383313465118,3.8536433134651182Q8.723973313465118,3.7811933134651183,8.695713313465118,3.7129433134651184Q8.66744331346512,3.6447033134651186,8.626403313465119,3.5832833134651185Q8.585363313465118,3.5218633134651185,8.533133313465118,3.4696333134651183Q8.480893313465119,3.4173933134651184,8.419473313465119,3.3763533134651182Q8.358053313465119,3.3353133134651185,8.289813313465118,3.3070533134651185Q8.221563313465118,3.2787833134651185,8.149113313465119,3.2643733134651183Q8.076673313465118,3.2499633134651185,8.002803313465119,3.2499633134651185Z" fill-rule="evenodd" fill="currentColor" fill-opacity="1"/></g></g></svg>