<svg xmlns="http://www.w3.org/2000/svg" xmlns:xlink="http://www.w3.org/1999/xlink" fill="currentColor" version="1.1" width="1em" height="1em" viewBox="0 0 16 16"><defs><clipPath id="master_svg0_3_07887"><rect x="0" y="0" width="1em" height="1em" rx="0"/></clipPath></defs><g clip-path="url(#master_svg0_3_07887)"><g><path d="M4.0304839999999995,5.219824L4.03033,5.21967Q3.924841,5.114181,3.787013,5.05709Q3.649184,5,3.5,5Q3.350816,5,3.212987,5.05709Q3.075159,5.114181,2.96967,5.21967Q2.864181,5.325159,2.80709,5.462987Q2.75,5.600816,2.75,5.75Q2.75,5.899184,2.80709,6.037013Q2.864181,6.174841,2.96967,6.28033L2.969824,6.2804839999999995L7.46967,10.78033Q7.5219,10.83256,7.58332,10.8736Q7.64474,10.91464,7.71299,10.942910000000001Q7.78123,10.97118,7.85368,10.98559Q7.92613,11,8,11Q8.07387,11,8.14632,10.98559Q8.21877,10.97118,8.28701,10.942910000000001Q8.355260000000001,10.91464,8.41668,10.8736Q8.478100000000001,10.83256,8.53033,10.78033L13.02987,6.280792L13.03033,6.28033Q13.13582,6.174841,13.19291,6.037013Q13.25,5.899184,13.25,5.75Q13.25,5.600816,13.19291,5.462987Q13.13582,5.325159,13.03033,5.21967Q13.0269,5.216237,13.02342,5.2128499999999995Q12.91838,5.110495,12.78252,5.055247Q12.64666,5,12.5,5Q12.35082,5,12.21299,5.05709Q12.07516,5.114181,11.96967,5.21967L11.96921,5.2201319999999996L8,9.18934L4.0304839999999995,5.219824Z" fill-rule="evenodd" fill="currentColor" fill-opacity="1"/></g></g></svg>