<svg xmlns="http://www.w3.org/2000/svg" xmlns:xlink="http://www.w3.org/1999/xlink" fill="none" version="1.1" width="1em" height="1em" viewBox="0 0 40 40"><defs><linearGradient x1="0.03965320065617561" y1="0.03086947835981846" x2="0.9626519680023193" y2="0.9744126200675964" id="master_svg0_111_2994"><stop offset="0%" stop-color="#FFC413" stop-opacity="1"/><stop offset="100%" stop-color="#FF9F00" stop-opacity="1"/></linearGradient><mask id="master_svg1_111_3198/111_3162/111_2995" style="mask-type:alpha" maskUnits="userSpaceOnUse"><g><path d="M36,11L36,20L36,34C36,36.2091,34.2091,38,32,38L8,38C5.79086,38,4,36.2091,4,34L4,6C4,3.79086,5.79086,2,8,2L22,2L27,2L36,11Z" fill-rule="evenodd" fill="#FFFFFF" fill-opacity="1"/></g></mask><filter id="master_svg2_111_3198/111_3162/111_2989" filterUnits="objectBoundingBox" color-interpolation-filters="sRGB" x="-8" y="-8" width="1em" height="1em"><feFlood flood-opacity="0" result="BackgroundImageFix"/><feBlend mode="normal" in="SourceGraphic" in2="BackgroundImageFix" result="shape"/><feGaussianBlur stdDeviation="2" result="effect1_foregroundBlur"/></filter><linearGradient x1="0.11252430081367493" y1="0.9104441404342651" x2="0.6175141930580139" y2="0.42868033051490784" id="master_svg3_111_2998"><stop offset="0%" stop-color="#FFE08C" stop-opacity="1"/><stop offset="67.58297085762024%" stop-color="#FFDD7C" stop-opacity="1"/><stop offset="100%" stop-color="#FFFFFF" stop-opacity="1"/></linearGradient></defs><g><g><g><g></g><g><g><g><path d="M36,11L36,20L36,34C36,36.2091,34.2091,38,32,38L8,38C5.79086,38,4,36.2091,4,34L4,6C4,3.79086,5.79086,2,8,2L22,2L27,2L36,11Z" fill-rule="evenodd" fill="url(#master_svg0_111_2994)" fill-opacity="1"/></g><g mask="url(#master_svg1_111_3198/111_3162/111_2995)"><g style="opacity:0.6000000238418579;mix-blend-mode:multiply" filter="url(#master_svg2_111_3198/111_3162/111_2989)"><path d="M27.81053352355957,3L37.18946352355957,12.37893L31.81053352355957,12.37893C29.60139352355957,12.37893,27.81053352355957,10.58807,27.81053352355957,8.37893L27.81053352355957,3Z" fill-rule="evenodd" fill="#764200" fill-opacity="1" style="mix-blend-mode:multiply"/></g></g></g><g><path d="M27,2L36,11L31,11C28.79086,11,27,9.20914,27,7L27,2Z" fill-rule="evenodd" fill="url(#master_svg3_111_2998)" fill-opacity="1"/></g></g><g></g><g><g><path d="M25.042094848632814,17.486775598754882C25.19259484863281,17.33636559875488,25.292794848632813,17.13580559875488,25.292794848632813,16.885105598754883C25.292794848632813,16.634415598754885,25.19259484863281,16.43385559875488,25.042094848632814,16.283435598754885L23.437684848632813,14.678981598754882C23.237134848632813,14.528564598754883,23.03657484863281,14.428285598754883,22.78587484863281,14.428285598754883C22.535184848632813,14.428285598754883,22.334624848632814,14.528563598754882,22.184204848632813,14.678981598754882L20.52961484863281,16.333575598754884L23.33741484863281,19.141375598754884L25.042094848632814,17.486775598754882ZM16.31788484863281,14.879503598754884C16.71899484863281,14.528530598754882,17.270534848632813,14.528530598754882,17.621504848632814,14.879503598754884L17.621504848632814,14.879511598754883C17.621504848632814,14.879511598754883,25.042094848632814,22.14969559875488,25.242694848632812,22.500665598754885C25.59359484863281,22.851645598754885,25.59359484863281,23.403175598754885,25.242694848632812,23.75414559875488L23.688354848632812,25.308485598754885C23.287234848632814,25.65938559875488,22.735704848632814,25.65938559875488,22.384734848632814,25.308485598754885L21.582504848632812,24.506185598754882L22.986404848632812,23.202605598754882C23.186954848632812,23.002055598754882,23.186954848632812,22.701215598754885,22.986404848632812,22.500665598754885C22.785844848632813,22.300105598754882,22.485004848632812,22.300105598754882,22.284454848632812,22.500665598754885L20.93069484863281,23.854415598754883L20.228744848632815,23.152465598754883L21.08111484863281,22.400385598754884C21.231534848632812,22.300105598754882,21.28167484863281,22.099545598754883,21.231534848632812,21.949125598754883C21.181394848632813,21.79871559875488,21.030974848632813,21.648295598754885,20.880554848632812,21.598155598754882C20.73014484863281,21.598155598754882,20.529584848632812,21.648295598754885,20.42930484863281,21.748575598754883L19.627084848632812,22.55079559875488L18.925134848632812,21.84885559875488L20.278884848632813,20.545235598754882C20.479444848632813,20.344675598754883,20.479444848632813,20.04383559875488,20.278884848632813,19.843285598754882C20.078334848632814,19.642725598754883,19.777494848632813,19.642725598754883,19.576934848632813,19.843285598754882L18.27332484863281,21.197045598754883L17.571374848632814,20.495095598754883L18.42373484863281,19.69286559875488C18.524014848632813,19.592585598754884,18.574154848632812,19.492305598754882,18.574154848632812,19.34189559875488C18.574154848632812,19.191475598754884,18.524014848632813,19.091195598754883,18.42373484863281,18.99091559875488C18.323464848632813,18.890645598754883,18.223184848632812,18.84050559875488,18.07276484863281,18.84050559875488C17.92234484863281,18.84050559875488,17.822074848632813,18.890645598754883,17.72179484863281,18.99091559875488L16.919564848632813,19.793145598754883L16.217614848632813,19.091195598754883L17.571374848632814,17.787575598754884C17.671654848632812,17.687305598754882,17.72179484863281,17.587025598754884,17.72179484863281,17.436605598754884C17.72179484863281,17.286185598754884,17.671654848632812,17.185905598754882,17.571374848632814,17.085635598754884C17.471094848632813,16.985355598754882,17.37081484863281,16.935215598754883,17.22040484863281,16.935215598754883C17.120124848632813,16.935215598754883,16.969704848632812,16.985355598754882,16.919564848632813,17.085635598754884L15.565804848632812,18.439385598754882L14.813721848632813,17.687305598754882C14.462747948632812,17.336335598754882,14.462747948632812,16.784805598754883,14.813721848632813,16.433825598754883L16.31788484863281,14.879503598754884ZM15.615954848632812,21.19719559875488C15.465537848632813,21.39774559875488,15.315122848632813,21.598295598754884,15.214845848632812,21.798855598754884L14.512897048632812,24.305815598754883C14.462757948632813,24.506385598754882,14.512897048632812,24.757085598754884,14.663314848632812,24.90748559875488C14.813731848632813,25.057885598754883,15.064427848632812,25.108085598754883,15.264983848632813,25.057885598754883L17.822084848632812,24.355955598754882C18.07277484863281,24.305815598754883,18.273334848632814,24.155395598754883,18.42375484863281,23.954835598754883L19.075554848632812,23.353165598754885L16.26776484863281,20.595525598754882L15.615964848632812,21.197185598754885L15.615954848632812,21.19719559875488Z" fill-rule="evenodd" fill="#FFFFFF" fill-opacity="1"/></g></g></g></g></g></svg>