<svg xmlns="http://www.w3.org/2000/svg" xmlns:xlink="http://www.w3.org/1999/xlink" fill="none" version="1.1" width="1em" height="1em" viewBox="0 0 40 40"><defs><linearGradient x1="0.04520531743764877" y1="0.05740882828831673" x2="1" y2="1" id="master_svg0_111_3045"><stop offset="0%" stop-color="#FF8F31" stop-opacity="1"/><stop offset="100%" stop-color="#ED6F21" stop-opacity="1"/></linearGradient><mask id="master_svg1_111_3201/111_3172/111_3043" style="mask-type:alpha" maskUnits="userSpaceOnUse"><g><path d="M36,11L36,20L36,34C36,36.2091,34.2091,38,32,38L8,38C5.79086,38,4,36.2091,4,34L4,6C4,3.79086,5.79086,2,8,2L22,2L27,2L36,11Z" fill-rule="evenodd" fill="#FFFFFF" fill-opacity="1"/></g></mask><filter id="master_svg2_111_3201/111_3172/111_3046" filterUnits="objectBoundingBox" color-interpolation-filters="sRGB" x="-8" y="-8" width="1em" height="1em"><feFlood flood-opacity="0" result="BackgroundImageFix"/><feBlend mode="normal" in="SourceGraphic" in2="BackgroundImageFix" result="shape"/><feGaussianBlur stdDeviation="2" result="effect1_foregroundBlur"/></filter><linearGradient x1="0.11252430081367493" y1="0.9104441404342651" x2="0.6175141930580139" y2="0.42868033051490784" id="master_svg3_111_3052"><stop offset="0%" stop-color="#FFC89B" stop-opacity="1"/><stop offset="69.61352825164795%" stop-color="#FFB478" stop-opacity="1"/><stop offset="100%" stop-color="#FFFFFF" stop-opacity="1"/></linearGradient></defs><g><g><g></g><g><g><g><path d="M36,11L36,20L36,34C36,36.2091,34.2091,38,32,38L8,38C5.79086,38,4,36.2091,4,34L4,6C4,3.79086,5.79086,2,8,2L22,2L27,2L36,11Z" fill-rule="evenodd" fill="url(#master_svg0_111_3045)" fill-opacity="1"/></g><g mask="url(#master_svg1_111_3201/111_3172/111_3043)"><g style="opacity:0.6000000238418579;mix-blend-mode:multiply" filter="url(#master_svg2_111_3201/111_3172/111_3046)"><path d="M27.81053352355957,3L37.18946352355957,12.37893L31.81053352355957,12.37893C29.60139352355957,12.37893,27.81053352355957,10.58807,27.81053352355957,8.37893L27.81053352355957,3Z" fill-rule="evenodd" fill="#B14500" fill-opacity="1" style="mix-blend-mode:multiply"/></g></g></g><g><path d="M27,2L36,11L31,11C28.79086,11,27,9.20914,27,7L27,2Z" fill-rule="evenodd" fill="url(#master_svg3_111_3052)" fill-opacity="1"/></g></g><g></g><g><g><path d="M22.079999542236344,17.081999603271484Q21.26399954223634,16.715999603271484,20.159999542236342,16.715999603271484L16.979999542236342,16.715999603271484L16.979999542236342,25.499999603271483L19.031999542236342,25.499999603271483L19.031999542236342,22.667999603271483L20.159999542236342,22.667999603271483Q21.26399954223634,22.667999603271483,22.079999542236344,22.301999603271483Q22.895999542236343,21.935999603271483,23.33399954223634,21.263999603271486Q23.771999542236344,20.591999603271486,23.771999542236344,19.691999603271483Q23.771999542236344,18.791999603271485,23.33399954223634,18.119999603271484C23.041999542236344,17.671999603271484,22.62399954223634,17.325999603271484,22.079999542236344,17.081999603271484ZM21.143999542236344,20.652029603271483Q20.675999542236344,20.940029603271483,19.93199954223634,20.940029603271483L19.031999542236342,20.940029603271483L19.031999542236342,18.444029603271485L19.93199954223634,18.444029603271485Q20.663999542236343,18.444029603271485,21.137999542236344,18.738029603271485Q21.61199954223634,19.032029603271486,21.61199954223634,19.692029603271486Q21.61199954223634,20.364029603271483,21.143999542236344,20.652029603271483Z" fill-rule="evenodd" fill="#FFFFFF" fill-opacity="1"/></g></g></g></g></svg>