<svg xmlns="http://www.w3.org/2000/svg" xmlns:xlink="http://www.w3.org/1999/xlink" fill="none" version="1.1" width="1em" height="1em" viewBox="0 0 40 40"><defs><linearGradient x1="0.05474058538675308" y1="0.06682221591472626" x2="1" y2="1" id="master_svg0_111_2841"><stop offset="0%" stop-color="#A9AFB5" stop-opacity="1"/><stop offset="100%" stop-color="#4B4E5F" stop-opacity="1"/></linearGradient><mask id="master_svg1_111_3199/111_3143/111_2842" style="mask-type:alpha" maskUnits="userSpaceOnUse"><g><path d="M36,11L36,20L36,34C36,36.2091,34.2091,38,32,38L8,38C5.79086,38,4,36.2091,4,34L4,6C4,3.79086,5.79086,2,8,2L22,2L27,2L36,11Z" fill-rule="evenodd" fill="#FFFFFF" fill-opacity="1"/></g></mask><filter id="master_svg2_111_3199/111_3143/111_2836" filterUnits="objectBoundingBox" color-interpolation-filters="sRGB" x="-8" y="-8" width="1em" height="1em"><feFlood flood-opacity="0" result="BackgroundImageFix"/><feBlend mode="normal" in="SourceGraphic" in2="BackgroundImageFix" result="shape"/><feGaussianBlur stdDeviation="2" result="effect1_foregroundBlur"/></filter><linearGradient x1="0.13267096877098083" y1="0.9264393448829651" x2="0.6175141930580139" y2="0.42868033051490784" id="master_svg3_111_2845"><stop offset="0%" stop-color="#BEC0C6" stop-opacity="1"/><stop offset="69.61352825164795%" stop-color="#AFB1BA" stop-opacity="1"/><stop offset="100%" stop-color="#FFFFFF" stop-opacity="1"/></linearGradient></defs><g><g><g></g><g><g><g><path d="M36,11L36,20L36,34C36,36.2091,34.2091,38,32,38L8,38C5.79086,38,4,36.2091,4,34L4,6C4,3.79086,5.79086,2,8,2L22,2L27,2L36,11Z" fill-rule="evenodd" fill="url(#master_svg0_111_2841)" fill-opacity="1"/></g><g mask="url(#master_svg1_111_3199/111_3143/111_2842)"><g style="opacity:0.6000000238418579;mix-blend-mode:multiply" filter="url(#master_svg2_111_3199/111_3143/111_2836)"><path d="M27.81053352355957,3L37.18946352355957,12.37893L31.81053352355957,12.37893C29.60139352355957,12.37893,27.81053352355957,10.58807,27.81053352355957,8.37893L27.81053352355957,3Z" fill-rule="evenodd" fill="#090817" fill-opacity="1" style="mix-blend-mode:multiply"/></g></g></g><g><path d="M27,2L36,11L31,11C28.79086,11,27,9.20914,27,7L27,2Z" fill-rule="evenodd" fill="url(#master_svg3_111_2845)" fill-opacity="1"/></g></g><g></g><g><g><path d="M25.35250733337402,16.42131L20.447367333374025,13.618545C20.17006733337402,13.4604849,19.829937333374023,13.4604849,19.552637333374022,13.618545L14.647503333374024,16.42131C14.366735333374024,16.58217,14.193360045374023,16.88084,14.192907333374023,17.20442L14.192907333374023,22.79549C14.193360041374023,23.11908,14.366735333374024,23.417740000000002,14.647503333374024,23.5786L19.552637333374022,26.3814C19.829907333374024,26.5395,20.170097333374024,26.5395,20.447367333374025,26.3814L25.35250733337402,23.5786C25.633307333374024,23.417740000000002,25.806607333374025,23.11908,25.807107333374024,22.79549L25.807107333374024,17.20442C25.806607333374025,16.88084,25.633307333374024,16.58217,25.35250733337402,16.42131Z" fill="#FFFFFF" fill-opacity="1"/></g><g><path d="M24.162539361686704,17.867899891265868C23.902079361686706,17.38089159126587,23.296129361686706,17.197241891265868,22.809119361686705,17.457706891265868L19.899459361686706,19.01327589126587L17.217319361686705,17.47237989126587L17.112839361686706,17.420126991265867C16.652808361686706,17.22250389126587,16.107537361686706,17.396738491265868,15.852105361686707,17.84143489126587C15.577025361686706,18.32033889126587,15.742257161686707,18.93156589126587,16.221161361686708,19.206645891265868L18.895459361686708,20.74274589126587L18.895459361686708,23.66060589126587L18.902189361686705,23.777225891265868C18.959949361686707,24.27456589126587,19.382629361686707,24.66060589126587,19.895459361686704,24.66060589126587C20.447749361686707,24.66060589126587,20.895459361686704,24.21288589126587,20.895459361686704,23.66060589126587L20.895459361686704,20.749255891265868L23.752349361686704,19.22131589126587L23.852009361686704,19.160385891265868C24.263329361686708,18.87489589126587,24.404399361686707,18.32012089126587,24.162539361686704,17.867899891265868Z" fill-rule="evenodd" fill="#888C8E" fill-opacity="1"/></g></g></g></g></svg>