<svg xmlns="http://www.w3.org/2000/svg" xmlns:xlink="http://www.w3.org/1999/xlink" fill="none" version="1.1" width="1em" height="1em" viewBox="0 0 40 40"><defs><linearGradient x1="0.04520531743764877" y1="0.05740882828831673" x2="1" y2="1" id="master_svg0_111_2796"><stop offset="0%" stop-color="#BCE843" stop-opacity="1"/><stop offset="100%" stop-color="#A5D61D" stop-opacity="1"/></linearGradient><mask id="master_svg1_111_3208/111_3129/111_2797" style="mask-type:alpha" maskUnits="userSpaceOnUse"><g><path d="M36,11L36,20L36,34C36,36.2091,34.2091,38,32,38L8,38C5.79086,38,4,36.2091,4,34L4,6C4,3.79086,5.79086,2,8,2L22,2L27,2L36,11Z" fill-rule="evenodd" fill="#FFFFFF" fill-opacity="1"/></g></mask><filter id="master_svg2_111_3208/111_3129/111_2791" filterUnits="objectBoundingBox" color-interpolation-filters="sRGB" x="-8" y="-8" width="1em" height="1em"><feFlood flood-opacity="0" result="BackgroundImageFix"/><feBlend mode="normal" in="SourceGraphic" in2="BackgroundImageFix" result="shape"/><feGaussianBlur stdDeviation="2" result="effect1_foregroundBlur"/></filter><linearGradient x1="0.11252430081367493" y1="0.9104441404342651" x2="0.6175141930580139" y2="0.42868033051490784" id="master_svg3_111_2800"><stop offset="0%" stop-color="#E4FAA4" stop-opacity="1"/><stop offset="69.61352825164795%" stop-color="#D4F184" stop-opacity="1"/><stop offset="100%" stop-color="#FFFFFF" stop-opacity="1"/></linearGradient></defs><g><g><g></g><g><g><g><path d="M36,11L36,20L36,34C36,36.2091,34.2091,38,32,38L8,38C5.79086,38,4,36.2091,4,34L4,6C4,3.79086,5.79086,2,8,2L22,2L27,2L36,11Z" fill-rule="evenodd" fill="url(#master_svg0_111_2796)" fill-opacity="1"/></g><g mask="url(#master_svg1_111_3208/111_3129/111_2797)"><g style="opacity:0.6000000238418579;mix-blend-mode:multiply" filter="url(#master_svg2_111_3208/111_3129/111_2791)"><path d="M27.81053352355957,3L37.18946352355957,12.37893L31.81053352355957,12.37893C29.60139352355957,12.37893,27.81053352355957,10.58807,27.81053352355957,8.37893L27.81053352355957,3Z" fill-rule="evenodd" fill="#4F7600" fill-opacity="1" style="mix-blend-mode:multiply"/></g></g></g><g><path d="M27,2L36,11L31,11C28.79086,11,27,9.20914,27,7L27,2Z" fill-rule="evenodd" fill="url(#master_svg3_111_2800)" fill-opacity="1"/></g></g><g></g><g><g transform="matrix(-1,0,0,1,52,0)"><path d="M32.40624,18.120505618469238L31.32623,19.81787361846924L30.70752,19.199953618469237C30.27681,18.76924361846924,29.56432,18.820543618469237,29.19975,19.30850361846924L26.200647,23.322703618469237C25.708091,23.981983618469236,26.178562,24.920753618469238,27.00151,24.920753618469238L36.9985,24.920753618469238C37.811,24.920753618469238,38.2842,24.00292361846924,37.812799999999996,23.341113618469237L34.06395,18.077282618469237C33.6525,17.49956361846924,32.78703,17.52212961846924,32.40624,18.120505618469238Z" fill="#FFFFFF" fill-opacity="1"/></g><g><ellipse cx="24.658623695373535" cy="16.15751361846924" rx="1.5" ry="1.5" fill="#FFFFFF" fill-opacity="1"/></g></g></g></g></svg>