<svg xmlns="http://www.w3.org/2000/svg" xmlns:xlink="http://www.w3.org/1999/xlink" fill="none" version="1.1" width="1em" height="1em" viewBox="0 0 40 40"><defs><linearGradient x1="0.04520531743764877" y1="0.05740882828831673" x2="1" y2="1" id="master_svg0_111_3021"><stop offset="0%" stop-color="#D9D9D9" stop-opacity="1"/><stop offset="100%" stop-color="#AEAEAE" stop-opacity="1"/></linearGradient><mask id="master_svg1_111_3204/111_3166/111_3022" style="mask-type:alpha" maskUnits="userSpaceOnUse"><g><path d="M36,11L36,20L36,34C36,36.2091,34.2091,38,32,38L8,38C5.79086,38,4,36.2091,4,34L4,6C4,3.79086,5.79086,2,8,2L22,2L27,2L36,11Z" fill-rule="evenodd" fill="#FFFFFF" fill-opacity="1"/></g></mask><filter id="master_svg2_111_3204/111_3166/111_3016" filterUnits="objectBoundingBox" color-interpolation-filters="sRGB" x="-8" y="-8" width="1em" height="1em"><feFlood flood-opacity="0" result="BackgroundImageFix"/><feBlend mode="normal" in="SourceGraphic" in2="BackgroundImageFix" result="shape"/><feGaussianBlur stdDeviation="2" result="effect1_foregroundBlur"/></filter><linearGradient x1="0.13267096877098083" y1="0.9264393448829651" x2="0.6175141930580139" y2="0.42868033051490784" id="master_svg3_111_3014"><stop offset="0%" stop-color="#E9E9E9" stop-opacity="1"/><stop offset="69.61352825164795%" stop-color="#E0E0E0" stop-opacity="1"/><stop offset="100%" stop-color="#FFFFFF" stop-opacity="1"/></linearGradient></defs><g><g><g></g><g><g><g><path d="M36,11L36,20L36,34C36,36.2091,34.2091,38,32,38L8,38C5.79086,38,4,36.2091,4,34L4,6C4,3.79086,5.79086,2,8,2L22,2L27,2L36,11Z" fill-rule="evenodd" fill="url(#master_svg0_111_3021)" fill-opacity="1"/></g><g mask="url(#master_svg1_111_3204/111_3166/111_3022)"><g style="opacity:0.6000000238418579;mix-blend-mode:multiply" filter="url(#master_svg2_111_3204/111_3166/111_3016)"><path d="M27.81053352355957,3L37.18946352355957,12.37893L31.81053352355957,12.37893C29.60139352355957,12.37893,27.81053352355957,10.58807,27.81053352355957,8.37893L27.81053352355957,3Z" fill-rule="evenodd" fill="#6E6E6E" fill-opacity="1" style="mix-blend-mode:multiply"/></g></g></g><g><path d="M27,2L36,11L31,11C28.79086,11,27,9.20914,27,7L27,2Z" fill-rule="evenodd" fill="url(#master_svg3_111_3014)" fill-opacity="1"/></g></g><g></g><g><g><path d="M16.59600067138672,16.715999603271484L23.91600067138672,16.715999603271484L23.91600067138672,18.527999603271486L21.27600067138672,18.527999603271486L21.27600067138672,25.499999603271483L19.23600067138672,25.499999603271483L19.23600067138672,18.527999603271486L16.59600067138672,18.527999603271486L16.59600067138672,16.715999603271484Z" fill="#FFFFFF" fill-opacity="1"/></g></g></g></g></svg>