<svg xmlns="http://www.w3.org/2000/svg" xmlns:xlink="http://www.w3.org/1999/xlink" fill="currentColor" version="1.1"
  width="1em" height="1em" viewBox="0 0 24 24">
  <defs>
    <clipPath id="master_svg0_367_04230/361_6592">
      <rect x="2" y="2" width="20" height="20" rx="0" />
    </clipPath>
  </defs>
  <g>
    <g clip-path="url(#master_svg0_367_04230/361_6592)">
      <g>
        <path
          d="M7.323941,4.823943Q6.25,5.89788,6.25,7.41667Q6.25,8.93545,7.323941,10.00939Q8.39788,11.08333,9.91667,11.08333Q11.43545,11.08333,12.50939,10.00939Q13.58333,8.93545,13.58333,7.41667Q13.58333,5.89788,12.50939,4.823943Q11.43545,3.75,9.91667,3.75Q8.39788,3.75,7.323941,4.823943ZM8.3846,8.948730000000001Q7.75,8.31413,7.75,7.41667Q7.75,6.5192,8.3846,5.8846Q9.0192,5.25,9.91667,5.25Q10.81413,5.25,11.448730000000001,5.8846Q12.08333,6.5192,12.08333,7.41667Q12.08333,8.31413,11.448730000000001,8.948730000000001Q10.81413,9.58333,9.91667,9.58333Q9.0192,9.58333,8.3846,8.948730000000001Z"
          fill-rule="evenodd" fill="currentColor" fill-opacity="1" />
      </g>
      <g>
        <path
          d="M17,19.833251953125Q17.0738685,19.833251953125,17.146318,19.818841953125002Q17.218767,19.804431953125,17.287013,19.776161953125Q17.355258,19.747891953125,17.416678,19.706851953125Q17.478096999999998,19.665811953125,17.53033,19.613581953125Q17.582563,19.561351953125,17.623601999999998,19.499931953125Q17.664641,19.438511953125,17.69291,19.370261953125002Q17.721178,19.302021953125,17.735589,19.229571953125Q17.75,19.157121953125,17.75,19.083251953125L17.75,14.083251953125Q17.75,14.009383453125,17.735589,13.936933953125Q17.721178,13.864484953125,17.69291,13.796238953125Q17.664641,13.727993953125,17.623601999999998,13.666573953125Q17.582563,13.605154953125,17.53033,13.552921953125Q17.478096999999998,13.500688953125,17.416678,13.459649953125Q17.355258,13.418610953125,17.287013,13.390341953125Q17.218767,13.362073953125,17.146318,13.347662953124999Q17.0738685,13.333251953125,17,13.333251953125Q16.9261315,13.333251953125,16.853682,13.347662953124999Q16.781233,13.362073953125,16.712987,13.390341953125Q16.644742,13.418610953125,16.583322,13.459649953125Q16.521903000000002,13.500688953125,16.46967,13.552921953125Q16.417437,13.605154953125,16.376398000000002,13.666573953125Q16.335359,13.727993953125,16.30709,13.796238953125Q16.278822,13.864484953125,16.264411,13.936933953125Q16.25,14.009383453125,16.25,14.083251953125L16.25,19.083251953125Q16.25,19.157121953125,16.264411,19.229571953125Q16.278822,19.302021953125,16.30709,19.370261953125002Q16.335359,19.438511953125,16.376398000000002,19.499931953125Q16.417437,19.561351953125,16.46967,19.613581953125Q16.521903000000002,19.665811953125,16.583322,19.706851953125Q16.644742,19.747891953125,16.712987,19.776161953125Q16.781233,19.804431953125,16.853682,19.818841953125002Q16.9261315,19.833251953125,17,19.833251953125Z"
          fill-rule="evenodd" fill="currentColor" fill-opacity="1" />
      </g>
      <g>
        <path
          d="M20.25,16.583251953125Q20.25,16.509383453125,20.235590000000002,16.436933953125Q20.22118,16.364484953125,20.19291,16.296238953125Q20.16464,16.227993953125,20.1236,16.166573953125Q20.08256,16.105154953125002,20.03033,16.052921953125Q19.9781,16.000688953125,19.91668,15.959649953125Q19.85526,15.918610953125,19.787010000000002,15.890341953125Q19.71877,15.862073953125,19.64632,15.847662953124999Q19.57387,15.833251953125,19.5,15.833251953125L14.5,15.833251953125Q14.4261315,15.833251953125,14.353682,15.847662953124999Q14.281233,15.862073953125,14.212987,15.890341953125Q14.144742,15.918610953125,14.083322,15.959649953125Q14.021903,16.000688953125,13.96967,16.052921953125Q13.917437,16.105154953125002,13.876398,16.166573953125Q13.835359,16.227993953125,13.80709,16.296238953125Q13.778822,16.364484953125,13.764410999999999,16.436933953125Q13.75,16.509383453125,13.75,16.583251953125Q13.75,16.657120453125,13.764410999999999,16.729569953125Q13.778822,16.802018953125,13.80709,16.870264953125Q13.835359,16.938509953125,13.876398,16.999929953125Q13.917437,17.061348953124998,13.96967,17.113581953125Q14.021903,17.165814953125,14.083322,17.206853953124998Q14.144742,17.247892953125,14.212987,17.276161953125Q14.281233,17.304429953125,14.353682,17.318840953125Q14.4261315,17.333251953125,14.5,17.333251953125L19.5,17.333251953125Q19.57387,17.333251953125,19.64632,17.318840953125Q19.71877,17.304429953125,19.787010000000002,17.276161953125Q19.85526,17.247892953125,19.91668,17.206853953124998Q19.9781,17.165814953125,20.03033,17.113581953125Q20.08256,17.061348953124998,20.1236,16.999929953125Q20.16464,16.938509953125,20.19291,16.870264953125Q20.22118,16.802018953125,20.235590000000002,16.729569953125Q20.25,16.657120453125,20.25,16.583251953125Z"
          fill-rule="evenodd" fill="currentColor" fill-opacity="1" />
      </g>
      <g>
        <path
          d="M4.5,20.250078046875L13.25,20.250078046875Q13.32387,20.250078046875,13.39632,20.235668046875Q13.46877,20.221258046875,13.53701,20.192988046875Q13.60526,20.164718046875,13.66668,20.123688046875Q13.7281,20.082648046875,13.78033,20.030408046875Q13.83256,19.978178046875,13.8736,19.916758046875Q13.91464,19.855338046874998,13.94291,19.787098046875002Q13.97118,19.718848046875,13.98559,19.646398046875Q14,19.573948046875,14,19.500078046875Q14,19.426218046875,13.98559,19.353768046875Q13.97118,19.281318046875,13.94291,19.213068046875Q13.91464,19.144828046875,13.8736,19.083408046875Q13.83256,19.021988046875002,13.78033,18.969748046875Q13.7281,18.917518046875,13.66668,18.876478046875Q13.60526,18.835438046874998,13.53701,18.807168046875Q13.46877,18.778908046875,13.39632,18.764488046875Q13.32387,18.750078046875,13.25,18.750078046875L5.250276,18.750078046875Q5.25344,17.355088046875,5.292923,16.871838046875Q5.348991,16.185608046875,5.53157,15.827278046875Q5.91265,15.079358046875,6.66053,14.698298046875Q7.0188500000000005,14.515734046875,7.70509,14.459669046875Q8.23044,14.416748046875,9.83333,14.416748046875L13.25,14.416748046875Q13.32387,14.416748046875,13.39632,14.402337046875001Q13.46877,14.387926046875,13.53701,14.359658046875Q13.60526,14.331389046875,13.66668,14.290350046875Q13.7281,14.249311046875,13.78033,14.197078046875Q13.83256,14.144845046875,13.8736,14.083426046875Q13.91464,14.022006046875,13.94291,13.953761046875Q13.97118,13.885515046875,13.98559,13.813066046875Q14,13.740616546875,14,13.666748046875Q14,13.592879546875,13.98559,13.520430046875Q13.97118,13.447981046875,13.94291,13.379735046875Q13.91464,13.311490046875,13.8736,13.250070046875Q13.83256,13.188651046875,13.78033,13.136418046875Q13.7281,13.084185046875,13.66668,13.043146046875Q13.60526,13.002107046875,13.53701,12.973838046875Q13.46877,12.945570046875,13.39632,12.931159046874999Q13.32387,12.916748046875,13.25,12.916748046875L9.83333,12.916748046875Q8.169270000000001,12.916748046875,7.58294,12.964650046875Q6.60166,13.044820046875,5.97955,13.361785046875Q4.7974,13.964121046875,4.195058,15.146298046875Q3.8780799999999997,15.768398046875,3.797905,16.749688046875Q3.75,17.336018046875,3.75,19.000078046875L3.75,19.500078046875Q3.75,19.573948046875,3.764411,19.646398046875Q3.778822,19.718848046875,3.80709,19.787098046875002Q3.835359,19.855338046874998,3.876398,19.916758046875Q3.917437,19.978178046875,3.96967,20.030408046875Q4.021903,20.082648046875,4.083322,20.123688046875Q4.144742,20.164718046875,4.212987,20.192988046875Q4.281233,20.221258046875,4.353682,20.235668046875Q4.4261315,20.250078046875,4.5,20.250078046875Z"
          fill-rule="evenodd" fill="currentColor" fill-opacity="1" />
      </g>
    </g>
  </g>
</svg>