<svg xmlns="http://www.w3.org/2000/svg" xmlns:xlink="http://www.w3.org/1999/xlink" fill="none" version="1.1" width="1em" height="1em" viewBox="0 0 16 16"><g><g><path d="M4.153043313465119,2.1530470623168947Q3.2499633134651185,3.0561310623168945,3.2499633134651185,4.333291062316894Q3.2499633134651185,5.610451062316894,4.153043313465119,6.513541062316895Q5.056133313465119,7.416621062316895,6.333293313465118,7.416621062316895Q7.610453313465118,7.416621062316895,8.513543313465117,6.513541062316895Q9.416623313465118,5.610451062316894,9.416623313465118,4.333291062316894Q9.416623313465118,3.0561310623168945,8.513543313465117,2.1530470623168947Q7.610453313465118,1.2499588723168946,6.333293313465118,1.2499589923168946Q5.056133313465119,1.2499589923168946,4.153043313465119,2.1530470623168947ZM5.2137033134651185,5.452881062316894Q4.749963313465118,4.989131062316895,4.749963313465118,4.333291062316894Q4.749963313465118,3.6774510623168943,5.2137033134651185,3.2137110623168947Q5.677453313465119,2.7499610623168946,6.333293313465118,2.7499610623168946Q6.989133313465119,2.7499610623168946,7.452883313465119,3.2137110623168947Q7.916623313465118,3.6774510623168943,7.916623313465118,4.333291062316894Q7.916623313465118,4.989131062316895,7.452883313465119,5.452881062316894Q6.989133313465119,5.916621062316895,6.333293313465118,5.916621062316895Q5.677453313465119,5.916621062316895,5.2137033134651185,5.452881062316894ZM11.25673331346512,1.6911200623168945Q11.939433313465118,2.1027070623168944,12.338033313465118,2.7929710623168944Q12.74993331346512,3.5060910623168944,12.74993331346512,4.333211062316895Q12.74993331346512,5.1603210623168945,12.338033313465118,5.873451062316895Q11.939333313465118,6.563961062316895,11.256233313465119,6.975601062316895Q11.07763331346512,7.083211062316894,10.869133313465118,7.083211062316894Q10.795233313465118,7.083211062316894,10.722733313465119,7.068801062316894Q10.650333313465119,7.054381062316894,10.582083313465118,7.026111062316895Q10.513843313465118,6.997851062316895,10.452423313465118,6.956811062316895Q10.391003313465118,6.915771062316894,10.338773313465119,6.863541062316894Q10.28653331346512,6.811301062316894,10.245493313465118,6.749881062316894Q10.204453313465118,6.688461062316895,10.176193313465118,6.620221062316895Q10.14792331346512,6.551971062316895,10.133513313465118,6.479521062316895Q10.119103313465118,6.407071062316895,10.119103313465118,6.333211062316894Q10.119103313465118,6.236251062316895,10.143753313465119,6.142481062316895Q10.168413313465118,6.048711062316895,10.21610331346512,5.964301062316895Q10.263793313465118,5.879881062316895,10.331383313465118,5.810371062316895Q10.398973313465119,5.7408610623168945,10.482013313465119,5.690821062316894L10.482273313465118,5.690661062316894Q11.24993331346512,5.227961062316894,11.24993331346512,4.333211062316895Q11.24993331346512,3.4383010623168944,10.482013313465119,2.9756010623168945Q10.398973313465119,2.925561062316895,10.331383313465118,2.8560410623168946Q10.263793313465118,2.786531062316895,10.21610331346512,2.7021110623168942Q10.168413313465118,2.6177010623168946,10.143753313465119,2.5239310623168945Q10.119103313465118,2.4301610623168948,10.119103313465118,2.3332110623168942Q10.119103313465118,2.259341062316895,10.133513313465118,2.1868890623168946Q10.14792331346512,2.1144400623168944,10.176193313465118,2.0461940623168946Q10.204453313465118,1.9779490623168945,10.245493313465118,1.9165290623168945Q10.28653331346512,1.8551100623168946,10.338773313465119,1.8028770623168944Q10.391003313465118,1.7506440623168946,10.452423313465118,1.7096050623168946Q10.513843313465118,1.6685660623168945,10.582083313465118,1.6402970623168946Q10.650333313465119,1.6120290623168945,10.722733313465119,1.5976180623168945Q10.795233313465118,1.5832070623168946,10.869133313465118,1.5832070623168946Q11.07763331346512,1.5832070623168946,11.256233313465119,1.6908160623168946L11.25673331346512,1.6911200623168945ZM2.4485233134651185,8.955571062316896Q1.4593603134651185,9.459581062316895,0.9553623134651184,10.448751062316894L0.9553603134651184,10.448751062316894Q0.6883393134651185,10.972811062316895,0.6217891134651184,11.787381062316895Q0.5829671024651184,12.262481062316894,0.5829671024651184,13.599881062316895Q0.5829671024651184,14.076181062316895,0.9197943134651184,14.413081062316895Q1.2566213134651183,14.749881062316895,1.7329633134651183,14.749881062316895L10.932933313465119,14.749881062316895Q11.409333313465119,14.749881062316895,11.74613331346512,14.413081062316895Q12.082933313465118,14.076181062316895,12.082933313465118,13.599881062316895Q12.082933313465118,12.262481062316894,12.04413331346512,11.787381062316895Q11.977633313465118,10.972821062316894,11.710633313465118,10.448761062316894Q11.206533313465119,9.459591062316894,10.217433313465119,8.955591062316895Q9.693353313465119,8.688571062316894,8.878823313465118,8.622031062316895Q8.403673313465118,8.583211062316895,7.066303313465118,8.583211062316895L5.599633313465119,8.583211062316895Q4.262263313465118,8.583211062316895,3.7871033134651184,8.622031062316895Q2.9725833134651185,8.688571062316894,2.4485233134651185,8.955571062316896ZM2.084583313465118,13.249881062316895Q2.1013633134651184,11.503681062316895,2.2918733134651186,11.129731062316894L2.2918733134651186,11.129731062316894Q2.574613313465118,10.574821062316895,3.129463313465118,10.292101062316895Q3.5394833134651185,10.083211062316895,5.599633313465119,10.083211062316895L7.066303313465118,10.083211062316895Q9.126453313465118,10.083211062316895,9.536433313465118,10.292091062316894Q10.091343313465119,10.574831062316894,10.374073313465118,11.129721062316895Q10.564573313465118,11.503581062316895,10.58134331346512,13.249881062316895L2.084583313465118,13.249881062316895ZM13.551833313465119,8.956011062316895Q14.540733313465118,9.460021062316894,15.044533313465118,10.448891062316894Q15.311533313465118,10.972971062316894,15.378133313465119,11.787481062316894Q15.416933313465119,12.262681062316895,15.416933313465119,13.599981062316894L15.416933313465119,13.999981062316895Q15.416933313465119,14.073881062316895,15.402533313465119,14.146381062316895Q15.388133313465119,14.218781062316895,15.359833313465119,14.287081062316895Q15.331533313465119,14.355281062316894,15.290533313465119,14.416681062316895Q15.249533313465118,14.478081062316894,15.197233313465118,14.530381062316895Q15.145033313465118,14.582581062316894,15.083633313465118,14.623581062316894Q15.022233313465119,14.664681062316895,14.953933313465118,14.692981062316894Q14.885733313465119,14.721181062316894,14.813233313465119,14.735581062316895Q14.740833313465119,14.749981062316895,14.666933313465119,14.749981062316895Q14.593033313465119,14.749981062316895,14.520633313465119,14.735581062316895Q14.448133313465119,14.721181062316894,14.379933313465118,14.692981062316894Q14.31163331346512,14.664681062316895,14.250233313465118,14.623581062316894Q14.188833313465118,14.582581062316894,14.136633313465119,14.530381062316895Q14.084333313465118,14.478081062316894,14.04333331346512,14.416681062316895Q14.002333313465119,14.355281062316894,13.97403331346512,14.287081062316895Q13.945733313465118,14.218781062316895,13.93133331346512,14.146381062316895Q13.916933313465119,14.073881062316895,13.916933313465119,13.999981062316895L13.916933313465119,13.599981062316894Q13.916933313465119,11.539881062316894,13.708033313465119,11.129891062316895Q13.425433313465119,10.575151062316895,12.870633313465119,10.292401062316895L12.870433313465119,10.292281062316894L12.870433313465119,10.292281062316894Q12.777933313465118,10.245181062316895,12.701833313465118,10.174761062316895Q12.625633313465118,10.104351062316894,12.571433313465118,10.015901062316894Q12.517233313465118,9.927451062316894,12.489033313465118,9.827601062316894Q12.460933313465118,9.727761062316894,12.460933313465118,9.624021062316894Q12.460933313465118,9.550151062316894,12.475333313465118,9.477701062316894Q12.489733313465118,9.405261062316894,12.518033313465118,9.337011062316895Q12.546233313465118,9.268761062316894,12.587333313465118,9.207341062316894Q12.628333313465118,9.145931062316894,12.68053331346512,9.093691062316895Q12.732833313465118,9.041461062316895,12.794233313465119,9.000421062316894Q12.855633313465118,8.959381062316893,12.923833313465119,8.931111062316894Q12.992133313465118,8.902851062316895,13.064533313465118,8.888431062316894Q13.137033313465118,8.874021062316896,13.210933313465118,8.874021062316896Q13.39093331346512,8.874021062316896,13.551433313465118,8.955771062316895L13.551833313465119,8.956011062316895Z" fill-rule="evenodd" fill="#70B2FC" fill-opacity="1"/></g></g></svg>