<svg xmlns="http://www.w3.org/2000/svg" xmlns:xlink="http://www.w3.org/1999/xlink" fill="currentColor" version="1.1" width="1em" height="1em" viewBox="0 0 16 16"><defs><clipPath id="master_svg0_134_3626"><rect x="0" y="0" width="1em" height="1em" rx="0"/></clipPath></defs><g clip-path="url(#master_svg0_134_3626)"><g><path d="M3.583251953125,14.66661298828125L3.583251953125,3.33331298828125Q3.583251953125,3.25944448828125,3.597662953125,3.18699498828125Q3.612073953125,3.11454598828125,3.640341953125,3.04629998828125Q3.668610953125,2.97805498828125,3.709649953125,2.91663498828125Q3.750688953125,2.85521598828125,3.802921953125,2.80298298828125Q3.855154953125,2.75074998828125,3.916573953125,2.70971098828125Q3.977993953125,2.66867198828125,4.046238953125,2.64040298828125Q4.114484953125,2.61213498828125,4.186933953125,2.59772398828125Q4.259383453125,2.58331298828125,4.333251953125,2.58331298828125L13.666581953125,2.58331298828125Q13.740451953125,2.58331298828125,13.812901953125,2.59772398828125Q13.885351953125,2.61213498828125,13.953601953125,2.64040298828125Q14.021841953125,2.66867198828125,14.083261953125,2.70971098828125Q14.144681953125,2.75074998828125,14.196911953125,2.80298298828125Q14.249151953125,2.85521598828125,14.290191953125,2.91663498828125Q14.331221953125,2.97805498828125,14.359451953125,3.04629998828125Q14.387751953125,3.11454598828125,14.402151953125,3.18699498828125Q14.416551953125,3.25944448828125,14.416551953125,3.33331298828125L14.416551953125,14.66661298828125Q14.416551953125,14.74051298828125,14.402151953125,14.81301298828125Q14.387751953125,14.88541298828125,14.359451953125,14.95361298828125Q14.331221953125,15.02191298828125,14.290191953125,15.08331298828125Q14.249151953125,15.14471298828125,14.196911953125,15.19701298828125Q14.144681953125,15.24921298828125,14.083261953125,15.29021298828125Q14.021841953125,15.33131298828125,13.953601953125,15.35951298828125Q13.885351953125,15.38781298828125,13.812901953125,15.40221298828125Q13.740451953125,15.41661298828125,13.666581953125,15.41661298828125L4.333251953125,15.41661298828125Q4.259383453125,15.41661298828125,4.186933953125,15.40221298828125Q4.114484953125,15.38781298828125,4.046238953125,15.35951298828125Q3.977993953125,15.33131298828125,3.916573953125,15.29021298828125Q3.855154953125,15.24921298828125,3.802921953125,15.19701298828125Q3.750688953125,15.14471298828125,3.709649953125,15.08331298828125Q3.668610953125,15.02191298828125,3.640341953125,14.95361298828125Q3.612073953125,14.88541298828125,3.597662953125,14.81301298828125Q3.583251953125,14.74051298828125,3.583251953125,14.66661298828125ZM5.083251953125,4.08331298828125L5.083251953125,13.91661298828125L12.916581953125,13.91661298828125L12.916581953125,4.08331298828125L5.083251953125,4.08331298828125Z" fill="currentColor" fill-opacity="1"/></g><g><path d="M2.333251953125,13.41661298828125L4.333251953125,13.41661298828125Q4.407121953124999,13.41661298828125,4.479571953124999,13.40221298828125Q4.552021953125,13.38781298828125,4.620261953125,13.35951298828125Q4.6885119531249995,13.33131298828125,4.7499319531249995,13.29021298828125Q4.8113519531249995,13.24921298828125,4.863581953125,13.19701298828125Q4.915811953125,13.14471298828125,4.956851953125,13.08331298828125Q4.997891953125,13.02191298828125,5.0261619531249995,12.95361298828125Q5.054431953125,12.88541298828125,5.068841953125,12.81301298828125Q5.083251953125,12.74051298828125,5.083251953125,12.66661298828125Q5.083251953125,12.59281298828125,5.068841953125,12.52031298828125Q5.054431953125,12.44791298828125,5.0261619531249995,12.37961298828125Q4.997891953125,12.31141298828125,4.956851953125,12.25001298828125Q4.915811953125,12.18851298828125,4.863581953125,12.13631298828125Q4.8113519531249995,12.08411298828125,4.7499319531249995,12.04301298828125Q4.6885119531249995,12.00201298828125,4.620261953125,11.97371298828125Q4.552021953125,11.94551298828125,4.479571953124999,11.93101298828125Q4.407121953124999,11.91661298828125,4.333251953125,11.91661298828125L3.083251953125,11.91661298828125L3.083251953125,2.08331298828125L10.916581953125,2.08331298828125L10.916581953125,3.33331298828125Q10.916581953125,3.40718298828125,10.930991953125,3.47963298828125Q10.945401953125,3.55208298828125,10.973671953125,3.62032298828125Q11.001941953125,3.68857298828125,11.042981953125,3.74999298828125Q11.084021953125,3.81141298828125,11.136251953125,3.86364298828125Q11.188491953125,3.91587298828125,11.249911953125,3.95691298828125Q11.311321953125,3.99795298828125,11.379571953125,4.0262229882812495Q11.447821953125,4.05449298828125,11.520271953125,4.06890298828125Q11.592711953125,4.08331298828125,11.666581953125,4.08331298828125Q11.740451953125,4.08331298828125,11.812901953125,4.06890298828125Q11.885351953125,4.05449298828125,11.953601953125,4.0262229882812495Q12.021841953125,3.99795298828125,12.083261953125,3.95691298828125Q12.144681953125,3.91587298828125,12.196911953125,3.86364298828125Q12.249151953125,3.81141298828125,12.290191953125,3.74999298828125Q12.331221953125,3.68857298828125,12.359451953125,3.62032298828125Q12.387751953125,3.55208298828125,12.402151953125,3.47963298828125Q12.416551953125,3.40718298828125,12.416551953125,3.33331298828125L12.416551953125,1.33331298828125Q12.416551953125,1.2594444882812499,12.402151953125,1.18699498828125Q12.387751953125,1.11454598828125,12.359451953125,1.04629998828125Q12.331221953125,0.9780549882812499,12.290191953125,0.91663498828125Q12.249151953125,0.85521598828125,12.196911953125,0.80298298828125Q12.144681953125,0.75074998828125,12.083261953125,0.70971098828125Q12.021841953125,0.66867198828125,11.953601953125,0.64040298828125Q11.885351953125,0.61213498828125,11.812901953125,0.59772398828125Q11.740451953125,0.58331298828125,11.666581953125,0.58331298828125L2.666584953125,0.58331298828125Q2.217854953125,0.58331298828125,1.900553953125,0.90061498828125Q1.583251953125,1.21791598828125,1.583251953125,1.66664598828125L1.583251953125,12.66661298828125Q1.583251953125,12.74051298828125,1.597662953125,12.81301298828125Q1.612073953125,12.88541298828125,1.640341953125,12.95361298828125Q1.668610953125,13.02191298828125,1.709649953125,13.08331298828125Q1.750688953125,13.14471298828125,1.802921953125,13.19701298828125Q1.855154953125,13.24921298828125,1.916573953125,13.29021298828125Q1.977993953125,13.33131298828125,2.046238953125,13.35951298828125Q2.114484953125,13.38781298828125,2.186933953125,13.40221298828125Q2.259383453125,13.41661298828125,2.333251953125,13.41661298828125Z" fill-rule="evenodd" fill="currentColor" fill-opacity="1"/></g><g><path d="M7,8.08331298828125L11,8.08331298828125Q11.07387,8.08331298828125,11.14632,8.068901988281251Q11.21877,8.05449098828125,11.28701,8.02622298828125Q11.355260000000001,7.99795398828125,11.41668,7.95691498828125Q11.478100000000001,7.91587598828125,11.53033,7.86364298828125Q11.58256,7.81140998828125,11.6236,7.74999098828125Q11.66464,7.68857098828125,11.692910000000001,7.62032598828125Q11.72118,7.55207998828125,11.73559,7.47963098828125Q11.75,7.40718148828125,11.75,7.33331298828125Q11.75,7.25944448828125,11.73559,7.18699498828125Q11.72118,7.11454598828125,11.692910000000001,7.04629998828125Q11.66464,6.97805498828125,11.6236,6.91663498828125Q11.58256,6.85521598828125,11.53033,6.80298298828125Q11.478100000000001,6.75074998828125,11.41668,6.70971098828125Q11.355260000000001,6.66867198828125,11.28701,6.64040298828125Q11.21877,6.61213498828125,11.14632,6.59772398828125Q11.07387,6.58331298828125,11,6.58331298828125L7,6.58331298828125Q6.9261315,6.58331298828125,6.853682,6.59772398828125Q6.781233,6.61213498828125,6.712987,6.64040298828125Q6.644742,6.66867198828125,6.583322,6.70971098828125Q6.521903,6.75074998828125,6.46967,6.80298298828125Q6.417437,6.85521598828125,6.376398,6.91663498828125Q6.335359,6.97805498828125,6.30709,7.04629998828125Q6.278822,7.11454598828125,6.264411,7.18699498828125Q6.25,7.25944448828125,6.25,7.33331298828125Q6.25,7.40718148828125,6.264411,7.47963098828125Q6.278822,7.55207998828125,6.30709,7.62032598828125Q6.335359,7.68857098828125,6.376398,7.74999098828125Q6.417437,7.81140998828125,6.46967,7.86364298828125Q6.521903,7.91587598828125,6.583322,7.95691498828125Q6.644742,7.99795398828125,6.712987,8.02622298828125Q6.781233,8.05449098828125,6.853682,8.068901988281251Q6.9261315,8.08331298828125,7,8.08331298828125Z" fill-rule="evenodd" fill="currentColor" fill-opacity="1"/></g><g><path d="M7,10.75L11,10.75Q11.07387,10.75,11.14632,10.735589000000001Q11.21877,10.721178,11.28701,10.69291Q11.355260000000001,10.664641,11.41668,10.623602Q11.478100000000001,10.582563,11.53033,10.53033Q11.58256,10.478097,11.6236,10.416678Q11.66464,10.355258,11.692910000000001,10.287013Q11.72118,10.218767,11.73559,10.146318Q11.75,10.0738685,11.75,10Q11.75,9.9261315,11.73559,9.853682Q11.72118,9.781233,11.692910000000001,9.712987Q11.66464,9.644742,11.6236,9.583322Q11.58256,9.521903,11.53033,9.46967Q11.478100000000001,9.417437,11.41668,9.376398Q11.355260000000001,9.335359,11.28701,9.30709Q11.21877,9.278822,11.14632,9.264410999999999Q11.07387,9.25,11,9.25L7,9.25Q6.9261315,9.25,6.853682,9.264410999999999Q6.781233,9.278822,6.712987,9.30709Q6.644742,9.335359,6.583322,9.376398Q6.521903,9.417437,6.46967,9.46967Q6.417437,9.521903,6.376398,9.583322Q6.335359,9.644742,6.30709,9.712987Q6.278822,9.781233,6.264411,9.853682Q6.25,9.9261315,6.25,10Q6.25,10.0738685,6.264411,10.146318Q6.278822,10.218767,6.30709,10.287013Q6.335359,10.355258,6.376398,10.416678Q6.417437,10.478097,6.46967,10.53033Q6.521903,10.582563,6.583322,10.623602Q6.644742,10.664641,6.712987,10.69291Q6.781233,10.721178,6.853682,10.735589000000001Q6.9261315,10.75,7,10.75Z" fill-rule="evenodd" fill="currentColor" fill-opacity="1"/></g></g></svg>