<svg xmlns="http://www.w3.org/2000/svg" xmlns:xlink="http://www.w3.org/1999/xlink" fill="currentColor" version="1.1" width="1em" height="1em" viewBox="0 0 24 24"><defs><clipPath id="master_svg0_234_5228"><rect x="0" y="0" width="1em" height="1em" rx="0"/></clipPath></defs><g clip-path="url(#master_svg0_234_5228)"><g><path d="M3.974853515625,6.724853515625L20.474853515625,6.724853515625Q20.548753515625,6.724853515625,20.621153515625,6.710442515625Q20.693653515625,6.696031515625,20.761853515625,6.667763515625Q20.830153515625,6.639494515625,20.891553515625,6.598455515625Q20.952953515625,6.557416515625,21.005153515625,6.505183515625Q21.057453515625,6.452950515625,21.098453515625,6.391531515625Q21.139453515625,6.330111515625,21.167753515625,6.261866515625Q21.196053515625,6.193620515625,21.210453515625,6.121171515625Q21.224853515625,6.048722015625,21.224853515625,5.974853515625Q21.224853515625,5.900985015625,21.210453515625,5.828535515625Q21.196053515625,5.756086515625,21.167753515625,5.687840515625Q21.139453515625,5.619595515625,21.098453515625,5.558175515625Q21.057453515625,5.496756515625,21.005153515625,5.444523515625Q20.952953515625,5.392290515625,20.891553515625,5.351251515625Q20.830153515625,5.310212515625,20.761853515625,5.281943515625Q20.693653515625,5.253675515625,20.621153515625,5.239264515625Q20.548753515625,5.224853515625,20.474853515625,5.224853515625L3.974853515625,5.224853515625Q3.900985015625,5.224853515625,3.828535515625,5.239264515625Q3.756086515625,5.253675515625,3.687840515625,5.281943515625Q3.619595515625,5.310212515625,3.558175515625,5.351251515625Q3.496756515625,5.392290515625,3.444523515625,5.444523515625Q3.392290515625,5.496756515625,3.351251515625,5.558175515625Q3.310212515625,5.619595515625,3.281943515625,5.687840515625Q3.253675515625,5.756086515625,3.239264515625,5.828535515625Q3.224853515625,5.900985015625,3.224853515625,5.974853515625Q3.224853515625,6.048722015625,3.239264515625,6.121171515625Q3.253675515625,6.193620515625,3.281943515625,6.261866515625Q3.310212515625,6.330111515625,3.351251515625,6.391531515625Q3.392290515625,6.452950515625,3.444523515625,6.505183515625Q3.496756515625,6.557416515625,3.558175515625,6.598455515625Q3.619595515625,6.639494515625,3.687840515625,6.667763515625Q3.756086515625,6.696031515625,3.828535515625,6.710442515625Q3.900985015625,6.724853515625,3.974853515625,6.724853515625Z" fill-rule="evenodd" fill="currentColor" fill-opacity="1"/></g><g><path d="M3.974853515625,12.724853515625L11.474853515625,12.724853515625Q11.548723515625,12.724853515625,11.621173515625,12.710442515625001Q11.693623515625,12.696031515625,11.761863515625,12.667763515625Q11.830113515625001,12.639494515625,11.891533515625,12.598455515625Q11.952953515625001,12.557416515625,12.005183515625,12.505183515625Q12.057413515625,12.452950515625,12.098453515625,12.391531515625Q12.139493515625,12.330111515625,12.167763515625,12.261866515625Q12.196033515625,12.193620515625,12.210443515625,12.121171515625Q12.224853515625,12.048722015625,12.224853515625,11.974853515625Q12.224853515625,11.900985015625,12.210443515625,11.828535515625Q12.196033515625,11.756086515625,12.167763515625,11.687840515625Q12.139493515625,11.619595515625,12.098453515625,11.558175515625Q12.057413515625,11.496756515625,12.005183515625,11.444523515625Q11.952953515625001,11.392290515625,11.891533515625,11.351251515625Q11.830113515625001,11.310212515625,11.761863515625,11.281943515625Q11.693623515625,11.253675515625,11.621173515625,11.239264515624999Q11.548723515625,11.224853515625,11.474853515625,11.224853515625L3.974853515625,11.224853515625Q3.900985015625,11.224853515625,3.828535515625,11.239264515624999Q3.756086515625,11.253675515625,3.687840515625,11.281943515625Q3.619595515625,11.310212515625,3.558175515625,11.351251515625Q3.496756515625,11.392290515625,3.444523515625,11.444523515625Q3.392290515625,11.496756515625,3.351251515625,11.558175515625Q3.310212515625,11.619595515625,3.281943515625,11.687840515625Q3.253675515625,11.756086515625,3.239264515625,11.828535515625Q3.224853515625,11.900985015625,3.224853515625,11.974853515625Q3.224853515625,12.048722015625,3.239264515625,12.121171515625Q3.253675515625,12.193620515625,3.281943515625,12.261866515625Q3.310212515625,12.330111515625,3.351251515625,12.391531515625Q3.392290515625,12.452950515625,3.444523515625,12.505183515625Q3.496756515625,12.557416515625,3.558175515625,12.598455515625Q3.619595515625,12.639494515625,3.687840515625,12.667763515625Q3.756086515625,12.696031515625,3.828535515625,12.710442515625001Q3.900985015625,12.724853515625,3.974853515625,12.724853515625Z" fill-rule="evenodd" fill="currentColor" fill-opacity="1"/></g><g><path d="M3.974853515625,18.724853515625L11.474853515625,18.724853515625Q11.548723515625,18.724853515625,11.621173515625,18.710442515625Q11.693623515625,18.696031515625,11.761863515625,18.667763515625Q11.830113515625001,18.639494515625,11.891533515625,18.598455515624998Q11.952953515625001,18.557416515625,12.005183515625,18.505183515625Q12.057413515625,18.452950515624998,12.098453515625,18.391531515625Q12.139493515625,18.330111515625,12.167763515625,18.261866515625Q12.196033515625,18.193620515625,12.210443515625,18.121171515625Q12.224853515625,18.048722015625,12.224853515625,17.974853515625Q12.224853515625,17.900985015625,12.210443515625,17.828535515625Q12.196033515625,17.756086515625,12.167763515625,17.687840515625Q12.139493515625,17.619595515625,12.098453515625,17.558175515625Q12.057413515625,17.496756515625002,12.005183515625,17.444523515625Q11.952953515625001,17.392290515625,11.891533515625,17.351251515625002Q11.830113515625001,17.310212515625,11.761863515625,17.281943515625Q11.693623515625,17.253675515625,11.621173515625,17.239264515625Q11.548723515625,17.224853515625,11.474853515625,17.224853515625L3.974853515625,17.224853515625Q3.900985015625,17.224853515625,3.828535515625,17.239264515625Q3.756086515625,17.253675515625,3.687840515625,17.281943515625Q3.619595515625,17.310212515625,3.558175515625,17.351251515625002Q3.496756515625,17.392290515625,3.444523515625,17.444523515625Q3.392290515625,17.496756515625002,3.351251515625,17.558175515625Q3.310212515625,17.619595515625,3.281943515625,17.687840515625Q3.253675515625,17.756086515625,3.239264515625,17.828535515625Q3.224853515625,17.900985015625,3.224853515625,17.974853515625Q3.224853515625,18.048722015625,3.239264515625,18.121171515625Q3.253675515625,18.193620515625,3.281943515625,18.261866515625Q3.310212515625,18.330111515625,3.351251515625,18.391531515625Q3.392290515625,18.452950515624998,3.444523515625,18.505183515625Q3.496756515625,18.557416515625,3.558175515625,18.598455515624998Q3.619595515625,18.639494515625,3.687840515625,18.667763515625Q3.756086515625,18.696031515625,3.828535515625,18.710442515625Q3.900985015625,18.724853515625,3.974853515625,18.724853515625Z" fill-rule="evenodd" fill="currentColor" fill-opacity="1"/></g><g transform="matrix(-1,-2.9797782019613805e-8,-2.9797782019613805e-8,1,44.324219107573384,6.6038170487559e-7)"><path d="M22.739626375,12.794086L26.257739375,17.63149C26.457419375,17.90605,26.866799375,17.90605,27.066479375,17.63149L30.584589375,12.794086C30.824949375,12.463601,30.588869375,12,30.180229375,12L23.143994375,12C22.735351375,12,22.499274375,12.463601,22.739626375,12.794086" fill-rule="evenodd" fill="currentColor" fill-opacity="1"/></g></g></svg>