<svg xmlns="http://www.w3.org/2000/svg" xmlns:xlink="http://www.w3.org/1999/xlink" fill="currentColor" version="1.1" width="1em" height="1em" viewBox="0 0 16 16"><g><g><path d="M5.666423064479828,2.5832512378604737L14.666413064479828,2.5832512378604737Q14.740313064479828,2.5832512378604737,14.812713064479828,2.5976622538604737Q14.885213064479828,2.6120733538604735,14.953413064479827,2.6403415538604738Q15.021713064479828,2.6686098538604734,15.083113064479829,2.7096492538604737Q15.144513064479828,2.7506882538604738,15.196713064479829,2.8029212538604735Q15.249013064479827,2.8551542538604737,15.290013064479828,2.9165732538604736Q15.331013064479828,2.9779932538604736,15.359313064479828,3.0462382538604738Q15.387613064479828,3.1144842538604736,15.402013064479828,3.1869332538604738Q15.416413064479828,3.2593822538604735,15.416413064479828,3.3332512538604737Q15.416413064479828,3.4071192538604738,15.402013064479828,3.4795692538604737Q15.387613064479828,3.5520182538604734,15.359313064479828,3.6202632538604735Q15.331013064479828,3.6885132538604735,15.290013064479828,3.7499332538604735Q15.249013064479827,3.811343253860474,15.196713064479829,3.8635832538604737Q15.144513064479828,3.915813253860474,15.083113064479829,3.9568532538604737Q15.021713064479828,3.9978932538604735,14.953413064479827,4.0261632538604735Q14.885213064479828,4.0544332538604735,14.812713064479828,4.068843253860473Q14.740313064479828,4.083253253860473,14.666413064479828,4.083253253860473L5.666423064479828,4.083253253860473Q5.592553064479828,4.083253253860473,5.5201030644798275,4.068843253860473Q5.447653064479828,4.0544332538604735,5.379403064479828,4.0261632538604735Q5.311163064479828,3.9978932538604735,5.249743064479828,3.9568532538604737Q5.188323064479828,3.915813253860474,5.1360930644798275,3.8635832538604737Q5.083853064479828,3.811343253860474,5.0428130644798275,3.7499332538604735Q5.001783064479828,3.6885132538604735,4.973513064479828,3.6202632538604735Q4.945243064479828,3.5520182538604734,4.9308330644798275,3.4795692538604737Q4.916423064479828,3.4071192538604738,4.916423064479828,3.3332512538604737Q4.916423064479828,3.2593822538604735,4.9308330644798275,3.1869332538604738Q4.945243064479828,3.1144842538604736,4.973513064479828,3.0462382538604738Q5.001783064479828,2.9779932538604736,5.0428130644798275,2.9165732538604736Q5.083853064479828,2.8551542538604737,5.1360930644798275,2.8029212538604735Q5.188323064479828,2.7506882538604738,5.249743064479828,2.7096492538604737Q5.311163064479828,2.6686098538604734,5.379403064479828,2.6403415538604738Q5.447653064479828,2.6120733538604735,5.5201030644798275,2.5976622538604737Q5.592553064479828,2.5832512378604737,5.666423064479828,2.5832512378604737ZM5.666423064479828,7.2500032538604735L14.666413064479828,7.2500032538604735Q14.740313064479828,7.2500032538604735,14.812713064479828,7.264413253860473Q14.885213064479828,7.278823253860474,14.953413064479827,7.307093253860474Q15.021713064479828,7.3353532538604735,15.083113064479829,7.376393253860473Q15.144513064479828,7.417433253860474,15.196713064479829,7.469673253860473Q15.249013064479827,7.521903253860474,15.290013064479828,7.583323253860474Q15.331013064479828,7.644743253860474,15.359313064479828,7.7129832538604735Q15.387613064479828,7.781233253860473,15.402013064479828,7.853683253860473Q15.416413064479828,7.926133253860474,15.416413064479828,8.000003253860474Q15.416413064479828,8.073863253860473,15.402013064479828,8.146313253860473Q15.387613064479828,8.218763253860473,15.359313064479828,8.287013253860474Q15.331013064479828,8.355253253860473,15.290013064479828,8.416673253860473Q15.249013064479827,8.478093253860473,15.196713064479829,8.530333253860473Q15.144513064479828,8.582563253860474,15.083113064479829,8.623603253860473Q15.021713064479828,8.664643253860474,14.953413064479827,8.692903253860473Q14.885213064479828,8.721173253860474,14.812713064479828,8.735583253860474Q14.740313064479828,8.750003253860474,14.666413064479828,8.750003253860474L5.666423064479828,8.750003253860474Q5.592553064479828,8.750003253860474,5.5201030644798275,8.735583253860474Q5.447653064479828,8.721173253860474,5.379403064479828,8.692903253860473Q5.311163064479828,8.664643253860474,5.249743064479828,8.623603253860473Q5.188323064479828,8.582563253860474,5.1360930644798275,8.530333253860473Q5.083853064479828,8.478093253860473,5.0428130644798275,8.416673253860473Q5.001783064479828,8.355253253860473,4.973513064479828,8.287013253860474Q4.945243064479828,8.218763253860473,4.9308330644798275,8.146313253860473Q4.916423064479828,8.073863253860473,4.916423064479828,8.000003253860474Q4.916423064479828,7.926133253860474,4.9308330644798275,7.853683253860473Q4.945243064479828,7.781233253860473,4.973513064479828,7.7129832538604735Q5.001783064479828,7.644743253860474,5.0428130644798275,7.583323253860474Q5.083853064479828,7.521903253860474,5.1360930644798275,7.469673253860473Q5.188323064479828,7.417433253860474,5.249743064479828,7.376393253860473Q5.311163064479828,7.3353532538604735,5.379403064479828,7.307093253860474Q5.447653064479828,7.278823253860474,5.5201030644798275,7.264413253860473Q5.592553064479828,7.2500032538604735,5.666423064479828,7.2500032538604735ZM5.666423064479828,11.916753253860474L14.666413064479828,11.916753253860474Q14.740313064479828,11.916753253860474,14.812713064479828,11.931163253860474Q14.885213064479828,11.945573253860474,14.953413064479827,11.973833253860473Q15.021713064479828,12.002103253860474,15.083113064479829,12.043143253860473Q15.144513064479828,12.084183253860473,15.196713064479829,12.136413253860473Q15.249013064479827,12.188653253860474,15.290013064479828,12.250073253860474Q15.331013064479828,12.311493253860474,15.359313064479828,12.379733253860474Q15.387613064479828,12.447983253860473,15.402013064479828,12.520433253860473Q15.416413064479828,12.592833253860473,15.416413064479828,12.666733253860473Q15.416413064479828,12.740633253860473,15.402013064479828,12.813033253860473Q15.387613064479828,12.885533253860473,15.359313064479828,12.953733253860474Q15.331013064479828,13.022033253860474,15.290013064479828,13.083433253860473Q15.249013064479827,13.144833253860474,15.196713064479829,13.197033253860473Q15.144513064479828,13.249333253860474,15.083113064479829,13.290333253860474Q15.021713064479828,13.331433253860475,14.953413064479827,13.359633253860475Q14.885213064479828,13.387933253860474,14.812713064479828,13.402333253860474Q14.740313064479828,13.416733253860473,14.666413064479828,13.416733253860473L5.666423064479828,13.416733253860473Q5.592553064479828,13.416733253860473,5.5201030644798275,13.402333253860474Q5.447653064479828,13.387933253860474,5.379403064479828,13.359633253860475Q5.311163064479828,13.331433253860475,5.249743064479828,13.290333253860474Q5.188323064479828,13.249333253860474,5.1360930644798275,13.197033253860473Q5.083853064479828,13.144833253860474,5.0428130644798275,13.083433253860473Q5.001783064479828,13.022033253860474,4.973513064479828,12.953733253860474Q4.945243064479828,12.885533253860473,4.9308330644798275,12.813033253860473Q4.916423064479828,12.740633253860473,4.916423064479828,12.666733253860473Q4.916423064479828,12.592833253860473,4.9308330644798275,12.520433253860473Q4.945243064479828,12.447983253860473,4.973513064479828,12.379733253860474Q5.001783064479828,12.311493253860474,5.0428130644798275,12.250073253860474Q5.083853064479828,12.188653253860474,5.1360930644798275,12.136413253860473Q5.188323064479828,12.084183253860473,5.249743064479828,12.043143253860473Q5.311163064479828,12.002103253860474,5.379403064479828,11.973833253860473Q5.447653064479828,11.945573253860474,5.5201030644798275,11.931163253860474Q5.592553064479828,11.916753253860474,5.666423064479828,11.916753253860474ZM1.3334130644798279,2.5832512378604737L3.0000830644798278,2.5832512378604737Q3.073953064479828,2.5832512378604737,3.146393064479828,2.5976622538604737Q3.218843064479828,2.6120733538604735,3.2870930644798277,2.6403415538604738Q3.355333064479828,2.6686098538604734,3.416753064479828,2.7096492538604737Q3.478173064479828,2.7506882538604738,3.530413064479828,2.8029212538604735Q3.5826430644798277,2.8551542538604737,3.623683064479828,2.9165732538604736Q3.664723064479828,2.9779932538604736,3.6929930644798277,3.0462382538604738Q3.721253064479828,3.1144842538604736,3.735673064479828,3.1869332538604738Q3.7500830644798278,3.2593822538604735,3.7500830644798278,3.3332512538604737Q3.7500830644798278,3.4071192538604738,3.735673064479828,3.4795692538604737Q3.721253064479828,3.5520182538604734,3.6929930644798277,3.6202632538604735Q3.664723064479828,3.6885132538604735,3.623683064479828,3.7499332538604735Q3.5826430644798277,3.811343253860474,3.530413064479828,3.8635832538604737Q3.478173064479828,3.915813253860474,3.416753064479828,3.9568532538604737Q3.355333064479828,3.9978932538604735,3.2870930644798277,4.0261632538604735Q3.218843064479828,4.0544332538604735,3.146393064479828,4.068843253860473Q3.073953064479828,4.083253253860473,3.0000830644798278,4.083253253860473L1.3334130644798279,4.083253253860473Q1.259544064479828,4.083253253860473,1.187095064479828,4.068843253860473Q1.1146460644798277,4.0544332538604735,1.046400064479828,4.0261632538604735Q0.9781550644798278,3.9978932538604735,0.9167350644798279,3.9568532538604737Q0.8553160644798279,3.915813253860474,0.8030830644798279,3.8635832538604737Q0.7508500644798279,3.811343253860474,0.7098110644798279,3.7499332538604735Q0.6687716644798278,3.6885132538604735,0.6405033644798279,3.6202632538604735Q0.6122351644798278,3.5520182538604734,0.5978240644798278,3.4795692538604737Q0.5834130644798279,3.4071192538604738,0.5834130644798279,3.3332512538604737Q0.5834130644798279,3.2593822538604735,0.5978240644798278,3.1869332538604738Q0.6122351644798278,3.1144842538604736,0.6405033644798279,3.0462382538604738Q0.6687716644798278,2.9779932538604736,0.7098110644798279,2.9165732538604736Q0.7508500644798279,2.8551542538604737,0.8030830644798279,2.8029212538604735Q0.8553160644798279,2.7506882538604738,0.9167350644798279,2.7096492538604737Q0.9781550644798278,2.6686098538604734,1.046400064479828,2.6403415538604738Q1.1146460644798277,2.6120733538604735,1.187095064479828,2.5976622538604737Q1.259544064479828,2.5832512378604737,1.3334130644798279,2.5832512378604737ZM1.3334130644798279,7.2500032538604735L3.0000830644798278,7.2500032538604735Q3.073953064479828,7.2500032538604735,3.146393064479828,7.264413253860473Q3.218843064479828,7.278823253860474,3.2870930644798277,7.307093253860474Q3.355333064479828,7.3353532538604735,3.416753064479828,7.376393253860473Q3.478173064479828,7.417433253860474,3.530413064479828,7.469673253860473Q3.5826430644798277,7.521903253860474,3.623683064479828,7.583323253860474Q3.664723064479828,7.644743253860474,3.6929930644798277,7.7129832538604735Q3.721253064479828,7.781233253860473,3.735673064479828,7.853683253860473Q3.7500830644798278,7.926133253860474,3.7500830644798278,8.000003253860474Q3.7500830644798278,8.073863253860473,3.735673064479828,8.146313253860473Q3.721253064479828,8.218763253860473,3.6929930644798277,8.287013253860474Q3.664723064479828,8.355253253860473,3.623683064479828,8.416673253860473Q3.5826430644798277,8.478093253860473,3.530413064479828,8.530333253860473Q3.478173064479828,8.582563253860474,3.416753064479828,8.623603253860473Q3.355333064479828,8.664643253860474,3.2870930644798277,8.692903253860473Q3.218843064479828,8.721173253860474,3.146393064479828,8.735583253860474Q3.073953064479828,8.750003253860474,3.0000830644798278,8.750003253860474L1.3334130644798279,8.750003253860474Q1.259544064479828,8.750003253860474,1.187095064479828,8.735583253860474Q1.1146460644798277,8.721173253860474,1.046400064479828,8.692903253860473Q0.9781550644798278,8.664643253860474,0.9167350644798279,8.623603253860473Q0.8553160644798279,8.582563253860474,0.8030830644798279,8.530333253860473Q0.7508500644798279,8.478093253860473,0.7098110644798279,8.416673253860473Q0.6687716644798278,8.355253253860473,0.6405033644798279,8.287013253860474Q0.6122351644798278,8.218763253860473,0.5978240644798278,8.146313253860473Q0.5834130644798279,8.073863253860473,0.5834130644798279,8.000003253860474Q0.5834130644798279,7.926133253860474,0.5978240644798278,7.853683253860473Q0.6122351644798278,7.781233253860473,0.6405033644798279,7.7129832538604735Q0.6687716644798278,7.644743253860474,0.7098110644798279,7.583323253860474Q0.7508500644798279,7.521903253860474,0.8030830644798279,7.469673253860473Q0.8553160644798279,7.417433253860474,0.9167350644798279,7.376393253860473Q0.9781550644798278,7.3353532538604735,1.046400064479828,7.307093253860474Q1.1146460644798277,7.278823253860474,1.187095064479828,7.264413253860473Q1.259544064479828,7.2500032538604735,1.3334130644798279,7.2500032538604735ZM1.3334130644798279,11.916753253860474L3.0000830644798278,11.916753253860474Q3.073953064479828,11.916753253860474,3.146393064479828,11.931163253860474Q3.218843064479828,11.945573253860474,3.2870930644798277,11.973833253860473Q3.355333064479828,12.002103253860474,3.416753064479828,12.043143253860473Q3.478173064479828,12.084183253860473,3.530413064479828,12.136413253860473Q3.5826430644798277,12.188653253860474,3.623683064479828,12.250073253860474Q3.664723064479828,12.311493253860474,3.6929930644798277,12.379733253860474Q3.721253064479828,12.447983253860473,3.735673064479828,12.520433253860473Q3.7500830644798278,12.592833253860473,3.7500830644798278,12.666733253860473Q3.7500830644798278,12.740633253860473,3.735673064479828,12.813033253860473Q3.721253064479828,12.885533253860473,3.6929930644798277,12.953733253860474Q3.664723064479828,13.022033253860474,3.623683064479828,13.083433253860473Q3.5826430644798277,13.144833253860474,3.530413064479828,13.197033253860473Q3.478173064479828,13.249333253860474,3.416753064479828,13.290333253860474Q3.355333064479828,13.331433253860475,3.2870930644798277,13.359633253860475Q3.218843064479828,13.387933253860474,3.146393064479828,13.402333253860474Q3.073953064479828,13.416733253860473,3.0000830644798278,13.416733253860473L1.3334130644798279,13.416733253860473Q1.259544064479828,13.416733253860473,1.187095064479828,13.402333253860474Q1.1146460644798277,13.387933253860474,1.046400064479828,13.359633253860475Q0.9781550644798278,13.331433253860475,0.9167350644798279,13.290333253860474Q0.8553160644798279,13.249333253860474,0.8030830644798279,13.197033253860473Q0.7508500644798279,13.144833253860474,0.7098110644798279,13.083433253860473Q0.6687716644798278,13.022033253860474,0.6405033644798279,12.953733253860474Q0.6122351644798278,12.885533253860473,0.5978240644798278,12.813033253860473Q0.5834130644798279,12.740633253860473,0.5834130644798279,12.666733253860473Q0.5834130644798279,12.592833253860473,0.5978240644798278,12.520433253860473Q0.6122351644798278,12.447983253860473,0.6405033644798279,12.379733253860474Q0.6687716644798278,12.311493253860474,0.7098110644798279,12.250073253860474Q0.7508500644798279,12.188653253860474,0.8030830644798279,12.136413253860473Q0.8553160644798279,12.084183253860473,0.9167350644798279,12.043143253860473Q0.9781550644798278,12.002103253860474,1.046400064479828,11.973833253860473Q1.1146460644798277,11.945573253860474,1.187095064479828,11.931163253860474Q1.259544064479828,11.916753253860474,1.3334130644798279,11.916753253860474Z" fill-rule="evenodd" fill="currentColor" fill-opacity="1"/></g></g></svg>