<svg xmlns="http://www.w3.org/2000/svg" xmlns:xlink="http://www.w3.org/1999/xlink" fill="currentColor" version="1.1" width="1em" height="1em" viewBox="0 0 20 20"><g><g><path d="M7.5,10.5L12.5,10.5Q12.57387,10.5,12.64632,10.514410999999999Q12.71877,10.528822,12.78701,10.55709Q12.855260000000001,10.585359,12.91668,10.626398Q12.978100000000001,10.667437,13.03033,10.71967Q13.08256,10.771903,13.1236,10.833322Q13.16464,10.894742,13.192910000000001,10.962987Q13.22118,11.031233,13.23559,11.103682Q13.25,11.1761315,13.25,11.25Q13.25,11.3238685,13.23559,11.396318Q13.22118,11.468767,13.192910000000001,11.537013Q13.16464,11.605258,13.1236,11.666678Q13.08256,11.728097,13.03033,11.78033Q12.978100000000001,11.832563,12.91668,11.873602Q12.855260000000001,11.914641,12.78701,11.94291Q12.71877,11.971178,12.64632,11.985589000000001Q12.57387,12,12.5,12L7.5,12Q7.4261315,12,7.353682,11.985589000000001Q7.281233,11.971178,7.212987,11.94291Q7.144742,11.914641,7.083322,11.873602Q7.021903,11.832563,6.96967,11.78033Q6.917437,11.728097,6.876398,11.666678Q6.835359,11.605258,6.80709,11.537013Q6.778822,11.468767,6.764411,11.396318Q6.75,11.3238685,6.75,11.25Q6.75,11.1761315,6.764411,11.103682Q6.778822,11.031233,6.80709,10.962987Q6.835359,10.894742,6.876398,10.833322Q6.917437,10.771903,6.96967,10.71967Q7.021903,10.667437,7.083322,10.626398Q7.144742,10.585359,7.212987,10.55709Q7.281233,10.528822,7.353682,10.514410999999999Q7.4261315,10.5,7.5,10.5Z" fill-rule="evenodd" fill="currentColor" fill-opacity="1"/></g><g><path d="M9.25,8.75Q9.25,8.6761315,9.264410999999999,8.603682Q9.278822,8.531233,9.30709,8.462987Q9.335359,8.394742,9.376398,8.333322Q9.417437,8.271903,9.46967,8.21967Q9.521903,8.167437,9.583322,8.126398Q9.644742,8.085359,9.712987,8.05709Q9.781233,8.028822,9.853682,8.014410999999999Q9.9261315,8,10,8Q10.0738685,8,10.146318,8.014410999999999Q10.218767,8.028822,10.287013,8.05709Q10.355258,8.085359,10.416678,8.126398Q10.478097,8.167437,10.53033,8.21967Q10.582563,8.271903,10.623602,8.333322Q10.664641,8.394742,10.69291,8.462987Q10.721178,8.531233,10.735589000000001,8.603682Q10.75,8.6761315,10.75,8.75L10.75,13.75Q10.75,13.82387,10.735589000000001,13.89632Q10.721178,13.96877,10.69291,14.03701Q10.664641,14.105260000000001,10.623602,14.16668Q10.582563,14.228100000000001,10.53033,14.28033Q10.478097,14.33256,10.416678,14.3736Q10.355258,14.41464,10.287013,14.442910000000001Q10.218767,14.47118,10.146318,14.48559Q10.0738685,14.5,10,14.5Q9.9261315,14.5,9.853682,14.48559Q9.781233,14.47118,9.712987,14.442910000000001Q9.644742,14.41464,9.583322,14.3736Q9.521903,14.33256,9.46967,14.28033Q9.417437,14.228100000000001,9.376398,14.16668Q9.335359,14.105260000000001,9.30709,14.03701Q9.278822,13.96877,9.264410999999999,13.89632Q9.25,13.82387,9.25,13.75L9.25,8.75Z" fill-rule="evenodd" fill="currentColor" fill-opacity="1"/></g><g><path d="M3.3202817968750002,18.25L16.666691796875,18.25Q17.495191796874998,18.25,18.080891796875,17.6642Q18.666691796875,17.078400000000002,18.666691796875,16.25L18.666691796875,6.25Q18.666691796875,5.42157,18.080891796875,4.835789999999999Q17.495191796874998,4.25,16.666691796875,4.25L10.585521796875,4.25Q10.351331796875,4.25,10.201411796875,4.07009L8.867691796875,2.4696311Q8.268001796875,1.75,7.331251796875,1.75L3.3321917968749997,1.75Q2.504324796875,1.75,1.918653796875,2.3351129999999998Q1.332983796875,2.920226,1.332194796875,3.74809L1.320284796875,16.2481Q1.319494796875,17.0771,1.905395796875,17.6635Q2.491298796875,18.25,3.3202817968750002,18.25ZM17.020291796875,16.6036Q16.873791796875,16.75,16.666691796875,16.75L3.3202817968750002,16.75Q3.1130417968749997,16.75,2.966561796875,16.6034Q2.820085796875,16.4568,2.820283796875,16.249499999999998L2.832193796875,3.74952Q2.832390796875,3.54256,2.978808796875,3.396278Q3.125221796875,3.25,3.3321917968749997,3.25L7.331251796875,3.25Q7.565431796875,3.25,7.715361796875,3.429908L9.049081796875,5.03037Q9.648771796875,5.75,10.585521796875,5.75L16.666691796875,5.75Q16.873791796875,5.75,17.020291796875,5.89645Q17.166691796875,6.04289,17.166691796875,6.25L17.166691796875,16.25Q17.166691796875,16.4571,17.020291796875,16.6036Z" fill-rule="evenodd" fill="currentColor" fill-opacity="1"/></g></g></svg>