<svg xmlns="http://www.w3.org/2000/svg" xmlns:xlink="http://www.w3.org/1999/xlink" fill="currentColor" version="1.1" width="1em" height="1em" viewBox="0 0 16 16"><defs><clipPath id="master_svg0_134_3578"><rect x="0" y="0" width="1em" height="1em" rx="0"/></clipPath></defs><g clip-path="url(#master_svg0_134_3578)"><g><path d="M14.845051953125,14.17852701171875Q15.333251953125,13.69037701171875,15.333251953125,13.00001701171875L15.333251953125,9.66668701171875Q15.333251953125,9.60102611171875,15.320451953125,9.53662701171875Q15.307651953125,9.47222801171875,15.282551953125,9.41156501171875Q15.257351953125,9.35090201171875,15.220851953125,9.29630701171875Q15.184451953125,9.24171201171875,15.137951953125,9.19528301171875Q15.091551953125,9.14885301171875,15.036951953125,9.11237401171875Q14.982351953125,9.07589501171875,14.921751953125,9.05076701171875Q14.861051953125,9.02564001171875,14.796651953125,9.01283001171875Q14.732251953125,9.00002001171875,14.666551953125,9.00002001171875L1.333251953125,9.00002001171875Q1.267591053125,9.00002001171875,1.203191953125,9.01283001171875Q1.138792953125,9.02564001171875,1.078129953125,9.05076701171875Q1.017466953125,9.07589501171875,0.9628719531250001,9.11237401171875Q0.908276953125,9.14885301171875,0.8618479531250001,9.19528301171875Q0.815417953125,9.24171201171875,0.778938953125,9.29630701171875Q0.742459953125,9.35090201171875,0.717331953125,9.41156501171875Q0.692204953125,9.47222801171875,0.679394953125,9.53662701171875Q0.666584953125,9.60102611171875,0.666584953125,9.66668701171875L0.666584953125,13.00001701171875Q0.666584953125,13.69037701171875,1.154740953125,14.17852701171875Q1.642895953125,14.66668701171875,2.333251953125,14.66668701171875L13.666551953125,14.66668701171875Q14.356951953125,14.66668701171875,14.845051953125,14.17852701171875ZM13.999951953125,10.33335401171875L13.999951953125,13.00001701171875Q13.999951953125,13.33335701171875,13.666551953125,13.33335701171875L2.333251953125,13.33335701171875Q1.999918953125,13.33335701171875,1.999918953125,13.00001701171875L1.999918953125,10.33335401171875L13.999951953125,10.33335401171875Z" fill-rule="evenodd" fill="currentColor" fill-opacity="1"/></g><g><path d="M12.66667,11.833333Q12.66667,11.91541,12.65065,11.995909Q12.634640000000001,12.07641,12.60323,12.152239999999999Q12.57182,12.22806,12.52622,12.29631Q12.48063,12.36455,12.42259,12.42259Q12.36455,12.48063,12.29631,12.52622Q12.22806,12.57182,12.152239999999999,12.60323Q12.07641,12.634640000000001,11.995909,12.65065Q11.91541,12.66667,11.833333,12.66667Q11.751257,12.66667,11.670758,12.65065Q11.590259,12.634640000000001,11.51443,12.60323Q11.438602,12.57182,11.370358,12.52622Q11.302114,12.48063,11.244078,12.42259Q11.186041,12.36455,11.140442,12.29631Q11.0948429,12.22806,11.0634337,12.152239999999999Q11.0320245,12.07641,11.0160123,11.995909Q11,11.91541,11,11.833333Q11,11.751257,11.0160123,11.670758Q11.0320245,11.590259,11.0634337,11.51443Q11.0948429,11.438602,11.140442,11.370358Q11.186041,11.302114,11.244078,11.244078Q11.302114,11.186041,11.370358,11.140442Q11.438602,11.0948429,11.51443,11.0634337Q11.590259,11.0320245,11.670758,11.0160123Q11.751257,11,11.833333,11Q11.91541,11,11.995909,11.0160123Q12.07641,11.0320245,12.152239999999999,11.0634337Q12.22806,11.0948429,12.29631,11.140442Q12.36455,11.186041,12.42259,11.244078Q12.48063,11.302114,12.52622,11.370358Q12.57182,11.438602,12.60323,11.51443Q12.634640000000001,11.590259,12.65065,11.670758Q12.66667,11.751257,12.66667,11.833333Z" fill="currentColor" fill-opacity="1"/></g><g><path d="M12.519351953125,2.5986058007812503L14.013851953125,9.80201080078125L15.319351953125,9.531150800781251L13.824851953125,2.32774380078125Q13.704451953125,1.74761540078125,13.244951953125,1.37363480078125Q12.785451953125,0.99965380078125,12.192951953125,0.99965380078125L3.824581953125,0.99965380078125Q3.233201953125,0.99965380078125,2.774081953125,1.37239980078125Q2.314963953125,1.74514490078125,2.193466953125,2.32390880078125L0.680806953125,9.529620800781249L1.9856969531250002,9.80355080078125L3.498361953125,2.59783880078125Q3.553951953125,2.33298780078125,3.824581953125,2.33298780078125L12.192951953125,2.33298780078125Q12.464251953125,2.33298780078125,12.519351953125,2.5986058007812503Z" fill-rule="evenodd" fill="currentColor" fill-opacity="1"/></g></g></svg>