<svg xmlns="http://www.w3.org/2000/svg" xmlns:xlink="http://www.w3.org/1999/xlink" fill="currentColor" version="1.1" width="1em" height="1em" viewBox="0 0 16 16"><g><g></g><g><path d="M4.250080310668945,1.9999538937683106Q4.250080310668945,1.9260848937683106,4.264490310668945,1.8536358937683106Q4.278900310668945,1.7811868937683104,4.307170310668946,1.7129408937683106Q4.335440310668945,1.6446958937683105,4.376480310668946,1.5832758937683105Q4.417510310668945,1.5218568937683106,4.469750310668945,1.4696238937683106Q4.521980310668946,1.4173908937683106,4.583400310668946,1.3763518937683106Q4.644820310668946,1.3353123937683105,4.713070310668945,1.3070440937683105Q4.781310310668945,1.2787757937683106,4.853760310668946,1.2643647937683105Q4.926210310668946,1.2499537467683106,5.000080310668945,1.2499537467683106Q5.073950310668945,1.2499537467683106,5.146400310668945,1.2643647937683105Q5.218840310668945,1.2787757937683106,5.287090310668946,1.3070440937683105Q5.355340310668945,1.3353123937683105,5.416760310668945,1.3763518937683106Q5.478170310668945,1.4173908937683106,5.5304103106689455,1.4696238937683106Q5.582640310668945,1.5218568937683106,5.623680310668945,1.5832758937683105Q5.664720310668946,1.6446958937683105,5.692990310668946,1.7129408937683106Q5.721250310668945,1.7811868937683104,5.7356703106689455,1.8536358937683106Q5.750080310668945,1.9260848937683106,5.750080310668945,1.9999538937683106L5.750080310668945,13.99999189376831Q5.750080310668945,14.07379189376831,5.7356703106689455,14.14629189376831Q5.721250310668945,14.21869189376831,5.692990310668946,14.286991893768311Q5.664720310668946,14.35519189376831,5.623680310668945,14.416591893768311Q5.582640310668945,14.47809189376831,5.5304103106689455,14.530291893768311Q5.478170310668945,14.58249189376831,5.416760310668945,14.62359189376831Q5.355340310668945,14.66459189376831,5.287090310668946,14.69289189376831Q5.218840310668945,14.72109189376831,5.146400310668945,14.73549189376831Q5.073950310668945,14.74999189376831,5.000080310668945,14.74999189376831Q4.8451403106689455,14.74999189376831,4.702880310668945,14.68859189376831Q4.560620310668945,14.62719189376831,4.454340310668945,14.51439189376831L1.6518913106689452,11.614091893768311Q1.5505483106689453,11.50929189376831,1.4958943106689453,11.373991893768311Q1.4412403106689453,11.238811893768311,1.4412403106689453,11.092971893768311Q1.4412403106689453,11.01910189376831,1.4556513106689453,10.94665189376831Q1.4700624106689453,10.87420189376831,1.4983306106689454,10.80596189376831Q1.5265989106689453,10.73771189376831,1.5676383106689453,10.67629189376831Q1.6086773106689454,10.61487189376831,1.6609103106689453,10.56264189376831Q1.7131433106689453,10.51041189376831,1.7745623106689452,10.46937189376831Q1.8359823106689452,10.428331893768311,1.9042273106689453,10.40006189376831Q1.9724733106689452,10.371791893768311,2.0449223106689454,10.357381893768311Q2.117371310668945,10.342971893768311,2.1912403106689453,10.342971893768311Q2.343771310668945,10.342971893768311,2.4841903106689456,10.40255189376831Q2.6246003106689453,10.46212189376831,2.730590310668945,10.571811893768311L4.250080310668945,12.14439189376831L4.250080310668945,1.9999538937683106ZM7.470780310668945,1.6029378937683105L14.529640310668945,1.6029378937683105Q14.603440310668946,1.6029378937683105,14.675940310668945,1.6173488937683105Q14.748340310668945,1.6317598937683107,14.816640310668946,1.6600278937683106Q14.884840310668945,1.6882968937683105,14.946240310668946,1.7293358937683105Q15.007740310668945,1.7703748937683106,15.059940310668946,1.8226078937683106Q15.112140310668945,1.8748408937683105,15.153240310668945,1.9362598937683106Q15.194240310668945,1.9976798937683107,15.222540310668945,2.065924893768311Q15.250740310668945,2.1341708937683106,15.265240310668945,2.206619893768311Q15.279640310668945,2.2790718937683105,15.279640310668945,2.3529418937683104Q15.279640310668945,2.4268018937683102,15.265240310668945,2.4992518937683106Q15.250740310668945,2.5717018937683105,15.222540310668945,2.639951893768311Q15.194240310668945,2.7081918937683103,15.153240310668945,2.7696118937683103Q15.112140310668945,2.8310318937683103,15.059940310668946,2.8832718937683106Q15.007740310668945,2.9355018937683104,14.946240310668946,2.9765418937683106Q14.884840310668945,3.0175818937683108,14.816640310668946,3.045851893768311Q14.748340310668945,3.0741118937683103,14.675940310668945,3.0885318937683106Q14.603440310668946,3.1029418937683104,14.529640310668945,3.1029418937683104L7.470780310668945,3.1029418937683104Q7.396910310668945,3.1029418937683104,7.324460310668945,3.0885218937683105Q7.252010310668945,3.0741118937683103,7.183770310668946,3.045851893768311Q7.115520310668946,3.0175818937683108,7.054100310668946,2.9765418937683106Q6.992680310668946,2.9355018937683104,6.940450310668945,2.8832718937683106Q6.888220310668945,2.8310318937683103,6.8471803106689455,2.7696118937683103Q6.806140310668945,2.7081918937683103,6.777870310668946,2.639951893768311Q6.749600310668946,2.5717018937683105,6.735190310668945,2.4992518937683106Q6.720780310668945,2.4268018937683102,6.720780310668945,2.3529418937683104Q6.720780310668945,2.2790718937683105,6.735190310668945,2.206619893768311Q6.749600310668946,2.1341708937683106,6.777870310668946,2.065924893768311Q6.806140310668945,1.9976798937683107,6.8471803106689455,1.9362598937683106Q6.888220310668945,1.8748408937683105,6.940450310668945,1.8226078937683106Q6.992680310668946,1.7703748937683106,7.054100310668946,1.7293358937683105Q7.115520310668946,1.6882968937683105,7.183770310668946,1.6600278937683106Q7.252010310668945,1.6317598937683107,7.324460310668945,1.6173488937683105Q7.396910310668945,1.6029378937683105,7.470780310668945,1.6029378937683105ZM7.470780310668945,5.13223189376831L13.117840310668946,5.13223189376831Q13.191740310668946,5.13223189376831,13.264140310668946,5.146641893768311Q13.336640310668946,5.1610518937683105,13.404840310668945,5.1893218937683105Q13.473140310668946,5.217591893768311,13.534540310668945,5.25863189376831Q13.595940310668945,5.299671893768311,13.648140310668945,5.351901893768311Q13.700440310668945,5.4041318937683105,13.741440310668946,5.4655518937683105Q13.782440310668946,5.5269718937683106,13.810740310668946,5.5952218937683105Q13.839040310668945,5.663461893768311,13.853440310668946,5.735911893768311Q13.867840310668946,5.808361893768311,13.867840310668946,5.882231893768311Q13.867840310668946,5.95610189376831,13.853440310668946,6.02855189376831Q13.839040310668945,6.10100189376831,13.810740310668946,6.1692418937683104Q13.782440310668946,6.23749189376831,13.741440310668946,6.29891189376831Q13.700440310668945,6.36033189376831,13.648140310668945,6.41256189376831Q13.595940310668945,6.4648018937683105,13.534540310668945,6.505831893768311Q13.473140310668946,6.54687189376831,13.404840310668945,6.57514189376831Q13.336640310668946,6.60341189376831,13.264140310668946,6.61782189376831Q13.191740310668946,6.632231893768311,13.117840310668946,6.632231893768311L7.470780310668945,6.632231893768311Q7.396910310668945,6.632231893768311,7.324460310668945,6.61782189376831Q7.252010310668945,6.60341189376831,7.183770310668946,6.57514189376831Q7.115520310668946,6.54687189376831,7.054100310668946,6.505831893768311Q6.992680310668946,6.4648018937683105,6.940450310668945,6.41256189376831Q6.888220310668945,6.36033189376831,6.8471803106689455,6.29891189376831Q6.806140310668945,6.23749189376831,6.777870310668946,6.1692418937683104Q6.749600310668946,6.10100189376831,6.735190310668945,6.02855189376831Q6.720780310668945,5.95610189376831,6.720780310668945,5.882231893768311Q6.720780310668945,5.808361893768311,6.735190310668945,5.735911893768311Q6.749600310668946,5.663461893768311,6.777870310668946,5.5952218937683105Q6.806140310668945,5.5269718937683106,6.8471803106689455,5.4655518937683105Q6.888220310668945,5.4041318937683105,6.940450310668945,5.351901893768311Q6.992680310668946,5.299671893768311,7.054100310668946,5.25863189376831Q7.115520310668946,5.217591893768311,7.183770310668946,5.1893218937683105Q7.252010310668945,5.1610518937683105,7.324460310668945,5.146641893768311Q7.396910310668945,5.13223189376831,7.470780310668945,5.13223189376831ZM7.470780310668945,8.66177189376831L11.706040310668945,8.66177189376831Q11.779940310668945,8.66177189376831,11.852440310668944,8.67618189376831Q11.924840310668944,8.69060189376831,11.993040310668945,8.71886189376831Q12.061340310668946,8.74713189376831,12.122740310668945,8.788171893768311Q12.184140310668946,8.82921189376831,12.236440310668945,8.881441893768312Q12.288640310668946,8.93367189376831,12.329640310668946,8.995091893768311Q12.370740310668946,9.05651189376831,12.398940310668946,9.12476189376831Q12.427240310668946,9.193011893768311,12.441640310668946,9.26545189376831Q12.456040310668945,9.337901893768311,12.456040310668945,9.41177189376831Q12.456040310668945,9.48564189376831,12.441640310668946,9.55809189376831Q12.427240310668946,9.63054189376831,12.398940310668946,9.69879189376831Q12.370740310668946,9.76703189376831,12.329640310668946,9.82845189376831Q12.288640310668946,9.88987189376831,12.236440310668945,9.94210189376831Q12.184140310668946,9.994341893768311,12.122740310668945,10.03537189376831Q12.061340310668946,10.076411893768311,11.993040310668945,10.10468189376831Q11.924840310668944,10.132951893768311,11.852440310668944,10.147361893768311Q11.779940310668945,10.16177189376831,11.706040310668945,10.16177189376831L7.470780310668945,10.16177189376831Q7.396910310668945,10.16177189376831,7.324460310668945,10.147361893768311Q7.252010310668945,10.132951893768311,7.183770310668946,10.10468189376831Q7.115520310668946,10.076411893768311,7.054100310668946,10.03537189376831Q6.992680310668946,9.994341893768311,6.940450310668945,9.94210189376831Q6.888220310668945,9.88987189376831,6.8471803106689455,9.82845189376831Q6.806140310668945,9.76703189376831,6.777870310668946,9.698781893768311Q6.749600310668946,9.63054189376831,6.735190310668945,9.55809189376831Q6.720780310668945,9.48564189376831,6.720780310668945,9.41177189376831Q6.720780310668945,9.337901893768311,6.735190310668945,9.26545189376831Q6.749600310668946,9.193011893768311,6.777870310668946,9.12476189376831Q6.806140310668945,9.05651189376831,6.8471803106689455,8.995091893768311Q6.888220310668945,8.93367189376831,6.940450310668945,8.881441893768312Q6.992680310668946,8.82921189376831,7.054100310668946,8.788171893768311Q7.115520310668946,8.74713189376831,7.183770310668946,8.71886189376831Q7.252010310668945,8.69060189376831,7.324460310668945,8.67618189376831Q7.396910310668945,8.66177189376831,7.470780310668945,8.66177189376831ZM10.294310310668946,12.191091893768311L7.470780310668945,12.191091893768311Q7.396910310668945,12.191091893768311,7.324460310668945,12.205491893768311Q7.252010310668945,12.219891893768311,7.183770310668946,12.248191893768311Q7.115520310668946,12.276391893768311,7.054100310668946,12.317491893768311Q6.992680310668946,12.35849189376831,6.940450310668945,12.41079189376831Q6.888220310668945,12.46299189376831,6.8471803106689455,12.52439189376831Q6.806140310668945,12.585791893768311,6.777870310668946,12.65409189376831Q6.749600310668946,12.722291893768311,6.735190310668945,12.794791893768311Q6.720780310668945,12.867191893768311,6.720780310668945,12.941091893768311Q6.720780310668945,13.014891893768311,6.735190310668945,13.087391893768311Q6.749600310668946,13.159791893768311,6.777870310668946,13.22809189376831Q6.806140310668945,13.296291893768311,6.8471803106689455,13.35779189376831Q6.888220310668945,13.41919189376831,6.940450310668945,13.47139189376831Q6.992680310668946,13.52359189376831,7.054100310668946,13.56469189376831Q7.115520310668946,13.605691893768311,7.183770310668946,13.63399189376831Q7.252010310668945,13.66229189376831,7.324460310668945,13.67669189376831Q7.396910310668945,13.691091893768311,7.470780310668945,13.691091893768311L10.294310310668946,13.691091893768311Q10.368180310668945,13.691091893768311,10.440630310668945,13.67669189376831Q10.513080310668945,13.66229189376831,10.581320310668945,13.63399189376831Q10.649570310668945,13.605691893768311,10.710990310668945,13.56469189376831Q10.772410310668945,13.52359189376831,10.824640310668945,13.47139189376831Q10.876870310668945,13.41919189376831,10.917910310668946,13.35779189376831Q10.958950310668945,13.296291893768311,10.987220310668945,13.22809189376831Q11.015490310668945,13.159791893768311,11.029900310668946,13.087391893768311Q11.044310310668946,13.014891893768311,11.044310310668946,12.941091893768311Q11.044310310668946,12.867191893768311,11.029900310668946,12.794791893768311Q11.015490310668945,12.722291893768311,10.987220310668945,12.65409189376831Q10.958950310668945,12.585791893768311,10.917910310668946,12.52439189376831Q10.876870310668945,12.46299189376831,10.824640310668945,12.41079189376831Q10.772410310668945,12.35849189376831,10.710990310668945,12.317491893768311Q10.649570310668945,12.276391893768311,10.581320310668945,12.248191893768311Q10.513080310668945,12.219891893768311,10.440630310668945,12.205491893768311Q10.368180310668945,12.191091893768311,10.294310310668946,12.191091893768311Z" fill-rule="evenodd" fill="currentColor" fill-opacity="1"/></g></g></svg>