<svg xmlns="http://www.w3.org/2000/svg" xmlns:xlink="http://www.w3.org/1999/xlink" fill="currentColor" version="1.1" width="1em" height="1em" viewBox="0 0 16 16"><defs><clipPath id="master_svg0_134_3638"><rect x="0" y="0" width="1em" height="1em" rx="0"/></clipPath></defs><g clip-path="url(#master_svg0_134_3638)"><g><path d="M14.75,13.1L14.75,2.9Q14.75,2.216547,14.2667,1.733276Q13.7835,1.25,13.1,1.25L2.9,1.25Q2.216547,1.25,1.733274,1.733274Q1.25,2.216547,1.25,2.9L1.25,13.1Q1.25,13.7835,1.733276,14.2667Q2.216547,14.75,2.9,14.75L13.1,14.75Q13.7835,14.75,14.2667,14.2667Q14.75,13.7835,14.75,13.1ZM13.1,2.75Q13.25,2.75,13.25,2.9L13.25,13.1Q13.25,13.25,13.1,13.25L2.9,13.25Q2.75,13.25,2.75,13.1L2.75,2.9Q2.75,2.75,2.9,2.75L13.1,2.75Z" fill-rule="evenodd" fill="currentColor" fill-opacity="1"/></g><g><path d="M5.25,2L5.25,14Q5.25,14.0739,5.264411,14.1463Q5.278822,14.2188,5.30709,14.287Q5.335359,14.3553,5.376398,14.4167Q5.417437,14.4781,5.46967,14.5303Q5.521903,14.5826,5.583322,14.6236Q5.644742,14.6646,5.712987,14.6929Q5.781233,14.7212,5.853682,14.7356Q5.9261315,14.75,6,14.75Q6.0738685,14.75,6.146318,14.7356Q6.218767,14.7212,6.287013,14.6929Q6.355258,14.6646,6.416678,14.6236Q6.478097,14.5826,6.53033,14.5303Q6.582563,14.4781,6.623602,14.4167Q6.664641,14.3553,6.69291,14.287Q6.721178,14.2188,6.735589,14.1463Q6.75,14.0739,6.75,14L6.75,2Q6.75,1.9261314999999999,6.735589,1.853682Q6.721178,1.781233,6.69291,1.712987Q6.664641,1.644742,6.623602,1.583322Q6.582563,1.521903,6.53033,1.46967Q6.478097,1.417437,6.416678,1.376398Q6.355258,1.335359,6.287013,1.30709Q6.218767,1.278822,6.146318,1.264411Q6.0738685,1.25,6,1.25Q5.9261315,1.25,5.853682,1.264411Q5.781233,1.278822,5.712987,1.30709Q5.644742,1.335359,5.583322,1.376398Q5.521903,1.417437,5.46967,1.46967Q5.417437,1.521903,5.376398,1.583322Q5.335359,1.644742,5.30709,1.712987Q5.278822,1.781233,5.264411,1.853682Q5.25,1.9261314999999999,5.25,2Z" fill-rule="evenodd" fill="currentColor" fill-opacity="1"/></g><g><path d="M9.25,2L9.25,14Q9.25,14.0739,9.264410999999999,14.1463Q9.278822,14.2188,9.30709,14.287Q9.335359,14.3553,9.376398,14.4167Q9.417437,14.4781,9.46967,14.5303Q9.521903,14.5826,9.583322,14.6236Q9.644742,14.6646,9.712987,14.6929Q9.781233,14.7212,9.853682,14.7356Q9.9261315,14.75,10,14.75Q10.0738685,14.75,10.146318,14.7356Q10.218767,14.7212,10.287013,14.6929Q10.355258,14.6646,10.416678,14.6236Q10.478097,14.5826,10.53033,14.5303Q10.582563,14.4781,10.623602,14.4167Q10.664641,14.3553,10.69291,14.287Q10.721178,14.2188,10.735589000000001,14.1463Q10.75,14.0739,10.75,14L10.75,2Q10.75,1.9261314999999999,10.735589000000001,1.853682Q10.721178,1.781233,10.69291,1.712987Q10.664641,1.644742,10.623602,1.583322Q10.582563,1.521903,10.53033,1.46967Q10.478097,1.417437,10.416678,1.376398Q10.355258,1.335359,10.287013,1.30709Q10.218767,1.278822,10.146318,1.264411Q10.0738685,1.25,10,1.25Q9.9261315,1.25,9.853682,1.264411Q9.781233,1.278822,9.712987,1.30709Q9.644742,1.335359,9.583322,1.376398Q9.521903,1.417437,9.46967,1.46967Q9.417437,1.521903,9.376398,1.583322Q9.335359,1.644742,9.30709,1.712987Q9.278822,1.781233,9.264410999999999,1.853682Q9.25,1.9261314999999999,9.25,2Z" fill-rule="evenodd" fill="currentColor" fill-opacity="1"/></g><g><path d="M2,6.75L14,6.75Q14.0739,6.75,14.1463,6.735589Q14.2188,6.721178,14.287,6.69291Q14.3553,6.664641,14.4167,6.623602Q14.4781,6.582563,14.5303,6.53033Q14.5826,6.478097,14.6236,6.416678Q14.6646,6.355258,14.6929,6.287013Q14.7212,6.218767,14.7356,6.146318Q14.75,6.0738685,14.75,6Q14.75,5.9261315,14.7356,5.853682Q14.7212,5.781233,14.6929,5.712987Q14.6646,5.644742,14.6236,5.583322Q14.5826,5.521903,14.5303,5.46967Q14.4781,5.417437,14.4167,5.376398Q14.3553,5.335359,14.287,5.30709Q14.2188,5.278822,14.1463,5.264411Q14.0739,5.25,14,5.25L2,5.25Q1.9261314999999999,5.25,1.853682,5.264411Q1.781233,5.278822,1.712987,5.30709Q1.644742,5.335359,1.583322,5.376398Q1.521903,5.417437,1.46967,5.46967Q1.417437,5.521903,1.376398,5.583322Q1.335359,5.644742,1.30709,5.712987Q1.278822,5.781233,1.264411,5.853682Q1.25,5.9261315,1.25,6Q1.25,6.0738685,1.264411,6.146318Q1.278822,6.218767,1.30709,6.287013Q1.335359,6.355258,1.376398,6.416678Q1.417437,6.478097,1.46967,6.53033Q1.521903,6.582563,1.583322,6.623602Q1.644742,6.664641,1.712987,6.69291Q1.781233,6.721178,1.853682,6.735589Q1.9261314999999999,6.75,2,6.75Z" fill-rule="evenodd" fill="currentColor" fill-opacity="1"/></g><g><path d="M2,10.75L14,10.75Q14.0739,10.75,14.1463,10.735589000000001Q14.2188,10.721178,14.287,10.69291Q14.3553,10.664641,14.4167,10.623602Q14.4781,10.582563,14.5303,10.53033Q14.5826,10.478097,14.6236,10.416678Q14.6646,10.355258,14.6929,10.287013Q14.7212,10.218767,14.7356,10.146318Q14.75,10.0738685,14.75,10Q14.75,9.9261315,14.7356,9.853682Q14.7212,9.781233,14.6929,9.712987Q14.6646,9.644742,14.6236,9.583322Q14.5826,9.521903,14.5303,9.46967Q14.4781,9.417437,14.4167,9.376398Q14.3553,9.335359,14.287,9.30709Q14.2188,9.278822,14.1463,9.264410999999999Q14.0739,9.25,14,9.25L2,9.25Q1.9261314999999999,9.25,1.853682,9.264410999999999Q1.781233,9.278822,1.712987,9.30709Q1.644742,9.335359,1.583322,9.376398Q1.521903,9.417437,1.46967,9.46967Q1.417437,9.521903,1.376398,9.583322Q1.335359,9.644742,1.30709,9.712987Q1.278822,9.781233,1.264411,9.853682Q1.25,9.9261315,1.25,10Q1.25,10.0738685,1.264411,10.146318Q1.278822,10.218767,1.30709,10.287013Q1.335359,10.355258,1.376398,10.416678Q1.417437,10.478097,1.46967,10.53033Q1.521903,10.582563,1.583322,10.623602Q1.644742,10.664641,1.712987,10.69291Q1.781233,10.721178,1.853682,10.735589000000001Q1.9261314999999999,10.75,2,10.75Z" fill-rule="evenodd" fill="currentColor" fill-opacity="1"/></g></g></svg>