<svg xmlns="http://www.w3.org/2000/svg" xmlns:xlink="http://www.w3.org/1999/xlink" fill="currentColor" version="1.1" width="1em" height="1em" viewBox="0 0 16 16"><g><g><path d="M12.312220265579224,4.916711658363342Q11.948920265579224,4.524231658363343,11.712320265579224,4.287651658363343Q10.174630265579223,2.7499616583633424,7.999990265579224,2.7499616583633424Q5.825370265579224,2.7499616583633424,4.287680265579223,4.287651658363343Q2.749990265579224,5.825341658363342,2.749990265579224,7.999961658363342Q2.749990265579224,10.174571658363343,4.287680265579223,11.712281658363342Q5.8253802655792235,13.249981658363343,7.999990265579224,13.249981658363343Q10.174640265579225,13.249981658363343,11.712320265579224,11.712281658363342Q11.817820265579224,11.606781658363342,11.955620265579224,11.549681658363342Q12.093420265579224,11.492581658363342,12.242620265579223,11.492581658363342Q12.391820265579224,11.492581658363342,12.529620265579224,11.549681658363342Q12.667420265579224,11.606781658363342,12.772920265579224,11.712281658363342Q12.878420265579223,11.817781658363343,12.935520265579223,11.955581658363343Q12.992620265579223,12.093381658363342,12.992620265579223,12.242581658363342Q12.992620265579223,12.391781658363342,12.935520265579223,12.529581658363343Q12.878420265579223,12.667381658363341,12.772920265579224,12.772881658363342Q10.795980265579223,14.749981658363343,7.999990265579224,14.749981658363343Q5.204060265579224,14.749981658363343,3.227020265579224,12.772881658363342Q1.2499897479792237,10.795891658363342,1.2499892711792235,7.999961658363342Q1.2499892711792235,5.204021658363342,3.227020265579224,3.2269916583633425Q5.204050265579223,1.2499595883633423,7.999990265579224,1.2499597073633424Q10.795960265579224,1.2499595883633423,12.772920265579224,3.227001658363342Q12.971720265579224,3.4257216583633423,13.250020265579224,3.7228316583633423L13.250020265579224,2.6667116583633423Q13.250020265579224,2.5928416583633425,13.264420265579224,2.5203916583633426Q13.278820265579224,2.447941658363342,13.307120265579224,2.3796916583633423Q13.335320265579224,2.3114516583633424,13.376420265579224,2.250029658363342Q13.417420265579224,2.1886106583633422,13.469620265579223,2.136377658363342Q13.521920265579224,2.0841446583633423,13.583320265579223,2.0431056583633422Q13.644720265579224,2.0020656583633425,13.713020265579223,1.9737976583633423Q13.781220265579224,1.9455296583633421,13.853720265579224,1.9311186583633422Q13.926120265579224,1.9167076583633422,14.000020265579224,1.9167076583633422Q14.073820265579224,1.9167076583633422,14.146320265579224,1.9311186583633422Q14.218720265579224,1.9455296583633421,14.287020265579224,1.9737976583633423Q14.355220265579224,2.0020656583633425,14.416620265579224,2.0431056583633422Q14.478120265579223,2.0841446583633423,14.530320265579224,2.136377658363342Q14.582520265579223,2.1886106583633422,14.623620265579223,2.250029658363342Q14.664620265579224,2.3114516583633424,14.692920265579223,2.3796916583633423Q14.721120265579223,2.447941658363342,14.735620265579223,2.5203916583633426Q14.750020265579224,2.5928416583633425,14.750020265579224,2.6667116583633423L14.750020265579224,5.6669316583633425Q14.750020265579224,5.698851658363342,14.747220265579223,5.7306516583633424Q14.741320265579224,5.800231658363343,14.722620265579224,5.867511658363342Q14.703920265579224,5.934791658363342,14.673120265579223,5.997461658363342Q14.642320265579224,6.060141658363342,14.600520265579224,6.116051658363342Q14.558620265579224,6.171961658363342,14.507220265579223,6.219181658363342Q14.455720265579224,6.266411658363342,14.396520265579223,6.3033316583633425Q14.337220265579223,6.340241658363342,14.272120265579224,6.365581658363342Q14.207120265579224,6.390921658363342,14.138420265579224,6.403811658363343Q14.069820265579224,6.416711658363342,14.000020265579224,6.416711658363342L10.999990265579223,6.416711658363342Q10.926120265579224,6.416711658363342,10.853670265579224,6.4022916583633425Q10.781220265579224,6.387881658363343,10.712980265579224,6.359621658363342Q10.644730265579224,6.331351658363342,10.583310265579223,6.2903116583633425Q10.521890265579223,6.249271658363342,10.469660265579224,6.197041658363342Q10.417430265579224,6.144801658363343,10.376390265579223,6.083381658363343Q10.335350265579224,6.021961658363343,10.307080265579224,5.953721658363342Q10.278810265579224,5.885471658363342,10.264400265579223,5.8130216583633425Q10.249990265579223,5.740571658363343,10.249990265579223,5.666711658363342Q10.249990265579223,5.5928416583633425,10.264400265579223,5.520391658363343Q10.278810265579224,5.447941658363343,10.307080265579224,5.379691658363342Q10.335350265579224,5.311451658363342,10.376390265579223,5.250031658363342Q10.417430265579224,5.188611658363342,10.469660265579224,5.136381658363343Q10.521890265579223,5.084141658363342,10.583310265579223,5.043101658363343Q10.644730265579224,5.002061658363342,10.712980265579224,4.973801658363342Q10.781220265579224,4.945531658363342,10.853670265579224,4.931121658363342Q10.926120265579224,4.916711658363342,10.999990265579223,4.916711658363342L12.312220265579224,4.916711658363342Z" fill-rule="evenodd" fill="currentColor" fill-opacity="1"/></g></g></svg>