<svg xmlns="http://www.w3.org/2000/svg" xmlns:xlink="http://www.w3.org/1999/xlink" fill="currentColor" version="1.1" width="1em" height="1em" viewBox="0 0 16 16"><g><g></g><g transform="matrix(0,1,-1,0,16.4000244140625,-12.4000244140625)"><path d="M18.8702444140625,3.20925L14.5697634140625,10.95012Q14.0837514140625,11.82495,14.5912644140625,12.6875Q15.0987784140625,13.55,16.0995344140625,13.55L24.7005244140625,13.55Q25.7012244140625,13.55,26.208824414062498,12.6875Q26.7163244140625,11.82495,26.2303244140625,10.95012L21.9298044140625,3.20925Q21.4297344140625,2.309126,20.4000244140625,2.309126Q19.3703144140625,2.309126,18.8702444140625,3.20925ZM15.8840744140625,11.92678Q15.8115644140625,11.80356,15.8810044140625,11.67859L20.1814844140625,3.93772Q20.252924414062498,3.8091299999999997,20.4000244140625,3.8091299999999997Q20.547124414062502,3.8091299999999997,20.6185644140625,3.93772L24.9190244140625,11.67859Q24.9885244140625,11.80356,24.9160244140625,11.92678Q24.8435244140625,12.05,24.7005244140625,12.05L16.0995344140625,12.05Q15.9565744140625,12.05,15.8840744140625,11.92678Z" fill-rule="evenodd" fill="currentColor" fill-opacity="1"/></g></g></svg>