<svg xmlns="http://www.w3.org/2000/svg" xmlns:xlink="http://www.w3.org/1999/xlink" fill="currentColor" version="1.1" width="1em" height="1em" viewBox="0 0 16 16"><g><g><path d="M0.833251953125,3.3333501970214843L0.833251953125,12.666683197021484Q0.833251953125,13.149883197021484,1.174960953125,13.491683197021484Q1.516668953125,13.833383197021485,1.999918953125,13.833383197021485L13.999951953125,13.833383197021485Q14.483151953125,13.833383197021485,14.824851953125,13.491683197021484Q15.166551953125,13.149983197021484,15.166551953125,12.666683197021484L15.166551953125,3.3333501970214843Q15.166551953125,2.8501001970214843,14.824851953125,2.508392197021484Q14.483151953125,2.1666831970214844,13.999951953125,2.1666831970214844L1.999918953125,2.1666831970214844Q1.516669953125,2.1666831970214844,1.174960953125,2.508392197021484Q0.833251953125,2.8501011970214845,0.833251953125,3.3333501970214843ZM1.999918953125,12.833383197021485Q1.833251953125,12.833383197021485,1.833251953125,12.666683197021484L1.833251953125,3.3333501970214843Q1.833251953125,3.1666831970214844,1.999918953125,3.1666831970214844L13.999951953125,3.1666831970214844Q14.166551953125,3.1666831970214844,14.166551953125,3.3333501970214843L14.166551953125,12.666683197021484Q14.166551953125,12.833383197021485,13.999951953125,12.833383197021485L1.999918953125,12.833383197021485Z" fill-rule="evenodd" fill="currentColor" fill-opacity="1"/></g><g><path d="M1.4999980000000002,8.499998185302735L2,8.499996185302734L14,8.499996185302734L14.5,8.499998185302735L14.5,7.499994185302734L14,7.499996185302734L2,7.499996185302734L1.4999980000000002,7.499994185302734L1.4999980000000002,8.499998185302735Z" fill-rule="evenodd" fill="currentColor" fill-opacity="1"/></g><g><path d="M7.333251953125,4.83331298828125L8.666581953125,4.83331298828125Q8.715831953125,4.83331298828125,8.764131953125,4.84291998828125Q8.812431953125,4.85252798828125,8.857931953125,4.87137298828125Q8.903421953125001,4.89021898828125,8.944371953125,4.91757798828125Q8.985311953125,4.94493798828125,9.020141953125,4.97975998828125Q9.054961953125,5.01458198828125,9.082321953125,5.05552798828125Q9.109681953125,5.09647398828125,9.128521953125,5.14197098828125Q9.147371953124999,5.18746798828125,9.156981953125,5.23576788828125Q9.166581953125,5.28406728828125,9.166581953125,5.33331298828125Q9.166581953125,5.38255868828125,9.156981953125,5.43085808828125Q9.147371953124999,5.47915798828125,9.128521953125,5.52465498828125Q9.109681953125,5.57015198828125,9.082321953125,5.61109798828125Q9.054961953125,5.65204398828125,9.020141953125,5.68686598828125Q8.985311953125,5.72168798828125,8.944371953125,5.74904798828125Q8.903421953125001,5.77640698828125,8.857931953125,5.79525298828125Q8.812431953125,5.81409798828125,8.764131953125,5.82370598828125Q8.715831953125,5.83331298828125,8.666581953125,5.83331298828125L7.333251953125,5.83331298828125Q7.284006253125,5.83331298828125,7.235706853125,5.82370598828125Q7.187406953125,5.81409798828125,7.141909953125,5.79525298828125Q7.096412953125,5.77640698828125,7.055466953125,5.74904798828125Q7.014520953125,5.72168798828125,6.979698953125,5.68686598828125Q6.944876953125,5.65204398828125,6.917516953125,5.61109798828125Q6.890157953125,5.57015198828125,6.871311953125,5.52465498828125Q6.852466953125,5.47915798828125,6.842858953125,5.43085808828125Q6.833251953125,5.38255868828125,6.833251953125,5.33331298828125Q6.833251953125,5.28406728828125,6.842858953125,5.23576788828125Q6.852466953125,5.18746798828125,6.871311953125,5.14197098828125Q6.890157953125,5.09647398828125,6.917516953125,5.05552798828125Q6.944876953125,5.01458198828125,6.979698953125,4.97975998828125Q7.014520953125,4.94493798828125,7.055466953125,4.91757798828125Q7.096412953125,4.89021898828125,7.141909953125,4.87137298828125Q7.187406953125,4.85252798828125,7.235706853125,4.84291998828125Q7.284006253125,4.83331298828125,7.333251953125,4.83331298828125Z" fill-rule="evenodd" fill="currentColor" fill-opacity="1"/></g><g><path d="M4,4.83331298828125L5.33333,4.83331298828125Q5.38258,4.83331298828125,5.43088,4.84291998828125Q5.4791799999999995,4.85252798828125,5.52468,4.87137298828125Q5.57017,4.89021898828125,5.61112,4.91757798828125Q5.6520600000000005,4.94493798828125,5.68689,4.97975998828125Q5.72171,5.01458198828125,5.74907,5.05552798828125Q5.7764299999999995,5.09647398828125,5.79527,5.14197098828125Q5.81412,5.18746798828125,5.82373,5.23576788828125Q5.83333,5.28406728828125,5.83333,5.33331298828125Q5.83333,5.38255868828125,5.82373,5.43085808828125Q5.81412,5.47915798828125,5.79527,5.52465498828125Q5.7764299999999995,5.57015198828125,5.74907,5.61109798828125Q5.72171,5.65204398828125,5.68689,5.68686598828125Q5.6520600000000005,5.72168798828125,5.61112,5.74904798828125Q5.57017,5.77640698828125,5.52468,5.79525298828125Q5.4791799999999995,5.81409798828125,5.43088,5.82370598828125Q5.38258,5.83331298828125,5.33333,5.83331298828125L4,5.83331298828125Q3.9507543,5.83331298828125,3.9024549,5.82370598828125Q3.854155,5.81409798828125,3.808658,5.79525298828125Q3.763161,5.77640698828125,3.722215,5.74904798828125Q3.681269,5.72168798828125,3.646447,5.68686598828125Q3.611625,5.65204398828125,3.584265,5.61109798828125Q3.556906,5.57015198828125,3.5380599999999998,5.52465498828125Q3.519215,5.47915798828125,3.509607,5.43085808828125Q3.5,5.38255868828125,3.5,5.33331298828125Q3.5,5.28406728828125,3.509607,5.23576788828125Q3.519215,5.18746798828125,3.5380599999999998,5.14197098828125Q3.556906,5.09647398828125,3.584265,5.05552798828125Q3.611625,5.01458198828125,3.646447,4.97975998828125Q3.681269,4.94493798828125,3.722215,4.91757798828125Q3.763161,4.89021898828125,3.808658,4.87137298828125Q3.854155,4.85252798828125,3.9024549,4.84291998828125Q3.9507543,4.83331298828125,4,4.83331298828125Z" fill-rule="evenodd" fill="currentColor" fill-opacity="1"/></g><g><path d="M10.666748046875,4.83331298828125L12.000078046875,4.83331298828125Q12.049328046875,4.83331298828125,12.097628046875,4.84291998828125Q12.145928046875,4.85252798828125,12.191428046875,4.87137298828125Q12.236918046875001,4.89021898828125,12.277868046875,4.91757798828125Q12.318808046875,4.94493798828125,12.353638046875,4.97975998828125Q12.388458046875,5.01458198828125,12.415818046875,5.05552798828125Q12.443178046875,5.09647398828125,12.462018046875,5.14197098828125Q12.480868046874999,5.18746798828125,12.490478046875,5.23576788828125Q12.500078046875,5.28406728828125,12.500078046875,5.33331298828125Q12.500078046875,5.38255868828125,12.490478046875,5.43085808828125Q12.480868046874999,5.47915798828125,12.462018046875,5.52465498828125Q12.443178046875,5.57015198828125,12.415818046875,5.61109798828125Q12.388458046875,5.65204398828125,12.353638046875,5.68686598828125Q12.318808046875,5.72168798828125,12.277868046875,5.74904798828125Q12.236918046875001,5.77640698828125,12.191428046875,5.79525298828125Q12.145928046875,5.81409798828125,12.097628046875,5.82370598828125Q12.049328046875,5.83331298828125,12.000078046875,5.83331298828125L10.666748046875,5.83331298828125Q10.617502346875,5.83331298828125,10.569202946875,5.82370598828125Q10.520903046875,5.81409798828125,10.475406046875,5.79525298828125Q10.429909046875,5.77640698828125,10.388963046875,5.74904798828125Q10.348017046875,5.72168798828125,10.313195046875,5.68686598828125Q10.278373046875,5.65204398828125,10.251013046875,5.61109798828125Q10.223654046875,5.57015198828125,10.204808046875,5.52465498828125Q10.185963046874999,5.47915798828125,10.176355046875,5.43085808828125Q10.166748046875,5.38255868828125,10.166748046875,5.33331298828125Q10.166748046875,5.28406728828125,10.176355046875,5.23576788828125Q10.185963046874999,5.18746798828125,10.204808046875,5.14197098828125Q10.223654046875,5.09647398828125,10.251013046875,5.05552798828125Q10.278373046875,5.01458198828125,10.313195046875,4.97975998828125Q10.348017046875,4.94493798828125,10.388963046875,4.91757798828125Q10.429909046875,4.89021898828125,10.475406046875,4.87137298828125Q10.520903046875,4.85252798828125,10.569202946875,4.84291998828125Q10.617502346875,4.83331298828125,10.666748046875,4.83331298828125Z" fill-rule="evenodd" fill="currentColor" fill-opacity="1"/></g></g></svg>