<svg xmlns="http://www.w3.org/2000/svg" xmlns:xlink="http://www.w3.org/1999/xlink" fill="currentColor" version="1.1" width="1em" height="1em" viewBox="0 0 16 16"><g><g><path d="M4.964229648437501,1.99951171875L3.2734796484375,1.99951171875Q2.3750506484375,1.99951171875,1.8445966484375,2.69951171875Q1.3014966484375,3.41620071875,1.5913876484375,4.27536171875Q2.9706416484375,8.362941718750001,5.0032596484375,10.39552171875Q7.0351896484375,12.42750171875,11.1233796484375,13.80691171875Q11.9825096484375,14.09681171875,12.6990896484375,13.55401171875Q13.3990896484375,13.02371171875,13.3990896484375,12.12527171875L13.3990896484375,10.43410171875Q13.3990896484375,9.748171718750001,12.7990896484375,9.414461718750001L11.3263296484375,8.59543171875Q10.7881196484375,8.29620171875,10.2373796484375,8.57162171875L8.8240996484375,9.27824171875Q7.9016596484375,9.05145171875,7.1244296484375,8.27421171875Q6.3466896484375,7.49647171875,6.1168596484375,6.56978171875L6.8228896484375,5.1569017187499995Q7.0982096484375,4.60636171875,6.7997896484375,4.0687817187499995L5.9840596484374995,2.59988971875Q5.6507096484375,1.99951171875,4.964229648437501,1.99951171875ZM2.6416066484375,3.30347871875Q2.8719496484375,2.99951171875,3.2734796484375,2.99951171875L4.964229648437501,2.99951171875Q5.062139648437499,2.99951171875,5.109779648437501,3.08531171875L5.925549648437499,4.5542817187499995Q5.9679696484375,4.6306917187500005,5.9284896484375,4.70963171875L5.143269648437499,6.28100171875Q5.0672896484375,6.43305171875,5.0997196484375,6.59991171875Q5.3564296484375,7.92043171875,6.4173196484375,8.98132171875Q7.4786896484375,10.04269171875,8.7958196484375,10.29535171875Q8.9621396484375,10.32725171875,9.1136196484375,10.251511718749999L10.6845796484375,9.46605171875Q10.7634096484375,9.42663171875,10.8404196484375,9.46944171875L12.3129896484375,10.28840171875Q12.3990896484375,10.336291718750001,12.3990896484375,10.43410171875L12.3990896484375,12.12527171875Q12.3990896484375,12.52671171875,12.0952896484375,12.75691171875Q11.8006596484375,12.98011171875,11.4431096484375,12.85941171875Q7.5767596484375,11.55484171875,5.7103696484375,9.68842171875Q3.8432996484375,7.82139171875,2.5389016484375,3.95564171875Q2.4182866484375,3.5981717187499997,2.6416066484375,3.30347871875Z" fill-rule="evenodd" fill="currentColor" fill-opacity="1"/></g><g><path d="M10,2.16650390625L14,2.16650390625Q14.04925,2.16650390625,14.09755,2.17611090625Q14.14584,2.18571890625,14.19134,2.2045639062499998Q14.23684,2.22340990625,14.27778,2.25076890625Q14.31873,2.27812890625,14.35355,2.31295090625Q14.38837,2.34777290625,14.41573,2.38871890625Q14.44309,2.42966490625,14.46194,2.47516190625Q14.48078,2.52065890625,14.49039,2.56895880625Q14.5,2.61725820625,14.5,2.66650390625Q14.5,2.71574960625,14.49039,2.76404900625Q14.48078,2.81234890625,14.46194,2.85784590625Q14.44309,2.90334290625,14.41573,2.94428890625Q14.38837,2.98523490625,14.35355,3.02005690625Q14.31873,3.05487890625,14.27778,3.08223890625Q14.23684,3.10959790625,14.19134,3.1284439062500002Q14.14584,3.14728890625,14.09755,3.15689690625Q14.04925,3.16650390625,14,3.16650390625L10,3.16650390625Q9.9507543,3.16650390625,9.9024549,3.15689690625Q9.854155,3.14728890625,9.808658,3.1284439062500002Q9.763161,3.10959790625,9.722215,3.08223890625Q9.681269,3.05487890625,9.646447,3.02005690625Q9.611625,2.98523490625,9.584265,2.94428890625Q9.556906,2.90334290625,9.53806,2.85784590625Q9.519214999999999,2.81234890625,9.509607,2.76404900625Q9.5,2.71574960625,9.5,2.66650390625Q9.5,2.61725820625,9.509607,2.56895880625Q9.519214999999999,2.52065890625,9.53806,2.47516190625Q9.556906,2.42966490625,9.584265,2.38871890625Q9.611625,2.34777290625,9.646447,2.31295090625Q9.681269,2.27812890625,9.722215,2.25076890625Q9.763161,2.22340990625,9.808658,2.2045639062499998Q9.854155,2.18571890625,9.9024549,2.17611090625Q9.9507543,2.16650390625,10,2.16650390625Z" fill-rule="evenodd" fill="currentColor" fill-opacity="1"/></g><g><path d="M12,4.83349609375L14,4.83349609375Q14.04925,4.83349609375,14.09754,4.84310309375Q14.14584,4.85271109375,14.19134,4.87155609375Q14.23684,4.89040209375,14.27778,4.91776109375Q14.31873,4.94512109375,14.35355,4.97994309375Q14.38838,5.01476509375,14.41573,5.05571109375Q14.44309,5.09665709375,14.46194,5.14215409375Q14.48078,5.18765109375,14.49039,5.23595099375Q14.5,5.28425039375,14.5,5.33349609375Q14.5,5.38274179375,14.49039,5.43104119375Q14.48078,5.47934109375,14.46194,5.52483809375Q14.44309,5.57033509375,14.41573,5.61128109375Q14.38838,5.65222709375,14.35355,5.68704909375Q14.31873,5.72187109375,14.27779,5.74923109375Q14.23684,5.77659009375,14.19134,5.79543609375Q14.14584,5.81428109375,14.09754,5.82388909375Q14.04925,5.83349609375,14,5.83349609375L12,5.83349609375Q11.9507543,5.83349609375,11.9024549,5.82388909375Q11.854155,5.81428109375,11.808658,5.79543609375Q11.763161,5.77659009375,11.722215,5.74923109375Q11.681269,5.72187109375,11.646447,5.68704909375Q11.611625,5.65222709375,11.584265,5.61128109375Q11.556906,5.57033509375,11.53806,5.52483809375Q11.519214999999999,5.47934109375,11.509607,5.43104119375Q11.5,5.38274179375,11.5,5.33349609375Q11.5,5.28425039375,11.509607,5.23595099375Q11.519214999999999,5.18765109375,11.53806,5.14215409375Q11.556906,5.09665709375,11.584265,5.05571109375Q11.611625,5.01476509375,11.646447,4.97994309375Q11.681269,4.94512109375,11.722215,4.91776109375Q11.763161,4.89040209375,11.808658,4.87155609375Q11.854155,4.85271109375,11.9024549,4.84310309375Q11.9507543,4.83349609375,12,4.83349609375Z" fill-rule="evenodd" fill="currentColor" fill-opacity="1"/></g></g></svg>