<svg xmlns="http://www.w3.org/2000/svg" xmlns:xlink="http://www.w3.org/1999/xlink" fill="currentColor" version="1.1" width="1em" height="1em" viewBox="0 0 16 16"><g><g><path d="M1.4999592308604737,2.444456636184692L1.4999592308604737,13.555612636184692Q1.4999592308604737,13.946812636184692,1.7765808788604736,14.223412636184692Q2.053201878860474,14.500012636184692,2.4444038788604736,14.500012636184692L13.555548878860474,14.500012636184692Q13.946748878860474,14.500012636184692,14.223348878860474,14.223412636184692Q14.499948878860474,13.946812636184692,14.499948878860474,13.555612636184692L14.499948878860474,2.444456636184692Q14.499948878860474,2.0532556361846925,14.223348878860474,1.7766336361846924Q13.946748878860474,1.5000126361846924,13.555548878860474,1.5000126361846924L2.4444038788604736,1.5000126361846924Q2.053201878860474,1.5000126361846924,1.7765808788604736,1.7766336361846924Q1.4999592308604737,2.0532556361846925,1.4999592308604737,2.444456636184692ZM2.4999588788604736,13.500012636184692L13.499948878860474,13.500012636184692L13.499948878860474,2.5000126361846924L2.4999588788604736,2.5000126361846924L2.4999588788604736,13.500012636184692ZM10.202248878860473,11.518412636184692L10.202428878860474,11.518912636184693Q10.230268878860473,11.588512636184692,10.277278878860473,11.646812636184693Q10.324288878860473,11.705212636184692,10.386348878860474,11.747212636184692Q10.448418878860474,11.789212636184692,10.520068878860474,11.811212636184692Q10.591718878860474,11.833212636184692,10.666668878860474,11.833212636184692Q10.715908878860473,11.833212636184692,10.764208878860474,11.823612636184693Q10.812508878860474,11.814012636184692,10.858008878860474,11.795112636184692Q10.903508878860473,11.776312636184693,10.944448878860474,11.748912636184693Q10.985398878860474,11.721512636184693,11.020218878860474,11.686712636184692Q11.055038878860474,11.651912636184692,11.082398878860474,11.611012636184693Q11.109758878860474,11.570012636184693,11.128608878860474,11.524512636184692Q11.147448878860473,11.479022636184693,11.157058878860473,11.430722636184692Q11.166668878860474,11.382432636184692,11.166668878860474,11.333182636184693Q11.166668878860474,11.236892636184692,11.130908878860474,11.147492636184692L11.130728878860474,11.147042636184693L8.464238878860474,4.480822636184692Q8.427298878860473,4.388482636184692,8.357838878860473,4.317302636184692Q8.288378878860474,4.246122636184692,8.196958878860475,4.206942636184692Q8.105548878860475,4.167762636184692,8.006098878860474,4.166552636184692Q7.906648878860474,4.165342636184692,7.814308878860474,4.202282636184693Q7.719018878860473,4.240392636184692,7.646448878860474,4.312962636184692Q7.573878878860474,4.385532636184692,7.535758878860474,4.480822636184692L4.869188878860474,11.147262636184692L4.869098878860473,11.147492636184692Q4.833328878860474,11.236892636184692,4.833328878860474,11.333182636184693Q4.833328878860474,11.382432636184692,4.8429388788604735,11.430732636184693Q4.852548878860474,11.479022636184693,4.871388878860474,11.524512636184692Q4.890238878860474,11.570012636184693,4.917598878860474,11.611012636184693Q4.944958878860474,11.651912636184692,4.979778878860474,11.686712636184692Q5.014598878860474,11.721512636184693,5.055548878860474,11.748912636184693Q5.096498878860474,11.776312636184693,5.141988878860474,11.795112636184692Q5.187488878860474,11.814012636184692,5.235788878860474,11.823612636184693Q5.284088878860474,11.833212636184692,5.333328878860474,11.833212636184692Q5.408278878860473,11.833212636184692,5.479928878860473,11.811212636184692Q5.551588878860474,11.789212636184692,5.613648878860474,11.747212636184692Q5.6757088788604735,11.705212636184692,5.722718878860474,11.646812636184693Q5.7697388788604735,11.588512636184692,5.797568878860473,11.518912636184693L5.7976588788604735,11.518612636184692L6.471718878860473,9.833512636184693L9.528278878860474,9.833512636184693L10.202248878860473,11.518412636184692ZM7.999998878860474,6.012802636184692L9.128278878860474,8.833512636184693L6.871718878860474,8.833512636184693L7.999998878860474,6.012802636184692Z" fill-rule="evenodd" fill="currentColor" fill-opacity="1"/></g></g></svg>