<svg xmlns="http://www.w3.org/2000/svg" xmlns:xlink="http://www.w3.org/1999/xlink" fill="currentColor" version="1.1" width="1em" height="1em" viewBox="0 0 16 16"><g><g><path d="M1.4999592308604737,2.6666826361846923L1.4999592308604737,13.333312636184692Q1.4999592308604737,13.816612636184692,1.8416678788604737,14.158312636184693Q2.1833768788604737,14.500012636184692,2.6666288788604735,14.500012636184692L13.333248878860473,14.500012636184692Q13.816548878860473,14.500012636184692,14.158248878860473,14.158312636184693Q14.499948878860474,13.816612636184692,14.499948878860474,13.333312636184692L14.499948878860474,2.6666826361846923Q14.499948878860474,2.1834296361846923,14.158248878860473,1.8417216361846924Q13.816548878860473,1.5000126361846924,13.333248878860473,1.5000126361846924L2.6666288788604735,1.5000126361846924Q2.1833768788604737,1.5000126361846924,1.8416678788604737,1.8417216361846924Q1.4999592308604737,2.1834306361846925,1.4999592308604737,2.6666826361846923ZM2.6666288788604735,13.500012636184692Q2.4999588788604736,13.500012636184692,2.4999588788604736,13.333312636184692L2.4999588788604736,2.6666826361846923Q2.4999588788604736,2.5000126361846924,2.6666288788604735,2.5000126361846924L13.333248878860473,2.5000126361846924Q13.499948878860474,2.5000126361846924,13.499948878860474,2.6666826361846923L13.499948878860474,13.333312636184692Q13.499948878860474,13.500012636184692,13.333248878860473,13.500012636184692L2.6666288788604735,13.500012636184692ZM7.8949988788604735,10.851942636184692L7.8951388788604735,10.852292636184693Q7.922968878860473,10.921882636184693,7.969988878860474,10.980242636184693Q8.016998878860473,11.038612636184693,8.079058878860474,11.080632636184692Q8.141118878860475,11.122652636184693,8.212778878860473,11.144622636184693Q8.284428878860474,11.166602636184692,8.359378878860474,11.166602636184692Q8.408618878860473,11.166592636184692,8.456918878860474,11.156992636184693Q8.505218878860473,11.147382636184693,8.550718878860474,11.128532636184692Q8.596208878860473,11.109692636184693,8.637158878860474,11.082332636184692Q8.678108878860474,11.054972636184692,8.712928878860474,11.020152636184692Q8.747748878860474,10.985332636184692,8.775108878860474,10.944382636184692Q8.802468878860473,10.903432636184693,8.821318878860474,10.857942636184692Q8.840158878860475,10.812442636184693,8.849768878860473,10.764142636184692Q8.859378878860474,10.715842636184693,8.859378878860474,10.666602636184692Q8.859378878860474,10.570312636184692,8.823618878860474,10.480902636184693L8.823478878860474,10.480562636184692L6.690288878860474,5.147572636184693Q6.671998878860474,5.101842636184692,6.645148878860474,5.060572636184693Q6.618288878860474,5.019292636184693,6.583888878860473,4.984052636184693Q6.549498878860474,4.948802636184692,6.508888878860474,4.920942636184693Q6.468278878860474,4.893092636184692,6.423008878860474,4.873692636184693Q6.377748878860474,4.8542926361846925,6.329568878860473,4.844102636184692Q6.281388878860474,4.833902636184693,6.232148878860474,4.833302636184692Q6.182908878860474,4.832702636184692,6.134498878860474,4.841722636184692Q6.086078878860474,4.850732636184692,6.040358878860474,4.869022636184692Q5.945068878860473,4.907142636184693,5.8724988788604735,4.979712636184692Q5.799928878860474,5.052282636184692,5.761818878860474,5.147572636184693L3.6285988788604735,10.480632636184692L3.6284988788604737,10.480902636184693Q3.5927288788604734,10.570312636184692,3.5927288788604734,10.666602636184692Q3.5927288788604734,10.715842636184693,3.6023388788604738,10.764142636184692Q3.6119488788604737,10.812442636184693,3.6307888788604736,10.857942636184692Q3.6496388788604737,10.903432636184693,3.6769988788604735,10.944382636184692Q3.7043588788604738,10.985332636184692,3.7391788788604736,11.020152636184692Q3.7739988788604735,11.054972636184692,3.8149488788604735,11.082332636184692Q3.8558888788604735,11.109692636184693,3.9013888788604736,11.128532636184692Q3.9468888788604737,11.147382636184693,3.9951888788604735,11.156992636184693Q4.043488878860474,11.166592636184692,4.092728878860473,11.166602636184692Q4.167678878860474,11.166602636184692,4.239328878860474,11.144622636184693Q4.310988878860474,11.122652636184693,4.373048878860473,11.080632636184692Q4.435108878860474,11.038612636184693,4.482118878860474,10.980242636184693Q4.529138878860474,10.921882636184693,4.556968878860474,10.852292636184693L4.557078878860473,10.852022636184692L5.071218878860474,9.566662636184692L7.380888878860474,9.566662636184692L7.8949988788604735,10.851942636184692ZM11.885048878860474,5.043712636184692L8.551718878860473,5.043712636184692Q8.502468878860473,5.043712636184692,8.454168878860473,5.053322636184692Q8.405868878860474,5.0629326361846925,8.360378878860473,5.081772636184692Q8.314878878860473,5.100622636184692,8.273928878860474,5.127982636184692Q8.232988878860475,5.155342636184693,8.198158878860474,5.190162636184692Q8.163338878860474,5.224982636184692,8.135978878860474,5.265932636184692Q8.108618878860474,5.306872636184693,8.089778878860473,5.352372636184692Q8.070928878860474,5.397872636184692,8.061328878860474,5.446172636184692Q8.051718878860473,5.4944726361846925,8.051718878860473,5.543712636184693Q8.051718878860473,5.5929626361846925,8.061328878860474,5.641262636184693Q8.070928878860474,5.689562636184692,8.089778878860473,5.735052636184692Q8.108618878860474,5.780552636184693,8.135978878860474,5.821502636184692Q8.163338878860474,5.862442636184692,8.198158878860474,5.897262636184692Q8.232988878860475,5.932092636184692,8.273928878860474,5.959452636184692Q8.314878878860473,5.986802636184692,8.360378878860473,6.005652636184692Q8.405868878860474,6.0245026361846925,8.454168878860473,6.034102636184692Q8.502468878860473,6.043712636184693,8.551718878860473,6.043712636184693L11.885048878860474,6.043712636184693Q11.934248878860474,6.043712636184693,11.982548878860474,6.034102636184692Q12.030848878860473,6.0245026361846925,12.076348878860474,6.005652636184692Q12.121848878860474,5.986802636184692,12.162848878860474,5.959452636184692Q12.203748878860473,5.932092636184692,12.238648878860474,5.897262636184692Q12.273448878860474,5.862442636184692,12.300748878860473,5.821502636184692Q12.328148878860473,5.780552636184693,12.346948878860474,5.735052636184692Q12.365848878860474,5.689562636184692,12.375448878860473,5.641262636184693Q12.385048878860474,5.5929626361846925,12.385048878860474,5.543712636184693Q12.385048878860474,5.4944726361846925,12.375448878860473,5.446172636184692Q12.365848878860474,5.397872636184692,12.346948878860474,5.352372636184692Q12.328148878860473,5.306872636184693,12.300748878860473,5.265932636184692Q12.273448878860474,5.224982636184692,12.238648878860474,5.190162636184692Q12.203748878860473,5.155342636184693,12.162848878860474,5.127982636184692Q12.121848878860474,5.100622636184692,12.076348878860474,5.081772636184692Q12.030848878860473,5.0629326361846925,11.982548878860474,5.053322636184692Q11.934248878860474,5.043712636184692,11.885048878860474,5.043712636184692ZM6.226058878860473,6.679562636184692L6.9808888788604735,8.566662636184692L5.471218878860474,8.566662636184692L6.226058878860473,6.679562636184692ZM11.884448878860473,7.500252636184692L9.217728878860473,7.500252636184692Q9.168488878860472,7.500252636184692,9.120188878860475,7.5098626361846925Q9.071888878860474,7.519472636184692,9.026388878860473,7.538312636184692Q8.980888878860473,7.557162636184692,8.939948878860474,7.584522636184692Q8.898998878860475,7.611882636184692,8.864178878860475,7.646702636184693Q8.829358878860473,7.681522636184693,8.801998878860473,7.722472636184692Q8.774638878860474,7.763412636184692,8.755788878860473,7.808912636184693Q8.736948878860474,7.854412636184692,8.727338878860474,7.902712636184693Q8.717728878860473,7.951012636184692,8.717728878860473,8.000252636184692Q8.717728878860473,8.049502636184691,8.727338878860474,8.097802636184692Q8.736948878860474,8.146102636184693,8.755788878860473,8.191602636184692Q8.774638878860474,8.237092636184691,8.801998878860473,8.278042636184693Q8.829358878860473,8.318982636184693,8.864178878860475,8.353812636184692Q8.898998878860475,8.388632636184692,8.939948878860474,8.415992636184694Q8.980888878860473,8.443352636184692,9.026388878860473,8.462192636184692Q9.071888878860474,8.481042636184693,9.120188878860475,8.490652636184691Q9.168488878860472,8.500252636184692,9.217728878860473,8.500252636184692L11.884448878860473,8.500252636184692Q11.933648878860474,8.500252636184692,11.981948878860473,8.490652636184691Q12.030248878860474,8.481042636184693,12.075748878860473,8.462192636184692Q12.121248878860474,8.443352636184692,12.162148878860474,8.415992636184694Q12.203148878860473,8.388632636184692,12.237948878860474,8.353812636184692Q12.272748878860474,8.318982636184693,12.300148878860474,8.278042636184693Q12.327448878860473,8.237092636184691,12.346348878860473,8.191602636184692Q12.365148878860474,8.146102636184693,12.374748878860474,8.097802636184692Q12.384348878860473,8.049502636184691,12.384448878860473,8.000252636184692Q12.384348878860473,7.951012636184692,12.374748878860474,7.902712636184693Q12.365148878860474,7.854412636184692,12.346348878860473,7.808912636184693Q12.327448878860473,7.763412636184692,12.300148878860474,7.722472636184692Q12.272748878860474,7.681522636184693,12.237948878860474,7.646702636184693Q12.203148878860473,7.611882636184692,12.162148878860474,7.584522636184692Q12.121248878860474,7.557162636184692,12.075748878860473,7.538312636184692Q12.030248878860474,7.519472636184692,11.981948878860473,7.5098626361846925Q11.933648878860474,7.500252636184692,11.884448878860473,7.500252636184692ZM11.884748878860474,9.956312636184693L9.884728878860473,9.956312636184693Q9.835478878860474,9.956312636184693,9.787178878860473,9.965922636184692Q9.738878878860474,9.975522636184692,9.693378878860473,9.994372636184693Q9.647888878860474,10.013212636184692,9.606938878860474,10.040572636184692Q9.565988878860473,10.067932636184693,9.531168878860473,10.102752636184693Q9.496348878860474,10.137582636184693,9.468988878860474,10.178522636184692Q9.441628878860474,10.219472636184692,9.422788878860473,10.264972636184693Q9.403938878860473,10.310462636184692,9.394328878860474,10.358762636184693Q9.384728878860473,10.407062636184692,9.384728878860473,10.456312636184693Q9.384728878860473,10.505552636184692,9.394328878860474,10.553852636184692Q9.403938878860473,10.602152636184693,9.422788878860473,10.647652636184693Q9.441628878860474,10.693152636184692,9.468988878860474,10.734092636184693Q9.496348878860474,10.775042636184692,9.531168878860473,10.809862636184693Q9.565988878860473,10.844682636184693,9.606938878860474,10.872042636184693Q9.647888878860474,10.899402636184693,9.693378878860473,10.918252636184693Q9.738878878860474,10.937092636184692,9.787178878860473,10.946702636184693Q9.835478878860474,10.956312636184693,9.884728878860473,10.956312636184693L11.884748878860474,10.956312636184693Q11.933948878860473,10.956312636184693,11.982248878860474,10.946702636184693Q12.030548878860474,10.937092636184692,12.076048878860474,10.918252636184693Q12.121548878860473,10.899402636184693,12.162548878860473,10.872042636184693Q12.203448878860474,10.844682636184693,12.238248878860473,10.809862636184693Q12.273048878860473,10.775042636184692,12.300448878860474,10.734092636184693Q12.327848878860474,10.693152636184692,12.346648878860474,10.647652636184693Q12.365548878860473,10.602152636184693,12.375148878860474,10.553852636184692Q12.384748878860474,10.505552636184692,12.384748878860474,10.456312636184693Q12.384748878860474,10.407062636184692,12.375148878860474,10.358762636184693Q12.365548878860473,10.310462636184692,12.346648878860474,10.264972636184693Q12.327848878860474,10.219472636184692,12.300448878860474,10.178522636184692Q12.273048878860473,10.137582636184693,12.238248878860473,10.102752636184693Q12.203448878860474,10.067932636184693,12.162548878860473,10.040572636184692Q12.121548878860473,10.013212636184692,12.076048878860474,9.994372636184693Q12.030548878860474,9.975522636184692,11.982248878860474,9.965922636184692Q11.933948878860473,9.956312636184693,11.884748878860474,9.956312636184693Z" fill-rule="evenodd" fill="currentColor" fill-opacity="1"/></g></g></svg>