<svg xmlns="http://www.w3.org/2000/svg" xmlns:xlink="http://www.w3.org/1999/xlink" fill="currentColor" version="1.1" width="1em" height="1em" viewBox="0 0 16 16"><defs><clipPath id="master_svg0_3_09141"><rect x="0" y="0" width="1em" height="1em" rx="0"/></clipPath></defs><g clip-path="url(#master_svg0_3_09141)"><g><path d="M1.1666259765625,2.666667L1.1666259765625,13.3333Q1.1666259765625,13.8166,1.5083369765625,14.1583Q1.8500429765625,14.5,2.3332929765625,14.5L13.6666259765625,14.5Q14.1499259765625,14.5,14.4916259765625,14.1583Q14.8333259765625,13.8166,14.8333259765625,13.3333L14.8333259765625,4.66667Q14.8333259765625,4.18341,14.4916259765625,3.8417Q14.1499259765625,3.5,13.6666259765625,3.5L8.2341459765625,3.5L6.7174059765625,1.679908Q6.6461559765625,1.594411,6.5453759765625,1.547205Q6.4445859765625,1.5,6.3332959765625,1.5L2.3332929765625,1.5Q1.8500429765625,1.5,1.5083349765625,1.841709Q1.1666259765625,2.183417,1.1666259765625,2.666667ZM2.3332929765625,13.5Q2.1666259765625,13.5,2.1666259765625,13.3333L2.1666259765625,2.666667Q2.1666259765625,2.5,2.3332929765625,2.5L6.0991059765625,2.5L7.6158459765625,4.32009Q7.6870959765625,4.40559,7.7878859765625,4.4528Q7.8886659765625,4.5,7.9999559765625,4.5L13.6666259765625,4.5Q13.8333259765625,4.5,13.8333259765625,4.66667L13.8333259765625,13.3333Q13.8333259765625,13.5,13.6666259765625,13.5L2.3332929765625,13.5Z" fill-rule="evenodd" fill="currentColor" fill-opacity="1"/></g><g><path d="M6,9.5L10,9.5Q10.04925,9.5,10.09755,9.490393Q10.14584,9.480785000000001,10.19134,9.46194Q10.23684,9.443094,10.27778,9.415735Q10.31873,9.388375,10.35355,9.353553Q10.38837,9.318731,10.41573,9.277785Q10.44309,9.236839,10.46194,9.191342Q10.48078,9.145845,10.49039,9.0975451Q10.5,9.0492457,10.5,9Q10.5,8.9507543,10.49039,8.9024549Q10.48078,8.854155,10.46194,8.808658Q10.44309,8.763161,10.41573,8.722215Q10.38837,8.681269,10.35355,8.646447Q10.31873,8.611625,10.27778,8.584265Q10.23684,8.556906,10.19134,8.53806Q10.14584,8.519214999999999,10.09755,8.509607Q10.04925,8.5,10,8.5L6,8.5Q5.9507543,8.5,5.9024549,8.509607Q5.854155,8.519214999999999,5.808658,8.53806Q5.763161,8.556906,5.722215,8.584265Q5.681269,8.611625,5.646447,8.646447Q5.611625,8.681269,5.584265,8.722215Q5.556906,8.763161,5.53806,8.808658Q5.519215,8.854155,5.509607,8.9024549Q5.5,8.9507543,5.5,9Q5.5,9.0492457,5.509607,9.0975451Q5.519215,9.145845,5.53806,9.191342Q5.556906,9.236839,5.584265,9.277785Q5.611625,9.318731,5.646447,9.353553Q5.681269,9.388375,5.722215,9.415735Q5.763161,9.443094,5.808658,9.46194Q5.854155,9.480785000000001,5.9024549,9.490393Q5.9507543,9.5,6,9.5Z" fill-rule="evenodd" fill="currentColor" fill-opacity="1"/></g><g><path d="M7.5,7L7.5,11Q7.5,11.04925,7.509607,11.09755Q7.519215,11.14584,7.53806,11.19134Q7.556906,11.23684,7.584265,11.27778Q7.611625,11.31873,7.646447,11.35355Q7.681269,11.38837,7.722215,11.41573Q7.763161,11.44309,7.808658,11.46194Q7.854155,11.48078,7.9024549,11.49039Q7.9507543,11.5,8,11.5Q8.0492457,11.5,8.0975451,11.49039Q8.145845,11.48078,8.191342,11.46194Q8.236839,11.44309,8.277785,11.41573Q8.318731,11.38837,8.353553,11.35355Q8.388375,11.31873,8.415735,11.27778Q8.443094,11.23684,8.46194,11.19134Q8.480785000000001,11.14584,8.490393,11.09755Q8.5,11.04925,8.5,11L8.5,7Q8.5,6.9507543,8.490393,6.9024549Q8.480785000000001,6.854155,8.46194,6.808658Q8.443094,6.763161,8.415735,6.722215Q8.388375,6.681269,8.353553,6.646447Q8.318731,6.611625,8.277785,6.584265Q8.236839,6.556906,8.191342,6.53806Q8.145845,6.519215,8.0975451,6.509607Q8.0492457,6.5,8,6.5Q7.9507543,6.5,7.9024549,6.509607Q7.854155,6.519215,7.808658,6.53806Q7.763161,6.556906,7.722215,6.584265Q7.681269,6.611625,7.646447,6.646447Q7.611625,6.681269,7.584265,6.722215Q7.556906,6.763161,7.53806,6.808658Q7.519215,6.854155,7.509607,6.9024549Q7.5,6.9507543,7.5,7Z" fill-rule="evenodd" fill="currentColor" fill-opacity="1"/></g></g></svg>