<svg xmlns="http://www.w3.org/2000/svg" xmlns:xlink="http://www.w3.org/1999/xlink" fill="currentColor" version="1.1" width="1em" height="1em" viewBox="0 0 16 16"><g><g><ellipse cx="8.000082015991211" cy="7.999837875366211" rx="6.833333969116211" ry="6.833333969116211" fill-opacity="0" stroke-opacity="1" stroke="#595959" fill="currentColor" stroke-width="1em"/></g><g transform="matrix(0.7071067690849304,-0.7071067690849304,0.7071067690849304,0.7071067690849304,-4.094953390333103,6.114395911747124)"><path d="M4.833251953125,8.000244140625Q4.833251953125,7.950998440625,4.842858953125,7.902699040625Q4.852466953125,7.854399140625,4.871311953125,7.808902140625Q4.890157953125,7.763405140625,4.917516953125,7.722459140625Q4.944876953125,7.681513140625,4.979698953125,7.646691140625Q5.014520953125,7.611869140625,5.055466953125,7.584509140625Q5.096412953125,7.557150140625,5.141909953125,7.538304140625Q5.187406953125,7.519459140625,5.235706853125,7.509851140625Q5.284006253125,7.500244140625,5.333251953125,7.500244140625Q5.382497653125,7.500244140625,5.430797053125,7.509851140625Q5.479096953125,7.519459140625,5.524593953125,7.538304140625Q5.570090953125,7.557150140625,5.611036953125,7.584509140625Q5.651982953125,7.611869140625,5.686804953125,7.646691140625Q5.721626953125,7.681513140625,5.748986953125,7.722459140625Q5.776345953125,7.763405140625,5.795191953125,7.808902140625Q5.814036953125,7.854399140625,5.823644953125,7.902699040625Q5.833251953125,7.950998440625,5.833251953125,8.000244140625L5.833251953125,10.161744140625Q5.833251953125,10.328404140625,5.999907953125,10.328414140625L10.519121953125001,10.328694140625L10.519151953125,10.328694140625Q10.568401953125,10.328694140625,10.616691953124999,10.338304140625Q10.664991953125,10.347914140625,10.710481953125,10.366764140625Q10.755981953125,10.385614140625,10.796921953125,10.412974140625Q10.837871953125,10.440334140625,10.872691953124999,10.475154140625Q10.907501953125,10.509974140625,10.934861953125,10.550924140625Q10.962221953124999,10.591864140624999,10.981061953125,10.637364140625Q10.999911953125,10.682854140625,11.009511953125,10.731154140625Q11.019121953125001,10.779454140624999,11.019121953125001,10.828694140625Q11.019121953125001,10.877944140625,11.009511953125,10.926244140625Q10.999911953125,10.974544140625,10.981061953125,11.020034140625Q10.962221953124999,11.065534140625001,10.934861953125,11.106484140625Q10.907501953125,11.147424140625,10.872671953125,11.182244140625Q10.837851953125,11.217074140625,10.796911953125,11.244424140625Q10.755961953125,11.271784140625,10.710461953125,11.290634140625Q10.664971953125,11.309484140624999,10.616671953125,11.319084140625Q10.568371953125,11.328694140625,10.519121953125001,11.328694140625L10.519091953124999,11.328694140625L5.999844953125,11.328414140625Q5.516616953125,11.328384140625,5.174934953125,10.986674140625Q4.833251953125,10.644974140625,4.833251953125,10.161744140625L4.833251953125,8.000244140625Z" fill-rule="evenodd" fill="currentColor" fill-opacity="1"/></g></g></svg>