<svg xmlns="http://www.w3.org/2000/svg" xmlns:xlink="http://www.w3.org/1999/xlink" fill="currentColor" version="1.1" width="1em" height="1em" viewBox="0 0 16.4993896484375 16.499267578125"><g><g transform="matrix(0.7071067690849304,0.7071067690849304,-0.7071067690849304,0.7071067690849304,3.5208889527179075,-8.499468188558605)"><path d="M15.187160266113281,10.332854588031768Q13.875480266113282,10.332854588031768,12.947990266113282,9.40537458803177Q12.020494461113282,8.477884588031769,12.02049493811328,7.166204588031769L12.020495415113281,3.1662045880317686Q12.020495891113281,1.8545345880317687,12.94799126611328,0.9270365880317688Q13.875480266113282,-0.0004588959682312011,15.187160266113281,-0.0004588959682312011Q16.49884026611328,-0.0004598499682312012,17.426330266113283,0.9270365880317688Q18.35383026611328,1.8545345880317687,18.35383026611328,3.1662045880317686L18.35383026611328,6.166204588031769Q18.35383026611328,6.215454588031768,18.344220266113282,6.263754588031769Q18.33461026611328,6.312054588031769,18.315770266113283,6.357544588031769Q18.296920266113283,6.403044588031769,18.26956026611328,6.443994588031769Q18.24220026611328,6.484934588031769,18.207380266113283,6.5197645880317685Q18.17256026611328,6.554584588031768,18.13161026611328,6.581944588031769Q18.090670266113282,6.609304588031769,18.04517026611328,6.628144588031769Q17.99967026611328,6.6469945880317685,17.95137026611328,6.656594588031769Q17.903070266113282,6.666204588031769,17.85383026611328,6.666204588031769Q17.80458026611328,6.666204588031769,17.75628026611328,6.656594588031769Q17.70798026611328,6.6469945880317685,17.66249026611328,6.628144588031769Q17.61699026611328,6.609304588031769,17.57604026611328,6.581944588031769Q17.535100266113282,6.554584588031768,17.500270266113283,6.5197645880317685Q17.46545026611328,6.484934588031769,17.43809026611328,6.443994588031769Q17.410730266113283,6.403044588031769,17.39189026611328,6.357544588031769Q17.373040266113282,6.312054588031769,17.36344026611328,6.263754588031769Q17.35383026611328,6.215454588031768,17.35383026611328,6.166204588031769L17.35383026611328,3.1662045880317686Q17.35383026611328,2.268744588031769,16.719230266113282,1.6341445880317689Q16.08462026611328,0.9995415880317688,15.187160266113281,0.9995415880317688Q14.28970026611328,0.9995415880317688,13.655100266113282,1.6341445880317689Q13.020500266113281,2.268744588031769,13.020500266113281,3.1662045880317686L13.020490266113281,7.166204588031769Q13.020490266113281,8.063674588031768,13.655100266113282,8.698274588031769Q14.28970026611328,9.33287458803177,15.187160266113281,9.33287458803177Q15.236410266113282,9.33287458803177,15.284710266113281,9.342484588031768Q15.33301026611328,9.352084588031769,15.378500266113281,9.37093458803177Q15.424000266113282,9.389774588031768,15.46495026611328,9.417134588031768Q15.505890266113282,9.44449458803177,15.540710266113281,9.47931458803177Q15.575540266113281,9.514144588031769,15.60290026611328,9.555084588031768Q15.630260266113282,9.596034588031769,15.649100266113281,9.641534588031769Q15.667950266113282,9.687024588031768,15.67755026611328,9.73532458803177Q15.687160266113281,9.783624588031769,15.687160266113281,9.83287458803177Q15.687160266113281,9.882114588031769,15.67755026611328,9.930414588031768Q15.667950266113282,9.97871458803177,15.649100266113281,10.024254588031768Q15.630260266113282,10.069754588031769,15.60290026611328,10.11065458803177Q15.575540266113281,10.151554588031768,15.540710266113281,10.186454588031769Q15.505890266113282,10.22125458803177,15.46495026611328,10.24865458803177Q15.424000266113282,10.27595458803177,15.378500266113281,10.294854588031768Q15.33301026611328,10.313654588031769,15.284710266113281,10.32325458803177Q15.236410266113282,10.332854588031768,15.187160266113281,10.332854588031768ZM15.187240266113282,6.666374588031768Q16.49892026611328,6.666374588031768,17.42641026611328,7.593864588031769Q18.35391026611328,8.52136458803177,18.35391026611328,9.833034588031769L18.35391026611328,13.83305458803177Q18.35391026611328,15.144754588031768,17.42641026611328,16.072254588031768Q16.49892026611328,16.99965458803177,15.187240266113282,16.99965458803177Q13.87557026611328,16.99965458803177,12.948071266113281,16.072254588031768Q12.020576298113282,15.144754588031768,12.020576298113282,13.83305458803177L12.020576507113281,10.83305458803177Q12.020576507113281,10.78375458803177,12.030183866113282,10.735454588031768Q12.039791266113282,10.687154588031769,12.058636766113281,10.641654588031768Q12.07748226611328,10.59615458803177,12.10484166611328,10.555254588031769Q12.132201266113281,10.514354588031768,12.167023266113281,10.47945458803177Q12.201845266113281,10.444654588031769,12.242791266113281,10.417254588031769Q12.283737266113281,10.389954588031769,12.329234266113282,10.371054588031768Q12.37473226611328,10.35225458803177,12.42303126611328,10.342654588031769Q12.47133026611328,10.33305458803177,12.520576266113281,10.33305458803177Q12.569822266113281,10.33305458803177,12.618121266113281,10.342654588031769Q12.66642126611328,10.35225458803177,12.711918266113281,10.371054588031768Q12.75741526611328,10.389954588031769,12.79836126611328,10.417254588031769Q12.839308266113282,10.444654588031769,12.874130266113282,10.47945458803177Q12.90895126611328,10.514354588031768,12.93631126611328,10.555254588031769Q12.963670266113281,10.59615458803177,12.982516266113281,10.641654588031768Q13.001361266113282,10.687154588031769,13.010969266113282,10.735454588031768Q13.020580266113281,10.78375458803177,13.020580266113281,10.83305458803177L13.020580266113281,13.83305458803177Q13.020580266113281,14.730454588031769,13.65518026611328,15.365054588031768Q14.289780266113281,15.999654588031769,15.187240266113282,15.999654588031769Q16.08471026611328,15.999654588031769,16.719310266113283,15.365054588031768Q17.35391026611328,14.730454588031769,17.35391026611328,13.83305458803177L17.35391026611328,9.833034588031769Q17.35391026611328,8.935574588031768,16.719310266113283,8.30097458803177Q16.08471026611328,7.666374588031768,15.187240266113282,7.666374588031768Q15.13800026611328,7.666374588031768,15.089700266113281,7.656764588031769Q15.041400266113282,7.647154588031769,14.995900266113281,7.628304588031769Q14.95040026611328,7.609464588031769,14.909460266113282,7.582104588031769Q14.868510266113281,7.5547445880317685,14.833690266113281,7.519924588031769Q14.798870266113282,7.485104588031769,14.771510266113282,7.444154588031769Q14.74415026611328,7.403204588031769,14.725300266113281,7.357714588031769Q14.70646026611328,7.312214588031769,14.69685026611328,7.263914588031769Q14.687240266113282,7.215614588031769,14.687240266113282,7.166374588031768Q14.687240266113282,7.117124588031769,14.69685026611328,7.068824588031768Q14.70646026611328,7.020524588031769,14.725300266113281,6.9750245880317685Q14.74415026611328,6.9295345880317685,14.771510266113282,6.888584588031769Q14.798870266113282,6.847634588031768,14.833690266113281,6.8128145880317685Q14.868510266113281,6.777994588031769,14.909460266113282,6.750634588031769Q14.95040026611328,6.723274588031769,14.995900266113281,6.704434588031769Q15.041400266113282,6.685584588031769,15.089700266113281,6.675974588031769Q15.13800026611328,6.666374588031768,15.187240266113282,6.666374588031768Z" fill-rule="evenodd" fill="currentColor" fill-opacity="1"/></g></g></svg>