<svg xmlns="http://www.w3.org/2000/svg" xmlns:xlink="http://www.w3.org/1999/xlink" fill="currentColor" version="1.1" width="1em" height="1em" viewBox="0 0 16 16"><g><g><path d="M0.8334146739302368,5.3331070117187505L0.8334146739302368,10.66644701171875Q0.8334146739302368,11.14969701171875,1.1751232519302368,11.49139701171875Q1.5168322519302369,11.833107011718749,2.0000822519302366,11.833107011718749L14.000082251930237,11.833107011718749Q14.483282251930238,11.833107011718749,14.825082251930237,11.49139701171875Q15.166782251930236,11.14969701171875,15.166782251930236,10.66644701171875L15.166782251930236,5.3331070117187505Q15.166782251930236,4.84986001171875,14.825082251930237,4.50815201171875Q14.483282251930238,4.16644287071875,14.000082251930237,4.16644287071875L2.0000822519302366,4.16644287071875Q1.5168322519302369,4.16644287071875,1.1751232519302368,4.50815201171875Q0.8334146739302368,4.84986001171875,0.8334146739302368,5.3331070117187505ZM9.416842251930237,5.16644301171875L6.499922251930236,5.16644301171875L6.520222251930237,5.18674701171875L1.8334122519302367,9.873547011718749L1.8334122519302367,10.66644701171875Q1.8334122519302367,10.833107011718749,2.0000822519302366,10.833107011718749L3.466862251930237,10.833107011718749L9.416842251930237,5.16644301171875ZM4.916862251930237,10.833107011718749L10.866882251930237,5.16644301171875L14.000082251930237,5.16644301171875Q14.166782251930236,5.16644301171875,14.166782251930236,5.3331070117187505L14.166782251930236,10.66644701171875Q14.166782251930236,10.833107011718749,14.000082251930237,10.833107011718749L4.916862251930237,10.833107011718749ZM1.8334122519302367,8.45933701171875L5.126312251930237,5.16644301171875L2.0000822519302366,5.16644301171875Q1.8334122519302367,5.16644301171875,1.8334122519302367,5.3331070117187505L1.8334122519302367,8.45933701171875Z" fill-rule="evenodd" fill="currentColor" fill-opacity="1"/></g></g></svg>