<svg xmlns="http://www.w3.org/2000/svg" xmlns:xlink="http://www.w3.org/1999/xlink" fill="currentColor" version="1.1" width="1em" height="1em" viewBox="0 0 16 16"><g><g><path d="M0.833251953125,3.999921953125Q0.833251953125,2.688241953125,1.760746953125,1.760746953125Q2.688241953125,0.833251953125,3.999921953125,0.833251953125L11.999951953125,0.833251953125Q13.311551953125,0.833251953125,14.239051953125,1.760746953125Q15.166551953125,2.688241953125,15.166551953125,3.999921953125Q15.166551953125,5.311591953125,14.239051953125,6.239091953125Q13.311551953125,7.166581953125,11.999951953125,7.166581953125L3.999921953125,7.166581953125Q2.688241953125,7.166581953125,1.760746953125,6.239091953125Q0.833251953125,5.311591953125,0.833251953125,3.999921953125L0.833251953125,3.999921953125ZM1.833251953125,3.999921953125Q1.833251953125,4.8973819531250005,2.467851953125,5.531981953125Q3.102451953125,6.166581953125,3.999921953125,6.166581953125L11.999951953125,6.166581953125Q12.897351953125,6.166581953125,13.531951953125,5.531981953125Q14.166551953125,4.8973819531250005,14.166551953125,3.999921953125Q14.166551953125,3.102451953125,13.531951953125,2.467851953125Q12.897351953125,1.833251953125,11.999951953125,1.833251953125L3.999921953125,1.833251953125Q3.102451953125,1.833251953125,2.467851953125,2.467851953125Q1.833251953125,3.102451953125,1.833251953125,3.999921953125L1.833251953125,3.999921953125Z" fill="currentColor" fill-opacity="1"/></g><g><path d="M0.833251953125,11.999921953125Q0.833251953125,10.688241953125,1.760746953125,9.760746953125Q2.688241953125,8.833251953125,3.999921953125,8.833251953125L11.999951953125,8.833251953125Q13.311551953125,8.833251953125,14.239051953125,9.760746953125Q15.166551953125,10.688241953125,15.166551953125,11.999921953125Q15.166551953125,13.311591953125,14.239051953125,14.239091953125001Q13.311551953125,15.166581953125,11.999951953125,15.166581953125L3.999921953125,15.166581953125Q2.688241953125,15.166581953125,1.760746953125,14.239091953125001Q0.833251953125,13.311591953125,0.833251953125,11.999921953125L0.833251953125,11.999921953125ZM1.833251953125,11.999921953125Q1.833251953125,12.897381953125,2.467851953125,13.531981953125001Q3.102451953125,14.166581953125,3.999921953125,14.166581953125L11.999951953125,14.166581953125Q12.897351953125,14.166581953125,13.531951953125,13.531981953125001Q14.166551953125,12.897381953125,14.166551953125,11.999921953125Q14.166551953125,11.102451953125,13.531951953125,10.467851953125Q12.897351953125,9.833251953125,11.999951953125,9.833251953125L3.999921953125,9.833251953125Q3.102451953125,9.833251953125,2.467851953125,10.467851953125Q1.833251953125,11.102451953125,1.833251953125,11.999921953125L1.833251953125,11.999921953125Z" fill="currentColor" fill-opacity="1"/></g><g><ellipse cx="4.000081419944763" cy="4.000081419944763" rx="0.6666666865348816" ry="0.6666666865348816" fill-opacity="0" stroke-opacity="1" stroke="#595959" fill="currentColor" stroke-width="1em"/></g><g><ellipse cx="12.000081419944763" cy="11.968587279319763" rx="0.6666666865348816" ry="0.6666666865348816" fill-opacity="0" stroke-opacity="1" stroke="#595959" fill="currentColor" stroke-width="1em"/></g></g></svg>