<svg xmlns="http://www.w3.org/2000/svg" xmlns:xlink="http://www.w3.org/1999/xlink" fill="currentColor" version="1.1" width="1em" height="1em" viewBox="0 0 16 16"><g><g><path d="M0.8333740234375,10.66650390625L0.8333740234375,5.33317090625Q0.8333740234375,4.84992190625,1.1750830234375,4.50821290625Q1.5167920234375,4.16650390625,2.0000410234375,4.16650390625L14.0000740234375,4.16650390625Q14.4832740234375,4.16650390625,14.8249740234375,4.50821290625Q15.1666740234375,4.84992090625,15.1666740234375,5.33317090625L15.1666740234375,10.66650390625Q15.1666740234375,11.14975390625,14.8249740234375,11.49146390625Q14.4832740234375,11.83317390625,14.0000740234375,11.83317390625L2.0000410234375,11.83317390625Q1.5167920234375,11.83317390625,1.1750830234375,11.49146390625Q0.8333740234375,11.14975390625,0.8333740234375,10.66650390625ZM1.8333740234375,10.66650390625Q1.8333740234375,10.83317390625,2.0000410234375,10.83317390625L14.0000740234375,10.83317390625Q14.1666740234375,10.83317390625,14.1666740234375,10.66650390625L14.1666740234375,5.33317090625Q14.1666740234375,5.16650390625,14.0000740234375,5.16650390625L2.0000410234375,5.16650390625Q1.8333740234375,5.16650390625,1.8333740234375,5.33317090625L1.8333740234375,10.66650390625Z" fill="currentColor" fill-opacity="1"/></g><g><path d="M4,7.499996185302734L6.66667,7.499996185302734Q6.71591,7.499996185302734,6.76421,7.509603185302734Q6.81251,7.519211185302734,6.85801,7.538056185302734Q6.90351,7.556902185302734,6.94445,7.584261185302735Q6.9854,7.6116211853027345,7.02022,7.646443185302735Q7.05504,7.681265185302735,7.0824,7.722211185302735Q7.10976,7.763157185302735,7.12861,7.808654185302735Q7.14745,7.854151185302735,7.1570599999999995,7.902451085302735Q7.16667,7.950750485302734,7.16667,7.999996185302734Q7.16667,8.049241885302735,7.1570599999999995,8.097541285302734Q7.14745,8.145841185302734,7.12861,8.191338185302735Q7.10976,8.236835185302734,7.0824,8.277781185302734Q7.05504,8.318727185302734,7.02022,8.353549185302734Q6.9854,8.388371185302734,6.94445,8.415731185302734Q6.90351,8.443090185302735,6.85801,8.461936185302735Q6.81251,8.480781185302735,6.76421,8.490389185302734Q6.71591,8.499996185302734,6.66667,8.499996185302734L4,8.499996185302734Q3.9507543,8.499996185302734,3.9024549,8.490389185302734Q3.854155,8.480781185302735,3.808658,8.461936185302735Q3.763161,8.443090185302735,3.722215,8.415731185302734Q3.681269,8.388371185302734,3.646447,8.353549185302734Q3.611625,8.318727185302734,3.584265,8.277781185302734Q3.556906,8.236835185302734,3.5380599999999998,8.191338185302735Q3.519215,8.145841185302734,3.509607,8.097541285302734Q3.5,8.049241885302735,3.5,7.999996185302734Q3.5,7.950750485302734,3.509607,7.902451085302735Q3.519215,7.854151185302735,3.5380599999999998,7.808654185302735Q3.556906,7.763157185302735,3.584265,7.722211185302735Q3.611625,7.681265185302735,3.646447,7.646443185302735Q3.681269,7.6116211853027345,3.722215,7.584261185302735Q3.763161,7.556902185302734,3.808658,7.538056185302734Q3.854155,7.519211185302734,3.9024549,7.509603185302734Q3.9507543,7.499996185302734,4,7.499996185302734Z" fill-rule="evenodd" fill="currentColor" fill-opacity="1"/></g><g><path d="M9.3333740234375,7.499996185302734L12.0000440234375,7.499996185302734Q12.049284023437501,7.499996185302734,12.0975840234375,7.509603185302734Q12.1458840234375,7.519211185302734,12.1913840234375,7.538056185302734Q12.2368840234375,7.556902185302734,12.2778240234375,7.584261185302735Q12.3187740234375,7.6116211853027345,12.3535940234375,7.646443185302735Q12.3884140234375,7.681265185302735,12.4157740234375,7.722211185302735Q12.4431340234375,7.763157185302735,12.4619840234375,7.808654185302735Q12.4808240234375,7.854151185302735,12.4904340234375,7.902451085302735Q12.5000440234375,7.950750485302734,12.5000440234375,7.999996185302734Q12.5000440234375,8.049241885302735,12.4904340234375,8.097541285302734Q12.4808240234375,8.145841185302734,12.4619840234375,8.191338185302735Q12.4431340234375,8.236835185302734,12.4157740234375,8.277781185302734Q12.3884140234375,8.318727185302734,12.3535940234375,8.353549185302734Q12.3187740234375,8.388371185302734,12.2778240234375,8.415731185302734Q12.2368840234375,8.443090185302735,12.1913840234375,8.461936185302735Q12.1458840234375,8.480781185302735,12.0975840234375,8.490389185302734Q12.049284023437501,8.499996185302734,12.0000440234375,8.499996185302734L9.3333740234375,8.499996185302734Q9.2841283234375,8.499996185302734,9.2358289234375,8.490389185302734Q9.1875290234375,8.480781185302735,9.1420320234375,8.461936185302735Q9.0965350234375,8.443090185302735,9.0555890234375,8.415731185302734Q9.0146430234375,8.388371185302734,8.9798210234375,8.353549185302734Q8.9449990234375,8.318727185302734,8.9176390234375,8.277781185302734Q8.8902800234375,8.236835185302734,8.8714340234375,8.191338185302735Q8.852589023437499,8.145841185302734,8.8429810234375,8.097541285302734Q8.8333740234375,8.049241885302735,8.8333740234375,7.999996185302734Q8.8333740234375,7.950750485302734,8.8429810234375,7.902451085302735Q8.852589023437499,7.854151185302735,8.8714340234375,7.808654185302735Q8.8902800234375,7.763157185302735,8.9176390234375,7.722211185302735Q8.9449990234375,7.681265185302735,8.9798210234375,7.646443185302735Q9.0146430234375,7.6116211853027345,9.0555890234375,7.584261185302735Q9.0965350234375,7.556902185302734,9.1420320234375,7.538056185302734Q9.1875290234375,7.519211185302734,9.2358289234375,7.509603185302734Q9.2841283234375,7.499996185302734,9.3333740234375,7.499996185302734Z" fill-rule="evenodd" fill="currentColor" fill-opacity="1"/></g></g></svg>