<svg xmlns="http://www.w3.org/2000/svg" xmlns:xlink="http://www.w3.org/1999/xlink" fill="currentColor" version="1.1" width="1em" height="1em" viewBox="0 0 16 16"><g><g><path d="M6.1457743368530275,4.166506675720215L6.493154336853028,2.082206675720215Q6.4999643368530275,2.0413876757202147,6.4999643368530275,2.000006675720215Q6.4999643368530275,1.9507606757202147,6.490354336853027,1.9024616757202149Q6.480744336853028,1.8541616757202148,6.461904336853028,1.8086646757202147Q6.443054336853027,1.7631676757202148,6.4156943368530275,1.722221675720215Q6.388334336853028,1.6812756757202147,6.353514336853027,1.6464536757202148Q6.318694336853027,1.611631675720215,6.2777443368530275,1.5842718757202148Q6.236794336853027,1.5569123757202148,6.191304336853027,1.538066875720215Q6.145804336853027,1.5192213757202149,6.097504336853027,1.5096140357202148Q6.049204336853028,1.5000066757202148,5.9999643368530275,1.5000066757202148Q5.955924336853028,1.5000066757202148,5.912554336853027,1.507704985720215Q5.8691943368530275,1.515403275720215,5.827844336853027,1.5305628757202148Q5.786504336853027,1.5457223757202148,5.748434336853028,1.5678764757202148Q5.710374336853027,1.5900304757202148,5.676774336853027,1.6184966757202148Q5.643174336853027,1.646962675720215,5.6150643368530275,1.6808646757202148Q5.586954336853028,1.714766675720215,5.565204336853028,1.753060675720215Q5.543444336853027,1.7913536757202149,5.528724336853028,1.8328606757202148Q5.514004336853027,1.8743666757202149,5.506764336853028,1.9178076757202147L5.131984336853027,4.166506675720215L3.333214336853027,4.166506675720215Q3.2839643368530274,4.166506675720215,3.235664336853027,4.176116675720214Q3.1873643368530273,4.185726675720215,3.1418743368530273,4.204566675720215Q3.096374336853027,4.223416675720214,3.0554243368530276,4.250776675720215Q3.0144843368530276,4.278136675720215,2.9796543368530273,4.312956675720215Q2.9448343368530274,4.347776675720215,2.9174743368530276,4.388726675720215Q2.8901143368530273,4.429666675720215,2.8712743368530274,4.475166675720215Q2.8524243368530273,4.520666675720214,2.8428243368530275,4.568966675720215Q2.833214336853027,4.617266675720215,2.833214336853027,4.666506675720215Q2.833214336853027,4.715756675720215,2.8428243368530275,4.764056675720215Q2.8524243368530273,4.812356675720215,2.8712743368530274,4.857856675720215Q2.8901143368530273,4.903346675720215,2.9174743368530276,4.944296675720215Q2.9448343368530274,4.9852366757202144,2.9796543368530273,5.020066675720215Q3.0144843368530276,5.054886675720215,3.0554243368530276,5.082246675720215Q3.096374336853027,5.109606675720215,3.1418743368530273,5.128446675720214Q3.1873643368530273,5.147296675720215,3.235664336853027,5.156906675720215Q3.2839643368530274,5.166506675720215,3.333214336853027,5.166506675720215L4.9653143368530275,5.166506675720215L4.020814336853027,10.833506675720216L1.9999613368530273,10.833506675720216Q1.9507153368530274,10.833506675720216,1.9024153368530272,10.843106675720215Q1.8541163368530273,10.852716675720215,1.8086193368530274,10.871566675720215Q1.7631223368530273,10.890406675720214,1.7221753368530273,10.917766675720214Q1.6812293368530273,10.945126675720214,1.6464073368530274,10.979946675720214Q1.6115853368530273,11.014766675720216,1.5842260368530274,11.055716675720214Q1.5568666368530273,11.096656675720215,1.5380211368530274,11.142156675720216Q1.5191756368530274,11.187656675720214,1.5095682368530274,11.235956675720216Q1.4999608988530273,11.284256675720215,1.4999608988530273,11.333506675720216Q1.4999608988530273,11.382746675720215,1.5095682368530274,11.431046675720214Q1.5191756368530274,11.479346675720215,1.5380211368530274,11.524806675720216Q1.5568666368530273,11.570306675720214,1.5842260368530274,11.611306675720215Q1.6115853368530273,11.652206675720215,1.6464073368530274,11.687006675720214Q1.6812293368530273,11.721906675720215,1.7221753368530273,11.749206675720215Q1.7631223368530273,11.776606675720215,1.8086193368530274,11.795406675720216Q1.8541163368530273,11.814306675720214,1.9024153368530272,11.823906675720215Q1.9507153368530274,11.833506675720216,1.9999613368530273,11.833506675720216L3.8541443368530275,11.833506675720216L3.5068043368530275,13.917606675720215L3.5067643368530272,13.917806675720215Q3.4999643368530275,13.958606675720215,3.4999643368530275,14.000006675720215Q3.4999643368530275,14.049206675720216,3.5095643368530274,14.097506675720215Q3.5191743368530273,14.145806675720214,3.5380243368530273,14.191306675720215Q3.5568643368530273,14.236806675720215,3.5842243368530275,14.277806675720214Q3.6115843368530274,14.318706675720215,3.6464043368530272,14.353606675720215Q3.681234336853027,14.388406675720216,3.7221743368530276,14.415706675720214Q3.763124336853027,14.443106675720214,3.808614336853027,14.461906675720215Q3.8541143368530273,14.480806675720215,3.9024143368530275,14.490406675720214Q3.9507143368530273,14.500006675720215,3.9999643368530275,14.500006675720215Q4.044004336853027,14.500006675720215,4.087364336853027,14.492306675720215Q4.130724336853028,14.484606675720215,4.1720743368530275,14.469406675720215Q4.213424336853027,14.454306675720215,4.251484336853027,14.432106675720215Q4.2895443368530275,14.410006675720215,4.323144336853027,14.381506675720216Q4.356754336853028,14.353006675720215,4.384864336853028,14.319106675720215Q4.412974336853027,14.285206675720215,4.434724336853027,14.246906675720215Q4.456474336853027,14.208606675720215,4.471194336853028,14.167106675720214Q4.485914336853027,14.125606675720215,4.493154336853028,14.082206675720215L4.493194336853027,14.082006675720216L4.867944336853027,11.833506675720216L9.854144336853027,11.833506675720216L9.506804336853028,13.917606675720215L9.506764336853028,13.917806675720215Q9.499964336853028,13.958606675720215,9.499964336853028,14.000006675720215Q9.499964336853028,14.049206675720216,9.509564336853026,14.097506675720215Q9.519174336853027,14.145806675720214,9.538024336853027,14.191306675720215Q9.556864336853028,14.236806675720215,9.584224336853028,14.277806675720214Q9.611584336853028,14.318706675720215,9.646404336853028,14.353606675720215Q9.681224336853028,14.388406675720216,9.722174336853028,14.415706675720214Q9.763124336853027,14.443106675720214,9.808614336853028,14.461906675720215Q9.854114336853028,14.480806675720215,9.902414336853028,14.490406675720214Q9.950714336853027,14.500006675720215,9.999964336853028,14.500006675720215Q10.044004336853027,14.500006675720215,10.087364336853028,14.492306675720215Q10.130724336853028,14.484606675720215,10.172074336853028,14.469406675720215Q10.213424336853027,14.454306675720215,10.251484336853027,14.432106675720215Q10.289544336853027,14.410006675720215,10.323144336853026,14.381506675720216Q10.356754336853028,14.353006675720215,10.384864336853028,14.319106675720215Q10.412974336853027,14.285206675720215,10.434724336853026,14.246906675720215Q10.456474336853027,14.208606675720215,10.471194336853028,14.167106675720214Q10.485914336853027,14.125606675720215,10.493154336853028,14.082206675720215L10.493204336853028,14.082006675720216L10.867944336853027,11.833506675720216L12.666584336853028,11.833506675720216Q12.715884336853028,11.833506675720216,12.764184336853027,11.823906675720215Q12.812484336853027,11.814306675720214,12.857984336853027,11.795406675720216Q12.903484336853028,11.776606675720215,12.944384336853027,11.749206675720215Q12.985384336853027,11.721906675720215,13.020184336853028,11.687006675720214Q13.054984336853027,11.652206675720215,13.082384336853027,11.611306675720215Q13.109684336853027,11.570306675720214,13.128584336853027,11.524806675720216Q13.147384336853028,11.479346675720215,13.156984336853027,11.431046675720214Q13.166584336853028,11.382746675720215,13.166584336853028,11.333506675720216Q13.166584336853028,11.284256675720215,13.156984336853027,11.235956675720216Q13.147384336853028,11.187656675720214,13.128584336853027,11.142156675720216Q13.109684336853027,11.096656675720215,13.082384336853027,11.055716675720214Q13.054984336853027,11.014766675720216,13.020184336853028,10.979946675720214Q12.985384336853027,10.945126675720214,12.944384336853027,10.917766675720214Q12.903484336853028,10.890406675720214,12.857984336853027,10.871566675720215Q12.812484336853027,10.852716675720215,12.764184336853027,10.843106675720215Q12.715884336853028,10.833506675720216,12.666584336853028,10.833506675720216L11.034604336853027,10.833506675720216L11.979084336853028,5.166506675720215L13.999884336853027,5.166506675720215Q14.049084336853028,5.166506675720215,14.097384336853027,5.156906675720215Q14.145684336853027,5.147296675720215,14.191184336853027,5.128446675720214Q14.236684336853028,5.109606675720215,14.277684336853028,5.082246675720215Q14.318584336853027,5.054886675720215,14.353384336853027,5.020066675720215Q14.388284336853028,4.9852366757202144,14.415584336853028,4.944296675720215Q14.442984336853028,4.903346675720215,14.461784336853027,4.857856675720215Q14.480684336853027,4.812356675720215,14.490284336853028,4.764056675720215Q14.499884336853027,4.715756675720215,14.499884336853027,4.666506675720215Q14.499884336853027,4.617266675720215,14.490284336853028,4.568966675720215Q14.480684336853027,4.520666675720214,14.461784336853027,4.475166675720215Q14.442984336853028,4.429666675720215,14.415584336853028,4.388726675720215Q14.388284336853028,4.347776675720215,14.353384336853027,4.312956675720215Q14.318584336853027,4.278136675720215,14.277684336853028,4.250776675720215Q14.236684336853028,4.223416675720214,14.191184336853027,4.204566675720215Q14.145684336853027,4.185726675720215,14.097384336853027,4.176116675720214Q14.049084336853028,4.166506675720215,13.999884336853027,4.166506675720215L12.145784336853028,4.166506675720215L12.493184336853027,2.082206675720215Q12.499984336853027,2.0413876757202147,12.499984336853027,2.000006675720215Q12.499984336853027,1.9507606757202147,12.490384336853028,1.9024616757202149Q12.480784336853027,1.8541616757202148,12.461884336853027,1.8086646757202147Q12.443084336853028,1.7631676757202148,12.415684336853028,1.722221675720215Q12.388384336853028,1.6812756757202147,12.353484336853027,1.6464536757202148Q12.318684336853027,1.611631675720215,12.277784336853028,1.5842718757202148Q12.236784336853027,1.5569123757202148,12.191284336853027,1.538066875720215Q12.145784336853028,1.5192213757202149,12.097484336853027,1.5096140357202148Q12.049184336853028,1.5000066757202148,11.999984336853027,1.5000066757202148Q11.955884336853027,1.5000066757202148,11.912584336853028,1.507704985720215Q11.869184336853028,1.515403275720215,11.827884336853028,1.5305628757202148Q11.786484336853027,1.5457223757202148,11.748484336853027,1.5678764757202148Q11.710384336853027,1.5900304757202148,11.676784336853027,1.6184966757202148Q11.643184336853027,1.646962675720215,11.615084336853027,1.6808646757202148Q11.586984336853027,1.714766675720215,11.565184336853028,1.753060675720215Q11.543484336853027,1.7913536757202149,11.528684336853027,1.8328606757202148Q11.513984336853028,1.8743666757202149,11.506784336853027,1.9178076757202147L11.131984336853026,4.166506675720215L6.1457743368530275,4.166506675720215ZM5.979104336853028,5.166506675720215L5.034604336853027,10.833506675720216L10.020814336853027,10.833506675720216L10.965314336853027,5.166506675720215L5.979104336853028,5.166506675720215Z" fill-rule="evenodd" fill="currentColor" fill-opacity="1"/></g></g></svg>