<svg xmlns="http://www.w3.org/2000/svg" xmlns:xlink="http://www.w3.org/1999/xlink" fill="currentColor" version="1.1" width="1em" height="1em" viewBox="0 0 16 16"><g><g><path d="M5.996449230422973,2.329865476837158Q5.166589230422973,3.159730476837158,5.166589230422973,4.333330476837158Q5.166589230422973,5.506940476837158,5.996449230422973,6.336800476837158Q6.826309230422973,7.166670476837158,7.999919230422973,7.166670476837158Q9.173529230422973,7.166670476837158,10.003389230422973,6.336800476837158Q10.833249230422973,5.506940476837158,10.833249230422973,4.333330476837158Q10.833249230422973,3.159730476837158,10.003389230422973,2.329865476837158Q9.173529230422973,1.5000004768371582,7.999919230422973,1.5000004768371582Q6.826309230422973,1.5000004768371582,5.996449230422973,2.329865476837158ZM6.703559230422973,5.629700476837158Q6.166589230422973,5.092730476837158,6.166589230422973,4.333330476837158Q6.166589230422973,3.573940476837158,6.703559230422973,3.0369704768371584Q7.240529230422974,2.500000476837158,7.999919230422973,2.500000476837158Q8.759309230422975,2.500000476837158,9.296279230422973,3.0369704768371584Q9.833249230422973,3.573940476837158,9.833249230422973,4.333330476837158Q9.833249230422973,5.092730476837158,9.296279230422973,5.629700476837158Q8.759309230422975,6.166670476837158,7.999919230422973,6.166670476837158Q7.240529230422974,6.166670476837158,6.703559230422973,5.629700476837158ZM3.2290092304229736,9.178380476837159Q2.3122292304229735,9.645500476837158,1.8451062304229735,10.562290476837159L1.8451052304229736,10.562290476837159Q1.6004832304229737,11.042390476837157,1.5379510304229735,11.807700476837159Q1.4999592304229736,12.272700476837159,1.4999592304229736,13.599900476837158Q1.4999592304229736,13.972700476837158,1.7635632304229736,14.236300476837158Q2.0271672304229735,14.499900476837158,2.3999592304229735,14.499900476837158L13.599959230422973,14.499900476837158Q13.972759230422973,14.499900476837158,14.236359230422973,14.236300476837158Q14.499959230422974,13.972700476837158,14.499959230422974,13.599900476837158Q14.499959230422974,12.272800476837158,14.461959230422973,11.807800476837158Q14.399459230422973,11.042400476837159,14.154859230422973,10.562300476837159Q13.687659230422973,9.645510476837158,12.770959230422974,9.178380476837159Q12.290859230422974,8.933770476837157,11.525459230422973,8.871240476837158Q11.060469230422974,8.833250476837158,9.733289230422974,8.833250476837158L6.266629230422974,8.833250476837158Q4.939449230422974,8.833250476837158,4.4744592304229736,8.871240476837158Q3.7090992304229737,8.933770476837157,3.2290092304229736,9.178380476837159ZM2.5000892304229736,13.499900476837158Q2.5055792304229736,11.468730476837159,2.736109230422974,11.016280476837158L2.736109230422974,11.016280476837158Q3.0557292304229735,10.388990476837158,3.6829792304229736,10.069390476837158Q4.146459230422973,9.833250476837158,6.266629230422974,9.833250476837158L9.733289230422974,9.833250476837158Q11.853459230422974,9.833250476837158,12.316959230422974,10.069390476837158Q12.944159230422974,10.389010476837159,13.263859230422973,11.016270476837159Q13.494359230422974,11.468720476837158,13.499859230422974,13.499900476837158L2.5000892304229736,13.499900476837158Z" fill-rule="evenodd" fill="currentColor" fill-opacity="1"/></g></g></svg>