<svg xmlns="http://www.w3.org/2000/svg" xmlns:xlink="http://www.w3.org/1999/xlink" fill="currentColor" version="1.1" width="1em" height="1em" viewBox="0 0 16 16"><g><g><path d="M14.9053,8.902366185302736Q14.9053,8.201146185302735,14.411,7.703856185302734L14.4099,7.702806185302735L8.35355,1.6464431853027344Q8.28323,1.5761161853027343,8.19134,1.5380561853027344Q8.09946,1.4999961853027344,8,1.4999961853027344L2,1.4999961853027344Q1.9507543,1.4999961853027344,1.9024549,1.5096031853027343Q1.854155,1.5192111853027344,1.8086579999999999,1.5380561853027344Q1.763161,1.5569021853027345,1.722215,1.5842611853027344Q1.681269,1.6116211853027345,1.646447,1.6464431853027344Q1.611625,1.6812651853027343,1.584265,1.7222111853027344Q1.5569060000000001,1.7631571853027344,1.53806,1.8086541853027343Q1.519215,1.8541511853027344,1.509607,1.9024510853027343Q1.5,1.9507504853027344,1.5,1.9999961853027344L1.5,7.999996185302734Q1.5,8.099516185302734,1.538108,8.191456185302734Q1.576215,8.283386185302735,1.646622,8.353726185302733L7.70263,14.403696185302735Q8.20068,14.902296185302735,8.90537,14.902296185302735Q9.61013,14.902296185302735,10.10792,14.403896185302735L14.411,10.100866185302735Q14.9053,9.603576185302735,14.9053,8.902366185302736ZM13.7018,8.408866185302735L13.7028,8.409916185302734Q13.9053,8.614376185302735,13.9053,8.902366185302736Q13.9053,9.191096185302733,13.7018,9.395856185302733L9.40081,13.696796185302734Q9.19557,13.902296185302735,8.90537,13.902296185302735Q8.6152,13.902296185302735,8.4101,13.696996185302734L2.5,7.792746185302734L2.5,2.4999961853027344L7.79289,2.4999961853027344L13.7018,8.408866185302735Z" fill-rule="evenodd" fill="currentColor" fill-opacity="1"/></g><g><path d="M6.333418046875,5.49983690625Q6.333418046875,5.58191390625,6.317398046875,5.66241290625Q6.301388046875,5.74291390625,6.269978046875,5.81874390625Q6.238568046875,5.89456390625,6.192968046875,5.96281390625Q6.147378046875,6.0310539062499995,6.089338046875,6.08909390625Q6.0312980468749995,6.14713390625,5.963058046875,6.19272390625Q5.894808046875,6.23832390625,5.818988046875,6.26973390625Q5.743158046875,6.30114390625,5.662657046875,6.31715390625Q5.582158046875,6.33317390625,5.500081046875,6.33317390625Q5.418005046875,6.33317390625,5.337506046875,6.31715390625Q5.257007046875,6.30114390625,5.181178046875,6.26973390625Q5.105350046875,6.23832390625,5.037106046875,6.19272390625Q4.9688620468749995,6.14713390625,4.910826046875,6.08909390625Q4.852789046875,6.0310539062499995,4.807190046875,5.96281390625Q4.761590946875,5.89456390625,4.730181746875,5.81874390625Q4.698772546875,5.74291390625,4.682760346875,5.66241290625Q4.666748046875,5.58191390625,4.666748046875,5.49983690625Q4.666748046875,5.41776090625,4.682760346875,5.33726190625Q4.698772546875,5.25676290625,4.730181746875,5.18093390625Q4.761590946875,5.10510590625,4.807190046875,5.03686190625Q4.852789046875,4.9686179062499995,4.910826046875,4.91058190625Q4.9688620468749995,4.85254490625,5.037106046875,4.80694590625Q5.105350046875,4.76134680625,5.181178046875,4.72993760625Q5.257007046875,4.69852840625,5.337506046875,4.68251620625Q5.418005046875,4.66650390625,5.500081046875,4.66650390625Q5.582158046875,4.66650390625,5.662657046875,4.68251620625Q5.743158046875,4.69852840625,5.818988046875,4.72993760625Q5.894808046875,4.76134680625,5.963058046875,4.80694590625Q6.0312980468749995,4.85254490625,6.089338046875,4.91058190625Q6.147378046875,4.9686179062499995,6.192968046875,5.03686190625Q6.238568046875,5.10510590625,6.269978046875,5.18093390625Q6.301388046875,5.25676290625,6.317398046875,5.33726190625Q6.333418046875,5.41776090625,6.333418046875,5.49983690625Z" fill="currentColor" fill-opacity="1"/></g></g></svg>